<svg xmlns="http://www.w3.org/2000/svg" width="16" height="16" fill="none" viewBox="0 0 16 16"><path fill="#007a3d" d="m0 2.66003h16v10.66667h-16z"/><path fill="#fff" d="m11.6171 7.84489c-.0938.10069-.2214.20052-.3828.29948-.1615.09896-.362.18924-.6016.27083-.2396.0816-.5182.15018-.83591.20573-.31771.05556-.67969.09028-1.08593.10417-.0382.10764-.07727.22309-.11719.34635-.03994.12327-.079.25781-.11719.40365h-.02604c-.01737-.01736-.03212-.03906-.04427-.06511-.01216-.02604-.02344-.06336-.03386-.11198.01736-.09722.03646-.1927.0573-.28645.02082-.09375.04339-.18924.0677-.28646-.17708 0-.34375-.02257-.5-.06771-.01042.67361-.17188 1.29167-.48437 1.85421-.34028.6145-1.05035.9218-2.13021.9218-.43403 0-.78819-.1267-1.0625-.3802-.27778-.2569-.41667-.5781-.41667-.9635 0-.40627.19098-.90453.57292-1.49481l.09896.03646c-.25695.47569-.38542.85937-.38542 1.15104 0 .15278.03733.28911.11198.40881.07465.1198.18056.2223.31771.3073.13715.0851.30555.1502.50521.1953.19965.0452.42448.0678.67448.0678.38194 0 .73611-.066 1.0625-.198.32638-.1284.5486-.2934.66666-.4948.10764-.1944.16146-.48086.16146-.85933 0-.20486-.03212-.40885-.09635-.61198-.06424-.20312-.15192-.38281-.26302-.53906l.28646-.61458c.05902.08333.11458.17448.16666.27344s.09201.18316.11979.2526c.10069.04514.20139.07639.30209.09375.10069.01736.20659.02604.31771.02604h.11979c.04166 0 .08506-.00347.13021-.01042.19096-.31597.39669-.60416.61718-.86458.22048-.26041.45052-.48784.69006-.68229.2049-.16666.4028-.29687.5938-.39063.191-.09374.3472-.14062.4687-.14062.125 0 .2448.02344.3594.07031.1146.04688.2162.10417.3047.17188s.1589.13889.2109.21354c.0521.07465.0782.14149.0782.20052 0 .14236-.0139.27257-.0417.39062-.0278.11806-.0642.22483-.1094.32032-.0451.09549-.0963.18229-.1536.26041-.0573.07813-.1155.15018-.1745.21615zm-.6615-1.15104c-.0972 0-.2196.03125-.3671.09375-.1476.0625-.3073.15191-.4792.26823-.17189.11632-.3481.26042-.52865.43229-.18056.17188-.35244.36719-.51563.58594.05902 0 .11545-.00174.16927-.00521s.11719-.00868.19011-.01563c.24999-.01736.49565-.05468.737-.11198.2413-.05729.5008-.13975.7786-.24739.2188-.08333.3958-.17101.5313-.26302.1354-.09202.2222-.16927.2604-.23177-.0417-.05903-.092-.11893-.1511-.17969-.059-.06076-.1232-.11545-.1927-.16406-.0694-.04861-.1415-.08767-.2161-.11719-.0747-.02951-.1467-.04427-.2162-.04427zm-.9322-1.73438-.36984.54688-.49479-.41667.36459-.53646z"/></svg>