<svg xmlns="http://www.w3.org/2000/svg" width="24" height="24" fill="none" viewBox="0 0 24 24"><g fill="#a0a6ba" clip-path="url(#clip0_11295_17760)"><path d="M7.052 12.781C9.177 10.973 8.387 9.5 9.343 8.715 6.751 8.407 3.056 9.426 2.307 10.545 1.558 11.665 5.799 11.92 6.523 13.09 7.143 14.094 7.016 12.916 7.052 12.781ZM14.993 16.868C14.197 19.261 11.647 22.11 10.281 22.226 8.916 22.342 10.15 18.333 9.496 17.467 8.841 16.602 13.834 17.318 14.993 16.868ZM3.95 14.562C3.457 14.736 3.068 15.077 2.576 15.25 2.01 15.694 1.408 16.272 1.085 16.915.623 17.526.264 18.303.081 18.978.044 19.113.008 19.248.008 19.248-.065 19.518.141 19.852.421 19.916.56 19.948.7 19.98.7 19.98 1.399 20.14 2.135 20.165 2.87 20.191 4.201 20.209 5.539 19.656 6.634 18.904L5.189 16.566 3.95 14.562Z"/><path d="M10.217 18.4466C10.0773 18.4146 9.8343 18.2156 9.8343 18.2156L6.53179 12.8733C6.32538 12.5394 6.39849 12.2696 6.61135 12.0318C7.35312 11.4855 8.02824 10.6373 8.52705 9.89194C8.60015 9.62213 8.84956 9.24946 9.20217 9.04374C9.59133 8.70312 9.80419 8.46535 10.0171 8.22759C10.6191 7.6492 11.3608 7.10285 12.0661 6.6914C15.7685 4.53132 21.3286 5.37628 23.5646 5.88897C23.7044 5.92101 23.9473 6.12 23.9473 6.12C24.0505 6.28695 24.014 6.42185 23.9409 6.69166C23.3561 8.85012 21.5113 14.0152 17.8089 16.1753C17.1037 16.5868 16.2587 16.9662 15.4503 17.2107C15.1342 17.2815 14.8182 17.3523 14.3258 17.526C14.0097 17.5968 13.6937 17.6676 13.3776 17.7384C12.466 17.816 11.4812 18.1633 10.6363 18.5427C10.4965 18.5107 10.3568 18.4787 10.217 18.4466ZM16.392 8.25639C14.8547 7.90392 13.268 8.82967 12.8659 10.3136C12.4638 11.7976 13.3927 13.3001 14.93 13.6525C16.4673 14.005 18.054 13.0793 18.4561 11.5953C18.7184 10.0793 17.9293 8.60886 16.392 8.25639Z"/></g><defs><clipPath id="clip0_11295_17760"><path fill="#fff" d="M0 0H24V24H0z"/></clipPath></defs></svg>