<svg xmlns="http://www.w3.org/2000/svg" width="24" height="24" fill="none" viewBox="0 0 24 24"><g fill="#fff" fill-rule="evenodd" clip-path="url(#clip0_2249_157)" clip-rule="evenodd"><path d="M6.9803 9.54448C7.20276 8.22004 8.34932 7.25 9.69232 7.25H14.3081C15.6511 7.25 16.7977 8.22004 17.0201 9.54449L18.6373 19.1724C19.8293 19.2972 20.8181 20.1879 21.0493 21.3866L21.122 21.7633C21.2707 22.5344 20.6799 23.25 19.8946 23.25H4.10587C3.32056 23.25 2.72977 22.5344 2.87848 21.7633L2.95112 21.3866C3.18231 20.1879 4.17117 19.2972 5.36317 19.1724L6.9803 9.54448ZM6.8867 19.1574H17.1137L15.5409 9.79295C15.4398 9.19093 14.9186 8.75 14.3081 8.75H9.69232C9.08186 8.75 8.5607 9.19093 8.45958 9.79295L6.8867 19.1574ZM18.3491 20.6574H5.65137C5.05228 20.6574 4.53743 21.0825 4.42398 21.6707L4.40869 21.75H19.5918L19.5765 21.6707C19.463 21.0825 18.9482 20.6574 18.3491 20.6574Z"/><path d="M7.712 9.657 6 19.5H18L16.288 9.657C16.122 8.699 15.29 8 14.318 8H9.682C8.71 8 7.878 8.699 7.712 9.657ZM12.75 12C12.75 11.586 12.414 11.25 12 11.25 11.586 11.25 11.25 11.586 11.25 12V17.5H12.75V12ZM12 .5C12.414.5 12.75.836 12.75 1.25V4.75C12.75 5.164 12.414 5.5 12 5.5 11.586 5.5 11.25 5.164 11.25 4.75V1.25C11.25.836 11.586.5 12 .5ZM18.75 13.25C18.75 12.836 19.086 12.5 19.5 12.5H23C23.414 12.5 23.75 12.836 23.75 13.25 23.75 13.664 23.414 14 23 14H19.5C19.086 14 18.75 13.664 18.75 13.25ZM21.53 3.47C21.823 3.763 21.823 4.237 21.53 4.53L19.03 7.03C18.737 7.323 18.263 7.323 17.97 7.03 17.677 6.737 17.677 6.263 17.97 5.97L20.47 3.47C20.763 3.177 21.237 3.177 21.53 3.47ZM2.47 3.47C2.177 3.763 2.177 4.237 2.47 4.53L4.97 7.03C5.263 7.323 5.737 7.323 6.03 7.03 6.323 6.737 6.323 6.263 6.03 5.97L3.53 3.47C3.237 3.177 2.763 3.177 2.47 3.47ZM.25 13.25C.25 12.836.586 12.5 1 12.5H4.5C4.914 12.5 5.25 12.836 5.25 13.25 5.25 13.664 4.914 14 4.5 14H1C.586 14 .25 13.664.25 13.25Z"/></g><defs><clipPath id="clip0_2249_157"><path fill="#fff" d="M0 0H24V24H0z"/></clipPath></defs></svg>