<svg xmlns="http://www.w3.org/2000/svg" width="24" height="24" fill="none" viewBox="0 0 24 24"><g fill="#fff" fill-rule="evenodd" clip-path="url(#clip0_2249_114)" clip-rule="evenodd"><path d="M6.98001 9.54448C7.20247 8.22004 8.34902 7.25 9.69202 7.25H14.3078C15.6508 7.25 16.7974 8.22004 17.0199 9.54449L18.6375 19.1755C19.833 19.3132 20.8167 20.2214 21.0294 21.431L21.1354 22.0335C21.27 22.7987 20.6813 23.5 19.9043 23.5H4.09555C3.31859 23.5 2.72986 22.7987 2.86445 22.0335L2.97042 21.431C3.18318 20.2214 4.16685 19.3132 5.36235 19.1755L6.98001 9.54448ZM6.88641 19.1574H17.1135L15.5406 9.79295C15.4395 9.19093 14.9183 8.75 14.3078 8.75H9.69202C9.08157 8.75 8.56041 9.19093 8.45929 9.79295L6.88641 19.1574ZM18.321 20.6574H5.67884C5.07203 20.6574 4.55287 21.0932 4.44774 21.6909L4.39337 22H19.6065L19.5521 21.6909C19.447 21.0932 18.9278 20.6574 18.321 20.6574Z"/><path d="M12 11.25C12.414 11.25 12.75 11.586 12.75 12V17.5H11.25V12C11.25 11.586 11.586 11.25 12 11.25ZM12 .5C12.414.5 12.75.836 12.75 1.25V4.75C12.75 5.164 12.414 5.5 12 5.5 11.586 5.5 11.25 5.164 11.25 4.75V1.25C11.25.836 11.586.5 12 .5ZM18.75 13.25C18.75 12.836 19.086 12.5 19.5 12.5H23C23.414 12.5 23.75 12.836 23.75 13.25 23.75 13.664 23.414 14 23 14H19.5C19.086 14 18.75 13.664 18.75 13.25ZM21.53 3.47C21.823 3.763 21.823 4.237 21.53 4.53L19.03 7.03C18.737 7.323 18.263 7.323 17.97 7.03 17.677 6.737 17.677 6.263 17.97 5.97L20.47 3.47C20.763 3.177 21.237 3.177 21.53 3.47ZM2.47 3.47C2.177 3.763 2.177 4.237 2.47 4.53L4.97 7.03C5.263 7.323 5.737 7.323 6.03 7.03 6.323 6.737 6.323 6.263 6.03 5.97L3.53 3.47C3.237 3.177 2.763 3.177 2.47 3.47ZM.25 13.25C.25 12.836.586 12.5 1 12.5H4.5C4.914 12.5 5.25 12.836 5.25 13.25 5.25 13.664 4.914 14 4.5 14H1C.586 14 .25 13.664.25 13.25Z"/></g><defs><clipPath id="clip0_2249_114"><path fill="#fff" d="M0 0H24V24H0z"/></clipPath></defs></svg>