<svg xmlns="http://www.w3.org/2000/svg" width="241" height="120" fill="none" viewBox="0 0 241 120"><g clip-path="url(#clip0_9324_14444)"><path fill="#dbe2f9" stroke="#757896" stroke-linecap="round" stroke-linejoin="round" d="M16.25 89.6714V57.3714C16.25 56.0414 17.13 54.9214 18.34 54.5614C18.6 54.4814 18.88 54.4414 19.17 54.4414H72.78C73.07 54.4414 73.35 54.4814 73.61 54.5614C74.82 54.9214 75.7 56.0414 75.7 57.3714V89.6714C75.7 90.3614 75.46 90.9914 75.06 91.4914C74.52 92.1614 73.7 92.5914 72.77 92.5914H19.18C18.25 92.5914 17.43 92.1614 16.89 91.4914C16.84 91.4314 16.79 91.3614 16.75 91.3014C16.7 91.2314 16.66 91.1614 16.62 91.0914C16.59 91.0414 16.57 90.9914 16.54 90.9314C16.53 90.9114 16.52 90.8914 16.51 90.8714C16.48 90.8114 16.45 90.7414 16.43 90.6814C16.39 90.5914 16.36 90.5014 16.34 90.4014C16.32 90.3314 16.31 90.2514 16.29 90.1714C16.28 90.0914 16.26 90.0114 16.26 89.9314V89.9114C16.26 89.8314 16.25 89.7514 16.25 89.6714Z"/><path fill="#dbe2f9" stroke="#757896" stroke-linecap="round" stroke-linejoin="round" d="M38.1602 54.4531H72.7902C74.4102 54.4531 75.7202 55.7631 75.7202 57.3831V89.6831C75.7202 90.3731 75.4802 91.0031 75.0802 91.5031L38.1602 54.4531Z"/><path fill="#dbe2f9" stroke="#757896" stroke-linecap="round" stroke-linejoin="round" d="M16.25 89.6714V57.3714C16.25 56.0414 17.13 54.9214 18.34 54.5614C18.6 54.4814 18.88 54.4414 19.17 54.4414H53.8L36.41 71.8914L16.89 91.5014C16.84 91.4414 16.79 91.3714 16.75 91.3114C16.7 91.2414 16.66 91.1714 16.62 91.1014C16.59 91.0514 16.57 91.0014 16.54 90.9414C16.53 90.9214 16.52 90.9014 16.51 90.8814C16.48 90.8214 16.45 90.7514 16.43 90.6914C16.39 90.6014 16.36 90.5114 16.34 90.4114C16.32 90.3414 16.31 90.2614 16.29 90.1814C16.28 90.1014 16.26 90.0214 16.26 89.9414V89.9214C16.26 89.8414 16.25 89.7614 16.25 89.6814V89.6714Z"/><path fill="#dbe2f9" stroke="#757896" stroke-linecap="round" stroke-linejoin="round" d="M18.3398 54.5731C18.5998 54.4931 18.8798 54.4531 19.1698 54.4531H72.7798C73.0698 54.4531 73.3498 54.4931 73.6098 54.5731L47.7298 79.4031C46.7498 80.3431 45.1998 80.3431 44.2198 79.4031L36.4098 71.9131L18.3398 54.5731Z"/><path fill="#fff" stroke="#757896" stroke-linecap="round" stroke-linejoin="round" d="M175.66 15.3516H71.4097C69.0735 15.3516 67.1797 17.2454 67.1797 19.5816V102.072C67.1797 104.408 69.0735 106.302 71.4097 106.302H175.66C177.996 106.302 179.89 104.408 179.89 102.072V19.5816C179.89 17.2454 177.996 15.3516 175.66 15.3516Z"/><path stroke="#757896" stroke-linecap="round" stroke-linejoin="round" d="M105.86 85.164H83.02M164.038 85.172H110.648M141.199 92.844H164.039M83.02 92.844H136.41M152.431 77.492H94.621"/><path fill="#6e7191" d="M158.23 33.651V20.981H161.14V33.651H158.23ZM163.602 33.651V20.981H167.752C169.092 20.981 170.282 21.251 171.312 21.791 172.342 22.331 173.152 23.081 173.732 24.031 174.312 24.981 174.602 26.071 174.602 27.321 174.602 28.571 174.312 29.641 173.732 30.601 173.152 31.551 172.352 32.301 171.312 32.841 170.282 33.381 169.092 33.651 167.752 33.651H163.602ZM166.522 30.891H167.752C168.302 30.891 168.822 30.801 169.292 30.631 169.762 30.461 170.172 30.211 170.522 29.891 170.872 29.571 171.142 29.191 171.332 28.751 171.522 28.311 171.622 27.831 171.622 27.311 171.622 26.791 171.522 26.311 171.332 25.871 171.142 25.431 170.862 25.051 170.522 24.731 170.172 24.411 169.762 24.161 169.292 23.991 168.822 23.811 168.312 23.731 167.752 23.731H166.522V30.901 30.891Z"/><path fill="#dbe2f9" fill-rule="evenodd" d="M142.91 48.4523C142.91 53.8223 140.77 58.6923 137.3 62.2623C136.77 62.8123 136.21 63.3223 135.62 63.8023C135.29 64.0723 134.96 64.3223 134.61 64.5723C134.21 64.8523 133.8 65.1223 133.37 65.3823C130.57 67.0823 127.31 68.1123 123.82 68.2323C123.59 68.2323 123.35 68.2423 123.12 68.2423C122.89 68.2423 122.65 68.2423 122.42 68.2323C118.94 68.1123 115.68 67.0923 112.87 65.3823C112.45 65.1223 112.04 64.8523 111.64 64.5723C111.29 64.3223 110.95 64.0623 110.62 63.7923C110.03 63.3123 109.47 62.8023 108.94 62.2523C105.47 58.6923 103.34 53.8323 103.34 48.4523C103.34 37.5223 112.2 28.6523 123.13 28.6523C134.06 28.6523 142.92 37.5223 142.92 48.4523H142.91Z" clip-rule="evenodd"/><path fill="#6e7191" d="M123.119 51.524C127.493 51.524 131.039 47.978 131.039 43.604 131.039 39.23 127.493 35.684 123.119 35.684 118.745 35.684 115.199 39.23 115.199 43.604 115.199 47.978 118.745 51.524 123.119 51.524ZM137.29 62.263C136.76 62.813 136.2 63.323 135.61 63.803 135.28 64.073 134.95 64.323 134.6 64.573 134.2 64.853 133.79 65.123 133.36 65.383 130.56 67.083 127.3 68.113 123.81 68.233 123.58 68.233 123.34 68.243 123.11 68.243 122.88 68.243 122.64 68.243 122.41 68.233 118.93 68.113 115.67 67.093 112.86 65.383 112.44 65.123 112.03 64.853 111.63 64.573 111.28 64.323 110.94 64.063 110.61 63.793 110.02 63.313 109.46 62.803 108.93 62.253 109.21 61.613 109.56 60.913 109.99 60.163 113.1 54.703 117.58 54.703 123.11 54.703 128.64 54.703 133.13 54.703 136.23 60.163 136.66 60.913 137.01 61.613 137.28 62.263H137.29Z"/><path fill="#fff" stroke="#757896" stroke-linecap="round" stroke-linejoin="round" d="M76.881 65.71H76.841C76.781 65.71 76.731 65.71 76.651 65.69C73.261 65.27 55.781 57.38 53.761 35.93C53.211 30.04 53.551 17.26 53.731 14.93C53.831 13.59 54.751 12.53 56.011 12.1L73.161 6.35C74.371 5.94 75.621 5.75 76.871 5.75C78.121 5.75 79.381 5.94 80.581 6.35L97.721 12.1C98.981 12.53 99.901 13.59 100.001 14.93C100.181 17.26 100.531 30.05 99.971 35.93C97.691 57.35 80.461 65.26 77.081 65.69C77.011 65.69 76.951 65.71 76.891 65.71H76.881Z"/><path fill="#dbe2f9" fill-rule="evenodd" d="M95.2097 35.6392C94.2497 44.6092 90.1797 50.6892 86.0397 54.5992C83.9497 56.5492 81.8397 57.9492 80.0997 58.8892C78.4597 59.7692 77.3097 60.1292 76.8697 60.2392C76.4297 60.1392 75.2697 59.7592 73.6397 58.8892C71.9097 57.9592 69.7897 56.5592 67.7097 54.5992C63.5597 50.6892 59.4897 44.6092 58.5397 35.6392C57.9897 30.5992 58.3497 19.1392 58.5197 17.1392C58.5197 17.0592 58.5397 17.0192 58.5997 16.9592C58.6397 16.9192 58.7197 16.8392 58.8597 16.7992L74.3297 11.5992C75.1497 11.3392 75.9897 11.1992 76.8397 11.1992H76.8797C77.7397 11.1992 78.5797 11.3392 79.4097 11.5992L94.8797 16.7992C95.0197 16.8392 95.0997 16.9192 95.1397 16.9592C95.1797 17.0192 95.1997 17.0592 95.2197 17.1392C95.2997 18.3792 95.6197 30.5392 95.2197 35.6392H95.2097Z" clip-rule="evenodd"/><path stroke="#757896" stroke-linecap="round" stroke-linejoin="round" d="M67.1797 31.4191L74.3097 40.2891L88.4397 24.2891"/><path fill="#dbe2f9" stroke="#757896" stroke-linecap="round" stroke-linejoin="round" d="M166.128 74.6317L173.208 74.5817L173.118 61.1517C173.078 54.2917 178.618 48.6617 185.488 48.6217C192.348 48.5817 197.978 54.1217 198.018 60.9917L198.108 74.4217L205.188 74.3717L205.098 60.9417C205.028 50.1717 196.208 41.4617 185.438 41.5317C174.668 41.6017 165.958 50.4217 166.028 61.1917L166.118 74.6217L166.128 74.6317Z"/><path fill="#fff" stroke="#757896" stroke-linecap="round" stroke-linejoin="round" d="M163.869 113.443L207.949 113.153C211.579 113.133 214.489 110.173 214.469 106.543L214.269 75.2232C214.249 71.5932 211.289 68.6832 207.659 68.7032L163.579 68.9932C159.949 69.0132 157.039 71.9732 157.059 75.6032L157.259 106.923C157.279 110.553 160.239 113.463 163.869 113.443Z"/><path fill="#abb6db" d="M191.298 88.4617C191.308 90.4617 190.278 92.2417 188.698 93.2517L188.718 96.2517C188.728 97.9217 187.388 99.2817 185.718 99.2917C184.058 99.3017 182.698 97.9617 182.688 96.2917L182.668 93.2917C181.078 92.3017 180.018 90.5417 180.008 88.5317C179.988 85.4117 182.498 82.8717 185.618 82.8517C188.738 82.8317 191.278 85.3417 191.298 88.4617Z"/></g><defs><clipPath id="clip0_9324_14444"><path fill="#fff" d="M0 0H199.72V109.19H0z" transform="translate(15.5 5)"/></clipPath></defs></svg>