<svg xmlns="http://www.w3.org/2000/svg" width="24" height="24" fill="none" viewBox="0 0 24 24"><g stroke="#fff" stroke-linecap="round" stroke-linejoin="round" stroke-width="1.5" clip-path="url(#clip0_9550_12475)"><path d="M2 9.625C2 8.92881 2.28095 8.26113 2.78105 7.76884C3.28115 7.27656 3.95942 7 4.66667 7H15.3333C16.0406 7 16.7189 7.27656 17.219 7.76884C17.719 8.26113 18 8.92881 18 9.625V18.375C18 19.0712 17.719 19.7389 17.219 20.2312C16.7189 20.7234 16.0406 21 15.3333 21H4.66667C3.95942 21 3.28115 20.7234 2.78105 20.2312C2.28095 19.7389 2 19.0712 2 18.375V9.625Z"/><path d="M18.667 17H19.333C20.041 17 20.719 16.723 21.219 16.231 21.719 15.739 22 15.071 22 14.375V5.625C22 4.929 21.719 4.261 21.219 3.769 20.719 3.277 20.041 3 19.333 3H8.667C7.959 3 7.281 3.277 6.781 3.769 6.281 4.261 6 4.929 6 5.625V7M5 12C5 12.53 5.211 13.039 5.586 13.414 5.961 13.789 6.47 14 7 14 7.53 14 8.039 13.789 8.414 13.414 8.789 13.039 9 12.53 9 12 9 11.47 8.789 10.961 8.414 10.586 8.039 10.211 7.53 10 7 10 6.47 10 5.961 10.211 5.586 10.586 5.211 10.961 5 11.47 5 12ZM12 10H14M12 14H14M5 18H15"/></g><defs><clipPath id="clip0_9550_12475"><path fill="#fff" d="M0 0H24V24H0z"/></clipPath></defs></svg>