<svg xmlns="http://www.w3.org/2000/svg" width="24" height="24" fill="none" viewBox="0 0 24 24"><g clip-path="url(#clip0_9550_12719)"><path stroke="#fff" stroke-linecap="round" stroke-linejoin="round" stroke-width="1.5" d="M18.6667 17H19.3333C20.0406 17 20.7189 16.7234 21.219 16.2312C21.719 15.7389 22 15.0712 22 14.375V5.625C22 4.92881 21.719 4.26113 21.219 3.76884C20.7189 3.27656 20.0406 3 19.3333 3H8.66667C7.95942 3 7.28115 3.27656 6.78105 3.76884C6.28095 4.26113 6 4.92881 6 5.625V7"/><path fill="#fff" fill-rule="evenodd" d="M2.25491 7.23436C2.89654 6.60276 3.76429 6.25 4.66667 6.25H15.3333C16.2357 6.25 17.1035 6.60276 17.7451 7.23436C18.3871 7.86635 18.75 8.72605 18.75 9.625V18.375C18.75 19.274 18.3871 20.1337 17.7451 20.7656C17.1035 21.3972 16.2357 21.75 15.3333 21.75H4.66667C3.76429 21.75 2.89654 21.3972 2.25491 20.7656C1.61289 20.1337 1.25 19.274 1.25 18.375V9.625C1.25 8.72605 1.61289 7.86635 2.25491 7.23436ZM9.25 10C9.25 9.58579 9.58579 9.25 10 9.25H15C15.4142 9.25 15.75 9.58579 15.75 10C15.75 10.4142 15.4142 10.75 15 10.75H10C9.58579 10.75 9.25 10.4142 9.25 10ZM10 13.25C9.58579 13.25 9.25 13.5858 9.25 14C9.25 14.4142 9.58579 14.75 10 14.75H15C15.4142 14.75 15.75 14.4142 15.75 14C15.75 13.5858 15.4142 13.25 15 13.25H10ZM3.25 18C3.25 17.5858 3.58579 17.25 4 17.25H15C15.4142 17.25 15.75 17.5858 15.75 18C15.75 18.4142 15.4142 18.75 15 18.75H4C3.58579 18.75 3.25 18.4142 3.25 18ZM3.90901 13.341C3.48705 12.919 3.25 12.3467 3.25 11.75C3.25 11.1533 3.48705 10.581 3.90901 10.159C4.33097 9.73705 4.90326 9.5 5.5 9.5C6.09674 9.5 6.66903 9.73705 7.09099 10.159C7.51295 10.581 7.75 11.1533 7.75 11.75C7.75 12.3467 7.51295 12.919 7.09099 13.341C6.66903 13.7629 6.09674 14 5.5 14C4.90326 14 4.33097 13.7629 3.90901 13.341Z" clip-rule="evenodd"/></g><defs><clipPath id="clip0_9550_12719"><path fill="#fff" d="M0 0H24V24H0z"/></clipPath></defs></svg>