<svg xmlns="http://www.w3.org/2000/svg" width="241" height="120" fill="none" viewBox="0 0 241 120"><mask id="mask0_2255_8" width="240" height="120" x="1" y="0" maskUnits="userSpaceOnUse" style="mask-type:alpha"><path fill="#d9d9d9" d="M1 0H241V120H1z"/></mask><g mask="url(#mask0_2255_8)"><path fill="#dbe2f9" stroke="#6e7191" stroke-miterlimit="10" d="M174.666 114.89H69.4961V49.1686C69.4961 47.4185 70.9146 46 72.6647 46H171.498C173.248 46 174.666 47.4185 174.666 49.1686V114.89Z"/><path fill="#fff" stroke="#6e7191" stroke-miterlimit="10" d="M170.939 111.883H73.7734V49.9206C73.7734 49.468 74.1414 49.1 74.594 49.1H170.12C170.573 49.1 170.941 49.468 170.941 49.9206V111.883H170.939Z"/><path fill="#4dadea" d="M114.074 86.78 120.851 87.714V81.246H114.074V86.78ZM114.074 80.411H120.851V73.863L114.074 74.797V80.411ZM121.598 87.813 130.609 89.055V81.246 81.246H121.598V87.813ZM121.598 73.764V80.411H130.609V72.522L121.598 73.764Z"/><path fill="#dbe2f9" stroke="#6e7191" stroke-miterlimit="10" d="M182.042 119.579H62.4285C61.5377 119.579 60.8164 118.857 60.8164 117.967V114.89H183.652V117.967C183.652 118.857 182.931 119.579 182.042 119.579Z"/><path fill="#6e7191" d="M132.323 116.151H112.145V117.236H132.323V116.151Z"/><path fill="#f5f8ff" stroke="#6e7191" stroke-miterlimit="10" d="M76.3206 119.475C66.0669 114.048 59.6523 103.395 59.6523 91.7927V85.1603L76.3206 77.3176L92.9888 85.1603V91.7927C92.9888 103.395 86.5742 114.048 76.3206 119.475Z"/><path fill="#6e7191" d="M78.943 96.59C78.943 95.283 77.864 94.222 76.532 94.222 75.201 94.222 74.121 95.283 74.121 96.59 74.121 97.339 74.475 98.004 75.027 98.439L74.375 102.489H78.731L78.073 98.411C78.607 97.976 78.943 97.322 78.943 96.59ZM154.719 79.372H155.064V74.783H154.719C154.528 74.783 154.375 74.918 154.375 75.083V79.07C154.375 79.237 154.528 79.372 154.719 79.372ZM154.719 85.69H155.064V81.101H154.719C154.528 81.101 154.375 81.236 154.375 81.401V85.387C154.372 85.554 154.528 85.69 154.719 85.69Z"/><path fill="#fff" stroke="#6e7191" stroke-linecap="round" stroke-linejoin="round" stroke-miterlimit="10" d="M157.695 114.2H180.681C181.944 114.2 182.966 113.091 182.966 111.727V61.5623C182.966 60.1951 181.941 59.0889 180.681 59.0889H157.695C156.432 59.0889 155.41 60.1977 155.41 61.5623V111.727C155.408 113.094 156.432 114.2 157.695 114.2Z"/><circle cx="166.946" cy="62.0167" r="0.516667" fill="#6e7191"/><rect width="4.47778" height="1.03333" x="168.152" y="61.5" fill="#6e7191" rx="0.516667"/><path fill="#78c257" d="M171.713 85.267H167.12C166.993 85.267 166.891 85.37 166.891 85.497V89.171C166.891 89.725 167.286 90.189 167.809 90.296V91.467C167.809 91.847 168.118 92.156 168.498 92.156 168.878 92.156 169.187 91.847 169.187 91.467V90.319H169.646V91.467C169.646 91.847 169.955 92.156 170.335 92.156 170.715 92.156 171.024 91.847 171.024 91.467V90.296C171.547 90.189 171.942 89.725 171.942 89.171V85.497C171.942 85.37 171.839 85.267 171.713 85.267ZM170.618 82.357 171.005 81.454C171.055 81.337 171.001 81.203 170.885 81.152 170.769 81.102 170.633 81.156 170.583 81.273L170.196 82.177C169.95 82.097 169.689 82.053 169.417 82.053 169.145 82.053 168.883 82.097 168.637 82.177L168.249 81.273C168.2 81.156 168.063 81.101 167.948 81.152 167.832 81.203 167.778 81.338 167.828 81.454L168.215 82.357C167.427 82.785 166.891 83.62 166.891 84.578 166.891 84.705 166.993 84.808 167.12 84.808H171.713C171.839 84.808 171.942 84.705 171.942 84.578 171.942 83.62 171.406 82.785 170.618 82.357ZM168.498 83.889C168.371 83.889 168.268 83.787 168.268 83.66 168.268 83.533 168.371 83.43 168.498 83.43 168.625 83.43 168.728 83.533 168.728 83.66 168.728 83.787 168.625 83.889 168.498 83.889ZM170.335 83.889C170.208 83.889 170.105 83.787 170.105 83.66 170.105 83.533 170.208 83.43 170.335 83.43 170.462 83.43 170.564 83.533 170.564 83.66 170.564 83.787 170.462 83.889 170.335 83.889ZM173.091 85.267C172.711 85.267 172.402 85.576 172.402 85.956V88.252C172.402 88.632 172.711 88.941 173.091 88.941 173.471 88.941 173.78 88.632 173.78 88.252V85.956C173.78 85.576 173.471 85.267 173.091 85.267ZM165.744 85.267C165.364 85.267 165.055 85.576 165.055 85.956V88.252C165.055 88.632 165.364 88.941 165.744 88.941 166.123 88.941 166.432 88.632 166.432 88.252V85.956C166.432 85.576 166.123 85.267 165.744 85.267Z"/><path stroke="#3b5fca" stroke-miterlimit="10" d="M47.6297 113.52C44.1857 105.168 42.0843 96.1004 41.6055 86.5694C39.3292 41.5091 74.1519 3.14245 119.383 0.874674C164.615 -1.3931 203.127 33.2979 205.395 78.3583C205.628 82.9848 205.47 87.5408 204.95 91.9945"/><path fill="url(#paint0_linear_2255_8)" d="M123.5 162.36C168.787 162.36 205.5 126.014 205.5 81.1799C205.5 36.3455 168.787 -6.10352e-05 123.5 -6.10352e-05C78.2127 -6.10352e-05 41.5 36.3455 41.5 81.1799C41.5 126.014 78.2127 162.36 123.5 162.36Z" opacity="0.4"/></g><defs><linearGradient id="paint0_linear_2255_8" x1="130.223" x2="112.242" y1="140.303" y2="-21.0932" gradientUnits="userSpaceOnUse"><stop stop-color="#fff" stop-opacity="0"/><stop offset="0.4085" stop-color="#e0e6fa" stop-opacity="0.4085"/><stop offset="0.7603" stop-color="#ccd7f7" stop-opacity="0.7603"/><stop offset="1" stop-color="#c5d1f6"/></linearGradient></defs></svg>