<svg xmlns="http://www.w3.org/2000/svg" width="141" height="143" fill="none" viewBox="0 0 141 143"><g filter="url(#filter0_f_12293_8306)"><path fill="#fff" fill-opacity="0.1" d="M130 43L128.753 48.7527L123 50L128.753 51.2473L130 57L131.247 51.2473L137 50L131.247 48.7527L130 43Z"/></g><g filter="url(#filter1_f_12293_8306)"><path fill="#fff" fill-opacity="0.1" d="M54 1L52.7527 6.75266L47 8L52.7527 9.24734L54 15L55.2473 9.24734L61 8L55.2473 6.75266L54 1Z"/></g><g filter="url(#filter2_f_12293_8306)"><circle cx="1" cy="1" r="1" fill="#fff" fill-opacity="0.1" transform="matrix(-1 0 0 1 90 42)"/></g><g filter="url(#filter3_f_12293_8306)"><circle cx="1" cy="1" r="1" fill="#fff" fill-opacity="0.1" transform="matrix(-1 0 0 1 132 75)"/></g><g filter="url(#filter4_f_12293_8306)"><circle cx="1" cy="1" r="1" fill="#fff" fill-opacity="0.1" transform="matrix(-1 0 0 1 126 71)"/></g><g filter="url(#filter5_f_12293_8306)"><circle cx="1" cy="1" r="1" fill="#fff" fill-opacity="0.1" transform="matrix(-1 0 0 1 137 66)"/></g><g filter="url(#filter6_f_12293_8306)"><circle cx="1" cy="1" r="1" fill="#fff" fill-opacity="0.1" transform="matrix(-1 0 0 1 10 20)"/></g><g filter="url(#filter7_f_12293_8306)"><circle cx="1" cy="1" r="1" fill="#fff" fill-opacity="0.1" transform="matrix(-1 0 0 1 33 36)"/></g><g filter="url(#filter8_f_12293_8306)"><circle cx="1" cy="1" r="1" fill="#fff" fill-opacity="0.1" transform="matrix(-1 0 0 1 108 140)"/></g><g filter="url(#filter9_f_12293_8306)"><circle cx="1" cy="1" r="1" fill="#fff" fill-opacity="0.1" transform="matrix(-1 0 0 1 140 13)"/></g><g filter="url(#filter10_f_12293_8306)"><circle cx="1" cy="1" r="1" fill="#fff" fill-opacity="0.1" transform="matrix(-1 0 0 1 62 101)"/></g><g filter="url(#filter11_f_12293_8306)"><circle cx="1" cy="1" r="1" fill="#fff" fill-opacity="0.1" transform="matrix(-1 0 0 1 3 114)"/></g><g filter="url(#filter12_f_12293_8306)"><circle cx="1" cy="1" r="1" fill="#fff" fill-opacity="0.1" transform="matrix(-1 0 0 1 80 34)"/></g><g filter="url(#filter13_f_12293_8306)"><circle cx="1" cy="1" r="1" fill="#fff" fill-opacity="0.1" transform="matrix(-1 0 0 1 99 1)"/></g><defs><filter id="filter0_f_12293_8306" width="16" height="16" x="122" y="42" color-interpolation-filters="sRGB" filterUnits="userSpaceOnUse"><feFlood flood-opacity="0" result="BackgroundImageFix"/><feBlend in="SourceGraphic" in2="BackgroundImageFix" result="shape"/><feGaussianBlur result="effect1_foregroundBlur_12293_8306" stdDeviation="0.5"/></filter><filter id="filter1_f_12293_8306" width="16" height="16" x="46" y="0" color-interpolation-filters="sRGB" filterUnits="userSpaceOnUse"><feFlood flood-opacity="0" result="BackgroundImageFix"/><feBlend in="SourceGraphic" in2="BackgroundImageFix" result="shape"/><feGaussianBlur result="effect1_foregroundBlur_12293_8306" stdDeviation="0.5"/></filter><filter id="filter2_f_12293_8306" width="4" height="4" x="87" y="41" color-interpolation-filters="sRGB" filterUnits="userSpaceOnUse"><feFlood flood-opacity="0" result="BackgroundImageFix"/><feBlend in="SourceGraphic" in2="BackgroundImageFix" result="shape"/><feGaussianBlur result="effect1_foregroundBlur_12293_8306" stdDeviation="0.5"/></filter><filter id="filter3_f_12293_8306" width="4" height="4" x="129" y="74" color-interpolation-filters="sRGB" filterUnits="userSpaceOnUse"><feFlood flood-opacity="0" result="BackgroundImageFix"/><feBlend in="SourceGraphic" in2="BackgroundImageFix" result="shape"/><feGaussianBlur result="effect1_foregroundBlur_12293_8306" stdDeviation="0.5"/></filter><filter id="filter4_f_12293_8306" width="4" height="4" x="123" y="70" color-interpolation-filters="sRGB" filterUnits="userSpaceOnUse"><feFlood flood-opacity="0" result="BackgroundImageFix"/><feBlend in="SourceGraphic" in2="BackgroundImageFix" result="shape"/><feGaussianBlur result="effect1_foregroundBlur_12293_8306" stdDeviation="0.5"/></filter><filter id="filter5_f_12293_8306" width="4" height="4" x="134" y="65" color-interpolation-filters="sRGB" filterUnits="userSpaceOnUse"><feFlood flood-opacity="0" result="BackgroundImageFix"/><feBlend in="SourceGraphic" in2="BackgroundImageFix" result="shape"/><feGaussianBlur result="effect1_foregroundBlur_12293_8306" stdDeviation="0.5"/></filter><filter id="filter6_f_12293_8306" width="4" height="4" x="7" y="19" color-interpolation-filters="sRGB" filterUnits="userSpaceOnUse"><feFlood flood-opacity="0" result="BackgroundImageFix"/><feBlend in="SourceGraphic" in2="BackgroundImageFix" result="shape"/><feGaussianBlur result="effect1_foregroundBlur_12293_8306" stdDeviation="0.5"/></filter><filter id="filter7_f_12293_8306" width="4" height="4" x="30" y="35" color-interpolation-filters="sRGB" filterUnits="userSpaceOnUse"><feFlood flood-opacity="0" result="BackgroundImageFix"/><feBlend in="SourceGraphic" in2="BackgroundImageFix" result="shape"/><feGaussianBlur result="effect1_foregroundBlur_12293_8306" stdDeviation="0.5"/></filter><filter id="filter8_f_12293_8306" width="4" height="4" x="105" y="139" color-interpolation-filters="sRGB" filterUnits="userSpaceOnUse"><feFlood flood-opacity="0" result="BackgroundImageFix"/><feBlend in="SourceGraphic" in2="BackgroundImageFix" result="shape"/><feGaussianBlur result="effect1_foregroundBlur_12293_8306" stdDeviation="0.5"/></filter><filter id="filter9_f_12293_8306" width="4" height="4" x="137" y="12" color-interpolation-filters="sRGB" filterUnits="userSpaceOnUse"><feFlood flood-opacity="0" result="BackgroundImageFix"/><feBlend in="SourceGraphic" in2="BackgroundImageFix" result="shape"/><feGaussianBlur result="effect1_foregroundBlur_12293_8306" stdDeviation="0.5"/></filter><filter id="filter10_f_12293_8306" width="4" height="4" x="59" y="100" color-interpolation-filters="sRGB" filterUnits="userSpaceOnUse"><feFlood flood-opacity="0" result="BackgroundImageFix"/><feBlend in="SourceGraphic" in2="BackgroundImageFix" result="shape"/><feGaussianBlur result="effect1_foregroundBlur_12293_8306" stdDeviation="0.5"/></filter><filter id="filter11_f_12293_8306" width="4" height="4" x="0" y="113" color-interpolation-filters="sRGB" filterUnits="userSpaceOnUse"><feFlood flood-opacity="0" result="BackgroundImageFix"/><feBlend in="SourceGraphic" in2="BackgroundImageFix" result="shape"/><feGaussianBlur result="effect1_foregroundBlur_12293_8306" stdDeviation="0.5"/></filter><filter id="filter12_f_12293_8306" width="4" height="4" x="77" y="33" color-interpolation-filters="sRGB" filterUnits="userSpaceOnUse"><feFlood flood-opacity="0" result="BackgroundImageFix"/><feBlend in="SourceGraphic" in2="BackgroundImageFix" result="shape"/><feGaussianBlur result="effect1_foregroundBlur_12293_8306" stdDeviation="0.5"/></filter><filter id="filter13_f_12293_8306" width="4" height="4" x="96" y="0" color-interpolation-filters="sRGB" filterUnits="userSpaceOnUse"><feFlood flood-opacity="0" result="BackgroundImageFix"/><feBlend in="SourceGraphic" in2="BackgroundImageFix" result="shape"/><feGaussianBlur result="effect1_foregroundBlur_12293_8306" stdDeviation="0.5"/></filter></defs></svg>