<svg xmlns="http://www.w3.org/2000/svg" width="241" height="120" fill="none" viewBox="0 0 241 120"><g clip-path="url(#clip0_9320_13206)"><path fill="#abb6db" stroke="#4d4b66" stroke-linecap="round" stroke-linejoin="round" d="M96.9727 96.6641L101.54 116.545H143.441L138.88 96.6641H96.9727Z"/><path fill="#abb6db" stroke="#4d4b66" stroke-linecap="round" stroke-linejoin="round" d="M90.5057 119.974C90.4143 119.737 90.4062 119.609 90.4062 119.347C90.4062 117.802 92.121 116.543 94.2219 116.543H148.064C149.111 116.543 150.067 116.858 150.762 117.364C151.451 117.874 151.88 118.578 151.88 119.347C151.88 119.609 151.865 119.76 151.774 119.998L90.5057 119.974Z"/><path fill="#abb6db" stroke="#4d4b66" stroke-linecap="round" stroke-linejoin="round" d="M139.799 116.544H97.8941L93.3301 96.666H135.234L139.799 116.544Z"/><path fill="#dbe2f9" stroke="#4d4b66" stroke-linecap="round" stroke-linejoin="round" d="M86.8651 119.974C86.7737 119.737 86.7656 119.609 86.7656 119.347C86.7656 117.802 88.4804 116.543 90.5813 116.543H144.424C145.47 116.543 146.426 116.858 147.121 117.364C147.81 117.874 148.239 118.578 148.239 119.347C148.239 119.609 148.225 119.76 148.133 119.998L86.8651 119.974Z"/><path fill="#abb6db" stroke="#4d4b66" stroke-linecap="round" stroke-linejoin="round" d="M41.672 96.6625H185.458C189.048 96.6625 192.158 93.8075 192.996 89.7387L195.698 76.5617L208.529 14.1891C210.016 6.89334 208.998 4.81914 201.768 0.796875L57.1934 3.0494C53.6164 3.0494 50.4993 5.92377 49.669 9.97312L35.9745 76.5617L32.3789 88.7558C35.9266 96.3087 36.6515 96.6625 41.672 96.6625Z"/><path fill="#fff" stroke="#4d4b66" stroke-linecap="round" stroke-miterlimit="10" d="M33.5586 73.5106H193.283L206.114 11.1401C207.276 5.46248 203.582 0 198.577 0H54.7787C51.1998 0 48.0813 2.87235 47.2527 6.92575L33.5586 73.5106Z"/><path fill="#dbe2f9" stroke="#4d4b66" stroke-linecap="round" stroke-linejoin="round" d="M186.817 116.403C186.817 116.403 173.13 102.354 162.584 114.021 162.584 114.021 164.491 118.294 169.091 117.672 173.691 117.05 186.817 116.403 186.817 116.403ZM39.256 93.615H183.043C186.633 93.615 189.74 90.757 190.581 86.69L193.285 73.51H33.56L31.719 82.476C30.545 88.153 34.239 93.615 39.256 93.615Z"/><path fill="#fff" stroke="#4d4b66" stroke-linecap="round" stroke-miterlimit="10" d="M104.451 84.0489C104.451 86.7515 106.444 88.7557 108.902 88.7557C111.36 88.7557 113.705 86.7515 114.181 84.0489C114.71 81.0533 112.78 78.375 109.817 78.375C106.854 78.375 104.451 81.0533 104.451 84.0489Z"/><path fill="#abb6db" stroke="#4d4b66" stroke-linecap="round" stroke-linejoin="round" d="M184.642 119.959L186.817 116.403C186.817 116.403 179.516 111.666 174.701 114.246C169.885 116.826 164.293 116.378 162.584 114.022L164.759 120L184.642 119.959Z"/><path fill="#dbe2f9" stroke="#4d4b66" stroke-linecap="round" stroke-linejoin="round" d="M74.7529 66.0737H44.5513C43.4682 66.0737 42.7702 65.1959 42.9924 64.1127L46.4251 47.3755C46.6472 46.2923 47.7054 45.4141 48.7886 45.4141H78.9903C80.0735 45.4141 80.7713 46.2923 80.5494 47.3755L77.1166 64.1127C76.8942 65.1959 75.8361 66.0737 74.7529 66.0737Z"/><path fill="#fff" stroke="#4d4b66" stroke-linecap="round" stroke-linejoin="round" d="M44.8672 54.9611H78.9913L79.912 50.4727H45.7877L44.8672 54.9611Z"/><path fill="#abb6db" stroke="#4d4b66" stroke-linecap="round" stroke-linejoin="round" d="M73.064 62.762H63.625C63.045 62.762 62.671 62.291 62.79 61.711 62.909 61.13 63.476 60.66 64.056 60.66H73.495C74.076 60.66 74.45 61.13 74.331 61.711 74.212 62.291 73.645 62.762 73.064 62.762ZM59.814 62.762H57.145C56.564 62.762 56.19 62.291 56.309 61.711 56.428 61.13 56.995 60.66 57.576 60.66H60.245C60.826 60.66 61.2 61.13 61.081 61.711 60.962 62.291 60.395 62.762 59.814 62.762Z"/><path fill="#dbe2f9" stroke="#4d4b66" stroke-linecap="round" stroke-linejoin="round" d="M61.2571 25.1304C56.3817 22.2139 54.1303 16.5408 55.421 10.3226L56.1536 6.79688C62.3479 4.13802 68.8839 4.13802 73.9748 6.79688L73.2353 10.3546C71.9516 16.5408 67.3361 22.2459 61.2571 25.1304Z"/><path stroke="#4d4b66" stroke-linecap="round" stroke-linejoin="round" d="M59.693 12.896 61.849 16.501 68.565 10.916M41.297 120H204.251"/><path fill="#fff" stroke="#4d4b66" stroke-linecap="round" stroke-linejoin="round" d="M136.475 60.0034H93.1333C91.7428 60.0034 90.8205 58.8765 91.0728 57.486L99.4671 11.2142C99.719 9.82413 101.051 8.69727 102.441 8.69727H145.782C147.173 8.69727 148.096 9.82413 147.843 11.2142L139.449 57.486C139.196 58.8765 137.865 60.0034 136.475 60.0034Z"/><path fill="#dbe2f9" stroke="#4d4b66" stroke-linecap="round" stroke-linejoin="round" d="M126.755 39.3081H110.374C107.894 39.3081 106.666 36.7734 108.047 34.4906C110.728 30.0611 115.679 26.9551 120.793 26.9551C125.906 26.9551 129.746 30.0587 130.828 34.4857C131.387 36.7685 129.236 39.3081 126.755 39.3081Z"/><path fill="#dbe2f9" stroke="#4d4b66" stroke-linecap="round" stroke-linejoin="round" d="M126.092 27.1774C129.316 24.2327 129.938 19.665 127.481 16.9754C125.024 14.2858 120.419 14.4924 117.196 17.4371C113.972 20.3818 113.35 24.9491 115.807 27.6391C118.263 30.3283 122.868 30.1217 126.092 27.1774Z"/><path stroke="#4d4b66" stroke-linecap="round" stroke-linejoin="round" d="M100.602 45.207H111.546M114.008 45.207H134.381M133.592 49.557H122.648M120.185 49.557H99.813M99.023 53.904H103.264M105.727 53.904H132.802"/><path fill="#fff" stroke="#4d4b66" stroke-linecap="round" stroke-miterlimit="10" d="M153.709 38.6307L148.542 63.5103C148.248 64.9263 146.862 66.0742 145.446 66.0742H124.802C123.386 66.0742 122.476 64.9263 122.77 63.5103L128.907 33.9603C129.201 32.5444 130.587 31.3965 132.003 31.3965H147.977L153.709 38.6307Z"/><path fill="#dbe2f9" stroke="#4d4b66" stroke-linecap="round" stroke-linejoin="round" d="M153.708 38.631H149.038C147.622 38.631 146.713 37.483 147.006 36.067L147.976 31.397 153.708 38.631ZM141.976 47.947C142.333 46.227 141.228 44.834 139.51 44.834 137.791 44.834 136.108 46.227 135.75 47.947 135.547 48.93 135.822 49.806 136.416 50.377L134.469 55.701H140.093L140.357 50.339C141.161 49.768 141.777 48.908 141.976 47.947Z"/><path fill="#dbe2f9" stroke="#4e4b66" stroke-linecap="round" stroke-linejoin="round" d="M196.459 20.4541C196.188 20.6403 195.876 20.7312 195.581 20.7312H184.755C184.46 20.7312 184.189 20.6403 184.002 20.4541C183.701 20.155 183.543 19.5612 184.511 18.4352C184.511 18.4352 185.962 17.0144 186.365 14.2506C186.365 14.2506 187.059 8.70402 191.885 7.92841C191.888 7.89909 191.894 7.86829 191.9 7.83897C192.047 7.19091 192.69 6.66602 193.338 6.66602C193.986 6.66602 194.392 7.19092 194.246 7.83897C194.24 7.86829 194.231 7.89909 194.222 7.92841C198.698 8.70402 196.892 14.2506 196.892 14.2506C196.048 17.0144 196.86 18.4352 196.86 18.4352C197.32 19.5612 196.894 20.155 196.459 20.4541Z"/><path fill="#dbe2f9" stroke="#4e4b66" stroke-linecap="round" stroke-linejoin="round" d="M191.858 20.7305C192.05 20.7305 192.162 20.9035 192.086 21.0926C191.701 22.0427 190.708 22.7626 189.709 22.7626C188.711 22.7626 188.043 22.0427 188.086 21.0926C188.095 20.9035 188.285 20.7305 188.477 20.7305H191.858Z"/><path fill="#de4558" d="M197.145 13.1334C199.061 13.1334 200.965 11.5798 201.397 9.66339C201.829 7.74697 200.625 6.19336 198.709 6.19336C196.793 6.19336 194.889 7.74697 194.457 9.66339C194.025 11.5798 195.229 13.1334 197.145 13.1334Z"/><path fill="#fff" d="M197.987 11.4231C197.929 11.6792 197.676 11.8863 197.419 11.8863C197.163 11.8863 197.003 11.6792 197.061 11.4231C197.118 11.167 197.372 10.9602 197.628 10.9602C197.884 10.9622 198.044 11.169 197.987 11.4231ZM198.035 10.499H197.445C197.422 10.499 197.408 10.4806 197.411 10.4581L197.931 7.60532C197.947 7.51515 198.036 7.44141 198.126 7.44141H198.737C198.827 7.44141 198.881 7.51717 198.858 7.60532L198.088 10.4581C198.08 10.4806 198.058 10.499 198.035 10.499Z"/></g><defs><clipPath id="clip0_9320_13206"><path fill="#fff" d="M0 0H240V120H0z" transform="translate(.5)"/></clipPath></defs></svg>