<svg xmlns="http://www.w3.org/2000/svg" width="38" height="76" fill="none" viewBox="0 0 38 76"><path fill="#fff" d="M31.02 52.126c-2.83 1.9-3.28 3.97-3.357 4.554-.45.263-.86.489-1.25.677a37 37 0 0 0 1.68-2.935 43 43 0 0 0 2.244-5.269c.078-.188.137-.395.195-.602a14.5 14.5 0 0 1 2.148-4.14c.058-.075.117-.169.195-.244 7.926-4.178 4.295-12.72 4.295-12.72.117 1.881-1.757 3.311-3.71 6.755-1.64 2.916-1.093 4.968-.897 5.513-.41.602-.781 1.13-1.113 1.562.137-.546.254-1.092.351-1.656.371-1.863.586-3.744.684-5.626l.039-.715c.02-.245.02-.47.02-.715v-1.411l-.06-1.412c-.019-.244-.019-.47-.038-.715l-.059-.696c-.039-.47-.02-.94.078-1.392l.566-2.69c5.779-6.7-.859-13.342-.859-13.342.82 1.712-.37 3.707-.878 7.602-.43 3.293.878 5.005 1.269 5.457-.157.79-.332 1.467-.488 2.013l-.059-.433c-.058-.47-.176-.922-.254-1.392l-.136-.696a9 9 0 0 0-.157-.696c-.234-.922-.449-1.826-.76-2.729l-.216-.677-.097-.339-.117-.339-.488-1.336a48 48 0 0 0-.996-2.295c-.625-1.355-1.015-2.804-1.093-4.29a18 18 0 0 0-.078-1.016c3.104-8.186-5.447-12.287-5.447-12.287 1.367 1.335.937 3.612 1.816 7.432.761 3.255 2.577 4.44 3.084 4.723.176 1.11.254 2.032.312 2.69-.02-.018-.02-.037-.039-.075l-.351-.62c-.117-.207-.254-.396-.37-.603l-.762-1.204-.82-1.167c-.137-.188-.274-.395-.41-.583l-.43-.564a31 31 0 0 0-1.405-1.75c-.683-.828-1.62-2.051-2.44-2.917a5.4 5.4 0 0 1-.957-1.355C15.852-1.783 7.145.268 7.145.268c1.953.113 3.202 2.108 6.501 4.384 2.596 1.807 4.666 1.694 5.427 1.562.098.038.195.056.293.094l.996.997c1.308 1.374 2.537 2.804 3.63 4.347l.41.565c.137.188.254.395.391.583l.78 1.185.333.546a25 25 0 0 0-2.597-1.863C18.624 5.217 9.937 9.112 9.937 9.112c1.952-.207 3.514 1.543 7.164 3.255 3.104 1.449 5.193.828 5.76.621a33 33 0 0 1 2.87 1.806c.37.264.702.602.897.998l.332.62c.898 1.638 1.62 3.369 2.284 5.119l.449 1.317.117.338.098.34.195.677c.273.884.468 1.806.664 2.71.058.225.097.45.136.677v.018a22 22 0 0 0-1.835-2.37c-2.225-8.45-11.693-7.17-11.693-7.17 1.913.358 2.889 2.484 5.856 5.137 2.519 2.277 4.725 2.258 5.31 2.22.683.716 1.23 1.355 1.64 1.845.566.677.957 1.505 1.035 2.39v.018l.156 1.374.039.338.02.34.038.695.04.697c.019.225.019.47.019.696 0 .47.02.922.02 1.392l-.04 1.392c0 .226-.019.452-.038.697l-.06.696a50 50 0 0 1-.33 2.973 26 26 0 0 0-.704-2.37C31.43 29.941 22.1 27.871 22.1 27.871c1.66.997 1.796 3.311 3.573 6.811 1.522 2.992 3.572 3.745 4.158 3.895.214.546.41 1.035.566 1.468.39 1.072.488 2.258.214 3.368v.019c-.41 1.806-.917 3.575-1.58 5.306a44 44 0 0 1-2.304 5.043c-.254.47-.527.94-.82 1.392q.234-1.467.293-2.822c4.255-7.677-3.612-12.908-3.612-12.908 1.171 1.505.41 3.707.722 7.602.274 3.311 1.894 4.741 2.382 5.099v.376a10.04 10.04 0 0 1-1.952 5.89l-.02.019c-1.093 1.505-2.323 2.897-3.63 4.233-.333.32-.645.678-.996.979l-1.035.94c-.02-.018-.02 0-.02-.018.313-.527.586-1.073.84-1.6 7.028-5.494 1.855-13.246 1.855-13.246.468 1.825-1.113 3.575-2.382 7.281-1.074 3.162-.156 5.08.156 5.589-.215.47-.41.922-.586 1.298a6.5 6.5 0 0 1-1.99 2.446l-.02.02c-1.484 1.128-3.026 2.2-4.647 3.123a42 42 0 0 1-2.908 1.524c.41-.414.8-.828 1.132-1.223 6.715-2.992 4.256-10.161 4.256-10.161-.02 1.543-1.64 2.615-3.417 5.325-1.522 2.296-1.19 4.008-1.054 4.46-.215.282-.43.545-.624.771a6.3 6.3 0 0 1-2.421 1.788h-.02a49 49 0 0 1-5.33 1.787H.86C.371 73.878 0 74.311 0 74.8c-.02.847.781 1.373 1.543 1.148a52 52 0 0 0 5.583-2.014 44 44 0 0 0 5.232-2.728 38 38 0 0 0 2.947-1.957 8.74 8.74 0 0 1 4.451-1.637c8.434 3.124 12.826-5.062 12.826-5.062-1.405 1.299-3.768.847-7.73 1.637-3.378.678-4.647 2.409-4.94 2.917-.82.094-1.522.17-2.127.207.527-.452 1.054-.922 1.581-1.393l1.035-1.016c.351-.338.663-.696 1.015-1.053 1.308-1.43 2.557-2.917 3.65-4.497.02-.038.04-.057.059-.094a5.8 5.8 0 0 1 2.128-1.826c.136-.075.273-.131.41-.207 9.038-.32 9.741-9.52 9.741-9.52-.703 1.712-3.065 2.182-6.384 4.421" opacity=".5"/></svg>