<svg xmlns="http://www.w3.org/2000/svg" width="24" height="24" fill="none" viewBox="0 0 24 24"><g fill="#fff" fill-rule="evenodd" clip-path="url(#clip0_2249_189)" clip-rule="evenodd"><path d="M12 3.25C11.3647 3.25 10.711 3.56435 10.1992 4.20416C9.68384 4.84832 9.375 5.75129 9.375 6.71875V8.125C9.375 8.53921 9.03921 8.875 8.625 8.875C8.21079 8.875 7.875 8.53921 7.875 8.125V6.71875C7.875 5.44845 8.27731 4.20531 9.02786 3.26712C9.78189 2.32459 10.8451 1.75 12 1.75C13.1549 1.75 14.2181 2.32459 14.9721 3.26712C15.7227 4.20531 16.125 5.44845 16.125 6.71875V8.125C16.125 8.53921 15.7892 8.875 15.375 8.875C14.9608 8.875 14.625 8.53921 14.625 8.125V6.71875C14.625 5.75129 14.3162 4.84832 13.8008 4.20416C13.289 3.56435 12.6353 3.25 12 3.25Z"/><path d="M5.99539 7.68121C6.13669 7.48871 6.36121 7.375 6.6 7.375H17.4C17.6388 7.375 17.8633 7.48871 18.0046 7.68121C18.8911 8.88899 19.4099 10.2979 19.4986 11.7614C19.4995 11.7765 19.5 11.7917 19.5 11.8068V15.4886C19.5 17.3393 18.6907 19.0979 17.2775 20.3827C15.8667 21.6652 13.9673 22.375 12 22.375C10.0327 22.375 8.13333 21.6652 6.72252 20.3827C5.30934 19.0979 4.5 17.3393 4.5 15.4886V11.8068C4.5 11.7917 4.50046 11.7765 4.50138 11.7614C4.59013 10.2979 5.10888 8.88899 5.99539 7.68121ZM6.99293 8.875C6.40613 9.7778 6.0669 10.7908 6 11.8302V15.4886C6 16.8929 6.61298 18.2559 7.73153 19.2727C8.85247 20.2918 10.3869 20.875 12 20.875C13.6131 20.875 15.1475 20.2918 16.2685 19.2727C17.387 18.2559 18 16.8929 18 15.4886V11.8302C17.9331 10.7908 17.5939 9.77779 17.0071 8.875H6.99293Z"/><path d="M0 12.625C0 12.211.336 11.875.75 11.875H5.25C5.664 11.875 6 12.211 6 12.625 6 13.039 5.664 13.375 5.25 13.375H.75C.336 13.375 0 13.039 0 12.625ZM18 12.625C18 12.211 18.336 11.875 18.75 11.875H23.25C23.664 11.875 24 12.211 24 12.625 24 13.039 23.664 13.375 23.25 13.375H18.75C18.336 13.375 18 13.039 18 12.625ZM6.464 17.878C6.669 18.238 6.544 18.696 6.185 18.901L2.247 21.151C1.888 21.357 1.429 21.232 1.224 20.872 1.018 20.513 1.143 20.054 1.503 19.849L5.441 17.599C5.8 17.393 6.258 17.518 6.464 17.878ZM17.536 17.878C17.742 17.518 18.2 17.393 18.56 17.599L22.497 19.849C22.857 20.054 22.982 20.513 22.776 20.872 22.571 21.232 22.113 21.357 21.753 21.151L17.816 18.901C17.456 18.696 17.331 18.238 17.536 17.878ZM1.275 4.3C1.524 3.969 1.994 3.901 2.325 4.15L6.825 7.525C7.156 7.774 7.224 8.244 6.975 8.575 6.727 8.906 6.256 8.974 5.925 8.725L1.425 5.35C1.094 5.101 1.027 4.631 1.275 4.3ZM22.725 4.3C22.974 4.631 22.906 5.101 22.575 5.35L18.075 8.725C17.744 8.974 17.274 8.906 17.025 8.575 16.777 8.244 16.844 7.774 17.175 7.525L21.675 4.15C22.006 3.901 22.477 3.969 22.725 4.3Z"/></g><defs><clipPath id="clip0_2249_189"><path fill="#fff" d="M0 0H24V24H0z"/></clipPath></defs></svg>