<svg xmlns="http://www.w3.org/2000/svg" width="16" height="16" fill="none" viewBox="0 0 16 16"><path fill="#fff" fill-rule="evenodd" d="M4 3.25C3.31 3.25 2.75 3.81 2.75 4.5V11.5C2.75 12.19 3.31 12.75 4 12.75H5.5C5.914 12.75 6.25 13.086 6.25 13.5 6.25 13.914 5.914 14.25 5.5 14.25H4C2.481 14.25 1.25 13.019 1.25 11.5V4.5C1.25 2.981 2.481 1.75 4 1.75H10C11.519 1.75 12.75 2.981 12.75 4.5V9.5C12.75 9.914 12.414 10.25 12 10.25 11.586 10.25 11.25 9.914 11.25 9.5V4.5C11.25 3.81 10.69 3.25 10 3.25H4ZM14.731 10.803C15.023 11.096 15.023 11.571 14.731 11.864L12.064 14.53C11.771 14.823 11.296 14.823 11.003 14.53L9.67 13.197C9.377 12.904 9.377 12.429 9.67 12.136 9.963 11.844 10.438 11.844 10.731 12.136L11.534 12.939 13.67 10.803C13.963 10.51 14.438 10.51 14.731 10.803Z" clip-rule="evenodd"/><path fill="#fff" fill-rule="evenodd" d="M4.117 5.333C4.117 4.919 4.452 4.583 4.867 4.583H9.533C9.948 4.583 10.283 4.919 10.283 5.333 10.283 5.748 9.948 6.083 9.533 6.083H4.867C4.452 6.083 4.117 5.748 4.117 5.333ZM4.117 8C4.117 7.586 4.452 7.25 4.867 7.25H8.2C8.614 7.25 8.95 7.586 8.95 8 8.95 8.414 8.614 8.75 8.2 8.75H4.867C4.452 8.75 4.117 8.414 4.117 8ZM4.117 10.67C4.117 10.256 4.452 9.92 4.867 9.92H7.367C7.781 9.92 8.117 10.256 8.117 10.67 8.117 11.084 7.781 11.42 7.367 11.42H4.867C4.452 11.42 4.117 11.084 4.117 10.67Z" clip-rule="evenodd"/></svg>