<svg xmlns="http://www.w3.org/2000/svg" width="24" height="24" fill="none" viewBox="0 0 24 24"><path fill="#f29900" d="M21.75 12.812A9.762 9.762 0 1 1 11.188 2.25a.752.752 0 0 1 .124 1.5 8.261 8.261 0 1 0 8.938 8.938.753.753 0 1 1 1.5.124M15 4.5a1.125 1.125 0 1 0 0-2.25 1.125 1.125 0 0 0 0 2.25m3.375 2.25a1.125 1.125 0 1 0 0-2.25 1.125 1.125 0 0 0 0 2.25m2.25 3.375a1.125 1.125 0 1 0 0-2.25 1.125 1.125 0 0 0 0 2.25M12 5.25A6.75 6.75 0 1 1 5.25 12 6.76 6.76 0 0 1 12 5.25M11.25 12a.75.75 0 0 0 .75.75h4.5a.75.75 0 1 0 0-1.5h-3.75V7.5a.75.75 0 1 0-1.5 0z"/></svg>