<svg xmlns="http://www.w3.org/2000/svg" width="414" height="125" fill="none" viewBox="0 0 414 125"><g opacity=".8"><g filter="url(#a)"><path fill="#66b599" d="M53.613 79.339s-5.467 2.349-7.379 2.855c-6.95 1.838-8.925.29-8.925.29l.954-6.668s3.873.097 7.487-1.11C47.548 74.104 52.835 72 52.835 72z"/></g><path fill="#66b599" d="M405.264 119.833s3.559-4.769 4.497-6.51c3.407-6.331 2.363-8.612 2.363-8.612l-6.707-.626s-.808 3.788-2.826 7.022c-1.002 1.608-4.282 6.259-4.282 6.259z"/><path fill="#de4558" d="M23.27 120.103s-2.274.826-5.443-3.276c-2.189-2.832-5.357-3.296-5.357-3.296l4.118-4.597s3.049-.322 5.257 3.11c1.998 3.106 5.518 3.684 5.518 3.684z"/><g filter="url(#b)"><path fill="#f29900" d="M91.13 22.387s-.043 2.42-5.006 3.912c-3.428 1.03-4.995 3.824-4.995 3.824l-2.82-5.49s.79-2.962 4.783-3.797C86.71 20.081 88.507 17 88.507 17z"/></g><path fill="#f29900" d="M376.338 78.777s-.41-1.23 1.831-2.87c1.547-1.132 1.84-2.822 1.84-2.822l2.403 2.27s.132 1.636-1.737 2.771c-1.693 1.027-2.051 2.904-2.051 2.904z" opacity=".6"/><path fill="#dbe2f9" d="m311.677 10.545-4.561.674s.158-2.187.064-4.273c-.119-2.646.649-4.821.649-4.821l4.718-.295s-1.202 2.527-.915 4.577c.342 2.45.045 4.138.045 4.138"/><path fill="#e36272" d="m285.933 32.01-5.01-2.457s-.208-2.433 1.402-5.72c1.526-3.114 3.662-4.612 3.662-4.612l5.01 2.456s-1.989 2.456-3.216 4.96c-.911 1.859-1.848 5.373-1.848 5.373"/><path fill="#f29900" d="M316.545 45.703a1.619 1.619 0 1 1-3.237-.002 1.619 1.619 0 0 1 3.237.002M2.165 123.116a1.083 1.083 0 1 1-2.166-.002 1.083 1.083 0 0 1 2.166.002" opacity=".6"/><path fill="#f29900" d="M66.545 50.703a1.618 1.618 0 1 1-3.237-.001 1.618 1.618 0 0 1 3.237 0"/><path fill="#48a987" d="M191.545 42.703a1.619 1.619 0 1 1-3.237-.002 1.619 1.619 0 0 1 3.237.002" opacity=".6"/><path fill="#f29900" d="M138.545 1.618a1.618 1.618 0 1 1-3.237-.001 1.618 1.618 0 0 1 3.237 0"/><path fill="#66b599" d="M238.404 9.632a1.548 1.548 0 1 1-3.096 0 1.548 1.548 0 0 1 3.096 0M151.404 23.548a1.548 1.548 0 1 1-3.096 0 1.548 1.548 0 0 1 3.096 0"/><path fill="#dbe2f9" d="M116.125 27.908a.907.907 0 1 1-1.815 0 .907.907 0 0 1 1.815 0"/><path fill="#dbe2f9" d="M21.125 75.908a.908.908 0 1 1-1.815 0 .908.908 0 0 1 1.815 0" opacity=".6"/><g filter="url(#c)"><path fill="#e36272" d="M235.561 46.626a1.627 1.627 0 1 1-3.253.002 1.627 1.627 0 0 1 3.253-.002"/></g><path fill="#dbe2f9" d="M413.125 58.993a.907.907 0 1 1-1.815 0 .907.907 0 0 1 1.815 0" opacity=".6"/><g filter="url(#d)"><path fill="#66b599" d="m377.847 43.129 1.594 8.09s-2.626 2.434-7.843 3.498c-4.943 1.008-8.562-.152-8.562-.152l-1.595-8.09s4.595.127 8.569-.684c2.953-.603 7.837-2.662 7.837-2.662"/></g></g><defs><filter id="a" width="22.304" height="17.093" x="34.309" y="69" color-interpolation-filters="sRGB" filterUnits="userSpaceOnUse"><feFlood flood-opacity="0" result="BackgroundImageFix"/><feBlend in="SourceGraphic" in2="BackgroundImageFix" result="shape"/><feGaussianBlur result="effect1_foregroundBlur_62_212" stdDeviation="1.5"/></filter><filter id="b" width="18.82" height="19.123" x="75.309" y="14" color-interpolation-filters="sRGB" filterUnits="userSpaceOnUse"><feFlood flood-opacity="0" result="BackgroundImageFix"/><feBlend in="SourceGraphic" in2="BackgroundImageFix" result="shape"/><feGaussianBlur result="effect1_foregroundBlur_62_212" stdDeviation="1.5"/></filter><filter id="c" width="9.253" height="9.254" x="229.309" y="42" color-interpolation-filters="sRGB" filterUnits="userSpaceOnUse"><feFlood flood-opacity="0" result="BackgroundImageFix"/><feBlend in="SourceGraphic" in2="BackgroundImageFix" result="shape"/><feGaussianBlur result="effect1_foregroundBlur_62_212" stdDeviation="1.5"/></filter><filter id="d" width="24" height="18" x="358.441" y="40.129" color-interpolation-filters="sRGB" filterUnits="userSpaceOnUse"><feFlood flood-opacity="0" result="BackgroundImageFix"/><feBlend in="SourceGraphic" in2="BackgroundImageFix" result="shape"/><feGaussianBlur result="effect1_foregroundBlur_62_212" stdDeviation="1.5"/></filter></defs></svg>