<svg xmlns="http://www.w3.org/2000/svg" width="29" height="28" fill="none" viewBox="0 0 29 28"><path fill="#3066ff" stroke="#3066ff" stroke-width="0.125" d="M14.4995 2.68652C14.822 2.68652 15.1381 2.77928 15.4097 2.95312C15.6774 3.12456 15.8915 3.36777 16.0269 3.65527L16.0278 3.66699L16.0317 3.67773L19.9478 12.459L19.9858 12.5459L20.0503 12.4766L23.7329 8.50684L23.7339 8.50586C23.978 8.23147 24.3053 8.04435 24.6655 7.97266C25.0258 7.90098 25.4003 7.94925 25.731 8.10938C26.0614 8.26952 26.3305 8.53336 26.4976 8.86035C26.6646 9.18743 26.7207 9.56019 26.6567 9.92188L26.644 9.99512H26.645L24.1733 21.3154V21.3164C24.0997 21.7021 23.8938 22.0505 23.5913 22.3008C23.2887 22.551 22.9078 22.6876 22.5151 22.6875H6.48389C6.09145 22.6873 5.71107 22.5509 5.40869 22.3008C5.10627 22.0505 4.90026 21.702 4.82666 21.3164V21.3154L2.34619 9.9541H2.34521C2.34406 9.94511 2.34363 9.93731 2.34229 9.93262C2.33971 9.9236 2.33874 9.92287 2.33838 9.9209C2.2731 9.55849 2.3286 9.18465 2.49561 8.85645C2.66282 8.52799 2.93333 8.263 3.26514 8.10254C3.59688 7.94217 3.97229 7.89492 4.3335 7.96777C4.69448 8.04067 5.02159 8.22962 5.26514 8.50586L5.26709 8.50684L8.94971 12.4766L9.01416 12.5459L9.05225 12.459L12.9683 3.67773L12.9722 3.66699L12.9731 3.65527C13.1085 3.36777 13.3226 3.12456 13.5903 2.95312C13.8618 2.77937 14.1772 2.68662 14.4995 2.68652Z"/></svg>