<svg xmlns="http://www.w3.org/2000/svg" width="24" height="24" fill="none" viewBox="0 0 24 24"><path fill="#fff" d="M21 6.75h-1.5V6a2.25 2.25 0 0 0-2.25-2.25H3.75A2.25 2.25 0 0 0 1.5 6v9a2.25 2.25 0 0 0 2.25 2.25h10.5V18a2.25 2.25 0 0 0 2.25 2.25H21A2.25 2.25 0 0 0 23.25 18V9A2.25 2.25 0 0 0 21 6.75M21.75 18a.75.75 0 0 1-.75.75h-4.5a.75.75 0 0 1-.75-.75V9a.75.75 0 0 1 .75-.75H21a.75.75 0 0 1 .75.75zm-9 1.5a.75.75 0 0 1-.75.75H8.25a.75.75 0 1 1 0-1.5H12a.75.75 0 0 1 .75.75m7.5-9a.75.75 0 0 1-.75.75H18a.75.75 0 1 1 0-1.5h1.5a.75.75 0 0 1 .75.75"/></svg>