<svg xmlns="http://www.w3.org/2000/svg" width="311" height="128" fill="none" viewBox="0 0 311 128"><g clip-path="url(#a)"><rect width="311" height="128" fill="#dbe2f9" rx="16"/><path fill="#d7dae9" d="M203 21.1a5.1 5.1 0 0 1 5.1-5.1H311v14.21H203z"/><path fill="#fefefe" d="M203 30.21h108v82.421H208.1a5.1 5.1 0 0 1-5.1-5.1z"/><rect width="125" height="8" x="214.369" y="41.553" fill="#f5f5f9" rx="2.842"/><rect width="125" height="9" x="214.369" y="56.553" fill="#f5f5f9" rx="2.842"/><rect width="125" height="8" x="214.369" y="72.553" fill="#f5f5f9" rx="2.842"/><rect width="125" height="9" x="214.369" y="89.553" fill="#f5f5f9" rx="2.842"/><circle cx="211.527" cy="23.105" r="2.842" fill="#fefefe"/><circle cx="220.053" cy="23.105" r="2.842" fill="#fefefe"/><circle cx="228.579" cy="23.105" r="2.842" fill="#fefefe"/><rect width="108" height="25.512" x="10" y="33.892" fill="#fff" rx="5.102"/><rect width="56.976" height="11.905" x="16.803" y="40.695" fill="#d7dae9" rx="2.126"/><g stroke="#98a0a9" stroke-linecap="round" stroke-linejoin="round" stroke-width=".638" clip-path="url(#b)"><path d="M85.685 50.05h1.7l4.465-4.465a1.2 1.2 0 0 0-.39-1.962 1.2 1.2 0 0 0-1.31.26l-4.465 4.465zM89.724 44.309l1.701 1.7"/></g><g stroke="#98a0a9" stroke-linecap="round" stroke-linejoin="round" stroke-width=".638" clip-path="url(#c)"><path d="m107.37 45.371-2.551 2.551M104.819 45.371l2.551 2.551M106.095 50.473a3.827 3.827 0 1 0 0-7.654 3.827 3.827 0 0 0 0 7.654"/></g><rect width="108" height="25.512" x="10" y="68.416" fill="#fff" rx="5.102"/><rect width="56.976" height="11.905" x="16.803" y="75.219" fill="#d7dae9" rx="2.126"/><g stroke="#98a0a9" stroke-linecap="round" stroke-linejoin="round" stroke-width=".638" clip-path="url(#d)"><path d="M85.685 84.574h1.7l4.465-4.465a1.202 1.202 0 1 0-1.7-1.7l-4.465 4.464zM89.724 78.833l1.701 1.701"/></g><g stroke="#98a0a9" stroke-linecap="round" stroke-linejoin="round" stroke-width=".638" clip-path="url(#e)"><path d="m107.37 79.896-2.551 2.55M104.819 79.896l2.551 2.55M106.095 84.998a3.827 3.827 0 1 0 0-7.654 3.827 3.827 0 0 0 0 7.654"/></g><path fill="#20df9e" d="M155.53 86.876h-.026a1 1 0 0 1-.138-.013c-2.535-.313-15.426-6.24-17.134-22.268a19 19 0 0 1-.232-2.926l.031-1.21c-.096-6.403.051-9.844.187-11.59.078-1.002.762-1.798 1.71-2.117l12.825-4.307A8.5 8.5 0 0 1 155.53 42a8.5 8.5 0 0 1 2.777.444l12.825 4.307c.948.319 1.632 1.115 1.71 2.118.136 1.745.283 5.186.187 11.59l.031 1.21c0 .986-.081 1.962-.232 2.925-1.708 16.028-14.599 21.955-17.134 22.268a1 1 0 0 1-.164.013"/><path fill="#20a690" fill-rule="evenodd" d="M155.53 84.76c.359-.076 1.317-.382 2.679-1.11a23.4 23.4 0 0 0 4.922-3.562c3.442-3.232 6.812-8.275 7.605-15.716q.005-.053.014-.103c.133-.852.205-1.711.206-2.574l-.03-1.182v-.085c.095-6.367-.052-9.738-.181-11.395a.24.24 0 0 0-.057-.143.5.5 0 0 0-.226-.144l-12.824-4.307a6.4 6.4 0 0 0-2.093-.335h-.03a6.4 6.4 0 0 0-2.093.335l-12.825 4.307a.5.5 0 0 0-.225.144.24.24 0 0 0-.057.143c-.129 1.657-.276 5.028-.181 11.395v.085l-.03 1.182c.001.863.073 1.722.206 2.574q.008.05.014.103c.793 7.441 4.163 12.484 7.605 15.716a23.4 23.4 0 0 0 4.922 3.562c1.362.728 2.32 1.034 2.679 1.11M138 61.67l.031-1.21c-.096-6.404.051-9.845.187-11.59.078-1.003.762-1.8 1.71-2.118l12.825-4.307A8.5 8.5 0 0 1 155.53 42a8.5 8.5 0 0 1 2.777.444l12.825 4.307c.948.319 1.632 1.115 1.71 2.118.136 1.745.283 5.186.187 11.59l.031 1.21c0 .986-.081 1.962-.232 2.925-1.708 16.028-14.599 21.955-17.134 22.268a.8.8 0 0 1-.19.013 1 1 0 0 1-.138-.013c-2.535-.313-15.426-6.24-17.134-22.268a19 19 0 0 1-.232-2.926" clip-rule="evenodd"/><path fill="#000" d="M155.53 86.876c0-8.414-.133-35.751 0-44.876a8.5 8.5 0 0 1 2.778.444l12.825 4.308c.947.318 1.632 1.115 1.71 2.117.136 1.745.282 5.187.186 11.59l.031 1.21c0 .987-.081 1.963-.232 2.925-1.708 16.028-14.599 21.956-17.134 22.269a1 1 0 0 1-.164.013" opacity=".1"/><circle cx="155.53" cy="65.14" r="12.621" fill="#18aa79"/><circle cx="155.53" cy="63.036" r="12.621" fill="#4fffa8"/><path fill="#00b7ff" d="M145.012 63.034c0-.931.124-1.858.37-2.757.404.866.992 1.614 1.392 2.502.516 1.142 1.903.825 2.516 1.826.543.888-.037 2.011.37 2.94.295.675.992.823 1.473 1.316.491.497.48 1.179.555 1.828a17 17 0 0 0 .416 2.278c-4.126-1.44-7.092-5.349-7.092-9.933m10.585 10.52q-.888 0-1.764-.147c.006-.148.009-.287.024-.383.134-.871.572-1.723 1.165-2.375.584-.644 1.386-1.079 1.88-1.809.484-.712.629-1.67.429-2.503-.293-1.23-1.974-1.64-2.881-2.307-.521-.383-.984-.976-1.668-1.025-.316-.021-.58.046-.892-.034-.287-.074-.512-.227-.817-.187-.571.074-.931.68-1.544.598-.582-.077-1.181-.754-1.313-1.305-.17-.708.393-.937.997-1 .252-.027.535-.055.777.037.319.117.469.427.755.584.537.293.645-.175.563-.648-.123-.71-.266-.998.37-1.486.441-.337.818-.58.747-1.184-.041-.355-.237-.516-.055-.87.139-.268.519-.511.766-.671.639-.415 2.737-.384 1.88-1.544-.252-.34-.717-.948-1.158-1.031-.551-.104-.796.508-1.18.777-.397.28-1.17.596-1.567.165-.535-.58.354-.77.551-1.176.091-.19 0-.452-.153-.699q.299-.124.606-.232a.87.87 0 0 0 .441.165c.369.024.717-.175 1.039.075.357.274.614.62 1.089.706.458.083.944-.183 1.058-.65.068-.284 0-.583-.067-.876 2.062.011 4.075.625 5.789 1.764-.11-.041-.242-.036-.405.039-.334.154-.808.548-.848.938-.044.443.613.505.925.505.469 0 .943-.208.792-.746-.065-.234-.155-.476-.299-.623q.52.357.993.775l-.015.014c-.318.33-.687.59-.904.99-.153.281-.326.415-.636.488-.171.04-.366.054-.509.168-.399.313-.172 1.063.206 1.288.478.285 1.187.151 1.547-.255.282-.318.448-.87.955-.869a.85.85 0 0 1 .596.242c.21.216.168.417.213.687.079.479.504.22.762-.023q.284.501.51 1.029c-.285.407-.511.85-1.195.376-.41-.284-.661-.697-1.176-.825-.449-.11-.909.005-1.353.08-.505.088-1.103.126-1.485.506-.37.366-.566.856-.96 1.224-.761.712-1.082 1.49-.59 2.496.475.969 1.466 1.494 2.536 1.425 1.052-.07 2.144-.676 2.114.843-.012.537.102.91.267 1.408.154.46.144.907.179 1.382.034.556.121 1.108.261 1.648a10.6 10.6 0 0 1-3.7 2.991 10.6 10.6 0 0 1-4.648 1.07"/><path fill="#000" d="M151.323 71.45c6.97 0 12.621-5.65 12.621-12.621 0-2.407-.674-4.657-1.843-6.571a12.61 12.61 0 0 1 6.05 10.778c0 6.97-5.65 12.622-12.621 12.622a12.62 12.62 0 0 1-10.778-6.05 12.56 12.56 0 0 0 6.571 1.843" opacity=".1"/><path fill="#342b53" fill-rule="evenodd" d="M155.53 73.204c5.615 0 10.167-4.552 10.167-10.167s-4.552-10.168-10.167-10.168-10.167 4.552-10.167 10.167 4.552 10.168 10.167 10.168m0 2.454c6.971 0 12.622-5.65 12.622-12.622 0-6.97-5.651-12.621-12.622-12.621-6.97 0-12.621 5.65-12.621 12.621s5.651 12.622 12.621 12.622" clip-rule="evenodd"/><g filter="url(#f)"><circle cx="166.398" cy="57.076" r="5.259" fill="#ff5e5c"/><path fill="#fff" d="M166.398 53.92c.875 0 1.584.71 1.584 1.585v.78h.397c.154 0 .277.125.277.279v2.689a.277.277 0 0 1-.277.277h-3.961a.277.277 0 0 1-.277-.277v-2.69c0-.153.124-.278.277-.278h.396v-.78a1.585 1.585 0 0 1 1.584-1.584m-.003 3.298a.614.614 0 1 0 0 1.228.614.614 0 0 0 0-1.228m.003-2.505a.793.793 0 0 0-.792.792v.78h1.584v-.78a.79.79 0 0 0-.792-.792"/></g><path fill="#fff" d="M193.707 109.707a1 1 0 0 0 0-1.414l-6.364-6.364a.999.999 0 1 0-1.414 1.414l5.657 5.657-5.657 5.657a.999.999 0 1 0 1.414 1.414zM65.5 94.5h-1V105h2V94.5zm4 14.5v1H193v-2H69.5zm-4-4h-1a5 5 0 0 0 5 5v-2a3 3 0 0 1-3-3zM193.707 18.793a1 1 0 0 1 0 1.414l-6.364 6.364a1 1 0 1 1-1.414-1.414l5.657-5.657-5.657-5.657a1 1 0 1 1 1.414-1.414zM65.5 34h-1V23.5h2V34zm4-14.5v-1H193v2H69.5zm-4 4h-1a5 5 0 0 1 5-5v2a3 3 0 0 0-3 3z"/></g><defs><clipPath id="a"><rect width="311" height="128" fill="#fff" rx="16"/></clipPath><clipPath id="b"><path fill="#fff" d="M83.984 41.545H94.19V51.75H83.984z"/></clipPath><clipPath id="c"><path fill="#fff" d="M100.992 41.545h10.205V51.75h-10.205z"/></clipPath><clipPath id="d"><path fill="#fff" d="M83.984 76.07H94.19v10.205H83.984z"/></clipPath><clipPath id="e"><path fill="#fff" d="M100.992 76.07h10.205v10.205h-10.205z"/></clipPath><filter id="f" width="11.055" height="11.055" x="160.871" y="51.548" color-interpolation-filters="sRGB" filterUnits="userSpaceOnUse"><feFlood flood-opacity="0" result="BackgroundImageFix"/><feColorMatrix in="SourceAlpha" result="hardAlpha" values="0 0 0 0 0 0 0 0 0 0 0 0 0 0 0 0 0 0 127 0"/><feOffset/><feGaussianBlur stdDeviation=".134"/><feComposite in2="hardAlpha" operator="out"/><feColorMatrix values="0 0 0 0 0 0 0 0 0 0 0 0 0 0 0 0 0 0 0.2 0"/><feBlend in2="BackgroundImageFix" result="effect1_dropShadow_14674_15408"/><feBlend in="SourceGraphic" in2="effect1_dropShadow_14674_15408" result="shape"/></filter></defs></svg>