<svg xmlns="http://www.w3.org/2000/svg" width="311" height="128" fill="none" viewBox="0 0 311 128"><g clip-path="url(#a)"><rect width="311" height="128" fill="#1e3fa1" rx="16"/><path fill="#3b5fca" d="M203 21.1a5.1 5.1 0 0 1 5.1-5.1H311v14.21H203z"/><path fill="#011e48" d="M203 30.21h108v82.421H208.1a5.1 5.1 0 0 1-5.1-5.1z"/><rect width="125" height="8" x="214.369" y="41.553" fill="#1e3fa1" rx="2.842"/><rect width="125" height="9" x="214.369" y="56.553" fill="#1e3fa1" rx="2.842"/><rect width="125" height="8" x="214.369" y="72.553" fill="#1e3fa1" rx="2.842"/><rect width="125" height="9" x="214.369" y="89.553" fill="#1e3fa1" rx="2.842"/><circle cx="211.527" cy="23.105" r="2.842" fill="#011e48"/><circle cx="220.053" cy="23.105" r="2.842" fill="#011e48"/><circle cx="228.579" cy="23.105" r="2.842" fill="#011e48"/><rect width="108" height="25.512" x="10" y="33.892" fill="#011e48" rx="5.102"/><rect width="56.976" height="11.905" x="16.803" y="40.695" fill="#1e3fa1" rx="2.126"/><g stroke="#98a0a9" stroke-linecap="round" stroke-linejoin="round" stroke-width=".638" clip-path="url(#b)"><path d="M85.685 50.05h1.7l4.465-4.465a1.2 1.2 0 0 0-.39-1.962 1.2 1.2 0 0 0-1.31.26l-4.465 4.465zM89.724 44.309l1.701 1.7"/></g><g stroke="#98a0a9" stroke-linecap="round" stroke-linejoin="round" stroke-width=".638" clip-path="url(#c)"><path d="m107.37 45.371-2.551 2.551M104.819 45.371l2.551 2.551M106.095 50.474a3.826 3.826 0 1 0 0-7.653 3.826 3.826 0 0 0 0 7.653"/></g><rect width="108" height="25.512" x="10" y="68.416" fill="#011e48" rx="5.102"/><rect width="56.976" height="11.905" x="16.803" y="75.219" fill="#1e3fa1" rx="2.126"/><g stroke="#98a0a9" stroke-linecap="round" stroke-linejoin="round" stroke-width=".638" clip-path="url(#d)"><path d="M85.685 84.574h1.7l4.465-4.465a1.202 1.202 0 1 0-1.7-1.7l-4.465 4.464zM89.724 78.833l1.701 1.701"/></g><g stroke="#98a0a9" stroke-linecap="round" stroke-linejoin="round" stroke-width=".638" clip-path="url(#e)"><path d="m107.37 79.896-2.551 2.55M104.819 79.896l2.551 2.55M106.095 84.998a3.826 3.826 0 1 0 0-7.653 3.826 3.826 0 0 0 0 7.653"/></g><path fill="#20df9e" d="M155.53 86.876h-.026a1 1 0 0 1-.138-.013c-2.535-.313-15.426-6.24-17.134-22.268a19 19 0 0 1-.232-2.926l.031-1.21c-.096-6.403.051-9.844.187-11.59.078-1.002.762-1.798 1.71-2.117l12.825-4.307A8.5 8.5 0 0 1 155.53 42a8.5 8.5 0 0 1 2.777.444l12.825 4.307c.948.319 1.632 1.115 1.71 2.118.136 1.745.283 5.186.187 11.59l.031 1.21c0 .986-.081 1.962-.232 2.925-1.708 16.028-14.599 21.955-17.134 22.268a1 1 0 0 1-.164.013"/><path fill="#20a690" fill-rule="evenodd" d="M155.53 84.76c.359-.076 1.317-.382 2.679-1.11a23.4 23.4 0 0 0 4.922-3.562c3.442-3.232 6.812-8.275 7.605-15.716q.005-.053.014-.103c.133-.852.205-1.711.206-2.574l-.03-1.182v-.085c.095-6.367-.052-9.738-.181-11.395a.24.24 0 0 0-.057-.143.5.5 0 0 0-.226-.144l-12.824-4.307a6.4 6.4 0 0 0-2.093-.335h-.03a6.4 6.4 0 0 0-2.093.335l-12.825 4.307a.5.5 0 0 0-.225.144.24.24 0 0 0-.057.143c-.129 1.657-.276 5.028-.181 11.395v.085l-.03 1.182c.001.863.073 1.722.206 2.574q.008.05.014.103c.793 7.441 4.163 12.484 7.605 15.716a23.4 23.4 0 0 0 4.922 3.562c1.362.728 2.32 1.034 2.679 1.11M138 61.67l.031-1.21c-.096-6.404.051-9.845.187-11.59.078-1.003.762-1.8 1.71-2.118l12.825-4.307A8.5 8.5 0 0 1 155.53 42a8.5 8.5 0 0 1 2.777.444l12.825 4.307c.948.319 1.632 1.115 1.71 2.118.136 1.745.283 5.186.187 11.59l.031 1.21c0 .986-.081 1.962-.232 2.925-1.708 16.028-14.599 21.955-17.134 22.268a.8.8 0 0 1-.19.013 1 1 0 0 1-.138-.013c-2.535-.313-15.426-6.24-17.134-22.268a19 19 0 0 1-.232-2.926" clip-rule="evenodd"/><path fill="#000" d="M155.53 86.876c0-8.414-.133-35.75 0-44.875a8.5 8.5 0 0 1 2.778.444l12.825 4.307c.947.319 1.631 1.115 1.71 2.118.136 1.745.282 5.186.186 11.59l.031 1.21c0 .986-.081 1.963-.232 2.925-1.708 16.028-14.599 21.955-17.134 22.268a1 1 0 0 1-.164.013" opacity=".1"/><circle cx="155.53" cy="65.14" r="12.621" fill="#18aa79"/><circle cx="155.53" cy="63.036" r="12.621" fill="#4fffa8"/><path fill="#00b7ff" d="M145.012 63.033c-.001-.93.124-1.858.369-2.756.405.865.993 1.613 1.392 2.501.517 1.142 1.904.826 2.516 1.826.544.888-.037 2.012.37 2.94.296.675.993.823 1.473 1.316.492.498.481 1.18.556 1.828a17 17 0 0 0 .415 2.278c-4.125-1.44-7.091-5.348-7.091-9.933m10.585 10.52q-.888 0-1.764-.146c.006-.149.008-.287.023-.384.134-.871.573-1.723 1.165-2.375.585-.643 1.387-1.078 1.881-1.808.484-.713.629-1.672.429-2.504-.294-1.23-1.975-1.64-2.881-2.307-.521-.383-.985-.976-1.669-1.024-.315-.022-.579.045-.892-.035-.286-.074-.511-.227-.817-.187-.57.074-.93.68-1.543.598-.582-.077-1.181-.754-1.314-1.304-.169-.708.394-.938.998-1.001.252-.026.534-.055.776.037.319.117.47.428.756.584.536.293.645-.174.563-.648-.123-.709-.267-.998.37-1.486.441-.336.818-.58.747-1.184-.042-.355-.237-.515-.055-.869.138-.269.518-.512.766-.672.639-.415 2.737-.384 1.88-1.543-.252-.34-.717-.949-1.158-1.032-.551-.104-.796.508-1.18.778-.397.278-1.17.595-1.568.164-.534-.58.355-.77.552-1.176.091-.189 0-.452-.154-.699q.298-.124.607-.231a.86.86 0 0 0 .441.164c.369.024.716-.174 1.038.076.358.274.615.62 1.089.705.459.083.945-.183 1.058-.65.069-.283 0-.583-.066-.876 2.062.012 4.075.625 5.789 1.765-.111-.042-.242-.037-.405.038-.335.155-.809.548-.848.938-.045.443.613.505.925.505.468 0 .943-.208.792-.746-.066-.233-.155-.476-.299-.623q.52.358.992.775l-.015.015c-.317.328-.686.589-.903.989-.153.281-.326.415-.636.488-.171.04-.366.055-.51.169-.399.312-.172 1.063.206 1.288.478.284 1.187.15 1.548-.255.282-.318.448-.87.954-.87.223 0 .438.087.597.242.209.216.168.418.213.687.078.48.503.22.762-.022q.283.5.509 1.028c-.284.407-.51.851-1.194.377-.41-.285-.662-.697-1.176-.826-.449-.11-.91.005-1.354.081-.504.087-1.102.126-1.485.505-.37.366-.565.856-.959 1.224-.761.712-1.083 1.49-.59 2.497.474.968 1.466 1.493 2.536 1.424 1.051-.07 2.143-.675 2.113.843-.011.537.102.91.268 1.409.154.46.143.906.179 1.381.033.556.121 1.108.261 1.648a10.56 10.56 0 0 1-3.701 2.992 10.6 10.6 0 0 1-4.647 1.07"/><path fill="#000" d="M151.323 71.45c6.97 0 12.621-5.65 12.621-12.62 0-2.408-.674-4.658-1.843-6.572a12.61 12.61 0 0 1 6.05 10.778c0 6.97-5.65 12.622-12.621 12.622a12.61 12.61 0 0 1-10.778-6.05 12.56 12.56 0 0 0 6.571 1.843" opacity=".1"/><path fill="#342b53" fill-rule="evenodd" d="M155.53 73.203c5.615 0 10.167-4.552 10.167-10.167S161.145 52.87 155.53 52.87s-10.167 4.552-10.167 10.167 4.552 10.167 10.167 10.167m0 2.455c6.971 0 12.621-5.651 12.621-12.622 0-6.97-5.65-12.621-12.621-12.621s-12.622 5.65-12.622 12.621c0 6.97 5.651 12.622 12.622 12.622" clip-rule="evenodd"/><g filter="url(#f)"><circle cx="166.398" cy="57.076" r="5.259" fill="#ff5e5c"/><path fill="#fff" d="M166.398 53.92c.875 0 1.584.71 1.584 1.584v.78h.397c.153 0 .277.124.277.278v2.69a.277.277 0 0 1-.277.278h-3.96a.28.28 0 0 1-.278-.279v-2.69c0-.153.124-.276.278-.276h.395v-.78c0-.876.71-1.585 1.584-1.585m-.004 3.297a.614.614 0 1 0 .001 1.227.614.614 0 0 0-.001-1.227m.004-2.505a.79.79 0 0 0-.792.792v.78h1.584v-.78a.79.79 0 0 0-.792-.792"/></g><path fill="#011e48" d="M193.707 109.707a1 1 0 0 0 0-1.414l-6.364-6.364a.999.999 0 1 0-1.414 1.414l5.657 5.657-5.657 5.657a.999.999 0 1 0 1.414 1.414zM65.5 94.5h-1V105h2V94.5zm4 14.5v1H193v-2H69.5zm-4-4h-1a5 5 0 0 0 5 5v-2a3 3 0 0 1-3-3zM193.707 18.793a1 1 0 0 1 0 1.414l-6.364 6.364a1 1 0 1 1-1.414-1.414l5.657-5.657-5.657-5.657a1 1 0 1 1 1.414-1.414zM65.5 34h-1V23.5h2V34zm4-14.5v-1H193v2H69.5zm-4 4h-1a5 5 0 0 1 5-5v2a3 3 0 0 0-3 3z"/></g><defs><clipPath id="a"><rect width="311" height="128" fill="#fff" rx="16"/></clipPath><clipPath id="b"><path fill="#fff" d="M83.984 41.545H94.19V51.75H83.984z"/></clipPath><clipPath id="c"><path fill="#fff" d="M100.992 41.545h10.205V51.75h-10.205z"/></clipPath><clipPath id="d"><path fill="#fff" d="M83.984 76.07H94.19v10.205H83.984z"/></clipPath><clipPath id="e"><path fill="#fff" d="M100.992 76.07h10.205v10.205h-10.205z"/></clipPath><filter id="f" width="11.055" height="11.055" x="160.871" y="51.548" color-interpolation-filters="sRGB" filterUnits="userSpaceOnUse"><feFlood flood-opacity="0" result="BackgroundImageFix"/><feColorMatrix in="SourceAlpha" result="hardAlpha" values="0 0 0 0 0 0 0 0 0 0 0 0 0 0 0 0 0 0 127 0"/><feOffset/><feGaussianBlur stdDeviation=".134"/><feComposite in2="hardAlpha" operator="out"/><feColorMatrix values="0 0 0 0 0 0 0 0 0 0 0 0 0 0 0 0 0 0 0.2 0"/><feBlend in2="BackgroundImageFix" result="effect1_dropShadow_14674_16323"/><feBlend in="SourceGraphic" in2="effect1_dropShadow_14674_16323" result="shape"/></filter></defs></svg>