<svg xmlns="http://www.w3.org/2000/svg" width="156" height="156" fill="none" viewBox="0 0 156 156"><circle cx="78" cy="78" r="77.5" fill="#fff" fill-opacity=".1" stroke="#fff"/><path fill="#fff" fill-opacity=".15" stroke="#fff" stroke-linecap="round" stroke-linejoin="round" d="M77.946 54.938c-12.483 0-25.288 7.224-35.368 21.673a2.56 2.56 0 0 0-.043 2.846c7.745 12.124 20.378 21.605 35.41 21.605 14.87 0 27.762-9.51 35.522-21.66a2.59 2.59 0 0 0 0-2.799c-7.778-12.011-20.765-21.665-35.521-21.665"/><path fill="#d94d3b" fill-opacity=".6" stroke="#fff" stroke-miterlimit="10" d="M78 90.813c7.076 0 12.813-5.737 12.813-12.813S85.076 65.188 78 65.188 65.188 70.924 65.188 78 70.924 90.813 78 90.813Z"/></svg>