<svg xmlns="http://www.w3.org/2000/svg" width="28" height="28" fill="none" viewBox="0 0 28 28"><path fill="#3066ff" stroke="#3066ff" stroke-width=".125" d="M15.353 4.51a12.21 12.21 0 0 1 10.296 8.519l.128.44a.37.37 0 0 1-.198.43.4.4 0 0 1-.166.039H22.78a.955.955 0 0 0-.965.874.936.936 0 0 0 .938 1h3.054a.375.375 0 0 1 .375.362v.001q.008.222.006.45v2.625a1.687 1.687 0 0 1-1.687 1.688H12.68a.377.377 0 0 1-.353-.505l.049-.09 6.735-9.26a.96.96 0 0 0-.16-1.32l-.002-.002a.94.94 0 0 0-1.332.19L9.742 20.785a.38.38 0 0 1-.307.153H3.5a1.69 1.69 0 0 1-1.687-1.688V16.75c0-.197 0-.389.013-.579v-.002a.376.376 0 0 1 .375-.355H5.25a.94.94 0 0 0 .938-1v-.001l-.012-.09a.96.96 0 0 0-.955-.784H2.616a.375.375 0 0 1-.363-.47c1.306-4.77 5.405-8.392 10.395-8.952a.374.374 0 0 1 .415.375v2.983a.94.94 0 0 0 1 .938.96.96 0 0 0 .872-.877l.002-.09v-2.96a.375.375 0 0 1 .415-.375Z"/></svg>