<svg xmlns="http://www.w3.org/2000/svg" width="29" height="28" fill="none" viewBox="0 0 29 28"><path fill="#3066ff" stroke="#3066ff" stroke-width="0.125" d="M15.8525 4.51025C18.2888 4.78402 20.586 5.78546 22.4453 7.3833C24.1885 8.88142 25.471 10.8391 26.1494 13.0288L26.2773 13.4692C26.2915 13.5245 26.2928 13.5823 26.2812 13.6382C26.2697 13.6943 26.2451 13.7472 26.21 13.7925C26.1749 13.8376 26.1304 13.8748 26.0791 13.8999C26.0276 13.9251 25.9704 13.9381 25.9131 13.938H23.2793C23.0381 13.935 22.8048 14.0231 22.626 14.1851C22.4469 14.3472 22.3351 14.5713 22.3145 14.812V14.813C22.306 14.9412 22.3239 15.0699 22.3672 15.1909C22.4104 15.3119 22.4786 15.4224 22.5664 15.5161C22.6543 15.6099 22.7609 15.6849 22.8789 15.7358C22.9967 15.7867 23.1237 15.8132 23.252 15.813H26.3057C26.4028 15.8129 26.4965 15.8501 26.5664 15.9175C26.6363 15.985 26.6772 16.0772 26.6807 16.1743V16.1753C26.6871 16.3234 26.6875 16.4733 26.6875 16.6255V19.2505C26.6874 19.6978 26.5096 20.1265 26.1934 20.4429C25.8769 20.7593 25.4476 20.938 25 20.938H13.1797C13.1106 20.938 13.0424 20.9184 12.9834 20.8823C12.9246 20.8462 12.8771 20.7944 12.8457 20.7329C12.8143 20.6714 12.8003 20.6025 12.8057 20.5337C12.8084 20.4993 12.8154 20.4652 12.8271 20.4331L12.876 20.3423L19.6113 11.0835L19.6104 11.0825C19.7591 10.8844 19.8267 10.6371 19.7969 10.3911C19.767 10.1447 19.6425 9.91909 19.4502 9.76221L19.4492 9.76123C19.3501 9.68438 19.2364 9.62838 19.1152 9.59619C18.994 9.56398 18.8674 9.55615 18.7432 9.57373C18.6189 9.59133 18.4992 9.63411 18.3916 9.69873C18.2841 9.76334 18.191 9.84931 18.1172 9.95068L10.2422 20.7847C10.2068 20.8328 10.1599 20.8714 10.1064 20.8979C10.053 20.9245 9.99424 20.9388 9.93457 20.938H4C3.55245 20.938 3.12311 20.7593 2.80664 20.4429C2.49045 20.1265 2.31261 19.6978 2.3125 19.2505V16.7485C2.3125 16.5524 2.31217 16.3601 2.32617 16.1704V16.1685C2.33106 16.0724 2.37363 15.9818 2.44336 15.9155C2.51302 15.8495 2.6052 15.813 2.70117 15.813H5.75C5.87847 15.8133 6.00608 15.7868 6.12402 15.7358C6.24188 15.6849 6.34771 15.6098 6.43555 15.5161C6.52343 15.4224 6.59149 15.3119 6.63477 15.1909C6.67805 15.0699 6.69601 14.9412 6.6875 14.813V14.812L6.67578 14.7222C6.63816 14.5155 6.53301 14.326 6.37598 14.1841C6.19667 14.0221 5.96228 13.9345 5.7207 13.938H3.11621C3.05903 13.9379 3.0025 13.9241 2.95117 13.8989C2.90005 13.8738 2.85524 13.8375 2.82031 13.7925C2.7853 13.7472 2.76056 13.6942 2.74902 13.6382C2.7375 13.5822 2.73863 13.5236 2.75293 13.4683C4.05923 8.69787 8.15808 5.07641 13.1475 4.51611C13.1998 4.51049 13.2527 4.51558 13.3027 4.53174C13.353 4.54802 13.3993 4.57543 13.4385 4.61084C13.4777 4.64624 13.509 4.68946 13.5303 4.73779C13.5515 4.7861 13.5628 4.83833 13.5625 4.89111V7.87451C13.5622 8.00303 13.5887 8.13055 13.6396 8.24854C13.6906 8.3665 13.7647 8.47313 13.8584 8.56104C13.9521 8.64895 14.0636 8.71599 14.1846 8.75928C14.3055 8.80252 14.4343 8.82052 14.5625 8.81201H14.5635C14.8046 8.79126 15.0292 8.68005 15.1914 8.50049C15.3332 8.34342 15.418 8.14432 15.4346 7.93506L15.4375 7.84424V4.88525C15.4372 4.8325 15.4484 4.78021 15.4697 4.73193C15.491 4.68367 15.5224 4.64034 15.5615 4.60498C15.6007 4.56966 15.6471 4.54311 15.6973 4.52686C15.7474 4.51066 15.8002 4.50463 15.8525 4.51025Z"/></svg>