<svg xmlns="http://www.w3.org/2000/svg" width="16" height="16" fill="none" viewBox="0 0 16 16"><g clip-path="url(#clip0_4253_3251)"><path fill="#6e7191" d="M7.33301 9.3334V14.6667H4.66634C4.13591 14.6667 3.6272 14.456 3.25213 14.0809C2.87705 13.7059 2.66634 13.1972 2.66634 12.6667V10.0001C2.66634 9.82325 2.73658 9.65369 2.8616 9.52866C2.98663 9.40364 3.1562 9.3334 3.33301 9.3334H7.33301ZM12.6663 9.3334C12.8432 9.3334 13.0127 9.40364 13.1377 9.52866C13.2628 9.65369 13.333 9.82325 13.333 10.0001V12.6667C13.333 13.1972 13.1223 13.7059 12.7472 14.0809C12.3721 14.456 11.8634 14.6667 11.333 14.6667H8.66634V9.3334H12.6663ZM10.9997 1.3334C11.3933 1.33332 11.7806 1.43284 12.1255 1.62271C12.4704 1.81258 12.7616 2.08661 12.9721 2.41931C13.1825 2.752 13.3054 3.13254 13.3292 3.5255C13.353 3.91845 13.2771 4.31104 13.1083 4.66673H13.333C13.6866 4.66673 14.0258 4.80721 14.2758 5.05726C14.5259 5.30731 14.6663 5.64644 14.6663 6.00007V6.66673C14.6663 7.02035 14.5259 7.35949 14.2758 7.60954C14.0258 7.85959 13.6866 8.00007 13.333 8.00007H8.66634V4.66673H7.33301V8.00007H2.66634C2.31272 8.00007 1.97358 7.85959 1.72353 7.60954C1.47348 7.35949 1.33301 7.02035 1.33301 6.66673V6.00007C1.33301 5.64644 1.47348 5.30731 1.72353 5.05726C1.97358 4.80721 2.31272 4.66673 2.66634 4.66673H2.89101C2.74263 4.35427 2.66588 4.01263 2.66634 3.66673C2.66634 2.37807 3.71101 1.3334 4.98834 1.3334C6.15834 1.3134 7.19634 2.0614 7.90901 3.2894L7.99967 3.4514C8.68834 2.1754 9.70634 1.3754 10.8603 1.33473L10.9997 1.3334ZM4.99967 2.66673C4.73446 2.66673 4.4801 2.77209 4.29257 2.95963C4.10503 3.14716 3.99967 3.40152 3.99967 3.66673C3.99967 3.93195 4.10503 4.1863 4.29257 4.37384C4.4801 4.56138 4.73446 4.66673 4.99967 4.66673H7.09501C6.60101 3.39673 5.79567 2.6534 4.99967 2.66673ZM10.9883 2.66673C10.2017 2.6534 9.39834 3.3974 8.90434 4.66673H10.9997C11.2649 4.66523 11.5186 4.55843 11.7051 4.36983C11.8916 4.18123 11.9955 3.92628 11.994 3.66107C11.9925 3.39585 11.8857 3.14209 11.6971 2.95562C11.5085 2.76915 11.2536 2.66523 10.9883 2.66673Z"/></g><defs><clipPath id="clip0_4253_3251"><path fill="#fff" d="M0 0H16V16H0z"/></clipPath></defs></svg>