<svg xmlns="http://www.w3.org/2000/svg" width="24" height="24" fill="none" viewBox="0 0 24 24"><path fill="#293a53" d="M21.137 5.88033L20.8078 5.98536L19.0568 6.1394L18.5595 6.93062L18.2023 6.81859L16.8085 5.55824L16.6053 4.90706L16.3322 4.20687L15.4567 3.42266L14.4201 3.2196L14.399 3.69573L15.4146 4.683L15.9119 5.26416L15.3516 5.55824L14.8963 5.42521L14.2169 5.13813L14.2379 4.59198L13.3484 4.22088L13.0472 5.50923L12.1507 5.71228L12.2418 6.43348L13.4115 6.65754L13.6146 5.50923L14.5811 5.64927L15.0294 5.91534H15.7508L16.2411 6.90261L17.5509 8.23297L17.4528 8.75111L16.3952 8.61808L14.5741 9.53533L13.2574 11.1108L13.0893 11.8109H12.627L11.7515 11.4048L10.897 11.8109L11.1071 12.7072L11.4783 12.2801L12.1297 12.2591L12.0877 13.0643L12.627 13.2253L13.1663 13.8345L14.0488 13.5894L15.0574 13.7505L16.2271 14.0656L16.8085 14.1356L17.7961 15.2559L19.7082 16.3762L18.4755 18.7358L17.1727 19.345L16.6754 20.6964L14.7843 21.9567L14.5811 22.6849C19.407 21.5226 23.0001 17.1884 23.0001 12.007C23.0001 9.73138 22.3137 7.63081 21.137 5.88033Z"/><path fill="#293a53" d="M13.264 17.749 12.466 16.264 13.201 14.731 12.466 14.514 11.639 13.688 9.811 13.274 9.202 12.007V12.763H8.936L7.36 10.628V8.87L6.204 6.987 4.369 7.309H3.129L2.506 6.903 3.297 6.272 2.513 6.455C1.553 8.086 1 9.976 1 12 1 18.071 5.924 23 11.997 23 12.466 23 12.921 22.958 13.376 22.902L13.264 21.572C13.264 21.572 13.769 19.59 13.769 19.527 13.769 19.457 13.264 17.749 13.264 17.749ZM5.09 4.55 7.044 4.277 7.947 3.787 8.963 4.081 10.581 3.99 11.134 3.122 11.94 3.255 13.908 3.073 14.447 2.477 15.211 1.966 16.289 2.127 16.682 2.064C15.26 1.385 13.677 1 11.996 1 8.585 1 5.531 2.554 3.514 4.998H3.521L5.09 4.55ZM12.465 2.092 13.586 1.476 14.307 1.889 13.263 2.68 12.269 2.778 11.821 2.484 12.465 2.092ZM9.138 2.183 9.635 2.386 10.287 2.183 10.637 2.799 9.138 3.192 8.417 2.771C8.417 2.771 9.117 2.316 9.138 2.183Z"/></svg>