<svg xmlns="http://www.w3.org/2000/svg" width="16" height="16" fill="none" viewBox="0 0 16 16"><g id="noto:fire"><path id="Vector" fill="url(#paint0_radial_10922_67809)" d="M4.44505 5.09124C4.3738 5.85124 4.3238 7.19624 4.77255 7.76874C4.77255 7.76874 4.5613 6.29124 6.45505 4.43749C7.21755 3.69124 7.3938 2.67624 7.12755 1.91499C6.9763 1.48374 6.70005 1.12749 6.46005 0.878737C6.32005 0.732487 6.42755 0.491237 6.6313 0.499987C7.8638 0.554987 9.8613 0.897487 10.71 3.02749C11.0825 3.96249 11.11 4.92874 10.9325 5.91124C10.82 6.53874 10.42 7.93374 11.3325 8.10499C11.9838 8.22749 12.2988 7.70999 12.44 7.33749C12.4988 7.18249 12.7025 7.14374 12.8125 7.26749C13.9125 8.51874 14.0063 9.99249 13.7788 11.2612C13.3388 13.7137 10.855 15.4987 8.38755 15.4987C5.30505 15.4987 2.8513 13.735 2.21505 10.5425C1.9588 9.25374 2.0888 6.70374 4.0763 4.90374C4.2238 4.76874 4.46505 4.88874 4.44505 5.09124Z"/><path id="Vector_2" fill="url(#paint1_radial_10922_67809)" d="M9.51384 9.67751C8.37759 8.21501 8.88634 6.54626 9.16509 5.88126C9.20259 5.79376 9.10259 5.71126 9.02384 5.76501C8.53509 6.09751 7.53384 6.88001 7.06759 7.98126C6.43634 9.47001 6.48134 10.1988 6.85509 11.0888C7.08009 11.625 6.81884 11.7388 6.68759 11.7588C6.56009 11.7788 6.44259 11.6938 6.34884 11.605C6.07919 11.346 5.887 11.0171 5.79384 10.655C5.77384 10.5775 5.67259 10.5563 5.62634 10.62C5.27634 11.1038 5.09509 11.88 5.08634 12.4288C5.05884 14.125 6.46009 15.5 8.15509 15.5C10.2913 15.5 11.8476 13.1375 10.6201 11.1625C10.2638 10.5875 9.92884 10.2113 9.51384 9.67751Z"/></g><defs><radialGradient id="paint0_radial_10922_67809" cx="0" cy="0" r="1" gradientTransform="rotate(180.249 3.905 7.76)scale(8.82346 14.4775)" gradientUnits="userSpaceOnUse"><stop offset="0.314" stop-color="#ff9800"/><stop offset="0.662" stop-color="#ff6d00"/><stop offset="0.972" stop-color="#f44336"/></radialGradient><radialGradient id="paint1_radial_10922_67809" cx="0" cy="0" r="1" gradientTransform="rotate(90.579 .792 7.473)scale(9.23205 6.94781)" gradientUnits="userSpaceOnUse"><stop offset="0.214" stop-color="#fff176"/><stop offset="0.328" stop-color="#fff27d"/><stop offset="0.487" stop-color="#fff48f"/><stop offset="0.672" stop-color="#fff7ad"/><stop offset="0.793" stop-color="#fff9c4"/><stop offset="0.822" stop-color="#fff8bd" stop-opacity="0.804"/><stop offset="0.863" stop-color="#fff6ab" stop-opacity="0.529"/><stop offset="0.91" stop-color="#fff38d" stop-opacity="0.209"/><stop offset="0.941" stop-color="#fff176" stop-opacity="0"/></radialGradient></defs></svg>