<svg xmlns="http://www.w3.org/2000/svg" width="16" height="16" fill="none" viewBox="0 0 16 16"><path fill="#fff" d="M13.9891 7.05625C13.9891 7.06183 13.989 7.06691 13.9853 7.07248L12.7701 12.3409C12.7327 12.5265 12.6281 12.6938 12.4743 12.8142C12.3206 12.9345 12.1273 13.0004 11.9278 13.0003H4.07437C3.87495 13.0003 3.68179 12.9344 3.52815 12.814C3.37451 12.6937 3.27 12.5264 3.23261 12.3409L2.01738 7.07248C2.01738 7.06691 2.01471 7.06183 2.01363 7.05625C1.98037 6.88182 2.00836 6.70188 2.0933 6.54392C2.17825 6.38596 2.3155 6.25867 2.48406 6.1815C2.65263 6.10434 2.84325 6.08153 3.0268 6.11657C3.21034 6.15162 3.37672 6.24258 3.50051 6.37557L5.3046 8.21626L7.22281 4.14382C7.2229 4.14213 7.2229 4.14043 7.22281 4.13874C7.2914 3.99791 7.40118 3.87864 7.53915 3.79503C7.67713 3.71142 7.83752 3.66699 8.00134 3.66699C8.16516 3.66699 8.32555 3.71142 8.46353 3.79503C8.6015 3.87864 8.71129 3.99791 8.77988 4.13874C8.77979 4.14043 8.77979 4.14213 8.77988 4.14382L10.6981 8.21626L12.5022 6.37557C12.6262 6.24357 12.7924 6.15349 12.9754 6.11902C13.1585 6.08455 13.3484 6.10757 13.5164 6.18458C13.6843 6.26158 13.8212 6.38837 13.9061 6.5457C13.991 6.70302 14.0194 6.88228 13.9869 7.05625H13.9891Z"/></svg>