<svg xmlns="http://www.w3.org/2000/svg" width="24" height="24" fill="none" viewBox="0 0 24 24"><path stroke="#cbd7f9" stroke-linecap="round" stroke-linejoin="round" stroke-width="1.5" d="M22.5 18V9C22.5 8.172 21.828 7.5 21 7.5H16.5C15.672 7.5 15 8.172 15 9V18C15 18.828 15.672 19.5 16.5 19.5H21C21.828 19.5 22.5 18.828 22.5 18ZM12 19.5H8.25"/><path stroke="#cbd7f9" stroke-linecap="round" stroke-linejoin="round" stroke-width="1.5" d="M15 16.5H3.75C3.352 16.5 2.971 16.342 2.689 16.061 2.408 15.779 2.25 15.398 2.25 15V6C2.25 5.602 2.408 5.221 2.689 4.939 2.971 4.658 3.352 4.5 3.75 4.5H17.25C17.648 4.5 18.029 4.658 18.311 4.939 18.592 5.221 18.75 5.602 18.75 6V7.5M18 10.5H19.5"/></svg>