<svg xmlns="http://www.w3.org/2000/svg" width="16" height="16" fill="none" viewBox="0 0 16 16"><path fill="url(#paint0_linear_13288_8132)" d="M13.9891 7.05528C13.9891 7.06086 13.989 7.06593 13.9853 7.07151L12.7701 12.34C12.7327 12.5255 12.6281 12.6928 12.4743 12.8132C12.3206 12.9336 12.1273 12.9994 11.9278 12.9993H4.07437C3.87495 12.9993 3.68179 12.9334 3.52815 12.813C3.37451 12.6927 3.27 12.5254 3.23261 12.34L2.01738 7.07151C2.01738 7.06593 2.01471 7.06086 2.01363 7.05528C1.98037 6.88085 2.00836 6.7009 2.0933 6.54294C2.17825 6.38499 2.3155 6.2577 2.48406 6.18053C2.65263 6.10336 2.84325 6.08055 3.0268 6.1156C3.21034 6.15064 3.37672 6.24161 3.50051 6.37459L5.3046 8.21528L7.22281 4.14284C7.2229 4.14115 7.2229 4.13946 7.22281 4.13777C7.2914 3.99694 7.40118 3.87766 7.53915 3.79405C7.67713 3.71045 7.83752 3.66602 8.00134 3.66602C8.16516 3.66602 8.32555 3.71045 8.46353 3.79405C8.6015 3.87766 8.71129 3.99694 8.77988 4.13777C8.77979 4.13946 8.77979 4.14115 8.77988 4.14284L10.6981 8.21528L12.5022 6.37459C12.6262 6.24259 12.7924 6.15252 12.9754 6.11805C13.1585 6.08358 13.3484 6.10659 13.5164 6.1836C13.6843 6.26061 13.8212 6.3874 13.9061 6.54472C13.991 6.70204 14.0194 6.8813 13.9869 7.05528H13.9891Z"/><defs><linearGradient id="paint0_linear_13288_8132" x1="14" x2="2" y1="8.33268" y2="8.33268" gradientUnits="userSpaceOnUse"><stop stop-color="#ffa600"/><stop offset="1" stop-color="#f70"/></linearGradient></defs></svg>