<svg xmlns="http://www.w3.org/2000/svg" width="16" height="16" fill="none" viewBox="0 0 16 16"><g id="fluent-color:warning-24"><g id="Group"><path id="Vector" fill="url(#paint0_linear_10922_67861)" d="M6.68671 2.43934C7.25738 1.40734 8.74071 1.40734 9.31138 2.43934L14.4754 11.7733C15.0287 12.7733 14.3054 14 13.1627 14H2.83605C1.69271 14 0.969381 12.7733 1.52271 11.7733L6.68671 2.43934Z"/><path id="Vector_2" fill="url(#paint1_linear_10922_67861)" d="M8.66467 11.3334C8.6675 11.2442 8.65237 11.1553 8.62019 11.0721C8.588 10.9889 8.53942 10.913 8.47733 10.8489C8.41524 10.7848 8.3409 10.7338 8.25873 10.699C8.17657 10.6642 8.08824 10.6463 7.99901 10.6463C7.90977 10.6463 7.82145 10.6642 7.73928 10.699C7.65711 10.7338 7.58278 10.7848 7.52068 10.8489C7.45859 10.913 7.41001 10.9889 7.37783 11.0721C7.34565 11.1553 7.33052 11.2442 7.33334 11.3334C7.33881 11.5063 7.41134 11.6703 7.53558 11.7906C7.65982 11.911 7.82602 11.9783 7.99901 11.9783C8.17199 11.9783 8.33819 11.911 8.46243 11.7906C8.58667 11.6703 8.6592 11.5063 8.66467 11.3334ZM8.49201 6.09872C8.47473 5.97316 8.41042 5.85885 8.31208 5.7789C8.21374 5.69895 8.0887 5.65933 7.96226 5.66806C7.83582 5.67678 7.71741 5.73319 7.63098 5.82589C7.54455 5.91859 7.49654 6.04065 7.49667 6.16739L7.49934 9.16805L7.50401 9.23605C7.52128 9.36161 7.58559 9.47592 7.68394 9.55587C7.78228 9.63582 7.90731 9.67544 8.03375 9.66672C8.16019 9.65799 8.2786 9.60158 8.36504 9.50888C8.45147 9.41619 8.49947 9.29413 8.49934 9.16739L8.49667 6.16605L8.49201 6.09872Z"/></g></g><defs><linearGradient id="paint0_linear_10922_67861" x1="3.41671" x2="11.146" y1="-0.261989" y2="15.6513" gradientUnits="userSpaceOnUse"><stop stop-color="#ffcd0f"/><stop offset="1" stop-color="#fe8401"/></linearGradient><linearGradient id="paint1_linear_10922_67861" x1="6.22401" x2="9.16801" y1="5.66672" y2="12.2701" gradientUnits="userSpaceOnUse"><stop stop-color="#4a4a4a"/><stop offset="1" stop-color="#212121"/></linearGradient></defs></svg>