<svg xmlns="http://www.w3.org/2000/svg" width="24" height="24" fill="none" viewBox="0 0 24 24"><path stroke="#cbd7f9" stroke-linecap="round" stroke-linejoin="round" stroke-width="1.5" d="M11.25 15 20.25 6M5.291 15C5.264 14.751 5.25 14.501 5.25 14.25 5.251 13.179 5.507 12.123 5.996 11.17 6.485 10.217 7.194 9.394 8.064 8.769 8.934 8.144 9.94 7.735 10.999 7.575 12.059 7.416 13.141 7.511 14.156 7.852"/><path stroke="#cbd7f9" stroke-linecap="round" stroke-linejoin="round" stroke-width="1.5" d="M20.6831 9.81002C21.2845 10.99 21.6401 12.2797 21.7284 13.6011C21.8167 14.9225 21.6359 16.2481 21.1969 17.4975C21.1456 17.6448 21.0497 17.7724 20.9225 17.8627C20.7953 17.9529 20.6431 18.0012 20.4872 18.001H3.51186C3.35562 18.0003 3.20344 17.9511 3.07632 17.8603C2.9492 17.7694 2.85341 17.6414 2.80218 17.4938C2.4272 16.4276 2.24036 15.3043 2.24999 14.1741C2.29124 8.81252 6.72468 4.45221 12.0937 4.50002C13.607 4.51217 15.0966 4.87749 16.4437 5.5669"/></svg>