<svg xmlns="http://www.w3.org/2000/svg" width="24" height="24" fill="none" viewBox="0 0 24 24"><path fill="url(#paint0_linear_11548_39378)" d="M10.3779 2.94178C11.0988 1.68608 12.9012 1.68607 13.6221 2.94178L22.7463 18.8342C23.4672 20.0899 22.566 21.6596 21.1242 21.6596H2.87581C1.43396 21.6596 0.532807 20.0899 1.25373 18.8342L10.3779 2.94178Z"/><path fill="url(#paint1_linear_11548_39378)" d="M10.3779 2.94178C11.0988 1.68608 12.9012 1.68607 13.6221 2.94178L22.7463 18.8342C23.4672 20.0899 22.566 21.6596 21.1242 21.6596H2.87581C1.43396 21.6596 0.532807 20.0899 1.25373 18.8342L10.3779 2.94178Z"/><rect width="1.40426" height="6.08511" x="11.2969" y="9.02148" fill="#fff" rx="0.702128"/><circle cx="11.999" cy="17.6806" r="0.702128" fill="#fff"/><defs><linearGradient id="paint0_linear_11548_39378" x1="12" x2="12" y1="2" y2="21.6596" gradientUnits="userSpaceOnUse"><stop stop-color="#eabb44"/><stop offset="1" stop-color="#e4b02d"/></linearGradient><linearGradient id="paint1_linear_11548_39378" x1="12" x2="12" y1="2" y2="21.6596" gradientUnits="userSpaceOnUse"><stop stop-color="#ea5c44"/><stop offset="1" stop-color="#d2513b"/></linearGradient></defs></svg>