<svg xmlns="http://www.w3.org/2000/svg" width="24" height="24" fill="none" viewBox="0 0 24 24"><path fill="#f6b94f" d="M21.1737 9.40144C21.177 9.45869 21.1727 9.51694 21.1582 9.57481L19.8629 14.7081C19.7976 14.9668 19.5636 15.1486 19.2947 15.15L11.5227 15.1889C11.5217 15.1889 11.5207 15.1889 11.5197 15.1889H3.74766C3.47729 15.1889 3.2417 15.0064 3.17639 14.7465L1.88106 9.59371C1.86614 9.53429 1.86182 9.4744 1.86559 9.41568C1.3645 9.25927 1 8.7947 1 8.24722C1 7.57172 1.55464 7.02222 2.23645 7.02222C2.91826 7.02222 3.4729 7.57172 3.4729 8.24722C3.4729 8.62763 3.29697 8.96799 3.0215 9.19284L4.64324 10.8117C5.05312 11.2209 5.62188 11.4555 6.20376 11.4555C6.89178 11.4555 7.54776 11.1318 7.96085 10.5894L10.6261 7.09067C10.4022 6.869 10.2636 6.56271 10.2636 6.225C10.2636 5.5495 10.8182 5 11.5 5C12.1818 5 12.7364 5.5495 12.7364 6.225C12.7364 6.5526 12.6052 6.84994 12.393 7.06998C12.3937 7.07091 12.3946 7.07169 12.3953 7.0727L15.0412 10.5811C15.4541 11.1287 16.1125 11.4556 16.8024 11.4556C17.3897 11.4556 17.9419 11.229 18.3571 10.8175L19.989 9.2007C19.7077 8.97592 19.5271 8.6323 19.5271 8.24722C19.5271 7.57172 20.0817 7.02222 20.7636 7.02222C21.4454 7.02222 22 7.57172 22 8.24722C22 8.78008 21.6542 9.23329 21.1737 9.40144ZM19.7365 17.0167C19.7365 16.6945 19.4729 16.4333 19.1477 16.4333H3.91778C3.59262 16.4333 3.329 16.6945 3.329 17.0167V18.4167C3.329 18.7388 3.59262 19 3.91778 19H19.1477C19.4729 19 19.7365 18.7388 19.7365 18.4167V17.0167Z"/></svg>