<svg xmlns="http://www.w3.org/2000/svg" width="344" height="188" fill="none" viewBox="0 0 344 188"><rect width="344" height="188" fill="url(#paint0_linear_11547_39107)" rx="12"/><g clip-path="url(#clip0_11547_39107)" filter="url(#filter0_d_11547_39107)"><rect width="320" height="149.333" x="12" y="20" fill="#1a2b4b" rx="8"/><path fill="#031631" d="M16.2666 32.6699C16.2666 28.2516 19.8483 24.6699 24.2666 24.6699H38.1333C42.5515 24.6699 46.1333 28.2516 46.1333 32.6699V41.7366H16.2666V32.6699Z"/><rect width="10.6667" height="10.6667" x="20.5332" y="28.9365" fill="#1f314b" rx="2"/><g clip-path="url(#clip1_11547_39107)"><path fill="#515478" d="M40.2137 32.1596C40.3709 32.0314 40.6034 32.0405 40.7499 32.1869C40.8961 32.3333 40.9051 32.565 40.7772 32.7221L40.7499 32.7524L39.2323 34.2699L40.7499 35.7875L40.7772 35.8168C40.9054 35.9739 40.8963 36.2065 40.7499 36.3529C40.6034 36.4994 40.3709 36.5085 40.2137 36.3803L40.1835 36.3529L38.6659 34.8354L37.1493 36.3529C36.9931 36.5089 36.74 36.5089 36.5839 36.3529C36.4277 36.1968 36.4279 35.9437 36.5839 35.7875L38.1005 34.2699L36.5839 32.7524L36.5565 32.7221C36.4284 32.565 36.4374 32.3334 36.5839 32.1869C36.7303 32.0406 36.9619 32.0315 37.119 32.1596L37.1493 32.1869L38.6659 33.7035L40.1835 32.1869L40.2137 32.1596Z"/></g><path fill="#031631" d="M46.1338 41.7363L46.1387 41.9561C46.2529 44.2105 48.1176 46.0029 50.4004 46.0029H12C14.2828 46.0029 16.1465 44.2105 16.2607 41.9561L16.2666 41.7363H46.1338Z"/><path fill="#6e7191" d="M63.2012 31.0703C63.5939 31.0703 63.9121 31.3885 63.9121 31.7812V34.625H66.7559C67.1485 34.6252 67.4668 34.9443 67.4668 35.3369C67.4665 35.7293 67.1483 36.0477 66.7559 36.0479H63.9121V38.8926C63.9119 39.2851 63.5937 39.6035 63.2012 39.6035C62.8086 39.6035 62.4905 39.2851 62.4902 38.8926V36.0479H59.6445C59.2519 36.0479 58.9338 35.7294 58.9336 35.3369C58.9336 34.9442 59.2518 34.625 59.6445 34.625H62.4902V31.7812C62.4902 31.3885 62.8084 31.0703 63.2012 31.0703Z"/><path fill="#031631" d="M12 46H332V168C332 172.418 328.418 176 324 176H20C15.5817 176 12 172.418 12 168V46Z"/><path stroke="#6e7191" stroke-linecap="round" stroke-linejoin="round" d="M29.533 60.533H22.2M25.2 57.533 22.2 60.533 25.2 63.533M43.533 60.533H50.867M47.867 57.533 50.867 60.533 47.867 63.533"/><g stroke="#515478" stroke-linecap="round" stroke-linejoin="round" clip-path="url(#clip2_11547_39107)"><path stroke-width="1.5" d="M70.8735 59.3551H72.5402V57.6885"/><path d="M71.1256 63.1263C70.6128 63.6391 69.9595 63.9883 69.2482 64.1298C68.5369 64.2713 67.7997 64.1987 67.1297 63.9212C66.4597 63.6436 65.8871 63.1737 65.4842 62.5707C65.0813 61.9677 64.8662 61.2588 64.8662 60.5336C64.8662 59.8084 65.0813 59.0995 65.4842 58.4965C65.8871 57.8935 66.4597 57.4236 67.1297 57.1461C67.7997 56.8685 68.5369 56.7959 69.2482 56.9374C69.9595 57.0789 70.6128 57.4281 71.1256 57.9409L72.5398 59.3551"/></g><rect width="196.267" height="21.3333" x="84.5332" y="49.8667" fill="#13253f" rx="10.6667"/><path fill="#20df9e" d="M293.598 64.7999C293.596 64.7999 293.595 64.7999 293.593 64.7999C293.585 64.7999 293.576 64.7991 293.566 64.7974C293.078 64.7378 290.594 63.6107 290.265 60.563C290.236 60.38 290.22 60.1944 290.22 60.0067L290.226 59.7766C290.208 58.5591 290.236 57.9047 290.262 57.5728C290.277 57.3822 290.409 57.2307 290.592 57.1702L293.063 56.3511C293.237 56.2935 293.417 56.2654 293.598 56.2666C293.779 56.2654 293.959 56.2935 294.133 56.3511L296.604 57.1702C296.787 57.2307 296.919 57.3822 296.934 57.5728C296.96 57.9047 296.988 58.5591 296.97 59.7766L296.976 60.0067C296.976 60.1944 296.96 60.38 296.931 60.563C296.602 63.6107 294.118 64.7378 293.63 64.7974C293.62 64.7991 293.611 64.7999 293.603 64.7999C293.601 64.7999 293.6 64.7999 293.598 64.7999Z"/><path fill="#20a690" fill-rule="evenodd" d="M293.598 64.3973C293.667 64.383 293.852 64.3248 294.114 64.1864C294.392 64.0398 294.729 63.8181 295.063 63.5092C295.726 62.8945 296.375 61.9356 296.528 60.5206C296.529 60.514 296.53 60.5075 296.531 60.501C296.556 60.339 296.57 60.1757 296.57 60.0116L296.565 59.7868C296.564 59.7814 296.564 59.776 296.565 59.7706C296.583 58.56 296.555 57.919 296.53 57.6039C296.529 57.5927 296.525 57.5844 296.519 57.5767C296.512 57.568 296.498 57.5569 296.475 57.5494L294.004 56.7303C293.873 56.6869 293.737 56.6657 293.601 56.6666H293.595C293.459 56.6657 293.323 56.6869 293.192 56.7303L290.721 57.5494C290.698 57.5569 290.684 57.568 290.677 57.5767C290.671 57.5844 290.667 57.5927 290.666 57.6039C290.641 57.919 290.613 58.56 290.631 59.7706C290.632 59.776 290.631 59.7814 290.631 59.7868L290.626 60.0116C290.626 60.1757 290.64 60.339 290.665 60.501C290.666 60.5075 290.667 60.514 290.668 60.5206C290.821 61.9356 291.47 62.8945 292.133 63.5092C292.467 63.8181 292.804 64.0398 293.082 64.1864C293.344 64.3248 293.529 64.383 293.598 64.3973ZM290.22 60.0067L290.226 59.7766C290.208 58.5591 290.236 57.9047 290.262 57.5728C290.277 57.3822 290.409 57.2307 290.592 57.1702L293.063 56.3511C293.237 56.2935 293.417 56.2654 293.598 56.2666C293.779 56.2654 293.959 56.2935 294.133 56.3511L296.604 57.1702C296.787 57.2307 296.919 57.3822 296.934 57.5728C296.96 57.9047 296.988 58.5591 296.97 59.7766L296.976 60.0067C296.976 60.1944 296.96 60.38 296.931 60.563C296.602 63.6107 294.118 64.7378 293.63 64.7974C293.62 64.7991 293.611 64.7999 293.603 64.7999C293.601 64.7999 293.6 64.7999 293.598 64.7999C293.596 64.7999 293.595 64.7999 293.593 64.7999C293.585 64.7999 293.576 64.7991 293.566 64.7974C293.078 64.7378 290.594 63.6107 290.265 60.563C290.236 60.38 290.22 60.1944 290.22 60.0067Z" clip-rule="evenodd"/><path fill="#000" d="M293.598 64.7999C293.598 63.1999 293.573 58.0017 293.598 56.2666C293.779 56.2654 293.96 56.2935 294.133 56.3511L296.605 57.1702C296.787 57.2307 296.919 57.3822 296.934 57.5728C296.96 57.9047 296.989 58.5591 296.97 59.7766L296.976 60.0067C296.976 60.1944 296.961 60.38 296.931 60.563C296.602 63.6107 294.118 64.7378 293.63 64.7974C293.62 64.7991 293.611 64.7999 293.603 64.7999C293.602 64.7999 293.6 64.7999 293.598 64.7999Z" opacity="0.1"/><ellipse cx="293.598" cy="60.6666" fill="#18aa79" rx="2.432" ry="2.4"/><ellipse cx="293.596" cy="60.2667" fill="#4fffa8" rx="2.432" ry="2.4"/><path fill="#00b7ff" d="M291.568 60.2661C291.568 60.0891 291.592 59.9128 291.64 59.7419C291.718 59.9066 291.831 60.0488 291.908 60.2177C292.007 60.4348 292.275 60.3746 292.393 60.5648C292.497 60.7337 292.385 60.9473 292.464 61.124C292.521 61.2523 292.655 61.2803 292.748 61.3741C292.842 61.4687 292.84 61.5983 292.855 61.7217C292.871 61.8666 292.898 62.0103 292.934 62.1517C292.934 62.1527 292.934 62.1539 292.935 62.1549C292.14 61.8811 291.568 61.1379 291.568 60.2661ZM293.608 62.2666C293.494 62.2666 293.38 62.2572 293.268 62.2387C293.269 62.2104 293.27 62.1841 293.273 62.1657C293.298 62.0001 293.383 61.8381 293.497 61.7141C293.61 61.5918 293.764 61.509 293.859 61.3702C293.953 61.2348 293.981 61.0525 293.942 60.8942C293.886 60.6604 293.562 60.5824 293.387 60.4556C293.287 60.3826 293.197 60.2699 293.065 60.2607C293.005 60.2565 292.954 60.2694 292.894 60.2542C292.838 60.2401 292.795 60.2109 292.736 60.2185C292.626 60.2327 292.557 60.3479 292.439 60.3323C292.327 60.3176 292.211 60.1889 292.186 60.0842C292.153 59.9496 292.261 59.9059 292.378 59.894C292.426 59.889 292.481 59.8835 292.527 59.901C292.589 59.9233 292.618 59.9823 292.673 60.0121C292.776 60.0678 292.797 59.9789 292.781 59.8889C292.758 59.754 292.73 59.6991 292.853 59.6063C292.938 59.5423 293.01 59.4961 292.997 59.3811C292.989 59.3136 292.951 59.2831 292.986 59.2159C293.013 59.1647 293.086 59.1186 293.134 59.088C293.257 59.0093 293.661 59.0151 293.496 58.7946C293.447 58.7299 293.358 58.6143 293.273 58.5985C293.167 58.5788 293.12 58.695 293.045 58.7463C292.969 58.7993 292.82 58.8596 292.743 58.7776C292.64 58.6672 292.812 58.6311 292.85 58.554C292.867 58.518 292.85 58.4681 292.82 58.4211C292.858 58.4053 292.897 58.3906 292.937 58.377C292.962 58.395 292.991 58.4058 293.022 58.4083C293.093 58.4129 293.16 58.3752 293.222 58.4227C293.291 58.4748 293.341 58.5406 293.432 58.5569C293.52 58.5726 293.614 58.5221 293.636 58.4333C293.649 58.3793 293.636 58.3223 293.623 58.2666C294.02 58.2688 294.408 58.3855 294.738 58.6022C294.717 58.5943 294.692 58.5952 294.66 58.6095C294.596 58.6389 294.505 58.7137 294.497 58.7879C294.488 58.8721 294.615 58.8839 294.675 58.8839C294.766 58.8839 294.857 58.8443 294.828 58.742C294.815 58.6976 294.798 58.6515 294.77 58.6236C294.837 58.6689 294.901 58.7181 294.961 58.7709C294.961 58.7718 294.96 58.7727 294.959 58.7737C294.897 58.8362 294.826 58.8857 294.785 58.9618C294.755 59.0153 294.722 59.0407 294.662 59.0546C294.629 59.0622 294.591 59.065 294.564 59.0867C294.487 59.1461 294.531 59.2888 294.604 59.3316C294.696 59.3857 294.832 59.3603 294.902 59.2831C294.956 59.2227 294.988 59.1177 295.086 59.1178C295.129 59.1178 295.17 59.1343 295.201 59.1638C295.241 59.2048 295.233 59.2432 295.242 59.2944C295.257 59.3855 295.339 59.3361 295.388 59.2902C295.425 59.3536 295.458 59.4189 295.487 59.4857C295.432 59.5632 295.388 59.6476 295.256 59.5573C295.177 59.5032 295.129 59.4248 295.03 59.4004C294.943 59.3796 294.855 59.4012 294.769 59.4157C294.672 59.4323 294.557 59.4396 294.483 59.5118C294.412 59.5814 294.374 59.6745 294.298 59.7444C294.151 59.8799 294.089 60.0277 294.184 60.2192C294.276 60.4034 294.467 60.5033 294.673 60.4901C294.876 60.4769 295.086 60.3617 295.08 60.6504C295.078 60.7526 295.1 60.8233 295.132 60.9183C295.161 61.0058 295.159 61.0906 295.166 61.1809C295.173 61.2867 295.19 61.3916 295.217 61.4942C295.026 61.7347 294.782 61.9293 294.503 62.0631C294.225 62.197 293.918 62.2666 293.608 62.2666Z"/><path fill="#000" d="M292.786 61.8673C294.129 61.8673 295.218 60.7928 295.218 59.4673C295.218 59.0095 295.088 58.5817 294.863 58.2178C295.562 58.6393 296.029 59.3995 296.029 60.2673C296.029 61.5928 294.94 62.6673 293.597 62.6673C292.718 62.6673 291.947 62.2067 291.52 61.5168C291.889 61.7391 292.322 61.8673 292.786 61.8673Z" opacity="0.1"/><path fill="#342b53" fill-rule="evenodd" d="M293.598 62.2C294.68 62.2 295.557 61.3345 295.557 60.2667C295.557 59.1989 294.68 58.3334 293.598 58.3334C292.516 58.3334 291.639 59.1989 291.639 60.2667C291.639 61.3345 292.516 62.2 293.598 62.2ZM293.598 62.6667C294.941 62.6667 296.03 61.5922 296.03 60.2667C296.03 58.9412 294.941 57.8667 293.598 57.8667C292.255 57.8667 291.166 58.9412 291.166 60.2667C291.166 61.5922 292.255 62.6667 293.598 62.6667Z" clip-rule="evenodd"/><g filter="url(#filter1_d_11547_39107)"><ellipse cx="295.694" cy="59.1333" fill="#ff5e5c" rx="1.01333" ry="1"/><path fill="#fff" d="M295.693 58.5332C295.861 58.5332 295.999 58.6686 295.999 58.835V58.9834H296.075C296.104 58.9835 296.128 59.007 296.128 59.0361V59.5469C296.128 59.576 296.104 59.5995 296.075 59.5996H295.311C295.282 59.5994 295.258 59.576 295.258 59.5469V59.0361C295.258 59.007 295.282 58.9836 295.311 58.9834H295.388V58.835C295.388 58.6686 295.524 58.5333 295.693 58.5332ZM295.693 59.1602C295.628 59.1602 295.575 59.2129 295.575 59.2773C295.575 59.3417 295.628 59.3936 295.693 59.3936C295.758 59.3935 295.811 59.3416 295.811 59.2773C295.811 59.2129 295.758 59.1602 295.693 59.1602ZM295.693 58.6836C295.609 58.6836 295.541 58.7518 295.541 58.835V58.9834H295.845V58.835C295.845 58.7518 295.777 58.6836 295.693 58.6836Z"/></g><g clip-path="url(#clip3_11547_39107)"><path fill="#6e7191" d="M317.957 60.1779H317.423V58.7556C317.423 58.361 317.103 58.0445 316.712 58.0445H315.29V57.5112C315.29 57.2755 315.196 57.0494 315.03 56.8827C314.863 56.716 314.637 56.6223 314.401 56.6223C314.165 56.6223 313.939 56.716 313.773 56.8827C313.606 57.0494 313.512 57.2755 313.512 57.5112V58.0445H312.09C311.901 58.0445 311.721 58.1195 311.587 58.2528C311.454 58.3862 311.379 58.567 311.379 58.7556V60.1068H311.912C312.446 60.1068 312.872 60.5334 312.872 61.0668C312.872 61.6001 312.446 62.0268 311.912 62.0268H311.379V63.3779C311.379 63.5665 311.454 63.7473 311.587 63.8807C311.721 64.0141 311.901 64.089 312.09 64.089H313.441V63.5556C313.441 63.0223 313.868 62.5956 314.401 62.5956C314.934 62.5956 315.361 63.0223 315.361 63.5556V64.089H316.712C316.901 64.089 317.082 64.0141 317.215 63.8807C317.348 63.7473 317.423 63.5665 317.423 63.3779V61.9556H317.957C318.192 61.9556 318.419 61.862 318.585 61.6953C318.752 61.5286 318.846 61.3025 318.846 61.0668C318.846 60.831 318.752 60.6049 318.585 60.4382C318.419 60.2715 318.192 60.1779 317.957 60.1779Z"/></g><path fill="#a0a3bd" d="M30.936 93L27.564 84.6H28.584L32.004 93H30.936ZM24.108 93L27.528 84.6H28.56L25.188 93H24.108ZM25.728 90.612V89.7H30.396V90.612H25.728ZM32.9611 93V84.6H33.9211V93H32.9611ZM35.5978 93V84.6H36.5578V93H35.5978ZM43.8274 93.144C43.2434 93.144 42.7274 93.012 42.2794 92.748C41.8314 92.476 41.4794 92.104 41.2234 91.632C40.9754 91.16 40.8514 90.616 40.8514 90C40.8514 89.384 40.9754 88.84 41.2234 88.368C41.4794 87.896 41.8274 87.528 42.2674 87.264C42.7154 86.992 43.2274 86.856 43.8034 86.856C44.3554 86.856 44.8354 86.996 45.2434 87.276C45.6594 87.548 45.9794 87.932 46.2034 88.428C46.4274 88.924 46.5394 89.508 46.5394 90.18H45.5794C45.5794 89.668 45.5114 89.232 45.3754 88.872C45.2394 88.504 45.0354 88.22 44.7634 88.02C44.4994 87.82 44.1754 87.72 43.7914 87.72C43.3994 87.72 43.0514 87.816 42.7474 88.008C42.4514 88.192 42.2234 88.456 42.0634 88.8C41.9034 89.144 41.8234 89.548 41.8234 90.012C41.8234 90.468 41.9114 90.864 42.0874 91.2C42.2634 91.528 42.5074 91.788 42.8194 91.98C43.1314 92.164 43.4834 92.256 43.8754 92.256C44.2914 92.256 44.6434 92.156 44.9314 91.956C45.2194 91.756 45.4474 91.496 45.6154 91.176L46.4554 91.596C46.3034 91.908 46.0994 92.18 45.8434 92.412C45.5954 92.644 45.2994 92.824 44.9554 92.952C44.6194 93.08 44.2434 93.144 43.8274 93.144ZM41.4874 90.18L41.4994 89.352H45.9514V90.18H41.4874ZM46.9716 93L49.4196 89.556L51.1476 87H52.2876L50.0076 90.24L48.1356 93H46.9716ZM51.2796 93L49.4316 90.24L47.1276 87H48.2676L50.0076 89.556L52.4316 93H51.2796ZM55.6429 93.144C55.0589 93.144 54.6069 92.992 54.2869 92.688C53.9669 92.384 53.8069 91.956 53.8069 91.404V85.128H54.7669V91.308C54.7669 91.612 54.8469 91.848 55.0069 92.016C55.1749 92.176 55.4069 92.256 55.7029 92.256C55.7989 92.256 55.8909 92.244 55.9789 92.22C56.0749 92.188 56.1989 92.116 56.3509 92.004L56.7229 92.784C56.5149 92.92 56.3269 93.012 56.1589 93.06C55.9909 93.116 55.8189 93.144 55.6429 93.144ZM52.7629 87.852V87H56.5669V87.852H52.7629ZM60.5149 93.144C59.9309 93.144 59.4149 93.012 58.9669 92.748C58.5189 92.476 58.1669 92.104 57.9109 91.632C57.6629 91.16 57.5389 90.616 57.5389 90C57.5389 89.384 57.6629 88.84 57.9109 88.368C58.1669 87.896 58.5149 87.528 58.9549 87.264C59.4029 86.992 59.9149 86.856 60.4909 86.856C61.0429 86.856 61.5229 86.996 61.9309 87.276C62.3469 87.548 62.6669 87.932 62.8909 88.428C63.1149 88.924 63.2269 89.508 63.2269 90.18H62.2669C62.2669 89.668 62.1989 89.232 62.0629 88.872C61.9269 88.504 61.7229 88.22 61.4509 88.02C61.1869 87.82 60.8629 87.72 60.4789 87.72C60.0869 87.72 59.7389 87.816 59.4349 88.008C59.1389 88.192 58.9109 88.456 58.7509 88.8C58.5909 89.144 58.5109 89.548 58.5109 90.012C58.5109 90.468 58.5989 90.864 58.7749 91.2C58.9509 91.528 59.1949 91.788 59.5069 91.98C59.8189 92.164 60.1709 92.256 60.5629 92.256C60.9789 92.256 61.3309 92.156 61.6189 91.956C61.9069 91.756 62.1349 91.496 62.3029 91.176L63.1429 91.596C62.9909 91.908 62.7869 92.18 62.5309 92.412C62.2829 92.644 61.9869 92.824 61.6429 92.952C61.3069 93.08 60.9309 93.144 60.5149 93.144ZM58.1749 90.18L58.1869 89.352H62.6389V90.18H58.1749ZM64.4377 93V87H65.3377L65.3977 88.104V93H64.4377ZM68.6497 93V89.928L69.6097 89.568V93H68.6497ZM68.6497 89.928C68.6497 89.336 68.5817 88.884 68.4457 88.572C68.3097 88.26 68.1217 88.048 67.8817 87.936C67.6417 87.816 67.3697 87.756 67.0657 87.756C66.5377 87.756 66.1257 87.944 65.8297 88.32C65.5417 88.688 65.3977 89.212 65.3977 89.892H64.9297C64.9297 89.26 65.0217 88.716 65.2057 88.26C65.3897 87.804 65.6537 87.456 65.9977 87.216C66.3497 86.976 66.7737 86.856 67.2697 86.856C67.9977 86.856 68.5697 87.08 68.9857 87.528C69.4097 87.976 69.6177 88.656 69.6097 89.568L68.6497 89.928ZM73.2291 93.144C72.7891 93.144 72.4051 93.08 72.0771 92.952C71.7491 92.816 71.4731 92.64 71.2491 92.424C71.0331 92.208 70.8771 91.972 70.7811 91.716L71.6211 91.368C71.7571 91.64 71.9611 91.86 72.2331 92.028C72.5051 92.196 72.8051 92.28 73.1331 92.28C73.5091 92.28 73.8251 92.208 74.0811 92.064C74.3371 91.912 74.4651 91.7 74.4651 91.428C74.4651 91.18 74.3691 90.98 74.1771 90.828C73.9931 90.676 73.7171 90.552 73.3491 90.456L72.7731 90.3C72.2291 90.156 71.8051 89.94 71.5011 89.652C71.1971 89.356 71.0451 89.024 71.0451 88.656C71.0451 88.088 71.2291 87.648 71.5971 87.336C71.9731 87.016 72.5291 86.856 73.2651 86.856C73.6171 86.856 73.9371 86.908 74.2251 87.012C74.5131 87.116 74.7611 87.264 74.9691 87.456C75.1771 87.64 75.3291 87.86 75.4251 88.116L74.5851 88.488C74.4811 88.216 74.3091 88.02 74.0691 87.9C73.8291 87.78 73.5371 87.72 73.1931 87.72C72.8251 87.72 72.5371 87.8 72.3291 87.96C72.1211 88.112 72.0171 88.328 72.0171 88.608C72.0171 88.768 72.1011 88.92 72.2691 89.064C72.4451 89.2 72.7011 89.312 73.0371 89.4L73.6371 89.556C74.0291 89.652 74.3571 89.796 74.6211 89.988C74.8851 90.172 75.0851 90.384 75.2211 90.624C75.3571 90.864 75.4251 91.12 75.4251 91.392C75.4251 91.752 75.3291 92.064 75.1371 92.328C74.9451 92.592 74.6851 92.796 74.3571 92.94C74.0291 93.076 73.6531 93.144 73.2291 93.144ZM76.7789 93L76.8029 87H77.7629L77.7389 93H76.7789ZM77.2709 85.608C77.1109 85.608 76.9709 85.548 76.8509 85.428C76.7309 85.308 76.6709 85.168 76.6709 85.008C76.6709 84.84 76.7309 84.7 76.8509 84.588C76.9709 84.468 77.1109 84.408 77.2709 84.408C77.4389 84.408 77.5789 84.468 77.6909 84.588C77.8109 84.7 77.8709 84.84 77.8709 85.008C77.8709 85.168 77.8109 85.308 77.6909 85.428C77.5789 85.548 77.4389 85.608 77.2709 85.608ZM82.16 93.144C81.576 93.144 81.056 93.012 80.6 92.748C80.152 92.476 79.8 92.104 79.544 91.632C79.288 91.16 79.16 90.616 79.16 90C79.16 89.384 79.284 88.84 79.532 88.368C79.788 87.896 80.14 87.528 80.588 87.264C81.044 86.992 81.56 86.856 82.136 86.856C82.728 86.856 83.248 86.992 83.696 87.264C84.152 87.528 84.504 87.896 84.752 88.368C85.008 88.84 85.136 89.384 85.136 90C85.136 90.616 85.008 91.16 84.752 91.632C84.504 92.104 84.156 92.476 83.708 92.748C83.26 93.012 82.744 93.144 82.16 93.144ZM82.16 92.256C82.56 92.256 82.908 92.16 83.204 91.968C83.5 91.776 83.732 91.512 83.9 91.176C84.076 90.84 84.164 90.448 84.164 90C84.164 89.552 84.076 89.16 83.9 88.824C83.732 88.488 83.496 88.224 83.192 88.032C82.888 87.84 82.536 87.744 82.136 87.744C81.744 87.744 81.396 87.84 81.092 88.032C80.796 88.224 80.56 88.488 80.384 88.824C80.216 89.16 80.132 89.552 80.132 90C80.132 90.44 80.216 90.832 80.384 91.176C80.56 91.512 80.8 91.776 81.104 91.968C81.416 92.16 81.768 92.256 82.16 92.256ZM86.4689 93V87H87.3689L87.4289 88.104V93H86.4689ZM90.6809 93V89.928L91.6409 89.568V93H90.6809ZM90.6809 89.928C90.6809 89.336 90.6129 88.884 90.4769 88.572C90.3409 88.26 90.1529 88.048 89.9129 87.936C89.6729 87.816 89.4009 87.756 89.0969 87.756C88.5689 87.756 88.1569 87.944 87.8609 88.32C87.5729 88.688 87.4289 89.212 87.4289 89.892H86.9609C86.9609 89.26 87.0529 88.716 87.2369 88.26C87.4209 87.804 87.6849 87.456 88.0289 87.216C88.3809 86.976 88.8049 86.856 89.3009 86.856C90.0289 86.856 90.6009 87.08 91.0169 87.528C91.4409 87.976 91.6489 88.656 91.6409 89.568L90.6809 89.928ZM95.2603 93.144C94.8203 93.144 94.4363 93.08 94.1083 92.952C93.7803 92.816 93.5043 92.64 93.2803 92.424C93.0643 92.208 92.9083 91.972 92.8123 91.716L93.6523 91.368C93.7883 91.64 93.9923 91.86 94.2643 92.028C94.5363 92.196 94.8363 92.28 95.1643 92.28C95.5403 92.28 95.8563 92.208 96.1123 92.064C96.3683 91.912 96.4963 91.7 96.4963 91.428C96.4963 91.18 96.4003 90.98 96.2083 90.828C96.0243 90.676 95.7483 90.552 95.3803 90.456L94.8043 90.3C94.2603 90.156 93.8363 89.94 93.5323 89.652C93.2283 89.356 93.0763 89.024 93.0763 88.656C93.0763 88.088 93.2603 87.648 93.6283 87.336C94.0043 87.016 94.5603 86.856 95.2963 86.856C95.6483 86.856 95.9683 86.908 96.2563 87.012C96.5443 87.116 96.7923 87.264 97.0003 87.456C97.2083 87.64 97.3603 87.86 97.4563 88.116L96.6163 88.488C96.5123 88.216 96.3403 88.02 96.1003 87.9C95.8603 87.78 95.5683 87.72 95.2243 87.72C94.8563 87.72 94.5683 87.8 94.3603 87.96C94.1523 88.112 94.0483 88.328 94.0483 88.608C94.0483 88.768 94.1323 88.92 94.3003 89.064C94.4763 89.2 94.7323 89.312 95.0683 89.4L95.6683 89.556C96.0603 89.652 96.3883 89.796 96.6523 89.988C96.9163 90.172 97.1163 90.384 97.2523 90.624C97.3883 90.864 97.4563 91.12 97.4563 91.392C97.4563 91.752 97.3603 92.064 97.1683 92.328C96.9763 92.592 96.7163 92.796 96.3883 92.94C96.0603 93.076 95.6843 93.144 95.2603 93.144Z"/><g filter="url(#filter2_d_11547_39107)"><rect width="144" height="50" x="24" y="105" fill="#13253f" rx="4" shape-rendering="crispEdges"/><path fill="#20df9e" d="M38.9951 129.448C38.9916 129.448 38.9881 129.448 38.9847 129.448C38.968 129.448 38.9492 129.446 38.9285 129.442C37.8982 129.317 32.6587 126.939 31.9644 120.51C31.903 120.125 31.8701 119.733 31.8701 119.337L31.8826 118.852C31.8436 116.283 31.9032 114.903 31.9585 114.203C31.9903 113.801 32.2684 113.481 32.6536 113.354L37.8662 111.626C38.2327 111.505 38.6141 111.445 38.9951 111.448C39.3761 111.445 39.7576 111.505 40.124 111.626L45.3367 113.354C45.7219 113.481 45.9999 113.801 46.0317 114.203C46.087 114.903 46.1466 116.283 46.1076 118.852L46.1201 119.337C46.1201 119.733 46.0872 120.125 46.0258 120.51C45.3315 126.939 40.092 129.317 39.0617 129.442C39.041 129.446 39.0222 129.448 39.0055 129.448C39.0021 129.448 38.9987 129.448 38.9951 129.448Z"/><path fill="#20a690" fill-rule="evenodd" d="M38.9951 128.598C39.1411 128.568 39.5303 128.445 40.0841 128.154C40.6706 127.844 41.3812 127.377 42.0845 126.725C43.4836 125.428 44.8533 123.406 45.1756 120.421C45.1771 120.407 45.179 120.393 45.1812 120.38C45.2355 120.038 45.2645 119.694 45.2651 119.347L45.2529 118.873C45.2526 118.862 45.2525 118.85 45.2527 118.839C45.2915 116.285 45.2318 114.933 45.1793 114.269C45.1774 114.245 45.1698 114.228 45.1561 114.211C45.1409 114.193 45.1121 114.169 45.0644 114.154L39.8518 112.426C39.5756 112.334 39.2881 112.29 39.0011 112.292H38.9891C38.7021 112.29 38.4147 112.334 38.1385 112.426L32.9258 114.154C32.8781 114.169 32.8493 114.193 32.8341 114.211C32.8204 114.228 32.8128 114.245 32.8109 114.269C32.7584 114.933 32.6988 116.285 32.7375 118.839C32.7377 118.85 32.7377 118.862 32.7374 118.873L32.7251 119.347C32.7257 119.694 32.7547 120.038 32.8091 120.38C32.8113 120.393 32.8131 120.407 32.8146 120.421C33.1369 123.406 34.5067 125.428 35.9058 126.725C36.609 127.377 37.3196 127.844 37.9062 128.154C38.4599 128.445 38.8491 128.568 38.9951 128.598ZM31.8701 119.337L31.8826 118.852C31.8436 116.283 31.9032 114.903 31.9585 114.203C31.9903 113.801 32.2684 113.481 32.6536 113.354L37.8662 111.626C38.2327 111.505 38.6141 111.445 38.9951 111.448C39.3761 111.445 39.7576 111.505 40.124 111.626L45.3367 113.354C45.7219 113.481 45.9999 113.801 46.0317 114.203C46.087 114.903 46.1466 116.283 46.1076 118.852L46.1201 119.337C46.1201 119.733 46.0872 120.125 46.0258 120.51C45.3315 126.939 40.092 129.317 39.0617 129.442C39.041 129.446 39.0222 129.448 39.0055 129.448C39.0021 129.448 38.9987 129.448 38.9951 129.448C38.9916 129.448 38.9881 129.448 38.9847 129.448C38.968 129.448 38.9492 129.446 38.9285 129.442C37.8982 129.317 32.6587 126.939 31.9644 120.51C31.903 120.125 31.8701 119.733 31.8701 119.337Z" clip-rule="evenodd"/><path fill="#000" d="M38.9958 129.448C38.9958 126.073 38.9416 115.108 38.9958 111.448C39.3768 111.445 39.7582 111.505 40.1246 111.626L45.3373 113.354C45.7225 113.481 46.0006 113.801 46.0324 114.203C46.0877 114.903 46.1472 116.283 46.1082 118.852L46.1208 119.337C46.1208 119.733 46.0878 120.125 46.0264 120.51C45.3322 126.939 40.0926 129.317 39.0624 129.442C39.0416 129.446 39.0229 129.448 39.0062 129.448C39.0028 129.448 38.9993 129.448 38.9958 129.448Z" opacity="0.1"/><ellipse cx="38.9952" cy="120.729" fill="#18aa79" rx="5.13" ry="5.0625"/><ellipse cx="38.9908" cy="119.885" fill="#4fffa8" rx="5.13" ry="5.0625"/><path fill="#00b7ff" d="M34.7134 119.884C34.7132 119.511 34.7637 119.139 34.8635 118.779C35.028 119.126 35.2668 119.426 35.4293 119.782C35.6393 120.24 36.203 120.113 36.452 120.514C36.6729 120.871 36.437 121.321 36.6023 121.694C36.7224 121.964 37.0057 122.024 37.2011 122.221C37.4007 122.421 37.3965 122.694 37.4269 122.955C37.4613 123.26 37.5171 123.563 37.5939 123.862C37.5939 123.864 37.5939 123.866 37.5957 123.868C35.9189 123.291 34.7134 121.723 34.7134 119.884ZM39.0156 124.104C38.7753 124.104 38.5355 124.084 38.2986 124.045C38.301 123.986 38.3022 123.93 38.3082 123.891C38.3627 123.542 38.541 123.2 38.7817 122.939C39.0194 122.681 39.3452 122.506 39.546 122.213C39.7427 121.928 39.8017 121.543 39.7206 121.209C39.6011 120.716 38.9179 120.551 38.5495 120.284C38.3378 120.13 38.1493 119.892 37.8713 119.873C37.7431 119.864 37.6358 119.891 37.5087 119.859C37.3922 119.829 37.3008 119.768 37.1766 119.784C36.9447 119.814 36.7984 120.057 36.5492 120.024C36.3128 119.993 36.0693 119.721 36.0155 119.501C35.9465 119.217 36.1755 119.124 36.4208 119.099C36.5232 119.089 36.6382 119.077 36.7366 119.114C36.8661 119.161 36.9272 119.286 37.0435 119.348C37.2616 119.466 37.3057 119.278 37.2723 119.088C37.2223 118.804 37.1641 118.688 37.4227 118.492C37.6019 118.357 37.7552 118.26 37.7265 118.017C37.7095 117.875 37.6299 117.811 37.7041 117.669C37.7603 117.561 37.9147 117.464 38.0153 117.399C38.275 117.233 39.1279 117.245 38.7794 116.78C38.677 116.644 38.4881 116.4 38.3089 116.366C38.0848 116.325 37.9853 116.57 37.8291 116.678C37.6678 116.79 37.3537 116.917 37.1921 116.744C36.9747 116.512 37.3362 116.435 37.4162 116.273C37.4531 116.197 37.4162 116.092 37.3539 115.992C37.4347 115.959 37.5169 115.928 37.6004 115.899C37.6527 115.937 37.7148 115.96 37.7796 115.965C37.9295 115.975 38.0709 115.896 38.2018 115.996C38.347 116.106 38.4516 116.245 38.6443 116.279C38.8308 116.312 39.0282 116.205 39.0743 116.018C39.1023 115.904 39.0743 115.784 39.0474 115.667C39.8855 115.671 40.7036 115.917 41.4002 116.374C41.3554 116.358 41.3019 116.36 41.2357 116.39C41.0997 116.452 40.907 116.61 40.8911 116.766C40.873 116.944 41.1401 116.969 41.2669 116.969C41.4574 116.969 41.6503 116.885 41.5889 116.669C41.5622 116.576 41.5259 116.478 41.4674 116.419C41.608 116.515 41.7427 116.619 41.8708 116.73C41.8688 116.732 41.8667 116.734 41.8647 116.736C41.7357 116.868 41.5858 116.972 41.4975 117.133C41.4352 117.246 41.365 117.299 41.2389 117.329C41.1694 117.345 41.0901 117.351 41.0318 117.396C40.8696 117.522 40.9619 117.823 41.1156 117.913C41.3099 118.027 41.5981 117.974 41.7446 117.811C41.8591 117.683 41.9266 117.462 42.1325 117.462C42.2232 117.462 42.3102 117.497 42.3749 117.559C42.4601 117.646 42.4433 117.726 42.4614 117.835C42.4935 118.027 42.6662 117.923 42.7713 117.826C42.8479 117.959 42.9171 118.097 42.9784 118.238C42.8628 118.401 42.7709 118.579 42.4928 118.389C42.3263 118.275 42.2239 118.11 42.0149 118.058C41.8322 118.014 41.6451 118.06 41.4648 118.09C41.2597 118.125 41.0166 118.141 40.8611 118.293C40.7107 118.44 40.6312 118.636 40.4712 118.784C40.1618 119.07 40.0311 119.381 40.2314 119.785C40.4241 120.174 40.8273 120.384 41.2622 120.357C41.6895 120.329 42.1334 120.086 42.1211 120.695C42.1166 120.91 42.1625 121.06 42.23 121.26C42.2925 121.444 42.2882 121.623 42.3026 121.814C42.3162 122.037 42.3518 122.258 42.4088 122.475C42.0071 122.982 41.4926 123.392 40.9046 123.675C40.3165 123.957 39.6704 124.104 39.0156 124.104Z"/><path fill="#000" d="M37.2831 123.262C40.1163 123.262 42.4131 120.995 42.4131 118.199C42.4131 117.234 42.1392 116.331 41.6639 115.563C43.1387 116.453 44.1231 118.056 44.1231 119.887C44.1231 122.683 41.8263 124.949 38.9931 124.949C37.1383 124.949 35.5134 123.978 34.6123 122.522C35.3903 122.991 36.3047 123.262 37.2831 123.262Z" opacity="0.1"/><path fill="#342b53" fill-rule="evenodd" d="M38.9952 123.964C41.2776 123.964 43.1277 122.138 43.1277 119.885C43.1277 117.633 41.2776 115.807 38.9952 115.807C36.7129 115.807 34.8627 117.633 34.8627 119.885C34.8627 122.138 36.7129 123.964 38.9952 123.964ZM38.9952 124.948C41.8285 124.948 44.1252 122.681 44.1252 119.885C44.1252 117.09 41.8285 114.823 38.9952 114.823C36.162 114.823 33.8652 117.09 33.8652 119.885C33.8652 122.681 36.162 124.948 38.9952 124.948Z" clip-rule="evenodd"/><g filter="url(#filter3_d_11547_39107)"><ellipse cx="43.4163" cy="117.495" fill="#ff5e5c" rx="2.1375" ry="2.10938"/><path fill="#fff" d="M43.4136 116.23C43.7691 116.23 44.057 116.514 44.0571 116.865V117.178H44.2183C44.2807 117.178 44.3315 117.228 44.3315 117.289V118.367C44.3315 118.429 44.2807 118.48 44.2183 118.48H42.6089C42.5464 118.48 42.4956 118.429 42.4956 118.367V117.289C42.4956 117.228 42.5464 117.178 42.6089 117.178H42.77V116.865C42.7701 116.514 43.0581 116.23 43.4136 116.23ZM43.4136 117.552C43.2758 117.552 43.1636 117.662 43.1636 117.798C43.1637 117.934 43.2759 118.044 43.4136 118.044C43.551 118.044 43.6625 117.934 43.6626 117.798C43.6626 117.662 43.5511 117.552 43.4136 117.552ZM43.4136 116.547C43.2359 116.547 43.0914 116.689 43.0913 116.865V117.178H43.7358V116.865C43.7357 116.689 43.5913 116.547 43.4136 116.547Z"/></g><path fill="#3a4a62" d="M54 115H124V119H54z"/><path fill="#263751" d="M54 123H140V127H54zM54 129H115V133H54z"/><rect width="29" height="8" x="30" y="141" fill="#253955" rx="2"/><rect width="29" height="8" x="63" y="141" fill="#253955" rx="2"/><rect width="12" height="6" x="150" y="143" fill="#4d7ef6" rx="3"/><circle cx="159" cy="146" r="2" fill="#fff"/></g><g filter="url(#filter4_d_11547_39107)"><rect width="144" height="50" x="176" y="105" fill="#13253f" rx="4" shape-rendering="crispEdges"/><circle cx="191" cy="120" r="9" fill="#3a4a62"/><path fill="#3a4a62" d="M206 115H276V119H206z"/><path fill="#263751" d="M206 123H292V127H206zM206 129H267V133H206z"/><rect width="29" height="8" x="182" y="141" fill="#253955" rx="2"/><rect width="29" height="8" x="215" y="141" fill="#253955" rx="2"/><rect width="12" height="6" x="302" y="143" fill="#4d7ef6" rx="3"/><circle cx="311" cy="146" r="2" fill="#fff"/></g><g filter="url(#filter5_d_11547_39107)"><rect width="144" height="50" x="24" y="163" fill="#13253f" rx="4" shape-rendering="crispEdges"/><circle cx="39" cy="178" r="9" fill="#3a4a62"/><path fill="#3a4a62" d="M54 173H124V177H54z"/></g><g filter="url(#filter6_d_11547_39107)"><rect width="144" height="50" x="176" y="163" fill="#13253f" rx="4" shape-rendering="crispEdges"/><circle cx="191" cy="178" r="9" fill="#3a4a62"/><path fill="#3a4a62" d="M206 173H276V177H206z"/></g></g><path stroke="#df5740" stroke-linecap="round" stroke-width="2" d="M51.5002 70.5C51.5002 70.5 110.5 70.4998 108 87C106.182 99 85.3079 103.319 67.5002 103C48.1143 102.652 18.5 102.5 18.5 88.5005C18.5 70.0609 59.0002 80 59.0002 80"/><defs><filter id="filter0_d_11547_39107" width="336" height="227" x="4" y="12" color-interpolation-filters="sRGB" filterUnits="userSpaceOnUse"><feFlood flood-opacity="0" result="BackgroundImageFix"/><feColorMatrix in="SourceAlpha" result="hardAlpha" values="0 0 0 0 0 0 0 0 0 0 0 0 0 0 0 0 0 0 127 0"/><feOffset/><feGaussianBlur stdDeviation="4"/><feComposite in2="hardAlpha" operator="out"/><feColorMatrix values="0 0 0 0 0 0 0 0 0 0 0 0 0 0 0 0 0 0 0.08 0"/><feBlend in2="BackgroundImageFix" result="effect1_dropShadow_11547_39107"/><feBlend in="SourceGraphic" in2="effect1_dropShadow_11547_39107" result="shape"/></filter><filter id="filter1_d_11547_39107" width="6.02686" height="6" x="292.681" y="56.1333" color-interpolation-filters="sRGB" filterUnits="userSpaceOnUse"><feFlood flood-opacity="0" result="BackgroundImageFix"/><feColorMatrix in="SourceAlpha" result="hardAlpha" values="0 0 0 0 0 0 0 0 0 0 0 0 0 0 0 0 0 0 127 0"/><feOffset/><feGaussianBlur stdDeviation="1"/><feComposite in2="hardAlpha" operator="out"/><feColorMatrix values="0 0 0 0 0 0 0 0 0 0 0 0 0 0 0 0 0 0 0.2 0"/><feBlend in2="BackgroundImageFix" result="effect1_dropShadow_11547_39107"/><feBlend in="SourceGraphic" in2="effect1_dropShadow_11547_39107" result="shape"/></filter><filter id="filter2_d_11547_39107" width="176" height="82" x="8" y="89" color-interpolation-filters="sRGB" filterUnits="userSpaceOnUse"><feFlood flood-opacity="0" result="BackgroundImageFix"/><feColorMatrix in="SourceAlpha" result="hardAlpha" values="0 0 0 0 0 0 0 0 0 0 0 0 0 0 0 0 0 0 127 0"/><feOffset/><feGaussianBlur stdDeviation="8"/><feComposite in2="hardAlpha" operator="out"/><feColorMatrix values="0 0 0 0 0.133333 0 0 0 0 0.180392 0 0 0 0 0.227451 0 0 0 0.12 0"/><feBlend in2="BackgroundImageFix" result="effect1_dropShadow_11547_39107"/><feBlend in="SourceGraphic" in2="effect1_dropShadow_11547_39107" result="shape"/></filter><filter id="filter3_d_11547_39107" width="8.2749" height="8.21875" x="39.2788" y="113.385" color-interpolation-filters="sRGB" filterUnits="userSpaceOnUse"><feFlood flood-opacity="0" result="BackgroundImageFix"/><feColorMatrix in="SourceAlpha" result="hardAlpha" values="0 0 0 0 0 0 0 0 0 0 0 0 0 0 0 0 0 0 127 0"/><feOffset/><feGaussianBlur stdDeviation="1"/><feComposite in2="hardAlpha" operator="out"/><feColorMatrix values="0 0 0 0 0 0 0 0 0 0 0 0 0 0 0 0 0 0 0.2 0"/><feBlend in2="BackgroundImageFix" result="effect1_dropShadow_11547_39107"/><feBlend in="SourceGraphic" in2="effect1_dropShadow_11547_39107" result="shape"/></filter><filter id="filter4_d_11547_39107" width="176" height="82" x="160" y="89" color-interpolation-filters="sRGB" filterUnits="userSpaceOnUse"><feFlood flood-opacity="0" result="BackgroundImageFix"/><feColorMatrix in="SourceAlpha" result="hardAlpha" values="0 0 0 0 0 0 0 0 0 0 0 0 0 0 0 0 0 0 127 0"/><feOffset/><feGaussianBlur stdDeviation="8"/><feComposite in2="hardAlpha" operator="out"/><feColorMatrix values="0 0 0 0 0.133333 0 0 0 0 0.180392 0 0 0 0 0.227451 0 0 0 0.12 0"/><feBlend in2="BackgroundImageFix" result="effect1_dropShadow_11547_39107"/><feBlend in="SourceGraphic" in2="effect1_dropShadow_11547_39107" result="shape"/></filter><filter id="filter5_d_11547_39107" width="176" height="82" x="8" y="147" color-interpolation-filters="sRGB" filterUnits="userSpaceOnUse"><feFlood flood-opacity="0" result="BackgroundImageFix"/><feColorMatrix in="SourceAlpha" result="hardAlpha" values="0 0 0 0 0 0 0 0 0 0 0 0 0 0 0 0 0 0 127 0"/><feOffset/><feGaussianBlur stdDeviation="8"/><feComposite in2="hardAlpha" operator="out"/><feColorMatrix values="0 0 0 0 0.133333 0 0 0 0 0.180392 0 0 0 0 0.227451 0 0 0 0.12 0"/><feBlend in2="BackgroundImageFix" result="effect1_dropShadow_11547_39107"/><feBlend in="SourceGraphic" in2="effect1_dropShadow_11547_39107" result="shape"/></filter><filter id="filter6_d_11547_39107" width="176" height="82" x="160" y="147" color-interpolation-filters="sRGB" filterUnits="userSpaceOnUse"><feFlood flood-opacity="0" result="BackgroundImageFix"/><feColorMatrix in="SourceAlpha" result="hardAlpha" values="0 0 0 0 0 0 0 0 0 0 0 0 0 0 0 0 0 0 127 0"/><feOffset/><feGaussianBlur stdDeviation="8"/><feComposite in2="hardAlpha" operator="out"/><feColorMatrix values="0 0 0 0 0.133333 0 0 0 0 0.180392 0 0 0 0 0.227451 0 0 0 0.12 0"/><feBlend in2="BackgroundImageFix" result="effect1_dropShadow_11547_39107"/><feBlend in="SourceGraphic" in2="effect1_dropShadow_11547_39107" result="shape"/></filter><clipPath id="clip0_11547_39107"><path fill="#fff" d="M0 0H320V156H0z" transform="translate(12 20)"/></clipPath><clipPath id="clip1_11547_39107"><path fill="#fff" d="M0 0H6.4V6.4H0z" transform="translate(35.467 31.07)"/></clipPath><clipPath id="clip2_11547_39107"><path fill="#fff" d="M0 0H10.6667V10.6667H0z" transform="translate(63.2 55.2)"/></clipPath><clipPath id="clip3_11547_39107"><path fill="#fff" d="M0 0H8.53333V8.53333H0z" transform="translate(310.667 56.267)"/></clipPath><linearGradient id="paint0_linear_11547_39107" x1="172" x2="172" y1="0" y2="188" gradientUnits="userSpaceOnUse"><stop stop-color="#20385b"/><stop offset="1" stop-color="#1a3254"/></linearGradient></defs></svg>