<svg xmlns="http://www.w3.org/2000/svg" width="344" height="188" fill="none" viewBox="0 0 344 188"><rect width="344" height="188" fill="url(#paint0_linear_11535_4245)" rx="12"/><g filter="url(#filter0_d_11535_4245)"><rect width="320" height="149.333" x="12" y="20" fill="#dfe1e5" rx="8"/><path fill="#fff" d="M16.2666 32.67C16.2666 28.2517 19.8483 24.67 24.2666 24.67H38.1333C42.5515 24.67 46.1333 28.2517 46.1333 32.67V41.7367H16.2666V32.67Z"/><rect width="10.6667" height="10.6667" x="20.5332" y="28.9366" fill="#f1f3f4" rx="2"/><g clip-path="url(#clip0_11535_4245)"><path fill="#4d4d4d" d="M40.2137 32.1597C40.3709 32.0315 40.6034 32.0406 40.7499 32.1871C40.8961 32.3334 40.9051 32.5652 40.7772 32.7222L40.7499 32.7525L39.2323 34.2701L40.7499 35.7876L40.7772 35.8169C40.9054 35.974 40.8963 36.2066 40.7499 36.3531C40.6034 36.4995 40.3709 36.5086 40.2137 36.3804L40.1835 36.3531L38.6659 34.8355L37.1493 36.3531C36.9931 36.509 36.74 36.5091 36.5839 36.3531C36.4277 36.1969 36.4279 35.9439 36.5839 35.7876L38.1005 34.2701L36.5839 32.7525L36.5565 32.7222C36.4284 32.5651 36.4374 32.3335 36.5839 32.1871C36.7303 32.0407 36.9619 32.0316 37.119 32.1597L37.1493 32.1871L38.6659 33.7037L40.1835 32.1871L40.2137 32.1597Z"/></g><path fill="#fff" d="M46.1338 41.7364L46.1387 41.9561C46.2529 44.2105 48.1176 46.003 50.4004 46.003H12C14.2828 46.003 16.1465 44.2105 16.2607 41.9561L16.2666 41.7364H46.1338Z"/><path fill="#9c9ea0" d="M63.2012 31.0704C63.5939 31.0704 63.9121 31.3886 63.9121 31.7813V34.6251H66.7559C67.1485 34.6252 67.4668 34.9443 67.4668 35.337C67.4665 35.7294 67.1483 36.0477 66.7559 36.0479H63.9121V38.8926C63.9119 39.2852 63.5937 39.6035 63.2012 39.6036C62.8086 39.6036 62.4905 39.2852 62.4902 38.8926V36.0479H59.6445C59.2519 36.0479 58.9338 35.7295 58.9336 35.337C58.9336 34.9442 59.2518 34.6251 59.6445 34.6251H62.4902V31.7813C62.4902 31.3886 62.8084 31.0704 63.2012 31.0704Z"/><path fill="#fff" d="M12 46H332V168C332 172.418 328.418 176 324 176H20C15.5817 176 12 172.418 12 168V46Z"/><path stroke="#c4c9ce" stroke-linecap="round" stroke-linejoin="round" d="M29.533 60.534H22.2M25.2 57.534 22.2 60.534 25.2 63.534M43.533 60.534H50.867M47.867 57.534 50.867 60.534 47.867 63.534"/><g stroke="#5c6977" stroke-linecap="round" stroke-linejoin="round" clip-path="url(#clip1_11535_4245)"><path stroke-width="1.5" d="M70.8735 59.355H72.5402V57.6884"/><path d="M71.1256 63.1263C70.6128 63.6391 69.9595 63.9883 69.2482 64.1298C68.5369 64.2712 67.7997 64.1986 67.1297 63.9211C66.4597 63.6436 65.8871 63.1736 65.4842 62.5706C65.0813 61.9677 64.8662 61.2587 64.8662 60.5336C64.8662 59.8084 65.0813 59.0994 65.4842 58.4965C65.8871 57.8935 66.4597 57.4235 67.1297 57.146C67.7997 56.8685 68.5369 56.7959 69.2482 56.9373C69.9595 57.0788 70.6128 57.428 71.1256 57.9408L72.5398 59.355"/></g><rect width="196.267" height="21.3333" x="84.5332" y="49.8668" fill="#f1f3f4" rx="10.6667"/><path fill="#20df9e" d="M293.598 64.7999C293.596 64.8 293.595 64.8 293.593 64.8C293.585 64.8 293.576 64.7992 293.566 64.7975C293.078 64.7379 290.594 63.6108 290.265 60.5631C290.236 60.3801 290.22 60.1944 290.22 60.0067L290.226 59.7767C290.208 58.5592 290.236 57.9047 290.262 57.5729C290.277 57.3822 290.409 57.2308 290.592 57.1703L293.063 56.3512C293.237 56.2936 293.417 56.2655 293.598 56.2667C293.779 56.2655 293.959 56.2936 294.133 56.3512L296.604 57.1703C296.787 57.2308 296.919 57.3822 296.934 57.5729C296.96 57.9047 296.988 58.5592 296.97 59.7767L296.976 60.0067C296.976 60.1944 296.96 60.3801 296.931 60.5631C296.602 63.6108 294.118 64.7379 293.63 64.7975C293.62 64.7992 293.611 64.8 293.603 64.8C293.601 64.8 293.6 64.8 293.598 64.7999Z"/><path fill="#20a690" fill-rule="evenodd" d="M293.598 64.3974C293.667 64.383 293.852 64.3248 294.114 64.1865C294.392 64.0399 294.729 63.8182 295.063 63.5092C295.726 62.8946 296.375 61.9357 296.528 60.5207C296.529 60.5141 296.53 60.5075 296.531 60.501C296.556 60.339 296.57 60.1758 296.57 60.0117L296.565 59.7869C296.564 59.7815 296.564 59.7761 296.565 59.7707C296.583 58.5601 296.555 57.919 296.53 57.604C296.529 57.5927 296.525 57.5845 296.519 57.5767C296.512 57.5681 296.498 57.5569 296.475 57.5494L294.004 56.7303C293.873 56.6869 293.737 56.6658 293.601 56.6667H293.595C293.459 56.6658 293.323 56.6869 293.192 56.7303L290.721 57.5494C290.698 57.5569 290.684 57.5681 290.677 57.5767C290.671 57.5845 290.667 57.5927 290.666 57.604C290.641 57.919 290.613 58.5601 290.631 59.7707C290.632 59.7761 290.631 59.7815 290.631 59.7869L290.626 60.0117C290.626 60.1758 290.64 60.339 290.665 60.501C290.666 60.5075 290.667 60.5141 290.668 60.5207C290.821 61.9357 291.47 62.8946 292.133 63.5092C292.467 63.8182 292.804 64.0399 293.082 64.1865C293.344 64.3248 293.529 64.383 293.598 64.3974ZM290.22 60.0067L290.226 59.7767C290.208 58.5592 290.236 57.9047 290.262 57.5729C290.277 57.3822 290.409 57.2308 290.592 57.1703L293.063 56.3512C293.237 56.2936 293.417 56.2655 293.598 56.2667C293.779 56.2655 293.959 56.2936 294.133 56.3512L296.604 57.1703C296.787 57.2308 296.919 57.3822 296.934 57.5729C296.96 57.9047 296.988 58.5592 296.97 59.7767L296.976 60.0067C296.976 60.1944 296.96 60.3801 296.931 60.5631C296.602 63.6108 294.118 64.7379 293.63 64.7975C293.62 64.7992 293.611 64.8 293.603 64.8C293.601 64.8 293.6 64.8 293.598 64.7999C293.596 64.8 293.595 64.8 293.593 64.8C293.585 64.8 293.576 64.7992 293.566 64.7975C293.078 64.7379 290.594 63.6108 290.265 60.5631C290.236 60.3801 290.22 60.1944 290.22 60.0067Z" clip-rule="evenodd"/><path fill="#000" d="M293.598 64.7999C293.598 63.2 293.573 58.0018 293.598 56.2667C293.779 56.2655 293.96 56.2936 294.133 56.3512L296.605 57.1703C296.787 57.2308 296.919 57.3822 296.934 57.5729C296.96 57.9047 296.989 58.5592 296.97 59.7767L296.976 60.0067C296.976 60.1944 296.961 60.3801 296.931 60.5631C296.602 63.6108 294.118 64.7379 293.63 64.7975C293.62 64.7992 293.611 64.8 293.603 64.8C293.602 64.8 293.6 64.8 293.598 64.7999Z" opacity="0.1"/><ellipse cx="293.598" cy="60.6667" fill="#18aa79" rx="2.432" ry="2.4"/><ellipse cx="293.596" cy="60.2666" fill="#4fffa8" rx="2.432" ry="2.4"/><path fill="#00b7ff" d="M291.568 60.2662C291.568 60.0891 291.592 59.9129 291.64 59.742C291.718 59.9066 291.831 60.0489 291.908 60.2177C292.007 60.4349 292.275 60.3747 292.393 60.5649C292.497 60.7338 292.385 60.9474 292.464 61.1241C292.521 61.2524 292.655 61.2804 292.748 61.3742C292.842 61.4688 292.84 61.5984 292.855 61.7217C292.871 61.8667 292.898 62.0104 292.934 62.1517C292.934 62.1528 292.934 62.1539 292.935 62.155C292.14 61.8812 291.568 61.138 291.568 60.2662ZM293.608 62.2667C293.494 62.2666 293.38 62.2573 293.268 62.2387C293.269 62.2105 293.27 62.1841 293.273 62.1658C293.298 62.0001 293.383 61.8381 293.497 61.7141C293.61 61.5918 293.764 61.5091 293.859 61.3703C293.953 61.2349 293.981 61.0525 293.942 60.8943C293.886 60.6605 293.562 60.5824 293.387 60.4556C293.287 60.3827 293.197 60.2699 293.065 60.2608C293.005 60.2566 292.954 60.2694 292.894 60.2542C292.838 60.2401 292.795 60.211 292.736 60.2186C292.626 60.2327 292.557 60.348 292.439 60.3324C292.327 60.3177 292.211 60.189 292.186 60.0843C292.153 59.9497 292.261 59.906 292.378 59.894C292.426 59.889 292.481 59.8836 292.527 59.9011C292.589 59.9234 292.618 59.9824 292.673 60.0122C292.776 60.0678 292.797 59.9789 292.781 59.8889C292.758 59.7541 292.73 59.6992 292.853 59.6064C292.938 59.5424 293.01 59.4961 292.997 59.3812C292.989 59.3137 292.951 59.2832 292.986 59.2159C293.013 59.1648 293.086 59.1186 293.134 59.0881C293.257 59.0093 293.661 59.0152 293.496 58.7947C293.447 58.73 293.358 58.6143 293.273 58.5985C293.167 58.5788 293.12 58.6951 293.045 58.7464C292.969 58.7994 292.82 58.8596 292.743 58.7776C292.64 58.6673 292.812 58.6311 292.85 58.554C292.867 58.5181 292.85 58.4682 292.82 58.4212C292.858 58.4053 292.897 58.3906 292.937 58.3771C292.962 58.3951 292.991 58.4059 293.022 58.4084C293.093 58.4129 293.16 58.3752 293.222 58.4227C293.291 58.4748 293.341 58.5407 293.432 58.5569C293.52 58.5727 293.614 58.5221 293.636 58.4334C293.649 58.3794 293.636 58.3224 293.623 58.2667C294.02 58.2689 294.408 58.3856 294.738 58.6023C294.717 58.5943 294.692 58.5953 294.66 58.6096C294.596 58.6389 294.505 58.7137 294.497 58.7879C294.488 58.8721 294.615 58.884 294.675 58.884C294.766 58.884 294.857 58.8444 294.828 58.7421C294.815 58.6977 294.798 58.6515 294.77 58.6236C294.837 58.669 294.901 58.7182 294.961 58.7709C294.961 58.7719 294.96 58.7727 294.959 58.7738C294.897 58.8363 294.826 58.8858 294.785 58.9618C294.755 59.0154 294.722 59.0408 294.662 59.0547C294.629 59.0623 294.591 59.0651 294.564 59.0868C294.487 59.1461 294.531 59.2889 294.604 59.3317C294.696 59.3858 294.832 59.3604 294.902 59.2832C294.956 59.2227 294.988 59.1178 295.086 59.1179C295.129 59.1178 295.17 59.1343 295.201 59.1639C295.241 59.2049 295.233 59.2432 295.242 59.2945C295.257 59.3856 295.339 59.3362 295.388 59.2902C295.425 59.3536 295.458 59.4189 295.487 59.4858C295.432 59.5632 295.388 59.6476 295.256 59.5574C295.177 59.5033 295.129 59.4249 295.03 59.4005C294.943 59.3796 294.855 59.4013 294.769 59.4158C294.672 59.4324 294.557 59.4396 294.483 59.5119C294.412 59.5814 294.374 59.6746 294.298 59.7445C294.151 59.88 294.089 60.0278 294.184 60.2193C294.276 60.4034 294.467 60.5033 294.673 60.4902C294.876 60.477 295.086 60.3617 295.08 60.6505C295.078 60.7527 295.1 60.8234 295.132 60.9183C295.161 61.0058 295.159 61.0907 295.166 61.181C295.173 61.2868 295.19 61.3917 295.217 61.4943C295.026 61.7347 294.782 61.9293 294.503 62.0632C294.225 62.1971 293.918 62.2666 293.608 62.2667Z"/><path fill="#000" d="M292.786 61.8672C294.129 61.8672 295.218 60.7927 295.218 59.4672C295.218 59.0095 295.088 58.5817 294.863 58.2177C295.562 58.6393 296.029 59.3995 296.029 60.2672C296.029 61.5927 294.94 62.6672 293.597 62.6672C292.718 62.6672 291.947 62.2067 291.52 61.5167C291.889 61.7391 292.322 61.8672 292.786 61.8672Z" opacity="0.1"/><path fill="#342b53" fill-rule="evenodd" d="M293.598 62.2C294.68 62.2 295.557 61.3344 295.557 60.2666C295.557 59.1989 294.68 58.3333 293.598 58.3333C292.516 58.3333 291.639 59.1989 291.639 60.2666C291.639 61.3344 292.516 62.2 293.598 62.2ZM293.598 62.6666C294.941 62.6666 296.03 61.5921 296.03 60.2666C296.03 58.9412 294.941 57.8666 293.598 57.8666C292.255 57.8666 291.166 58.9412 291.166 60.2666C291.166 61.5921 292.255 62.6666 293.598 62.6666Z" clip-rule="evenodd"/><g filter="url(#filter1_d_11535_4245)"><ellipse cx="295.694" cy="59.1334" fill="#ff5e5c" rx="1.01333" ry="1"/><path fill="#fff" d="M295.693 58.5332C295.861 58.5332 295.999 58.6686 295.999 58.835V58.9834H296.075C296.104 58.9835 296.128 59.007 296.128 59.0361V59.5469C296.128 59.576 296.104 59.5995 296.075 59.5996H295.311C295.282 59.5994 295.258 59.576 295.258 59.5469V59.0361C295.258 59.007 295.282 58.9836 295.311 58.9834H295.388V58.835C295.388 58.6686 295.524 58.5333 295.693 58.5332ZM295.693 59.1602C295.628 59.1602 295.575 59.2129 295.575 59.2773C295.575 59.3417 295.628 59.3936 295.693 59.3936C295.758 59.3935 295.811 59.3416 295.811 59.2773C295.811 59.2129 295.758 59.1602 295.693 59.1602ZM295.693 58.6836C295.609 58.6836 295.541 58.7518 295.541 58.835V58.9834H295.845V58.835C295.845 58.7518 295.777 58.6836 295.693 58.6836Z"/></g><g clip-path="url(#clip2_11535_4245)"><path fill="#a0a0a0" d="M317.957 60.1779H317.423V58.7557C317.423 58.361 317.103 58.0446 316.712 58.0446H315.29V57.5113C315.29 57.2755 315.196 57.0494 315.03 56.8827C314.863 56.716 314.637 56.6224 314.401 56.6224C314.165 56.6224 313.939 56.716 313.773 56.8827C313.606 57.0494 313.512 57.2755 313.512 57.5113V58.0446H312.09C311.901 58.0446 311.721 58.1195 311.587 58.2529C311.454 58.3862 311.379 58.5671 311.379 58.7557V60.1068H311.912C312.446 60.1068 312.872 60.5335 312.872 61.0668C312.872 61.6002 312.446 62.0268 311.912 62.0268H311.379V63.3779C311.379 63.5665 311.454 63.7474 311.587 63.8808C311.721 64.0141 311.901 64.089 312.09 64.089H313.441V63.5557C313.441 63.0224 313.868 62.5957 314.401 62.5957C314.934 62.5957 315.361 63.0224 315.361 63.5557V64.089H316.712C316.901 64.089 317.082 64.0141 317.215 63.8808C317.348 63.7474 317.423 63.5665 317.423 63.3779V61.9557H317.957C318.192 61.9557 318.419 61.8621 318.585 61.6954C318.752 61.5287 318.846 61.3026 318.846 61.0668C318.846 60.8311 318.752 60.605 318.585 60.4383C318.419 60.2716 318.192 60.1779 317.957 60.1779Z"/></g></g><rect width="40" height="40" x="268" y="38" fill="#fff" rx="8"/><rect width="40" height="40" x="268" y="38" fill="url(#paint1_linear_11535_4245)" rx="8"/><g clip-path="url(#clip3_11535_4245)"><path fill="#fff" d="M288 47.67C288.955 47.67 289.845 48.137 290.39 48.917L290.495 49.077L298.609 62.625C298.856 63.0521 298.99 63.5347 298.999 64.0278C299.008 64.5209 298.892 65.0082 298.662 65.4442C298.431 65.8801 298.094 66.2505 297.681 66.5205C297.268 66.7905 296.794 66.9513 296.302 66.988L296.107 66.996H279.882C279.39 66.9904 278.907 66.8603 278.479 66.6176C278.05 66.3749 277.69 66.0277 277.433 65.6083C277.175 65.1889 277.027 64.711 277.004 64.2192C276.981 63.7274 277.083 63.2378 277.3 62.796L277.399 62.611L285.509 49.073C285.769 48.6448 286.134 48.2908 286.571 48.045C287.007 47.7993 287.499 47.6701 288 47.67ZM288.01 61L287.883 61.007C287.64 61.0359 287.416 61.1529 287.254 61.3359C287.091 61.519 287.001 61.7552 287.001 62C287.001 62.2447 287.091 62.481 287.254 62.664C287.416 62.847 287.64 62.9641 287.883 62.993L288 63L288.127 62.993C288.37 62.9641 288.594 62.847 288.757 62.664C288.919 62.481 289.009 62.2447 289.009 62C289.009 61.7552 288.919 61.519 288.757 61.3359C288.594 61.1529 288.37 61.0359 288.127 61.007L288.01 61ZM288 54C287.755 54 287.519 54.0899 287.336 54.2527C287.153 54.4155 287.036 54.6397 287.007 54.883L287 55V59L287.007 59.117C287.036 59.36 287.153 59.584 287.336 59.7466C287.519 59.9091 287.755 59.9989 288 59.9989C288.245 59.9989 288.481 59.9091 288.664 59.7466C288.847 59.584 288.964 59.36 288.993 59.117L289 59V55L288.993 54.883C288.965 54.6397 288.848 54.4155 288.665 54.2527C288.482 54.0899 288.245 54 288 54Z"/></g><defs><clipPath id="clip0_11535_4245"><path fill="#fff" d="M0 0H6.4V6.4H0z" transform="translate(35.467 31.07)"/></clipPath><clipPath id="clip1_11535_4245"><path fill="#fff" d="M0 0H10.6667V10.6667H0z" transform="translate(63.2 55.2)"/></clipPath><clipPath id="clip2_11535_4245"><path fill="#fff" d="M0 0H8.53333V8.53333H0z" transform="translate(310.667 56.267)"/></clipPath><clipPath id="clip3_11535_4245"><path fill="#fff" d="M0 0H24V24H0z" transform="translate(276 46)"/></clipPath><linearGradient id="paint0_linear_11535_4245" x1="172" x2="172" y1="0" y2="188" gradientUnits="userSpaceOnUse"><stop stop-color="#f4f8ff"/><stop offset="1" stop-color="#e4eeff"/></linearGradient><linearGradient id="paint1_linear_11535_4245" x1="288" x2="288" y1="38" y2="78" gradientUnits="userSpaceOnUse"><stop stop-color="#ea5c44"/><stop offset="1" stop-color="#d2513b"/></linearGradient><filter id="filter0_d_11535_4245" width="336" height="172" x="4" y="12" color-interpolation-filters="sRGB" filterUnits="userSpaceOnUse"><feFlood flood-opacity="0" result="BackgroundImageFix"/><feColorMatrix in="SourceAlpha" result="hardAlpha" values="0 0 0 0 0 0 0 0 0 0 0 0 0 0 0 0 0 0 127 0"/><feOffset/><feGaussianBlur stdDeviation="4"/><feComposite in2="hardAlpha" operator="out"/><feColorMatrix values="0 0 0 0 0 0 0 0 0 0 0 0 0 0 0 0 0 0 0.08 0"/><feBlend in2="BackgroundImageFix" result="effect1_dropShadow_11535_4245"/><feBlend in="SourceGraphic" in2="effect1_dropShadow_11535_4245" result="shape"/></filter><filter id="filter1_d_11535_4245" width="6.02686" height="6" x="292.681" y="56.1334" color-interpolation-filters="sRGB" filterUnits="userSpaceOnUse"><feFlood flood-opacity="0" result="BackgroundImageFix"/><feColorMatrix in="SourceAlpha" result="hardAlpha" values="0 0 0 0 0 0 0 0 0 0 0 0 0 0 0 0 0 0 127 0"/><feOffset/><feGaussianBlur stdDeviation="1"/><feComposite in2="hardAlpha" operator="out"/><feColorMatrix values="0 0 0 0 0 0 0 0 0 0 0 0 0 0 0 0 0 0 0.2 0"/><feBlend in2="BackgroundImageFix" result="effect1_dropShadow_11535_4245"/><feBlend in="SourceGraphic" in2="effect1_dropShadow_11535_4245" result="shape"/></filter></defs></svg>