<svg xmlns="http://www.w3.org/2000/svg" width="344" height="188" fill="none" viewBox="0 0 344 188"><rect width="344" height="188" fill="url(#paint0_linear_11547_38615)" rx="12"/><g filter="url(#filter0_d_11547_38615)"><rect width="320" height="149.333" x="12" y="20" fill="#1a2b4b" rx="8"/><path fill="#031631" d="M16.2666 32.6699C16.2666 28.2516 19.8483 24.6699 24.2666 24.6699H38.1333C42.5515 24.6699 46.1333 28.2516 46.1333 32.6699V41.7366H16.2666V32.6699Z"/><rect width="10.6667" height="10.6667" x="20.5332" y="28.9365" fill="#1f314b" rx="2"/><g clip-path="url(#clip0_11547_38615)"><path fill="#515478" d="M40.2137 32.1596C40.3709 32.0314 40.6034 32.0405 40.7499 32.1869C40.8961 32.3333 40.9051 32.565 40.7772 32.7221L40.7499 32.7524L39.2323 34.2699L40.7499 35.7875L40.7772 35.8168C40.9054 35.9739 40.8963 36.2065 40.7499 36.3529C40.6034 36.4994 40.3709 36.5085 40.2137 36.3803L40.1835 36.3529L38.6659 34.8354L37.1493 36.3529C36.9931 36.5089 36.74 36.5089 36.5839 36.3529C36.4277 36.1968 36.4279 35.9437 36.5839 35.7875L38.1005 34.2699L36.5839 32.7524L36.5565 32.7221C36.4284 32.565 36.4374 32.3334 36.5839 32.1869C36.7303 32.0406 36.9619 32.0315 37.119 32.1596L37.1493 32.1869L38.6659 33.7035L40.1835 32.1869L40.2137 32.1596Z"/></g><path fill="#031631" d="M46.1338 41.7363L46.1387 41.9561C46.2529 44.2105 48.1176 46.0029 50.4004 46.0029H12C14.2828 46.0029 16.1465 44.2105 16.2607 41.9561L16.2666 41.7363H46.1338Z"/><path fill="#6e7191" d="M63.2012 31.0703C63.5939 31.0703 63.9121 31.3885 63.9121 31.7812V34.625H66.7559C67.1485 34.6252 67.4668 34.9443 67.4668 35.3369C67.4665 35.7293 67.1483 36.0477 66.7559 36.0479H63.9121V38.8926C63.9119 39.2851 63.5937 39.6035 63.2012 39.6035C62.8086 39.6035 62.4905 39.2851 62.4902 38.8926V36.0479H59.6445C59.2519 36.0479 58.9338 35.7294 58.9336 35.3369C58.9336 34.9442 59.2518 34.625 59.6445 34.625H62.4902V31.7812C62.4902 31.3885 62.8084 31.0703 63.2012 31.0703Z"/><path fill="#031631" d="M12 46H332V168C332 172.418 328.418 176 324 176H20C15.5817 176 12 172.418 12 168V46Z"/><path stroke="#6e7191" stroke-linecap="round" stroke-linejoin="round" d="M29.533 60.533H22.2M25.2 57.533 22.2 60.533 25.2 63.533M43.533 60.533H50.867M47.867 57.533 50.867 60.533 47.867 63.533"/><g stroke="#515478" stroke-linecap="round" stroke-linejoin="round" clip-path="url(#clip1_11547_38615)"><path stroke-width="1.5" d="M70.8735 59.3551H72.5402V57.6885"/><path d="M71.1256 63.1263C70.6128 63.6391 69.9595 63.9883 69.2482 64.1298C68.5369 64.2713 67.7997 64.1987 67.1297 63.9212C66.4597 63.6436 65.8871 63.1737 65.4842 62.5707C65.0813 61.9677 64.8662 61.2588 64.8662 60.5336C64.8662 59.8084 65.0813 59.0995 65.4842 58.4965C65.8871 57.8935 66.4597 57.4236 67.1297 57.1461C67.7997 56.8685 68.5369 56.7959 69.2482 56.9374C69.9595 57.0789 70.6128 57.4281 71.1256 57.9409L72.5398 59.3551"/></g><rect width="196.267" height="21.3333" x="84.5332" y="49.8667" fill="#13253f" rx="10.6667"/><path fill="#20df9e" d="M293.598 64.7999C293.596 64.7999 293.595 64.7999 293.593 64.7999C293.585 64.7999 293.576 64.7991 293.566 64.7974C293.078 64.7378 290.594 63.6107 290.265 60.563C290.236 60.38 290.22 60.1944 290.22 60.0067L290.226 59.7766C290.208 58.5591 290.236 57.9047 290.262 57.5728C290.277 57.3822 290.409 57.2307 290.592 57.1702L293.063 56.3511C293.237 56.2935 293.417 56.2654 293.598 56.2666C293.779 56.2654 293.959 56.2935 294.133 56.3511L296.604 57.1702C296.787 57.2307 296.919 57.3822 296.934 57.5728C296.96 57.9047 296.988 58.5591 296.97 59.7766L296.976 60.0067C296.976 60.1944 296.96 60.38 296.931 60.563C296.602 63.6107 294.118 64.7378 293.63 64.7974C293.62 64.7991 293.611 64.7999 293.603 64.7999C293.601 64.7999 293.6 64.7999 293.598 64.7999Z"/><path fill="#20a690" fill-rule="evenodd" d="M293.598 64.3973C293.667 64.383 293.852 64.3248 294.114 64.1864C294.392 64.0398 294.729 63.8181 295.063 63.5092C295.726 62.8945 296.375 61.9356 296.528 60.5206C296.529 60.514 296.53 60.5075 296.531 60.501C296.556 60.339 296.57 60.1757 296.57 60.0116L296.565 59.7868C296.564 59.7814 296.564 59.776 296.565 59.7706C296.583 58.56 296.555 57.919 296.53 57.6039C296.529 57.5927 296.525 57.5844 296.519 57.5767C296.512 57.568 296.498 57.5569 296.475 57.5494L294.004 56.7303C293.873 56.6869 293.737 56.6657 293.601 56.6666H293.595C293.459 56.6657 293.323 56.6869 293.192 56.7303L290.721 57.5494C290.698 57.5569 290.684 57.568 290.677 57.5767C290.671 57.5844 290.667 57.5927 290.666 57.6039C290.641 57.919 290.613 58.56 290.631 59.7706C290.632 59.776 290.631 59.7814 290.631 59.7868L290.626 60.0116C290.626 60.1757 290.64 60.339 290.665 60.501C290.666 60.5075 290.667 60.514 290.668 60.5206C290.821 61.9356 291.47 62.8945 292.133 63.5092C292.467 63.8181 292.804 64.0398 293.082 64.1864C293.344 64.3248 293.529 64.383 293.598 64.3973ZM290.22 60.0067L290.226 59.7766C290.208 58.5591 290.236 57.9047 290.262 57.5728C290.277 57.3822 290.409 57.2307 290.592 57.1702L293.063 56.3511C293.237 56.2935 293.417 56.2654 293.598 56.2666C293.779 56.2654 293.959 56.2935 294.133 56.3511L296.604 57.1702C296.787 57.2307 296.919 57.3822 296.934 57.5728C296.96 57.9047 296.988 58.5591 296.97 59.7766L296.976 60.0067C296.976 60.1944 296.96 60.38 296.931 60.563C296.602 63.6107 294.118 64.7378 293.63 64.7974C293.62 64.7991 293.611 64.7999 293.603 64.7999C293.601 64.7999 293.6 64.7999 293.598 64.7999C293.596 64.7999 293.595 64.7999 293.593 64.7999C293.585 64.7999 293.576 64.7991 293.566 64.7974C293.078 64.7378 290.594 63.6107 290.265 60.563C290.236 60.38 290.22 60.1944 290.22 60.0067Z" clip-rule="evenodd"/><path fill="#000" d="M293.598 64.7999C293.598 63.1999 293.573 58.0017 293.598 56.2666C293.779 56.2654 293.96 56.2935 294.133 56.3511L296.605 57.1702C296.787 57.2307 296.919 57.3822 296.934 57.5728C296.96 57.9047 296.989 58.5591 296.97 59.7766L296.976 60.0067C296.976 60.1944 296.961 60.38 296.931 60.563C296.602 63.6107 294.118 64.7378 293.63 64.7974C293.62 64.7991 293.611 64.7999 293.603 64.7999C293.602 64.7999 293.6 64.7999 293.598 64.7999Z" opacity="0.1"/><ellipse cx="293.598" cy="60.6666" fill="#18aa79" rx="2.432" ry="2.4"/><ellipse cx="293.596" cy="60.2667" fill="#4fffa8" rx="2.432" ry="2.4"/><path fill="#00b7ff" d="M291.568 60.2661C291.568 60.0891 291.592 59.9128 291.64 59.7419C291.718 59.9066 291.831 60.0488 291.908 60.2177C292.007 60.4348 292.275 60.3746 292.393 60.5648C292.497 60.7337 292.385 60.9473 292.464 61.124C292.521 61.2523 292.655 61.2803 292.748 61.3741C292.842 61.4687 292.84 61.5983 292.855 61.7217C292.871 61.8666 292.898 62.0103 292.934 62.1517C292.934 62.1527 292.934 62.1539 292.935 62.1549C292.14 61.8811 291.568 61.1379 291.568 60.2661ZM293.608 62.2666C293.494 62.2666 293.38 62.2572 293.268 62.2387C293.269 62.2104 293.27 62.1841 293.273 62.1657C293.298 62.0001 293.383 61.8381 293.497 61.7141C293.61 61.5918 293.764 61.509 293.859 61.3702C293.953 61.2348 293.981 61.0525 293.942 60.8942C293.886 60.6604 293.562 60.5824 293.387 60.4556C293.287 60.3826 293.197 60.2699 293.065 60.2607C293.005 60.2565 292.954 60.2694 292.894 60.2542C292.838 60.2401 292.795 60.2109 292.736 60.2185C292.626 60.2327 292.557 60.3479 292.439 60.3323C292.327 60.3176 292.211 60.1889 292.186 60.0842C292.153 59.9496 292.261 59.9059 292.378 59.894C292.426 59.889 292.481 59.8835 292.527 59.901C292.589 59.9233 292.618 59.9823 292.673 60.0121C292.776 60.0678 292.797 59.9789 292.781 59.8889C292.758 59.754 292.73 59.6991 292.853 59.6063C292.938 59.5423 293.01 59.4961 292.997 59.3811C292.989 59.3136 292.951 59.2831 292.986 59.2159C293.013 59.1647 293.086 59.1186 293.134 59.088C293.257 59.0093 293.661 59.0151 293.496 58.7946C293.447 58.7299 293.358 58.6143 293.273 58.5985C293.167 58.5788 293.12 58.695 293.045 58.7463C292.969 58.7993 292.82 58.8596 292.743 58.7776C292.64 58.6672 292.812 58.6311 292.85 58.554C292.867 58.518 292.85 58.4681 292.82 58.4211C292.858 58.4053 292.897 58.3906 292.937 58.377C292.962 58.395 292.991 58.4058 293.022 58.4083C293.093 58.4129 293.16 58.3752 293.222 58.4227C293.291 58.4748 293.341 58.5406 293.432 58.5569C293.52 58.5726 293.614 58.5221 293.636 58.4333C293.649 58.3793 293.636 58.3223 293.623 58.2666C294.02 58.2688 294.408 58.3855 294.738 58.6022C294.717 58.5943 294.692 58.5952 294.66 58.6095C294.596 58.6389 294.505 58.7137 294.497 58.7879C294.488 58.8721 294.615 58.8839 294.675 58.8839C294.766 58.8839 294.857 58.8443 294.828 58.742C294.815 58.6976 294.798 58.6515 294.77 58.6236C294.837 58.6689 294.901 58.7181 294.961 58.7709C294.961 58.7718 294.96 58.7727 294.959 58.7737C294.897 58.8362 294.826 58.8857 294.785 58.9618C294.755 59.0153 294.722 59.0407 294.662 59.0546C294.629 59.0622 294.591 59.065 294.564 59.0867C294.487 59.1461 294.531 59.2888 294.604 59.3316C294.696 59.3857 294.832 59.3603 294.902 59.2831C294.956 59.2227 294.988 59.1177 295.086 59.1178C295.129 59.1178 295.17 59.1343 295.201 59.1638C295.241 59.2048 295.233 59.2432 295.242 59.2944C295.257 59.3855 295.339 59.3361 295.388 59.2902C295.425 59.3536 295.458 59.4189 295.487 59.4857C295.432 59.5632 295.388 59.6476 295.256 59.5573C295.177 59.5032 295.129 59.4248 295.03 59.4004C294.943 59.3796 294.855 59.4012 294.769 59.4157C294.672 59.4323 294.557 59.4396 294.483 59.5118C294.412 59.5814 294.374 59.6745 294.298 59.7444C294.151 59.8799 294.089 60.0277 294.184 60.2192C294.276 60.4034 294.467 60.5033 294.673 60.4901C294.876 60.4769 295.086 60.3617 295.08 60.6504C295.078 60.7526 295.1 60.8233 295.132 60.9183C295.161 61.0058 295.159 61.0906 295.166 61.1809C295.173 61.2867 295.19 61.3916 295.217 61.4942C295.026 61.7347 294.782 61.9293 294.503 62.0631C294.225 62.197 293.918 62.2666 293.608 62.2666Z"/><path fill="#000" d="M292.786 61.8673C294.129 61.8673 295.218 60.7928 295.218 59.4673C295.218 59.0095 295.088 58.5817 294.863 58.2178C295.562 58.6393 296.029 59.3995 296.029 60.2673C296.029 61.5928 294.94 62.6673 293.597 62.6673C292.718 62.6673 291.947 62.2067 291.52 61.5168C291.889 61.7391 292.322 61.8673 292.786 61.8673Z" opacity="0.1"/><path fill="#342b53" fill-rule="evenodd" d="M293.598 62.2C294.68 62.2 295.557 61.3345 295.557 60.2667C295.557 59.1989 294.68 58.3334 293.598 58.3334C292.516 58.3334 291.639 59.1989 291.639 60.2667C291.639 61.3345 292.516 62.2 293.598 62.2ZM293.598 62.6667C294.941 62.6667 296.03 61.5922 296.03 60.2667C296.03 58.9412 294.941 57.8667 293.598 57.8667C292.255 57.8667 291.166 58.9412 291.166 60.2667C291.166 61.5922 292.255 62.6667 293.598 62.6667Z" clip-rule="evenodd"/><g filter="url(#filter1_d_11547_38615)"><ellipse cx="295.694" cy="59.1333" fill="#ff5e5c" rx="1.01333" ry="1"/><path fill="#fff" d="M295.693 58.5332C295.861 58.5332 295.999 58.6686 295.999 58.835V58.9834H296.075C296.104 58.9835 296.128 59.007 296.128 59.0361V59.5469C296.128 59.576 296.104 59.5995 296.075 59.5996H295.311C295.282 59.5994 295.258 59.576 295.258 59.5469V59.0361C295.258 59.007 295.282 58.9836 295.311 58.9834H295.388V58.835C295.388 58.6686 295.524 58.5333 295.693 58.5332ZM295.693 59.1602C295.628 59.1602 295.575 59.2129 295.575 59.2773C295.575 59.3417 295.628 59.3936 295.693 59.3936C295.758 59.3935 295.811 59.3416 295.811 59.2773C295.811 59.2129 295.758 59.1602 295.693 59.1602ZM295.693 58.6836C295.609 58.6836 295.541 58.7518 295.541 58.835V58.9834H295.845V58.835C295.845 58.7518 295.777 58.6836 295.693 58.6836Z"/></g><g clip-path="url(#clip2_11547_38615)"><path fill="#6e7191" d="M317.957 60.1779H317.423V58.7556C317.423 58.361 317.103 58.0445 316.712 58.0445H315.29V57.5112C315.29 57.2755 315.196 57.0494 315.03 56.8827C314.863 56.716 314.637 56.6223 314.401 56.6223C314.165 56.6223 313.939 56.716 313.773 56.8827C313.606 57.0494 313.512 57.2755 313.512 57.5112V58.0445H312.09C311.901 58.0445 311.721 58.1195 311.587 58.2528C311.454 58.3862 311.379 58.567 311.379 58.7556V60.1068H311.912C312.446 60.1068 312.872 60.5334 312.872 61.0668C312.872 61.6001 312.446 62.0268 311.912 62.0268H311.379V63.3779C311.379 63.5665 311.454 63.7473 311.587 63.8807C311.721 64.0141 311.901 64.089 312.09 64.089H313.441V63.5556C313.441 63.0223 313.868 62.5956 314.401 62.5956C314.934 62.5956 315.361 63.0223 315.361 63.5556V64.089H316.712C316.901 64.089 317.082 64.0141 317.215 63.8807C317.348 63.7473 317.423 63.5665 317.423 63.3779V61.9556H317.957C318.192 61.9556 318.419 61.862 318.585 61.6953C318.752 61.5286 318.846 61.3025 318.846 61.0668C318.846 60.831 318.752 60.6049 318.585 60.4382C318.419 60.2715 318.192 60.1779 317.957 60.1779Z"/></g></g><rect width="40" height="40" x="268" y="38" fill="#fff" rx="8"/><rect width="40" height="40" x="268" y="38" fill="url(#paint1_linear_11547_38615)" rx="8"/><g clip-path="url(#clip3_11547_38615)"><path fill="#fff" d="M288 47.6699C288.955 47.6699 289.845 48.1369 290.39 48.9169L290.495 49.0769L298.609 62.6249C298.856 63.052 298.99 63.5347 298.999 64.0277C299.008 64.5208 298.892 65.0081 298.662 65.4441C298.431 65.8801 298.094 66.2504 297.681 66.5204C297.268 66.7904 296.794 66.9513 296.302 66.9879L296.107 66.9959H279.882C279.39 66.9904 278.907 66.8602 278.479 66.6175C278.05 66.3749 277.69 66.0276 277.433 65.6082C277.175 65.1888 277.027 64.7109 277.004 64.2191C276.981 63.7273 277.083 63.2377 277.3 62.7959L277.399 62.6109L285.509 49.0729C285.769 48.6447 286.134 48.2907 286.571 48.0449C287.007 47.7992 287.499 47.67 288 47.6699ZM288.01 60.9999L287.883 61.0069C287.64 61.0358 287.416 61.1529 287.254 61.3359C287.091 61.5189 287.001 61.7552 287.001 61.9999C287.001 62.2447 287.091 62.4809 287.254 62.664C287.416 62.847 287.64 62.964 287.883 62.9929L288 62.9999L288.127 62.9929C288.37 62.964 288.594 62.847 288.757 62.664C288.919 62.4809 289.009 62.2447 289.009 61.9999C289.009 61.7552 288.919 61.5189 288.757 61.3359C288.594 61.1529 288.37 61.0358 288.127 61.0069L288.01 60.9999ZM288 53.9999C287.755 54 287.519 54.0899 287.336 54.2526C287.153 54.4154 287.036 54.6397 287.007 54.8829L287 54.9999V58.9999L287.007 59.1169C287.036 59.36 287.153 59.584 287.336 59.7465C287.519 59.909 287.755 59.9988 288 59.9988C288.245 59.9988 288.481 59.909 288.664 59.7465C288.847 59.584 288.964 59.36 288.993 59.1169L289 58.9999V54.9999L288.993 54.8829C288.965 54.6397 288.848 54.4154 288.665 54.2526C288.482 54.0899 288.245 54 288 53.9999Z"/></g><defs><clipPath id="clip0_11547_38615"><path fill="#fff" d="M0 0H6.4V6.4H0z" transform="translate(35.467 31.07)"/></clipPath><clipPath id="clip1_11547_38615"><path fill="#fff" d="M0 0H10.6667V10.6667H0z" transform="translate(63.2 55.2)"/></clipPath><clipPath id="clip2_11547_38615"><path fill="#fff" d="M0 0H8.53333V8.53333H0z" transform="translate(310.667 56.267)"/></clipPath><clipPath id="clip3_11547_38615"><path fill="#fff" d="M0 0H24V24H0z" transform="translate(276 46)"/></clipPath><linearGradient id="paint0_linear_11547_38615" x1="172" x2="172" y1="0" y2="188" gradientUnits="userSpaceOnUse"><stop stop-color="#20385b"/><stop offset="1" stop-color="#1a3254"/></linearGradient><linearGradient id="paint1_linear_11547_38615" x1="288" x2="288" y1="38" y2="78" gradientUnits="userSpaceOnUse"><stop stop-color="#ea5c44"/><stop offset="1" stop-color="#d2513b"/></linearGradient><filter id="filter0_d_11547_38615" width="336" height="172" x="4" y="12" color-interpolation-filters="sRGB" filterUnits="userSpaceOnUse"><feFlood flood-opacity="0" result="BackgroundImageFix"/><feColorMatrix in="SourceAlpha" result="hardAlpha" values="0 0 0 0 0 0 0 0 0 0 0 0 0 0 0 0 0 0 127 0"/><feOffset/><feGaussianBlur stdDeviation="4"/><feComposite in2="hardAlpha" operator="out"/><feColorMatrix values="0 0 0 0 0 0 0 0 0 0 0 0 0 0 0 0 0 0 0.08 0"/><feBlend in2="BackgroundImageFix" result="effect1_dropShadow_11547_38615"/><feBlend in="SourceGraphic" in2="effect1_dropShadow_11547_38615" result="shape"/></filter><filter id="filter1_d_11547_38615" width="6.02686" height="6" x="292.681" y="56.1333" color-interpolation-filters="sRGB" filterUnits="userSpaceOnUse"><feFlood flood-opacity="0" result="BackgroundImageFix"/><feColorMatrix in="SourceAlpha" result="hardAlpha" values="0 0 0 0 0 0 0 0 0 0 0 0 0 0 0 0 0 0 127 0"/><feOffset/><feGaussianBlur stdDeviation="1"/><feComposite in2="hardAlpha" operator="out"/><feColorMatrix values="0 0 0 0 0 0 0 0 0 0 0 0 0 0 0 0 0 0 0.2 0"/><feBlend in2="BackgroundImageFix" result="effect1_dropShadow_11547_38615"/><feBlend in="SourceGraphic" in2="effect1_dropShadow_11547_38615" result="shape"/></filter></defs></svg>