<svg xmlns="http://www.w3.org/2000/svg" width="24" height="24" fill="none" viewBox="0 0 24 24"><path fill="#82829c" fill-rule="evenodd" d="M5.25 6C5.05109 6 4.86032 6.07902 4.71967 6.21967C4.57902 6.36032 4.5 6.55109 4.5 6.75V16.5C4.5 16.9142 4.16421 17.25 3.75 17.25C3.33579 17.25 3 16.9142 3 16.5V6.75C3 6.15326 3.23705 5.58097 3.65901 5.15901C4.08097 4.73705 4.65326 4.5 5.25 4.5H18.75C19.3467 4.5 19.919 4.73705 20.341 5.15901C20.7629 5.58097 21 6.15326 21 6.75V16.5C21 16.9142 20.6642 17.25 20.25 17.25C19.8358 17.25 19.5 16.9142 19.5 16.5V6.75C19.5 6.55109 19.421 6.36032 19.2803 6.21967C19.1397 6.07902 18.9489 6 18.75 6H5.25Z" clip-rule="evenodd"/><path fill="#82829c" fill-rule="evenodd" d="M1.5 16.5C1.5 16.086 1.836 15.75 2.25 15.75H21.75C22.164 15.75 22.5 16.086 22.5 16.5V18C22.5 18.597 22.263 19.169 21.841 19.591 21.419 20.013 20.847 20.25 20.25 20.25H3.75C3.153 20.25 2.581 20.013 2.159 19.591 1.737 19.169 1.5 18.597 1.5 18V16.5ZM3 17.25V18C3 18.199 3.079 18.39 3.22 18.53 3.36 18.671 3.551 18.75 3.75 18.75H20.25C20.449 18.75 20.64 18.671 20.78 18.53 20.921 18.39 21 18.199 21 18V17.25H3ZM9.75 8.25C9.75 7.836 10.086 7.5 10.5 7.5H13.5C13.914 7.5 14.25 7.836 14.25 8.25 14.25 8.664 13.914 9 13.5 9H10.5C10.086 9 9.75 8.664 9.75 8.25Z" clip-rule="evenodd"/></svg>