<svg xmlns="http://www.w3.org/2000/svg" width="41" height="41" fill="none" viewBox="0 0 41 41"><g stroke="#293a53" stroke-linecap="round" stroke-linejoin="round" stroke-width="1.5" clip-path="url(#clip0_4523_22571)"><path d="M6.75 28V11.75C6.75 11.087 7.013 10.451 7.482 9.982 7.951 9.513 8.587 9.25 9.25 9.25H31.75C32.413 9.25 33.049 9.513 33.518 9.982 33.987 10.451 34.25 11.087 34.25 11.75V28M4.25 28H36.75V30.5C36.75 31.163 36.487 31.799 36.018 32.268 35.549 32.737 34.913 33 34.25 33H6.75C6.087 33 5.451 32.737 4.982 32.268 4.513 31.799 4.25 31.163 4.25 30.5V28ZM23 14.25H18"/></g><defs><clipPath id="clip0_4523_22571"><path fill="#fff" d="M0 0H40V40H0z" transform="translate(.5 .5)"/></clipPath></defs></svg>