<svg xmlns="http://www.w3.org/2000/svg" width="26" height="24" fill="none" viewBox="0 0 26 24"><path fill="#dbe2f9" fill-rule="evenodd" d="M22.781 19.663c-.415-.158-.764-.361-1.003-.644a1.4 1.4 0 0 1-.326-1.01c.023-.494-.282-.873-.446-1.037l-.171-.171.064-.228c.114-.405.42-1.73.01-2.844-.227-.617-.7-1.423-1.327-2.343-.622-.914-1.377-1.915-2.15-2.913-.715-.928-.749-1.937-.782-2.936l-.002-.049c-.033-.986-.07-2.027-.622-3.186-.569-1.196-1.696-1.878-3.13-1.878-.871 0-1.764.254-2.44.688-.626.402-.926 1.054-1.042 1.838-.117.787-.039 1.638.03 2.361.018.195.036.386.047.552.045.711.048 1.264.024 1.673-.022.386-.07.699-.162.89-.059.125-.195.306-.324.471-.141.18-.318.397-.496.615l-.005.007c-.375.46-.79.967-1.128 1.437-.375.527-.69 1.356-1.02 2.234l-.015.037c-.225.599-.458 1.22-.696 1.61a1.61 1.61 0 0 0-.181 1.29l.085.29-.264.171c-.093.06-.265.202-.42.507-.329.65-.99.93-1.987 1.108-.374.072-.54.2-.613.317a.58.58 0 0 0-.066.36c.013.153.06.314.114.464.22.612.07 1.036-.117 1.56l-.013.035-.002.005q-.067.187-.142.412c-.046.14-.024.233.032.313.092.13.319.271.747.39.411.116.921.189 1.468.249.71.078 1.47.337 2.146.567l.027.009c.695.236 1.349.456 1.93.522h.001q.12.014.232.014c.729 0 1.045-.437 1.147-.618l.1-.177.207-.04a19 19 0 0 1 2.859-.313c1.288-.034 2.524.201 2.874.274l.202.042.097.173c.098.173.325.508.647.668l.001.001h.002c.165.085.43.146.724.146.317 0 .882-.07 1.324-.502.326-.322.864-.661 1.413-.971.559-.316 1.173-.625 1.683-.882l.004-.002c.229-.115.44-.222.624-.317h.001c.493-.255.642-.551.629-.766-.012-.184-.146-.375-.403-.473m.85.448c.029.442-.285.866-.86 1.162-.188.097-.402.205-.63.32-1.024.515-2.426 1.221-2.988 1.774-.562.55-1.273.633-1.647.633-.35 0-.692-.072-.937-.196-.447-.223-.727-.655-.833-.844-.338-.07-1.532-.297-2.765-.264-1.236.028-2.434.24-2.782.305-.139.245-.576.842-1.543.842q-.14 0-.287-.017c-.64-.072-1.346-.312-2.027-.543H6.33c-.696-.237-1.415-.482-2.073-.554-1.1-.121-2.17-.305-2.537-.826a.72.72 0 0 1-.087-.672q.078-.233.145-.42l.003-.007c.194-.547.301-.848.13-1.324-.117-.323-.244-.797-.01-1.174.16-.26.468-.434.914-.518.97-.174 1.437-.42 1.667-.876.19-.374.416-.572.572-.673a2.01 2.01 0 0 1 .224-1.614c.218-.354.441-.948.678-1.577.323-.86.657-1.748 1.071-2.329.347-.482.77-1 1.143-1.457l.005-.006c.36-.44.699-.856.768-1.002.107-.225.189-.964.099-2.366-.01-.158-.028-.343-.046-.54-.136-1.43-.34-3.594 1.206-4.586C10.958.278 11.94 0 12.895 0c1.607 0 2.897.776 3.54 2.129.591 1.242.629 2.36.662 3.345.035 1.035.065 1.928.698 2.749 1.547 2 3.047 4.035 3.538 5.367.457 1.245.116 2.677 0 3.092.193.192.6.68.567 1.347-.031.57.293.953 1.05 1.241.397.151.658.474.682.84" clip-rule="evenodd"/><path fill="#dbe2f9" d="M17.057 21.36c.19-.801.41-1.89.375-2.533a15 15 0 0 0-.035-.459c-.025-.287-.063-.714-.024-.84l.025-.01c.002.368.088 1.1.718 1.356q.283.115.637.115c.632 0 1.07-.082 1.619-.449.142-.095.244-.218.344-.37.022.059-.043.48-.05.58-.038.542.39.68.93.945l.078.038c.192.094.701.343.71.46 0 0-.005.015-.033.04-.128.108-.577.321-1.012.528-.771.366-1.645.78-2.037 1.164-.553.541-1.178.904-1.555.904a.4.4 0 0 1-.124-.016c-.41-.119-.748-.669-.566-1.453M3.084 19.316c-.042-.182-.075-.325-.04-.464.027-.103.574-.214.808-.261.328-.066.668-.135.89-.26.3-.17.463-.482.607-.757.104-.2.211-.405.339-.473a.1.1 0 0 1 .04-.008c.238 0 .74.467 1.03.886.073.105.209.317.366.562.47.731 1.114 1.733 1.45 2.07.304.301.794.882.674 1.38-.089.386-.56.7-.67.77a.7.7 0 0 1-.149.012c-.644 0-1.918-.498-2.602-.765l-.102-.04c-.382-.149-1.006-.243-1.61-.334-.48-.072-1.137-.17-1.246-.26-.088-.092.014-.392.105-.656a4 4 0 0 0 .169-.592c.052-.328-.01-.595-.059-.81M10.216 19.164c-.072-.47-.72-.935-1.472-1.473-.614-.44-1.31-.94-1.503-1.362-.396-.873-.084-2.406.461-3.195.27-.396.49-.995.702-1.575.23-.626.467-1.273.733-1.557.42-.442.81-1.303.878-1.981.394.35 1.005.793 1.57.793a1 1 0 0 0 .252-.032c.386-.103.954-.408 1.504-.704.473-.254 1.057-.568 1.277-.596.377.503 2.567 5.009 2.79 6.456a6.4 6.4 0 0 1-.104 2.462 2 2 0 0 0-.26-.018c-.61 0-.772.31-.814.495-.108.48-.12 2.015-.12 2.36-.22.261-1.336 1.488-2.937 1.709-.653.088-1.262.132-1.81.132-.47 0-.77-.033-.893-.05l-.805-.857c.317-.145.634-.453.55-1.008"/><path fill="#dbe2f9" d="M13.8 6.834c.19-.091.207-.106.215-.14-.022-.05-.198-.19-.537-.297a16 16 0 0 1-.437-.159h-.002c-.383-.142-.905-.336-1.117-.37l-.027-.003c-.18 0-.546.21-.909.525-.179.15-.528.403-.669.504.031.114.31.404.742.668l.173.107c.24.152.346.214.518.192.254-.03 1.186-.556 1.586-.782h.002l.1-.057c.148-.084.267-.141.362-.188M11.163 5.08l.074-.032q.018-.121.018-.235c0-.609-.346-1.123-.757-1.123-.35 0-.644.358-.728.842.096-.22.27-.376.493-.41a1 1 0 0 1 .086-.007c.374 0 .71.341.797.812q.013.077.017.153M14.484 5.054q0 .188-.058.356c.141-.208.223-.47.223-.744 0-.66-.454-1.197-1.012-1.197-.557 0-1.011.537-1.011 1.197q0 .243.081.473l.073.026a1 1 0 0 1-.005-.111c0-.543.382-.985.852-.985.48 0 .857.433.857.985"/></svg>