<svg xmlns="http://www.w3.org/2000/svg" width="26" height="24" fill="none" viewBox="0 0 26 24"><path fill="#000" d="M6.58 16.102c-.065-.317-.194-.666-.198-1.018-.012-1.168.493-2.187 1.123-3.157.013-.02.046-.027.07-.042-.033.151-.106.272-.172.392-.465.843-.883 1.702-.904 2.676-.012.533.099 1.038.575 1.462-.006-.114-.017-.191-.014-.272.013-.377-.003-.76.05-1.131.134-.938.494-1.801.969-2.639.57-1.005 1.941-3.199 1.846-4.365-.002-.016.003-.03.005-.047.033-.163-.01-.291-.134-.426-.487-.526-.447-1.077.108-1.529.138-.11.132-.19.07-.337-.235-.558-.29-1.135-.07-1.708.184-.477.713-.624 1.106-.308.262.214.455.484.503.823.023.161.031.325.045.486h.994c0-.08.009-.158-.002-.236-.046-.342.089-.635.278-.911.382-.565 1.268-.683 1.708-.206.414.448.646.976.531 1.588-.042.221-.126.434-.193.66.258.15.443.369.411.671-.027.263-.124.518-.181.778-.022.106-.062.232-.024.327.112.294.258.579.393.866.153.322.32.64.466.964.379.84.75 1.681 1.121 2.523.144.333.309.666.411 1.013.314 1.066.38 2.157.28 3.257-.012.13.012.192.151.245a.61.61 0 0 1 .425.611c0 .12-.03.24-.01.354.02.112.058.247.138.318.318.27.82.274 1.188.064.439-.252.704-.638.997-1.078-.786-.591-1.616-.685-2.532-.273.1-.099.203-.227.322-.243.353-.042.445-.275.527-.537.048-.159.105-.316.15-.475.33-1.19.106-2.27-.754-3.204-.222-.244-.506-.437-.762-.652.599.285 1.087.695 1.428 1.237.73 1.16.458 2.342.04 3.52.983.065 1.32.177 1.707.568.137-.015.271-.02.4-.047.06-.013.138-.058.157-.105.079-.216.16-.433.202-.655.133-.664-.032-1.304-.229-1.933-.416-1.326-1.108-2.528-1.957-3.652-.533-.706-1.083-1.406-1.532-2.16-.643-1.079-.979-2.25-.954-3.506a6.3 6.3 0 0 0-.107-1.358c-.155-.783-.433-1.539-1.047-2.111C14.542.105 13.15-.236 11.574.16c-.782.195-1.487.532-1.931 1.218-.36.555-.5 1.177-.494 1.81.011 1.166.011 2.34.14 3.496.113 1.022-.076 1.898-.815 2.668-.296.306-.553.652-.812.991-1.086 1.41-1.787 3.003-2.427 4.623-.162.41-.228.829-.078 1.273.487-.31.98-.409 1.423-.136m9.368 3.98-.374 2.794c-1.523-.361-3.105-.04-4.664-.043q-.052-.614-.104-1.244c1.908.221 3.655-.185 5.142-1.507M9.31 18.343c.25.195.499.396.733.607.221.2.281.46.245.738a.52.52 0 0 1-.51.438c-.074-.003-.162-.093-.21-.162-.55-.807-1.092-1.62-1.641-2.428-.126-.186-.27-.36-.407-.538l.018-.028c.592.457 1.185.912 1.772 1.373"/><path fill="#fc0" d="M10.44 22.408c.082.38-.117.672-.474.898a2 2 0 0 0-.322.263c-.426.42-.947.506-1.52.374a7 7 0 0 1-.88-.265c-1.083-.41-2.204-.675-3.343-.894a9 9 0 0 1-1.156-.3c-.534-.178-.704-.47-.593-.99.16-.75.167-1.5.04-2.255-.1-.591.056-.802.67-.954.234-.058.468-.125.705-.163a1.58 1.58 0 0 0 1.021-.626c.225-.292.443-.596.709-.854.471-.457.891-.475 1.333-.006.49.524.936 1.088 1.35 1.668.695.972 1.283 2.012 2.086 2.919.287.324.42.714.374 1.185m12.854-1.506a5.6 5.6 0 0 1-.752.466c-1.111.6-2.191 1.24-3.12 2.082-.454.411-1 .546-1.606.54-.174-.012-.35-.01-.525-.032-.64-.078-1.015-.424-1.154-1.017-.112-.49-.076-.976.035-1.453.304-1.304.319-2.628.334-3.95.01-.6.161-.782.87-.758.493.015.557.08.503.53-.062.56.377.98 1.048 1.04.745.07 1.22-.33 1.657-.807.091-.101.155-.223.237-.333.195-.267.581-.252.716.048.08.181.122.4.099.595-.059.446.134.79.453 1.073.358.316.736.619 1.134.887.458.309.514.75.07 1.09M11.567 8.538c.64.106 1.221-.03 1.758-.379.288-.187.586-.375.909-.492.488-.178.74-.479.777-.967.032-.402-.047-.551-.454-.705-.201-.076-.655-.225-.655-.225s-.444-.2-.744-.285c-.767-.219-1.343-.458-2.049-.101-.252.127-.571.433-.571.433s-.305.241-.447.36c-.473.39-.51.81-.068 1.24.354.344.742.66 1.13.97.11.085.272.129.414.151"/><path fill="#000" d="M14.467 5.182c-.03.304-.564.587-.564.587l-.745-.285s-.015-.414.003-.619c.02-.233.095-.467.358-.552.235-.076.49-.087.68.107a.94.94 0 0 1 .268.762M9.86 6.937l-.037.033.062.086c.045.065.09.13.149.181.61.565 1.347.695 2.153.523.744-.159 1.378-.536 2.011-.912q.162-.098.325-.192a.3.3 0 0 0 .087-.086q.018-.024.037-.046l-.014-.033-.019-.042q-.06.017-.122.031c-.084.02-.167.04-.241.076q-.296.147-.588.304c-.33.173-.659.347-1 .496-.898.39-1.762.37-2.534-.294a1 1 0 0 0-.164-.115l-.067-.042zM11.017 4.684c.063.224.092.699.092.699l-.571.433s-.5-.582-.485-.983c.011-.296.16-.508.385-.542a.54.54 0 0 1 .579.393"/></svg>