<svg xmlns="http://www.w3.org/2000/svg" width="98" height="63" fill="none" viewBox="0 0 98 63"><path fill="#fb3" stroke="#fba800" stroke-linecap="round" stroke-linejoin="round" stroke-width="3" d="M52.636 8.418a10.5 10.5 0 0 0-6.834-.063L33.09 12.596c-.812.271-1.3.904-1.348 1.624-.143 2.1-.278 6.094-.143 13.29.183 9.726 4.193 16.21 8.398 20.275 2.112 2.043 4.278 3.478 6.036 4.396.879.46 1.644.783 2.236.988.297.103.539.171.722.213q.137.03.199.038.038-.01.111-.037c.167-.064.402-.173.705-.34.605-.331 1.393-.84 2.306-1.518 1.824-1.354 4.071-3.325 6.253-5.748 4.264-4.738 8.08-10.986 8.314-17.599l.012-.64-.32-12.475a2.5 2.5 0 0 0-1.663-2.292z"/><mask id="a" width="21" height="55" x="49" y="4" maskUnits="userSpaceOnUse" style="mask-type:alpha"><path fill="#c4c4c4" stroke="#ea9400" d="M49.709 4.56h18.965v53H49.709z"/></mask><g mask="url(#a)"><path fill="#f69c00" stroke="#d68700" stroke-linecap="round" stroke-linejoin="round" stroke-width="3" d="M45.688 8.574a10.5 10.5 0 0 1 7.094-.164l12.577 4.188c.813.27 1.3.902 1.349 1.622.142 2.1.278 6.094.143 13.29-.184 9.726-4.201 16.209-8.413 20.275-2.117 2.042-4.287 3.477-6.048 4.395-.881.46-1.649.783-2.243.988a7 7 0 0 1-.722.214c-.124.029-.2.039-.236.043-.026-.005-.085-.017-.18-.046a7 7 0 0 1-.724-.277 20 20 0 0 1-2.307-1.227c-1.82-1.104-4.058-2.733-6.227-4.81-4.369-4.18-8.265-9.978-8.265-16.788V14.392a.5.5 0 0 1 .321-.466z"/></g><mask id="b" width="16" height="17" x="41" y="21" maskUnits="userSpaceOnUse" style="mask-type:luminance"><path fill="#fff" d="M57 21.06H41v16h16z"/></mask><g mask="url(#b)"><path fill="url(#c)" d="M56.985 27.598q.001.012-.005.022l-1.62 7.056c-.05.249-.189.473-.394.634a1.18 1.18 0 0 1-.729.25H43.766c-.266 0-.524-.09-.728-.25a1.08 1.08 0 0 1-.395-.634l-1.62-7.056q-.001-.01-.005-.022a1.04 1.04 0 0 1 .106-.686c.114-.211.297-.382.521-.485.225-.104.479-.134.724-.087s.467.169.632.347l2.405 2.465 2.558-5.454v-.007c.091-.189.238-.348.422-.46a1.18 1.18 0 0 1 1.232 0c.184.112.33.271.422.46v.007l2.557 5.454 2.406-2.465c.165-.177.387-.298.631-.344s.497-.015.721.088.407.273.52.484.151.45.108.683z"/></g><path fill="#fb3" d="M17.531.326a.5.5 0 0 1 .938 0l.802 2.167c.05.137.158.245.295.296l2.167.801a.5.5 0 0 1 0 .938l-2.167.802a.5.5 0 0 0-.295.295l-.802 2.167a.5.5 0 0 1-.938 0l-.802-2.167a.5.5 0 0 0-.295-.295l-2.167-.802a.5.5 0 0 1 0-.938l2.167-.801a.5.5 0 0 0 .295-.296zM74.531 54.327a.5.5 0 0 1 .938 0l.802 2.166c.05.137.158.245.295.295l2.167.802a.5.5 0 0 1 0 .938l-2.167.802a.5.5 0 0 0-.295.295l-.802 2.167a.5.5 0 0 1-.938 0l-.802-2.167a.5.5 0 0 0-.295-.295l-2.167-.802a.5.5 0 0 1 0-.938l2.167-.802a.5.5 0 0 0 .295-.295zM92.531 26.327a.5.5 0 0 1 .938 0l.802 2.166c.05.137.158.245.295.296l2.167.801a.5.5 0 0 1 0 .938l-2.167.802a.5.5 0 0 0-.295.295l-.802 2.167a.5.5 0 0 1-.938 0l-.802-2.167a.5.5 0 0 0-.295-.295l-2.167-.802a.5.5 0 0 1 0-.938l2.167-.802a.5.5 0 0 0 .295-.295z"/><path fill="#f69c00" d="M1.5 31.06a1.5 1.5 0 1 0 0-3 1.5 1.5 0 0 0 0 3M83.5 14.06a1.5 1.5 0 1 0 0-3 1.5 1.5 0 0 0 0 3M21.5 50.06a1.5 1.5 0 1 0 0-3 1.5 1.5 0 0 0 0 3"/><defs><linearGradient id="c" x1="44.111" x2="55.27" y1="24.845" y2="35.51" gradientUnits="userSpaceOnUse"><stop stop-color="#fff"/><stop offset="1" stop-color="#fff"/></linearGradient></defs></svg>