<svg xmlns="http://www.w3.org/2000/svg" width="86" height="20" fill="none" viewBox="0 0 86 20"><g fill-rule="evenodd" clip-path="url(#clip0_2187_89953)" clip-rule="evenodd"><path fill="url(#paint0_linear_2187_89953)" d="M0.863691 0.306728C0.638866 0.548364 0.509644 0.920273 0.509644 1.40354V18.5933C0.509644 19.0766 0.638866 19.4485 0.872096 19.6817L0.93303 19.7332L10.5648 10.1014V9.88496L0.924625 0.255249L0.863691 0.306728Z"/><path fill="url(#paint1_linear_2187_89953)" d="M13.7691 13.3246L10.5564 10.1108V9.88598L13.7701 6.67224L13.8394 6.71532L17.6404 8.87532C18.7288 9.48886 18.7288 10.4995 17.6404 11.1215L13.8394 13.2815C13.8384 13.2815 13.7691 13.3246 13.7691 13.3246Z"/><path fill="url(#paint2_linear_2187_89953)" d="M13.8385 13.2815L10.5565 9.99841L0.863708 19.6911C1.21776 20.0714 1.81344 20.1145 2.47952 19.7426L13.8385 13.2815Z"/><path fill="url(#paint3_linear_2187_89953)" d="M13.8385 6.71644L2.47952 0.263727C1.81449 -0.116585 1.21776 -0.0651065 0.863708 0.315206L10.5554 9.99847L13.8385 6.71644Z"/><path fill="#000" d="M13.7691 13.2122L2.48787 19.6219C1.85752 19.9843 1.29546 19.9591 0.933004 19.6303L0.87207 19.6912L0.933004 19.7427C1.29546 20.0705 1.85752 20.0967 2.48787 19.7343L13.8468 13.2815L13.7691 13.2122Z" opacity="0.2"/><path fill="#000" d="M17.6394 11.0091L13.7607 13.2122L13.83 13.2815L17.631 11.1215C18.1752 10.8105 18.4431 10.405 18.4431 9.99841C18.4085 10.3703 18.1322 10.7244 17.6394 11.0091Z" opacity="0.12"/><path fill="#fff" d="M2.47949 0.376144L17.6394 8.98883C18.1322 9.26513 18.4085 9.62758 18.4515 9.99949C18.4515 9.59396 18.1836 9.18739 17.6394 8.87642L2.47949 0.263732C1.39108 -0.358214 0.509644 0.159724 0.509644 1.40361V1.51603C0.509644 0.272136 1.39108 -0.237397 2.47949 0.376144Z" opacity="0.25"/><path fill="#808285" d="M22.1517 9.45321C22.1517 6.6996 24.4661 4.45764 27.2197 4.45764C28.7421 4.45764 29.8252 5.05543 30.6426 5.83392L29.6802 6.79626C29.0961 6.24785 28.304 5.82236 27.2187 5.82236C25.2079 5.82236 23.6362 7.44132 23.6362 9.45216C23.6362 11.463 25.2079 13.0841 27.2176 13.0841C28.5214 13.0841 29.2631 12.5609 29.7391 12.0839C30.1288 11.6941 30.3841 11.1342 30.4829 10.3662H27.2197V9.0046H31.8129C31.8613 9.24834 31.8865 9.54041 31.8865 9.85663C31.8865 10.8789 31.606 12.1469 30.7035 13.0494C29.8252 13.9634 28.7053 14.4509 27.2187 14.4509C24.464 14.4509 22.1496 12.211 22.1496 9.45531L22.1517 9.45321ZM35.5993 8.016C33.8206 8.016 32.3687 9.36916 32.3687 11.2319C32.3687 13.0851 33.8196 14.4477 35.5993 14.4477C37.379 14.4477 38.8277 13.083 38.8277 11.2308C38.8277 9.36811 37.3779 8.01495 35.5993 8.016ZM35.5993 13.1828C34.6254 13.1828 33.7838 12.3791 33.7838 11.2329C33.7838 10.0752 34.6243 9.28301 35.5993 9.28301C36.5732 9.28301 37.4136 10.0741 37.4136 11.2329C37.4136 12.3781 36.5742 13.1828 35.5993 13.1828ZM42.6435 8.016C40.8648 8.016 39.415 9.36916 39.415 11.2319C39.415 13.0851 40.8648 14.4477 42.6435 14.4477C44.4221 14.4477 45.8719 13.083 45.8719 11.2308C45.8719 9.36811 44.4232 8.01495 42.6435 8.016ZM42.6435 13.1828C41.6696 13.1828 40.828 12.3791 40.828 11.2329C40.828 10.0752 41.6685 9.28301 42.6435 9.28301C43.6174 9.28301 44.4589 10.0741 44.4589 11.2329C44.4589 12.3781 43.6174 13.1828 42.6435 13.1828ZM51.2888 8.21141V8.7346H51.2404C50.9242 8.35534 50.3149 8.01495 49.548 8.01495C47.9395 8.01495 46.4634 9.42904 46.4634 11.2455C46.4634 13.0473 47.9384 14.4498 49.548 14.4498C50.3149 14.4498 50.9242 14.1094 51.2404 13.7197H51.2888V14.1819C51.2888 15.4122 50.6311 16.0709 49.5711 16.0709C48.7054 16.0709 48.1696 15.4489 47.95 14.9268L46.7187 15.4384C47.0717 16.2905 48.0109 17.339 49.57 17.339C51.2257 17.339 52.6272 16.363 52.6272 13.9876V8.21036L51.2888 8.21141ZM49.6688 13.1828C48.6949 13.1828 47.8765 12.3654 47.8765 11.2455C47.8765 10.113 48.6938 9.28406 49.6688 9.28406C50.6311 9.28406 51.3865 10.1119 51.3865 11.2455C51.3875 12.3654 50.6322 13.1828 49.6688 13.1828ZM53.6032 4.79908H55.0173V14.2544H53.6032V4.79908ZM58.893 13.1828C58.1744 13.1828 57.6617 12.8529 57.3349 12.2089L61.636 10.4282L61.4879 10.0625C61.2211 9.345 60.4037 8.016 58.7343 8.016C57.0775 8.016 55.7002 9.31978 55.7002 11.2329C55.7002 13.0347 57.0649 14.4488 58.893 14.4488C60.368 14.4488 61.2211 13.5484 61.5741 13.0231L60.4772 12.293C60.1106 12.8298 59.6105 13.1839 58.893 13.1828ZM58.7826 9.25885C59.3426 9.25885 59.8175 9.53935 59.9761 9.94068L57.0996 11.1352C57.0639 9.89235 58.063 9.25885 58.7826 9.25885ZM67.8408 4.79908H64.46V14.2544H65.871V10.6729H67.8419C69.4062 10.6729 70.9443 9.54041 70.9443 7.73549C70.9443 5.93372 69.4073 4.80013 67.844 4.80013L67.8408 4.79908ZM67.8776 9.35655H65.871V6.11443H67.8776C68.9324 6.11443 69.5333 6.98957 69.5333 7.73549C69.5333 8.4688 68.9324 9.35655 67.8776 9.35655ZM73.1327 14.2544V4.79908H71.7217V14.2544H73.1327ZM79.4709 14.2376V10.6131C79.4709 8.93421 78.2165 7.99814 76.5975 7.99814C75.5774 7.99814 74.5194 8.44884 74.0813 9.44585L75.3336 9.968C75.6015 9.44585 76.0995 9.27461 76.6238 9.27461C77.3529 9.27461 78.0946 9.7127 78.1062 10.4922V10.5899C77.8509 10.4439 77.3046 10.2243 76.6343 10.2243C75.2843 10.2243 73.9101 10.9661 73.9101 12.3528C73.9101 13.6188 75.0174 14.433 76.2582 14.433C77.2079 14.433 77.73 14.0075 78.0578 13.5095H78.1062V14.2397H79.4698L79.4709 14.2376ZM76.4294 13.1807C75.9671 13.1807 75.3221 12.9496 75.3221 12.3791C75.3221 11.6489 76.1258 11.3674 76.8192 11.3674C77.4401 11.3674 77.7311 11.5008 78.1093 11.6836C78.0011 12.5325 77.2835 13.1702 76.4294 13.1807ZM84.4328 8.2051L82.8149 12.3035H82.7666L81.0877 8.2051H79.5675L82.0847 13.935L80.6486 17.1215H82.1205L86.0003 8.2051H84.4328Z"/></g><defs><linearGradient id="paint0_linear_2187_89953" x1="9.69428" x2="-5.71861" y1="1.22416" y2="5.32898" gradientUnits="userSpaceOnUse"><stop stop-color="#00a0ff"/><stop offset="0.007" stop-color="#00a1ff"/><stop offset="0.26" stop-color="#00beff"/><stop offset="0.512" stop-color="#00d2ff"/><stop offset="0.76" stop-color="#00dfff"/><stop offset="1" stop-color="#00e3ff"/></linearGradient><linearGradient id="paint1_linear_2187_89953" x1="19.0566" x2="0.245135" y1="9.99566" y2="9.99566" gradientUnits="userSpaceOnUse"><stop stop-color="#ffe000"/><stop offset="0.409" stop-color="#ffbd00"/><stop offset="0.775" stop-color="orange"/><stop offset="1" stop-color="#ff9c00"/></linearGradient><linearGradient id="paint2_linear_2187_89953" x1="12.0554" x2="-0.342461" y1="11.7813" y2="32.6242" gradientUnits="userSpaceOnUse"><stop stop-color="#ff3a44"/><stop offset="1" stop-color="#c31162"/></linearGradient><linearGradient id="paint3_linear_2187_89953" x1="-1.57841" x2="3.95378" y1="-5.41798" y2="3.88381" gradientUnits="userSpaceOnUse"><stop stop-color="#32a071"/><stop offset="0.069" stop-color="#2da771"/><stop offset="0.476" stop-color="#15cf74"/><stop offset="0.801" stop-color="#06e775"/><stop offset="1" stop-color="#00f076"/></linearGradient><clipPath id="clip0_2187_89953"><path fill="#fff" d="M0 0H85.4904V20H0z" transform="translate(.51)"/></clipPath></defs></svg>