<svg xmlns="http://www.w3.org/2000/svg" width="89" height="32" fill="none" viewBox="0 0 89 32"><path fill="#20df9e" d="M12.5 32h-.018a1 1 0 0 1-.099-.01c-1.807-.223-11-4.45-12.218-15.878A13.4 13.4 0 0 1 0 14.025l.022-.862c-.068-4.566.036-7.02.133-8.265.056-.715.544-1.283 1.22-1.51L10.52.317A6.1 6.1 0 0 1 12.5 0c.668-.005 1.338.101 1.98.317l9.145 3.072c.676.226 1.164.794 1.22 1.51.097 1.244.201 3.698.133 8.264l.022.862c0 .704-.058 1.4-.166 2.086-1.218 11.43-10.41 15.656-12.217 15.88a1 1 0 0 1-.099.009z"/><path fill="#20a690" fill-rule="evenodd" d="M12.5 30.49c.256-.054.939-.272 1.91-.79a16.7 16.7 0 0 0 3.51-2.54c2.454-2.305 4.857-5.901 5.423-11.207l.01-.074q.144-.912.147-1.835l-.021-.843v-.06c.067-4.54-.037-6.945-.13-8.126a.17.17 0 0 0-.04-.102.35.35 0 0 0-.161-.103L14.003 1.74A4.6 4.6 0 0 0 12.51 1.5h-.021a4.6 4.6 0 0 0-1.493.239L1.852 4.81a.35.35 0 0 0-.16.103.17.17 0 0 0-.041.102c-.093 1.181-.197 3.585-.13 8.125v.06l-.021.844a12 12 0 0 0 .157 1.909c.566 5.306 2.969 8.902 5.423 11.207a16.7 16.7 0 0 0 3.51 2.54c.971.518 1.654.736 1.91.79M0 14.025l.022-.862c-.068-4.566.036-7.02.133-8.265.056-.715.544-1.283 1.22-1.51L10.52.317A6.1 6.1 0 0 1 12.5 0c.668-.005 1.338.101 1.98.317l9.145 3.072c.676.226 1.164.794 1.22 1.51.097 1.244.201 3.698.133 8.264l.022.862c0 .704-.058 1.4-.166 2.086-1.218 11.43-10.41 15.656-12.217 15.88a1 1 0 0 1-.099.009h-.036a1 1 0 0 1-.099-.01c-1.807-.223-11-4.45-12.218-15.878A13.4 13.4 0 0 1 0 14.025" clip-rule="evenodd"/><path fill="#000" d="M12.5 32c0-6-.095-25.493 0-32 .668-.005 1.338.101 1.98.317l9.145 3.072c.676.226 1.164.794 1.22 1.51.097 1.244.201 3.698.133 8.264l.022.862c0 .704-.058 1.4-.165 2.086-1.218 11.43-10.41 15.656-12.218 15.88a1 1 0 0 1-.099.009z" opacity=".1"/><circle cx="12.5" cy="16.5" r="9" fill="#18aa79"/><circle cx="12.5" cy="15" r="9" fill="#4fffa8"/><path fill="#00b7ff" d="M5 14.998c0-.664.088-1.325.263-1.965.289.617.708 1.15.993 1.784.368.814 1.357.588 1.794 1.301.388.634-.026 1.435.264 2.097.21.481.708.587 1.05.938.35.355.343.84.397 1.304q.09.816.293 1.612 0 .006.003.012C7.115 21.054 5 18.267 5 14.998m7.548 7.502a7.6 7.6 0 0 1-1.258-.105c.004-.106.006-.204.017-.273.095-.622.408-1.229.83-1.694.418-.459.99-.769 1.341-1.29.345-.507.449-1.191.306-1.785-.209-.876-1.408-1.169-2.054-1.644-.371-.274-.702-.697-1.19-.731-.225-.016-.413.032-.636-.025-.204-.052-.365-.162-.582-.133-.407.053-.664.485-1.101.426-.415-.055-.842-.537-.937-.93-.12-.505.281-.668.712-.713.18-.02.38-.04.553.026.228.084.335.305.539.417.382.208.46-.125.401-.462-.087-.506-.19-.712.264-1.06.315-.24.583-.413.533-.844-.03-.254-.17-.368-.04-.62.1-.192.37-.365.547-.48.456-.295 1.952-.273 1.34-1.1-.18-.242-.51-.676-.825-.736-.393-.073-.568.363-.842.555-.283.199-.834.425-1.117.117-.382-.414.252-.55.393-.838.065-.135 0-.322-.11-.499a7 7 0 0 1 .433-.165c.092.068.2.108.314.117.263.018.511-.124.741.054.255.196.438.443.776.504.327.059.674-.131.755-.464.049-.202 0-.416-.047-.625a7.53 7.53 0 0 1 4.127 1.258c-.078-.03-.172-.026-.288.028-.239.11-.577.39-.605.669-.032.315.437.36.66.36.333 0 .672-.148.564-.532-.047-.167-.11-.34-.213-.444q.37.255.708.552l-.01.01c-.227.235-.49.42-.645.706a.62.62 0 0 1-.454.348c-.122.028-.26.04-.363.12-.285.223-.123.758.147.919.34.203.846.107 1.104-.182.2-.227.319-.62.68-.62.159 0 .312.062.425.172.15.154.12.298.152.49.056.342.36.157.544-.016q.201.357.363.734c-.203.29-.364.607-.852.268-.292-.203-.472-.497-.838-.588-.32-.078-.649.003-.965.057-.36.062-.787.09-1.06.36-.263.261-.403.61-.684.873-.542.508-.772 1.062-.42 1.78.338.69 1.045 1.066 1.808 1.016.75-.05 1.529-.481 1.507.601-.008.384.073.649.191 1.005.11.328.102.646.127.985q.037.596.187 1.175a7.5 7.5 0 0 1-2.64 2.133 7.6 7.6 0 0 1-3.313.763"/><path fill="#000" d="M9.5 21a9 9 0 0 0 7.686-13.686A9 9 0 1 1 4.815 19.685 8.96 8.96 0 0 0 9.5 21" opacity=".1"/><path fill="#342b53" fill-rule="evenodd" d="M12.5 22.25a7.25 7.25 0 1 0 0-14.5 7.25 7.25 0 0 0 0 14.5m0 1.75a9 9 0 1 0 0-18 9 9 0 0 0 0 18" clip-rule="evenodd"/><g filter="url(#a)"><circle cx="20.25" cy="10.75" r="3.75" fill="#ff5e5c"/><path fill="#fff" fill-rule="evenodd" d="M21.38 10.186h.282c.11 0 .198.088.198.198v1.918c0 .11-.088.198-.198.198h-2.824a.2.2 0 0 1-.198-.198v-1.918c0-.11.088-.198.198-.198h.282V9.63a1.13 1.13 0 0 1 2.26 0zm-1.695 0h1.13V9.63a.565.565 0 0 0-1.13 0zm.563 1.54a.438.438 0 1 0 0-.875.438.438 0 0 0 0 .875" clip-rule="evenodd"/></g><path fill="#3e3f41" d="M48.358 10.148 43.912 23h-2.466L37 10.148h2.358l2.592 7.866q.126.324.252.846.144.504.27 1.044.144.522.216.936a9 9 0 0 1 .18-.936q.144-.54.288-1.044.144-.522.252-.846L46 10.148zM52.386 13.064q1.314 0 2.25.54a3.6 3.6 0 0 1 1.476 1.512q.522.972.522 2.376v1.152H50.19q.036 1.332.738 2.07.702.72 1.944.72.954 0 1.692-.18a9.7 9.7 0 0 0 1.548-.558v1.818q-.72.342-1.494.504t-1.854.162q-1.422 0-2.538-.54a4.08 4.08 0 0 1-1.728-1.674q-.612-1.116-.612-2.772 0-1.674.558-2.808.576-1.152 1.584-1.728 1.008-.594 2.358-.594m0 1.674q-.9 0-1.476.594-.558.576-.666 1.728h4.194q0-.684-.234-1.206a1.7 1.7 0 0 0-.666-.81q-.45-.306-1.152-.306M61.845 13.064q1.314 0 2.25.54a3.6 3.6 0 0 1 1.476 1.512q.522.972.522 2.376v1.152h-6.444q.036 1.332.738 2.07.702.72 1.944.72.954 0 1.692-.18a9.7 9.7 0 0 0 1.548-.558v1.818q-.72.342-1.494.504t-1.854.162q-1.422 0-2.538-.54a4.08 4.08 0 0 1-1.728-1.674q-.612-1.116-.612-2.772 0-1.674.558-2.808.576-1.152 1.584-1.728 1.008-.594 2.358-.594m0 1.674q-.9 0-1.476.594-.558.576-.666 1.728h4.194q0-.684-.234-1.206a1.7 1.7 0 0 0-.666-.81q-.45-.306-1.152-.306M71.43 10.148q2.502 0 3.636 1.044 1.152 1.044 1.152 2.88 0 .828-.252 1.584-.252.738-.846 1.332t-1.566.936q-.954.342-2.376.342H69.9V23h-2.304V10.148zm-.144 1.908H69.9v4.302h1.044q.936 0 1.584-.216.666-.234 1.008-.72t.342-1.26q0-1.062-.63-1.584t-1.962-.522M88.666 23h-2.862L79.72 12.92h-.072l.036.846q.036.432.054.9l.036.918.036.936V23h-2.07V10.148h2.844l6.066 10.008h.054a120 120 0 0 1-.072-1.656q0-.45-.018-.918l-.036-.9v-6.534h2.088z"/><defs><filter id="a" width="11.5" height="11.5" x="14.5" y="5" color-interpolation-filters="sRGB" filterUnits="userSpaceOnUse"><feFlood flood-opacity="0" result="BackgroundImageFix"/><feColorMatrix in="SourceAlpha" result="hardAlpha" values="0 0 0 0 0 0 0 0 0 0 0 0 0 0 0 0 0 0 127 0"/><feOffset/><feGaussianBlur stdDeviation="1"/><feComposite in2="hardAlpha" operator="out"/><feColorMatrix values="0 0 0 0 0 0 0 0 0 0 0 0 0 0 0 0 0 0 0.2 0"/><feBlend in2="BackgroundImageFix" result="effect1_dropShadow_101_3617"/><feBlend in="SourceGraphic" in2="effect1_dropShadow_101_3617" result="shape"/></filter></defs></svg>