<svg xmlns="http://www.w3.org/2000/svg" width="24" height="24" fill="none" viewBox="0 0 24 24"><g clip-path="url(#clip0_2187_89903)"><path fill="url(#paint0_linear_2187_89903)" d="M19.152 0H4.848C2.169 0 0 2.169 0 4.848V19.155C0 21.831 2.169 24 4.848 24H19.155C21.831 24 24.003 21.831 24.003 19.152V4.848C24 2.169 21.831 0 19.152 0Z"/><path fill="#fff" d="M11.898 5.51397L12.384 4.67397C12.684 4.14897 13.353 3.97197 13.878 4.27197C14.403 4.57197 14.58 5.24097 14.28 5.76597L9.59698 13.872H12.984C14.082 13.872 14.697 15.162 14.22 16.056H4.29C3.684 16.056 3.198 15.57 3.198 14.964C3.198 14.358 3.684 13.872 4.29 13.872H7.07399L10.638 7.69498L9.52498 5.76297C9.22498 5.23797 9.40198 4.57497 9.92698 4.26897C10.452 3.96897 11.115 4.14597 11.421 4.67097L11.898 5.51397ZM7.68599 17.181L6.63599 19.002C6.33599 19.527 5.66699 19.704 5.14199 19.404C4.61699 19.104 4.43999 18.435 4.73999 17.91L5.51999 16.56C6.40199 16.287 7.11899 16.497 7.68599 17.181ZM16.728 13.878H19.569C20.175 13.878 20.661 14.364 20.661 14.97C20.661 15.576 20.175 16.062 19.569 16.062H17.991L19.056 17.91C19.356 18.435 19.179 19.098 18.654 19.404C18.129 19.704 17.466 19.527 17.16 19.002C15.366 15.891 14.019 13.563 13.125 12.012C12.21 10.434 12.864 8.84998 13.509 8.31298C14.226 9.54298 15.297 11.4 16.728 13.878Z"/></g><defs><linearGradient id="paint0_linear_2187_89903" x1="12.0015" x2="12.0015" y1="0" y2="24" gradientUnits="userSpaceOnUse"><stop stop-color="#18bffb"/><stop offset="1" stop-color="#2072f3"/></linearGradient><clipPath id="clip0_2187_89903"><path fill="#fff" d="M0 0H24V24H0z"/></clipPath></defs></svg>