<svg xmlns="http://www.w3.org/2000/svg" width="24" height="24" fill="none" viewBox="0 0 24 24"><rect width="24" height="24" fill="#3e3f41" rx="12"/><path fill="#d6dde5" fill-rule="evenodd" d="M13.806 17.09c2.312-.223 4.34-.831 5.577-1.622l.73.933c-1.703.994-3.914 1.643-6.307 1.886A15.3 15.3 0 0 0 15.189 24h4.105A4.706 4.706 0 0 0 24 19.294V4.706A4.706 4.706 0 0 0 19.294 0h-3.71c-3.205 3.78-5.047 8.562-5.588 13.286h4.361c-.365 1.42-.51 2.425-.551 3.804M16.18 5.387h1.238v2.86H16.18z" clip-rule="evenodd"/><path fill="#4ba2f0" fill-rule="evenodd" d="M14.467 0H4.706A4.706 4.706 0 0 0 0 4.706v14.588A4.706 4.706 0 0 0 4.706 24h9.51c-.803-1.711-1.196-3.665-1.26-5.681v.05c-3.123.12-6.49-.467-9.33-1.887l.589-.933c2.758 1.298 5.921 1.744 8.74 1.623.03-1.001.134-2.01.306-3.003H9.02C9.509 8.612 11.516 3.83 14.468 0M7.115 5.387H5.878v2.86h1.237z" clip-rule="evenodd"/></svg>