<svg xmlns="http://www.w3.org/2000/svg" width="24" height="24" fill="none" viewBox="0 0 24 24"><g fill="#dbe2f9" fill-rule="evenodd" clip-path="url(#a)" clip-rule="evenodd"><path d="M14.234 17.09c2.313-.223 4.34-.831 5.578-1.622l.73.933c-1.704.994-3.914 1.643-6.308 1.886A15.3 15.3 0 0 0 15.618 24h3.676A4.706 4.706 0 0 0 24 19.294V4.706A4.706 4.706 0 0 0 19.294 0h-3.282c-3.204 3.78-4.97 8.168-5.51 12.892h4.361c-.365 1.42-.588 2.82-.629 4.198m1.947-11.703h1.238v2.86H16.18z"/><path d="M14.467 0H4.706A4.706 4.706 0 0 0 0 4.706v14.588A4.706 4.706 0 0 0 4.706 24h9.51c-.803-1.711-1.196-3.665-1.26-5.681v.05c-3.123.12-6.49-.467-9.33-1.887l.589-.933c2.758 1.298 5.921 1.744 8.74 1.623.03-1.001.134-2.01.306-3.003H9.02C9.509 8.612 11.516 3.83 14.468 0M7.115 5.387H5.878v2.86h1.237z"/></g><defs><clipPath id="a"><path fill="#fff" d="M0 0h24v24H0z"/></clipPath></defs></svg>