<svg xmlns="http://www.w3.org/2000/svg" width="439" height="439" fill="none" viewBox="0 0 439 439"><g clip-path="url(#a)" opacity=".3"><mask id="b" width="440" height="441" x="0" y="-1" maskUnits="userSpaceOnUse" style="mask-type:luminance"><path fill="#fff" stroke="#fff" d="M438.592.455v438.092H.5V.455z"/></mask><g stroke="#5695fd" stroke-miterlimit="10" mask="url(#b)"><path stroke-linejoin="round" d="m396.824 422.143 3.256 28.136 37.254-5.471v-25.27zM392.916 391.533l2.085 27.224 44.678-3.908v-27.093zM364.39 399.479l25.009-5.341 5.341 57.834h-22.014zM312.678 409.117l3.777 21.102 46.242-13.416-5.081-11.202-4.95-5.602zM316.716 433.085l47.674-10.029 4.689 32.043-49.238 5.34zM311.809 435.212l-26.051 6.166s1.998 4.254 5.471 5.384c5.216 1.695 21.449-4.603 21.449-4.603zM262.224 412.635l22.144 24.227 27.007-6.078-3.213-18.149s-15.398 2.417-20.58 2.475c-6.37.071-25.358-2.475-25.358-2.475ZM268.217 426.616l-8.945 11.288h21.449zM252.238 410.724l-27.006 24.488 29.872 2.692 11.365-13.589zM41.481 437.817l33.26 1.998v21.709H41.48zM36.966 437.817H4.836v22.579h30.132zM-12.619 438.513l14.242 1.389-2.78 20.494h-11.462zM95.408 430.35h-16.5v5.21h16.5zM104.005 424.184h-6.339v11.376h6.339zM95.408 422.36v4.95h-16.5l-2.605-23.359zM78.909 400.477l18.757 21.362h4.255l-2.605-21.709zM98.448 381.372v15.718l-21.45 1.043-1.128-15.631zM96.013 367.011l2 9.846H78.127l-3.126-9.205zM70.225 369.042l-18.323 2.431 3.3 26.66h16.586zM55.462 401.172l.782 12.765 15.544-1.65v-11.115zM56.505 416.543l.868 9.291 15.11.695v-11.723zM29.584 394.051h21.189l3.3 30.133h-25.01zM9.265 395.874l17.367-1.041v27.875l-17.367 1.476zM-4.543 398.133l8.424.434v25.617h-8.077zM6.225 373.037H-5.498l-.609 21.796H6.225zM9.265 374.946v18.671l17.975-1.737-2.084-16.934zM31.148 374.946l18.15-3.012 1.127 19.252-19.277.347zM11.783 353.107l34.91-1.824 1.953 14.329-38.818 4.819zM-4.543 351.283v15.728H6.225l2.431-14.034zM-3.475 317.105l15.325.319-2.585 32.556-12.593-2.344zM14.649 317.546l27.708-.727 3.684 28.994-32.825 5.47zM44.818 315.563l20.277-8.766 1.917 36.931-18.366 2.085zM50.99 349.33l16.022-1.303.651 17.975-15.76.522zM71.788 322.106l21.406-8.728 2.214 49.628H74.437zM67.867 304.832l2.662 14.278 31.653-13.026-3.383-15.105zM95.408 321.802h9.986l11.636 104.727 14.815.724-.218 8.308-24.67-.001z"/><path stroke-linejoin="round" d="m117.49 401.39 14.585-1.041-.669 22.844-11.851-.07zM113.383 351.283l19.634-1.253-.839 47.111-15.148.992zM102.391 289.184l29.221-13.268 1.62 70.02-20.76 1.439zM141.138 384.238h2.726v10.551l27.354 38.166-30.291 2.567z"/><path stroke-linejoin="round" d="m147.641 385.802 21.882-2.661 19.15 27.844-17.455 14.415-23.577-29.699zM173.171 428.136l21.233-10.812 24.618 18.236-41.552-.348zM207.429 422.404h10.16l12.636 4.038-8.337 7.815zM215.375 417.324l29.829-11.723 5.471 3.126-17.65 16.021zM243.381 403.387l-39.512 13.286 25.801-20.987zM195.576 412.222l4.299 4.451 26.745-22.513-6.845-4.602zM215.375 386.843l-24.358 20.451-45.069-69.688zM141.779 339.56v41.813l25.333-2.15zM140.477 325.753l38.635-3.856 2.135 25.478-2.083 9.249-38.687-24.489zM188.673 361.226l56.792 39.078v-18.932l-12.44-3.56 11.919-17.346z"/><path stroke-linejoin="round" d="M251.022 360.466h32.304l20.321 15.089v6.6l-66.172-5.471zM248.938 383.196v14.72h42.203l12.506-12.549zM267.261 401.432v8.337l-17.15-4.863V402.3zM290.36 400.825v8.944l-19.364-.434v-9.031zM304.689 389.796l-11.029 10.203v8.381h13.286zM306.946 371.311l48.065-2.182v26.051l-42.333 8.076zM302.388 357.536l52.623 4.038-44.678 4.298zM360.351 359.099h28.397l-1.563 27.094-24.488 6.643zM392.916 359.098l54.448-10.029-3.257 27.615-51.191 11.072zM358.268 306.995l32.825-5.6 1.042 52.363h-30.351zM397.736 340.081l1.433 12.375 47.413-8.858 2.735-7.294zM396.173 318.719l1.563 17.585 52.624-4.69-1.043-13.677zM398.387 301.395l2.345 16.542 48.585-4.168-3.647-17.715zM296.005 310.773l30.871-1.042v41.031h-19.278zM330.979 309.08l22.339-1.433 1.693 46.112-26.312-.782zM241.776 338.484l51.884-1.789 2.345 14.067H241.23zM241.121 322.336l.546 10.365 47.955-1.999-1.954-9.638zM184.113 321.802h51.34l-1.19 28.96h-47.805zM152.982 306.735l-1.172 11.984 82.713-1.042-1.693-10.942zM238.821 304.781l1.824 13.938 36.081-1.563z"/><path stroke-linejoin="round" d="M139.261 274.562s36.883-8.234 49.412-9.205c10.285-.797 41.248 1.216 41.248 1.216l1.042 35.952h-81.627l-1.563 12.504-7.295 2.953zM234.523 263.967l46.111-3.299 3.647 21.015-41.552 1.562 1.085 18.15h-6.339z"/><path stroke-linejoin="round" d="M246.419 284.982h12.983l.912 17.716-12.505-2.779zM263.614 284.982h20.667l5.341 32.999-26.008-9.553zM116.857 222.459l-11.115 1.389 5.558-23.62zM116.857 225.932l.869 7.642-6.426.869v10.072l-9.118-1.041 3.56-15.631z"/><path stroke-linejoin="round" d="M113.383 236.7v6.252l7.295-.868-2.952-5.384zM102.182 246.947l20.059-2.432 7.121 21.883-25.977 12.148-7.977-6.763zM63.886 281.031l2.332 14.335 32.777-14.955-4.108-3.635-19.213.912zM59.913 280.293l2.974 16.252-20.248 8.257-2.07-21.253zM40.167 307.601l-3.364 1.711-7.115.189-2.73-23.802 11.333-2.215zM24.548 286.35h-6.904l-2.214 12.505 10.616-1.205zM15.43 303.283l11.527-1.107v7.319l-11.527.22zM13.216 288.825l-16.544 1.107v19.344h13.482zM14.323 258.866v25.595L-4.37 286.35v-5.406zM16.276 250.334l15.827-2.54 5.014 31.587-18.366 1.628zM53.726 246.491l3.386 28.462-17.78 3.712-3.973-31.588z"/><path stroke-linejoin="round" d="m26.697 238.784 4.016 4.863h26.4l3.994 34.475 16.412-3.56 11.376.086 13.287-44.548zM-3.328 239.827l22.405-1.216v6.426l-20.06 22.751zM-2.372 209.259h23.186l-1.737 25.01-21.45 1.823zM48.516 204.136l-24.923 5.645-.782 25.095 30.133-3.386zM51.902 204.57l2.344 12.331 11.116-3.908-.923-11.115zM67.272 215.338l-13.286 3.213 1.65 12.591 13.72-1.042zM78.822 198.317v10.942l-10.247 1.216-1.563-9.466z"/><path stroke-linejoin="round" d="m69.357 211.69 11.81-.694v-13.46l26.399-5.21.52 9.552-6.773 23.186-30.393 3.299zM46.691 134.878l71.634 6.124-12.583 46.678-37.297 11.202-38.557 5.254zM-5.02 180.385l30.089 1.564-5.863 19.991-24.226-.658zM-3.328 147.17l38.218-3.512-9.058 35.075-30.07-1.604zM40.493 123.793l-3.65 13.92-34.439 6.07zM44.668 124.127l46.833 5.756-8.468-23.875zM91.76 117.862h21.493l-3.738 14.58-11.827-1.68zM114.816 117.862h10.16l-6.537 15.848-6.685-.95zM99.577 93.504l-14.33 8.336 4.43 10.812 32.043 2.865 3.256-18.236zM94.627 77.091l33.997 4.299-3.648 11.462-26.05-3.126zM97.102 56.12 91.76 73.574h34.778l2.085-9.118zM105.112 33.064l27.68 2.345-6.253 25.66-26.832-7.554zM96.537 91.16l-110.459 56.096-14.24-31.739 34.735-28.7L87.68 73.574zM23.593 57.813 14.649 77.09l2.691 3.995 25.01-5.732 3.994-13.546zM-6.453 54.513l22.578 3.3L2.403 84.972h-6.643zM34.187 30.372H54.68l-8.337 27.44-20.667-3.299zM29.888 30.372 19.945 56.12l-26.398-5.254 4.863-23.1zM131.099 29.33l-36.472 1.042-.869-23.794 39.946 1.91zM113.731-26.464l14.892-13.676 16.152 11.983-5.471 22.144-10.681 8.075zM143.777-7.49l17.368-2.258 6.078 7.382-26.573 15.023zM165.486 4.147l7.469-2.692 15.573 16.418-8.279 12.499h-9.031zM159.408 5.363 145.514 13.7l19.972 7.64zM139.435 16.651v15.285l26.051-4.516zM136.656 35.409 135.44 60.07l34.215-20.32v-6.079zM173.823 35.235l13.72-4.863 8.197-11 12.286 13.004-34.203 7.722zM164.515-16.792l14.345-10.496 20.667 28.743-10.264 4.453zM216.895-20.341l26.573 11.636-26.573 33.867-18.823-15.55zM291.228-9.748 244.51-6.1l-17.716 26.572 25.531 26.4 18.584-5.21 2.257 5.405 22.925-3.322z"/><path stroke-linejoin="round" d="m225.796 23.555-4.447 5.155 27.763 28.777 14.133-3.647v-4.82l3.452-3.125-17.455 3.06zM253.888 64.413l42.203-8.857 6.947 28.309-19.799 5.384zM339.337 44.788l6.079 29.35-37.862 8.51-6.599-29.35zM287.581 93.243l48.282-12.33 6.273 23.048-9.512 25.351zM339.337 80.912l8.163-3.04 1.203 8.05-5.258 13.439zM342.811 43.398l26.507-5.037-18.258 39.512zM320.233 24.597l.911 11.984 4.038-.781 1.172 6.903 32.565-6.383-4.038-17.66zM316.064 26.03l1.563 10.421-17.845 4.07V28.115zM294.311-9.748l14.394-3.56 8.922-15.522 5.558 47.49L299 23.555zM321.014-28.83l21.232-1.933 10.681 44.81-26.573 5.6zM348.889-29.46l49.888 10.835-27.614 51.901-8.987.96zM413.638-29.603l5.388-1.785-25.304 57.848-8.147-4.341zM383.774 25.626l8.369 4.464-28.407 65.296-8.805-4.097zM353.265 95.628l8.661 3.918-4.346 9.99-8.327-3.442zM348.108 108.092l8.417 3.867-10.502 24.139-5.73-4.038zM388.387 46.54l-5.24 11.447 16.318 8.783 6.623-10.64zM382.324 59.686l-9.598 21.226 5.992 2.692 8.987-10.68 7.686.39 3.022-4.854zM371.293 83.604l-6.773 22.665 13.808-18.453zM360.566 111.359l12.365 5.707-16.902 27.731-5.56-4.975zM414.8-10.703l-9.118 19.54 21.156 13.965 12.266-19.704zM425.145 25.522l-4.683 7.522-20.448-11.717 4.092-8.873zM419.368 34.948l-4.338 6.821-19.401-10.935 3.346-7.254zM413.789 43.762l-5.711 9.173-18.174-9.686 4.617-10.011z"/><path stroke-linejoin="round" d="m439.809 9.488 24.619 15.89-64.999 98.736-28.744-19.93 19.756-29.046 5.601 2.734zM467.163 34.237l-33.476 54.186 29.959 8.207zM434.599 91.29l10.941 5.34-10.941 22.274-15.371-10.812zM415.711 114.475l15.37 7.295-11.201 16.412-16.673-9.508zM450.425 101.319l12.831 1.042 1.953 38.686-26.572 1.955.781-21.493zM435.12 125.417l-4.039 8.076 5.602 8.076zM446.582 154.204l17.846 8.467-33.634 47.237-17.037-11.937zM465.209 170.876l-2.866 48.326-18.496 1.563-10.942-8.076zM436.683 224.282h9.639v32.044h-7.23zM132.792 72.402s6.227-7.799 8.901-9.726c26.747-19.278 68.815-27.703 68.815-27.703l-10.286 32.913-8.163 3.3zM170.306 78.003l18.496-3.647 6.123 10.616-2.085 11.137-21.991-3.908zM167.31 77.091V91.81l-14.763-2.561-8.683-14.893zM132.792 74.356h5.601l10.029 17.454-3.255 12.114-16.543-1.954z"/><path stroke-linejoin="round" d="m151.158 91.81 16.152 2.996-4.559 25.14-35.951-3.517 1.172-10.421 20.45 2.345zM169.655 95.457l-2.345 24.489h18.627l6.252-20.581zM208.906 83.083l-9.292 6.166-4.038 6.86 22.795 3.907v-3.907zM213.443 38.045l-7.186 30.58 2.801 3.777 19.343-4.82 3.387 4.82-20.971 1.954 13.415 26.442 25.226-4.182-4.291-25.372zM212.379 104.51l37.515-5.145 6.121 24.619-45.59-1.564zM208.906 103.273l-13.981-3.908-4.168 20.581 16.217 2.735zM126.8 122.681h23.577l-3.403 15.082-21.028-2.987zM153.243 123.984l9.899.586-3.126 15.045-10.319-1.466zM165.617 125.482h18.496l-1.498 14.133h-16.998zM190.757 124.57l-3.517 15.045h17.714l2.02-11.984zM210.425 128.152l-1.519 11.463h16.499l3.387-11.463zM231.527 128.152h24.488l2.215 11.463h-28.396zM269.998 92.138 249.703 75.36l4.793 27.956zM274.864 96.161l-16.634 12.887 15.023 19.104 23.2-14.144zM299.42 116.461l8.519 7.043-16.884 16.111h-9.9l-5.123-7.381zM258.9 117.268l3.348 22.347 14.218-.097zM312.255 127.071l-14.468 13.252 20.268 2.132 8.561-3.512zM323.855 149.098l11.749-5.812 7.727 1.365-.52 17.02-18.317 4.052zM319.519 151.089l-22.074-.04 1.512 12.62 21.623-.521zM343.331 163.669l-5.123 2.866-14.242 1.823 8.684 16.239 11.55-5.905zM334.083 188.679l10.117-5.558-1.563 21.709zM330.045 189.808l-17.628 10.855v7.902l27.18-2.606zM300.868 166.882h18.583l9.378 19.452-17.454 9.639-.391-6.165zM267.695 168.098l27.702-1.563 11.897 26.051-35.344 1.823zM264.396 151.685l2.081 11.958 28.038-.774.437-11.781zM309.16 196.798v11.767l-33.215 1.194-2.996-10.573zM289.492 212.689l20.45 15.371-1.042-15.371zM276.075 214.839h8.662l16.803 14.133h-22.339zM283.239 233.595l22.535-1.497 10.746 6.122 2.475 9.639-33.541 3.452zM347.586 147.951l3.127 58.529 42.637-15.457zM359.423 147.724l17.472-28.168 39.468 25.703 10.29-9.942 10.03 11.723-32.219 43.376zM352.971 210.562l38.99-14.741.434 5.71-21.926 35.777h-9.162l-.086-10.247-7.122-.26zM396.042 201.183l-21.796 38.209h34.388zM402.034 201.183l18.627 56.575 13.937-.906-2.293-34.498zM443.587 261.666l-39.077 3.386 4.124 30.09 37.688-3.777zM313.329 212.689l1.237 18.497 29.048-3.126v-16.348z"/><path stroke-linejoin="round" d="m321.622 234.443 36.646-3.257 3.126 42.855-37.428 4.363z"/><path stroke-linejoin="round" d="m287.494 256.326 31.501-3.647 2.627 32.303 39.772-5.21 1.216 19.973-69.471 7.902zM362.61 243.474h46.024l5.124 14.284-16.152 1.694 5.471 36.602-36.472 2.649zM126.018 142.017v5.239l44.809 15.024 3.237-10.221h-5.378zM180.759 160.029l43.351-.343-1.372-7.627-40.064.042zM225.866 152.059l1.536 7.353 35.395-.055-1.484-7.738zM123.153 150.035l-10.768 39.99 15.327 64.086zM136.179 154.204l-5.341 21.101 14.849-1.433 12.245 7.035 14.719-3.908.341-9.175z"/><path stroke-linejoin="round" d="m129.362 178.952 15.283-1.172 29.048 14.546 7.144 64.078-46.873 7.346zM177.47 191.197l48.326-8.728 1.157 70.722-43.301 2.92zM176.819 167.771v16.783l34.518-4.082v-8.553l-27.224-.782zM214.467 173.612v5.862h9.506v-5.341zM159.495 183.208l13.156-2.605v8.076zM230.007 172.005v6.34l24.386-6.831zM230.789 180.472l12.939-3.083 4.95 20.147-17.455.608zM248.07 177.389l6.079-1.216 1.91 19.452h-3.995zM230.789 201.183l18.931-.694 1.129 10.854h-19.365zM253.28 200.922h5.21l2.866 10.421h-8.424zM233.134 215.598h16.673l1.042 15.284h-17.368zM253.975 215.598h8.423l-1.042 8.25 2.953 5.558-10.334.868zM233.741 236.526l17.803-3.473v12.504l-17.021 1.216zM235.305 249.032l18.67-1.043v4.69l-18.67.434zM255.885 233.487l9.726-.434v3.473l3.734 7.035-13.46 1.302zM255.885 247.989l13.113-1.563 3.3 5.384-16.413.347z"/><path stroke-width="5" d="M0 205.916h22.811l20.211-76.461 47.957 5.21 33.039 2.735 45.217 9.856h149.76l13.328-6.859 24.425-66.04 19.256-42.421 20.194-37.493 15.229-24.391"/><path stroke-width="5" d="m177.004-29.948-23.067 16.055 13.286 4.145 21.883 22.405 10.421 2.708 49.972 53.266 60.727 50.925 20.194 15.509 12.391 3.117 62.972 59.962L439 221.449l10.057 1.488 1.065 34.821-3.8 5.642 1.458 27.183M-3.328 313.378h41.206l97.519-43.832 51.843-8.878 93.428-5.873-19.312-73.368v-17.758h-86.491l4.884-16.413"/><path stroke-width="5" d="m135.397 269.546 1.954 93.46-.977 72.554-3.365 8.597v16.239"/></g></g><defs><clipPath id="a"><path fill="#fff" d="M0 0h439v439H0z"/></clipPath></defs></svg>