<svg xmlns="http://www.w3.org/2000/svg" width="24" height="24" fill="none" viewBox="0 0 24 24"><path fill="#fff" fill-rule="evenodd" d="M17.9937 20.1124C17.9379 20.6118 17.5143 21 17 21H6C5.44772 21 5 20.5523 5 20V5C5 4.44772 5.44772 4 6 4H11.5H16.566C16.6876 4 16.8083 4.0222 16.922 4.06551L16.9675 4.08287C17.0854 4.05078 17.2059 4.02777 17.328 4.01421C17.6905 3.97396 18.0574 4.01811 18.4 4.1432L20.4 5.5V2.652C20.3991 1.94891 20.1195 1.27485 19.6223 0.777688C19.1251 0.280525 18.4511 0.000846847 17.748 0H5.45199C4.74889 0.000846847 4.07484 0.280525 3.57768 0.777688C3.08051 1.27485 2.80083 1.94891 2.79999 2.652V21.348C2.80083 22.0511 3.08051 22.7251 3.57768 23.2223C4.07484 23.7195 4.74889 23.9992 5.45199 24H17.748C18.4511 23.9992 19.1251 23.7195 19.6223 23.2223C20.057 22.7876 20.0196 20.0404 20.004 18.887C20.0017 18.7212 19.9999 18.5883 20 18.5L18.4 20.0056C18.2675 20.0533 18.1316 20.0889 17.9937 20.1124ZM9.4343 1.63431C9.28427 1.78434 9.19999 1.98783 9.19999 2.2C9.19999 2.41217 9.28427 2.61566 9.4343 2.76569C9.58433 2.91571 9.78782 3 9.99999 3H13.2C13.4122 3 13.6156 2.91571 13.7657 2.76569C13.9157 2.61566 14 2.41217 14 2.2C14 1.98783 13.9157 1.78434 13.7657 1.63431C13.6156 1.48429 13.4122 1.4 13.2 1.4H9.99999C9.78782 1.4 9.58433 1.48429 9.4343 1.63431Z" clip-rule="evenodd"/><path fill="#fff" fill-rule="evenodd" d="M18.0295 5.72474L22.8295 8.77994C22.9429 8.85216 23.0363 8.95181 23.1011 9.06969C23.1658 9.18757 23.1998 9.31986 23.1999 9.45434C23.1974 11.067 22.8148 12.6563 22.0829 14.0933C21.3511 15.5302 20.2907 16.7744 18.9879 17.7247L18.0703 18.3919C17.9336 18.4913 17.7689 18.5449 17.5999 18.5449C17.4309 18.5449 17.2662 18.4913 17.1295 18.3919L16.2119 17.7247C14.909 16.7744 13.8487 15.5302 13.1168 14.0933C12.385 12.6563 12.0023 11.067 11.9999 9.45434C12 9.31986 12.0339 9.18757 12.0987 9.06969C12.1634 8.95181 12.2568 8.85216 12.3703 8.77994L17.1703 5.72474C17.2987 5.64302 17.4477 5.59961 17.5999 5.59961C17.7521 5.59961 17.9011 5.64302 18.0295 5.72474ZM21.2802 10.7806C21.5731 10.4877 21.5731 10.0128 21.2802 9.71993C20.9873 9.42703 20.5125 9.42702 20.2196 9.7199L17.2499 12.6895L16.0302 11.4699C15.7373 11.177 15.2624 11.177 14.9695 11.4699C14.6766 11.7628 14.6767 12.2377 14.9696 12.5306L16.7196 14.2804C17.0125 14.5733 17.4873 14.5733 17.7802 14.2804L21.2802 10.7806Z" clip-rule="evenodd"/></svg>