<svg xmlns="http://www.w3.org/2000/svg" width="24" height="24" fill="none" viewBox="0 0 24 24"><path fill="#fff" d="M21.541 15C21.838 14.053 22 13.045 22 12 22 10.955 21.838 9.947 21.541 9H16.816C16.938 9.985 17 10.999 17 12 17 13.002 16.938 14.015 16.816 15H21.541ZM14.436 7C13.812 4.475 12.792 3 12 3 11.209 3 10.188 4.475 9.564 7H14.436ZM7 12C7 10.999 7.062 9.985 7.184 9H2.459C2.162 9.947 2 10.955 2 12 2 13.045 2.162 14.053 2.459 15H7.184C7.062 14.015 7 13.002 7 12ZM9.564 17C10.188 19.525 11.209 21 12 21 12.792 21 13.812 19.525 14.436 17H9.564ZM14.809 9H9.191C9.071 9.916 9 10.918 9 12 9 13.082 9.071 14.084 9.191 15H14.809C14.929 14.084 15 13.082 15 12 15 10.918 14.929 9.916 14.809 9ZM16.474 7H20.651C19.319 4.7 17.099 2.986 14.458 2.317 15.371 3.407 16.05 5.08 16.474 7ZM7.526 17H3.349C4.681 19.3 6.901 21.014 9.542 21.683 8.629 20.593 7.95 18.92 7.526 17ZM16.474 17C16.05 18.92 15.371 20.593 14.458 21.683 17.099 21.014 19.319 19.3 20.651 17H16.474ZM7.526 7C7.95 5.08 8.629 3.407 9.542 2.317 6.901 2.986 4.681 4.7 3.349 7H7.526Z"/></svg>