<svg xmlns="http://www.w3.org/2000/svg" width="22" height="22" fill="none" viewBox="0 0 22 22"><path fill="url(#paint0_linear_10928_69380)" d="M11.1834 8.25002L9.35008 6.41668H11.9167C12.9251 6.41668 13.7501 7.24168 13.7501 8.25002V10.8167L11.9167 8.98335V8.25002H11.1834ZM21.0834 8.25002V6.41668H17.4167C16.4084 6.41668 15.5834 7.24168 15.5834 8.25002V10.0834C15.5834 11.0917 16.4084 11.9167 17.4167 11.9167H19.2501V13.75H16.6834L18.5167 15.5834H19.2501C20.2584 15.5834 21.0834 14.7584 21.0834 13.75V11.9167C21.0834 10.9083 20.2584 10.0834 19.2501 10.0834H17.4167V8.25002H21.0834ZM20.2584 19.7083L19.0667 20.9L13.2001 15.0333C12.9251 15.3083 12.4667 15.5834 11.9167 15.5834H8.25008V9.99168L6.41675 8.15835V15.5834H4.58341V11.9167H2.75008V15.5834H0.916748V8.25002C0.916748 7.24168 1.74175 6.41668 2.75008 6.41668H4.67508L1.00841 2.75002L2.20008 1.55835L20.2584 19.7083ZM4.58341 8.25002H2.75008V10.0834H4.58341V8.25002ZM11.9167 13.6583L10.0834 11.825V13.75H11.9167V13.6583Z"/><defs><linearGradient id="paint0_linear_10928_69380" x1="11.0001" x2="11.0001" y1="1.55835" y2="20.9" gradientUnits="userSpaceOnUse"><stop stop-color="#f6b94f"/><stop offset="1" stop-color="#e89506"/></linearGradient></defs></svg>