<svg xmlns="http://www.w3.org/2000/svg" width="24" height="24" fill="none" viewBox="0 0 24 24"><path fill="#de4558" d="M12 2.25C13.2598 2.25 14.4676 2.75079 15.3584 3.6416L15.5215 3.81152C16.3105 4.68289 16.75 5.81894 16.75 7V10.25H17C17.7293 10.25 18.4286 10.5399 18.9443 11.0557C19.4601 11.5714 19.75 12.2707 19.75 13V19C19.75 19.7293 19.4601 20.4286 18.9443 20.9443C18.4286 21.4601 17.7293 21.75 17 21.75H7C6.3617 21.75 5.74625 21.5281 5.25684 21.127L5.05566 20.9443C4.53995 20.4286 4.25 19.7293 4.25 19V13C4.25 12.2707 4.53995 11.5714 5.05566 11.0557L5.25684 10.873C5.74625 10.4719 6.3617 10.25 7 10.25H7.25V7C7.25 5.74022 7.75081 4.5324 8.6416 3.6416L8.81152 3.47852C9.68287 2.68951 10.8189 2.25 12 2.25ZM12 13C11.4696 13 10.961 13.2108 10.5859 13.5859C10.2108 13.961 10 14.4696 10 15C10 15.5304 10.2108 16.039 10.5859 16.4141C10.7194 16.5475 10.87 16.6593 11.0322 16.749C11.0115 16.8293 11 16.9133 11 17V18C11 18.5523 11.4477 19 12 19C12.5523 19 13 18.5523 13 18V17C13 16.9132 12.9876 16.8293 12.9668 16.749C13.1293 16.6592 13.2804 16.5477 13.4141 16.4141C13.7892 16.039 14 15.5304 14 15C14 14.4696 13.7892 13.961 13.4141 13.5859C13.039 13.2108 12.5304 13 12 13ZM12 3.75C11.1918 3.75 10.4146 4.05088 9.81836 4.59082L9.70215 4.70215C9.09266 5.31165 8.75 6.13805 8.75 7V10.25H15.25V7C15.25 6.19181 14.9491 5.41456 14.4092 4.81836L14.2979 4.70215C13.6884 4.09268 12.862 3.75 12 3.75Z"/></svg>