<svg xmlns="http://www.w3.org/2000/svg" width="40" height="40" fill="none" viewBox="0 0 40 40"><rect width="40" height="40" fill="transparent" rx="8"/><rect width="28" height="28" x="6" y="6" fill="#3e3f41" rx="11"/><path fill="#d6dde5" fill-rule="evenodd" d="M22.1065 25.9386C24.8042 25.6783 27.1704 24.9684 28.614 24.0455L29.466 25.134C27.4779 26.2938 24.8987 27.0507 22.1065 27.3348C22.2129 29.5928 22.7225 31.8319 23.7206 34H28.5096C31.5418 34 33.9998 31.5419 33.9998 28.5098V11.4902C33.9998 8.45804 31.5418 6 28.5096 6H24.1808C20.4426 10.4094 18.2927 15.9888 17.6621 21.5H22.7499C22.3236 23.1564 22.1539 24.3296 22.1065 25.9386ZM24.8779 12.2849H26.3218V15.6216H24.8779V12.2849Z" clip-rule="evenodd"/><path fill="#4ba2f0" fill-rule="evenodd" d="M22.8785 6H11.4902C8.45804 6 6 8.45804 6 11.4902V28.5098C6 31.5419 8.45804 34 11.4902 34H22.5854C21.6486 32.0038 21.1901 29.7242 21.1162 27.3716V27.4296C17.4717 27.5716 13.5437 26.8854 10.231 25.2288L10.9171 24.1403C14.1346 25.6546 17.8257 26.1752 21.1149 26.0334C21.1483 24.8656 21.2707 23.6899 21.4709 22.5311H16.5252C17.093 16.0458 19.4337 10.4672 22.8785 6V6ZM14.3009 12.2849H12.8573V15.6216H14.3009V12.2849Z" clip-rule="evenodd"/><rect width="27" height="27" x="6.5" y="6.5" stroke="#3e3f41" stroke-opacity="0.2" rx="4.9"/></svg>