<svg xmlns="http://www.w3.org/2000/svg" width="40" height="40" fill="none" viewBox="0 0 40 40"><rect width="40" height="40" fill="transparent" rx="8"/><path fill="#000" d="M13.2431 24.7855C13.1722 24.4158 13.0297 24.0083 13.0256 23.5983C13.0119 22.2355 13.5685 21.0468 14.2619 19.9144C14.2764 19.891 14.3127 19.8829 14.3384 19.866C14.303 20.0424 14.2225 20.1834 14.1492 20.3227C13.6377 21.3069 13.177 22.3088 13.1545 23.4453C13.1416 24.067 13.2632 24.6558 13.7875 25.1503C13.7811 25.0182 13.769 24.928 13.7714 24.8338C13.7859 24.3932 13.7682 23.9478 13.8262 23.5137C13.9744 22.4192 14.3707 21.4124 14.8934 20.4355C15.5213 19.2631 17.0305 16.7034 16.9254 15.3429C16.9238 15.3243 16.9286 15.3066 16.9319 15.2881C16.9673 15.098 16.9206 14.9482 16.7837 14.7912C16.2473 14.1774 16.2916 13.5339 16.9029 13.0072C17.0543 12.8783 17.0478 12.7857 16.9802 12.6141C16.7208 11.9626 16.6604 11.2892 16.9029 10.6207C17.1058 10.0642 17.6881 9.89265 18.1198 10.2623C18.409 10.512 18.6208 10.8269 18.674 11.2216C18.6989 11.41 18.7086 11.6009 18.7239 11.7894C19.0896 11.7894 19.4431 11.7894 19.8176 11.7894C19.8176 11.6952 19.8273 11.6041 19.816 11.5139C19.7653 11.1145 19.9135 10.773 20.1213 10.4508C20.5425 9.79198 21.5171 9.65345 22.0019 10.21C22.457 10.7335 22.7131 11.3488 22.5866 12.0632C22.5407 12.321 22.4481 12.5698 22.374 12.834C22.6575 13.0088 22.8613 13.2633 22.8267 13.6161C22.796 13.9229 22.6897 14.2201 22.6269 14.5238C22.6028 14.6478 22.5593 14.7944 22.6011 14.9055C22.7244 15.2486 22.8846 15.5805 23.0336 15.9155C23.202 16.2916 23.3856 16.6629 23.5467 17.0407C23.9631 18.0192 24.3714 19.0018 24.7806 19.9836C24.9392 20.3726 25.1205 20.7608 25.2332 21.1652C25.5787 22.4095 25.652 23.6821 25.5409 24.9659C25.528 25.1173 25.5538 25.189 25.7076 25.251C26.0169 25.3742 26.1763 25.6239 26.1747 25.9646C26.1747 26.1031 26.1425 26.2449 26.1651 26.377C26.1852 26.5074 26.2279 26.6653 26.3165 26.7483C26.666 27.0624 27.2194 27.068 27.6237 26.8232C28.1069 26.5292 28.3993 26.0782 28.7214 25.5651C27.8564 24.8749 26.9423 24.7661 25.9339 25.2462C26.0443 25.131 26.1578 24.982 26.2883 24.9627C26.6773 24.9135 26.778 24.6421 26.869 24.3361C26.9214 24.1516 26.9842 23.968 27.0333 23.7819C27.3973 22.3942 27.1501 21.1346 26.2037 20.044C25.9589 19.7597 25.6464 19.535 25.3645 19.2837C26.0241 19.6156 26.5613 20.094 26.9367 20.7262C27.7396 22.0809 27.4408 23.459 26.9801 24.8338C28.0626 24.9095 28.4347 25.04 28.86 25.4958C29.0114 25.4789 29.1588 25.4725 29.3005 25.4411C29.3658 25.4266 29.4528 25.3734 29.4729 25.3187C29.5599 25.0674 29.6485 24.8137 29.6952 24.5543C29.8418 23.7803 29.6606 23.0329 29.4439 22.3C28.9856 20.752 28.2237 19.3506 27.2886 18.0386C26.7023 17.2154 26.0974 16.3979 25.6021 15.5184C24.8949 14.2604 24.5253 12.8928 24.5526 11.4286C24.5631 10.9026 24.5333 10.363 24.4351 9.84433C24.2643 8.93099 23.9574 8.04907 23.2825 7.38139C22.0084 6.12253 20.4749 5.72466 18.7408 6.18535C17.8798 6.41248 17.1042 6.80633 16.6153 7.6061C16.2199 8.25365 16.0652 8.97932 16.0717 9.71868C16.0838 11.0782 16.0838 12.4474 16.2247 13.7965C16.3504 14.9893 16.1426 16.0113 15.3283 16.9094C15.0029 17.267 14.7202 17.6697 14.4343 18.0659C13.2391 19.7114 12.4675 21.5695 11.7627 23.459C11.5848 23.9382 11.5123 24.4263 11.6766 24.9449C12.213 24.5825 12.755 24.4673 13.2431 24.7855ZM23.5564 29.4287C23.4154 30.5425 23.2825 31.596 23.1448 32.6881C21.4679 32.2669 19.7258 32.6422 18.0103 32.6382C17.9725 32.1614 17.9338 31.6766 17.8951 31.1877C19.9964 31.4454 21.919 30.9718 23.5564 29.4287ZM16.2481 27.4006C16.5235 27.6278 16.7966 27.8621 17.0551 28.1086C17.2983 28.3414 17.3644 28.645 17.3249 28.9696C17.2919 29.2458 17.035 29.4915 16.7627 29.4802C16.6814 29.477 16.5847 29.3723 16.5324 29.2917C15.9267 28.3494 15.3299 27.4006 14.725 26.4583C14.5865 26.2417 14.4278 26.0387 14.2772 25.8309C14.2845 25.8196 14.2909 25.8091 14.2974 25.7979C14.9489 26.3319 15.6013 26.8626 16.2481 27.4006Z"/><path fill="#fc0" d="M17.4924 32.1428C17.5834 32.5866 17.3643 32.9265 16.9713 33.1907C16.8424 33.2769 16.724 33.384 16.6169 33.4975C16.1474 33.988 15.5739 34.0871 14.9441 33.9333C14.6147 33.8527 14.2877 33.7521 13.9736 33.6248C12.7824 33.1464 11.5485 32.8363 10.2944 32.5818C9.86436 32.4972 9.43588 32.3788 9.0219 32.2322C8.43395 32.0236 8.24629 31.6822 8.36871 31.0765C8.5451 30.2018 8.55315 29.3271 8.41301 28.4452C8.30267 27.7558 8.47422 27.5101 9.15077 27.3329C9.4085 27.2653 9.66542 27.1872 9.92638 27.1421C10.408 27.0559 10.7672 26.8014 11.0507 26.4124C11.2988 26.0709 11.538 25.7165 11.8312 25.4161C12.3499 24.8829 12.8122 24.8611 13.2986 25.4088C13.8382 26.0201 14.3295 26.6781 14.7854 27.3547C15.5497 28.4887 16.1973 29.7017 17.0808 30.76C17.3974 31.1385 17.5439 31.5928 17.4924 32.1428ZM31.6426 30.3862C31.3881 30.5924 31.1014 30.7656 30.8155 30.9291C29.5921 31.629 28.4033 32.3764 27.3796 33.3582C26.881 33.8382 26.2794 33.9953 25.6125 33.9872C25.4216 33.9743 25.2267 33.976 25.0342 33.951C24.3303 33.86 23.9171 33.4557 23.7649 32.7646C23.6409 32.1936 23.6812 31.6258 23.8028 31.0692C24.1378 29.5478 24.1539 28.003 24.1708 26.4599C24.1813 25.76 24.348 25.549 25.1277 25.5763C25.6713 25.5941 25.7414 25.6706 25.6826 26.1957C25.6133 26.8489 26.0966 27.3378 26.8359 27.4087C27.6558 27.4892 28.1778 27.0229 28.6594 26.4663C28.7601 26.3487 28.8309 26.207 28.9203 26.0781C29.1354 25.7664 29.5606 25.7841 29.7088 26.1345C29.7966 26.3455 29.8433 26.6016 29.8176 26.8279C29.7531 27.349 29.965 27.7509 30.3169 28.0804C30.7108 28.4484 31.1264 28.802 31.5653 29.1153C32.0687 29.4753 32.1307 29.9908 31.6426 30.3862ZM18.7335 15.9598C19.4375 16.0838 20.0778 15.9251 20.6689 15.5176C20.9854 15.2993 21.3141 15.0803 21.6692 14.9433C22.2064 14.7355 22.4843 14.3852 22.5246 13.8158C22.56 13.347 22.473 13.1722 22.0244 12.9934C21.8037 12.904 21.3044 12.7309 21.3044 12.7309C21.3044 12.7309 20.8154 12.4972 20.4845 12.3974C19.6401 12.143 19.0069 11.8638 18.2293 12.2798C17.9514 12.4286 17.6003 12.7856 17.6003 12.7856C17.6003 12.7856 17.2653 13.0667 17.1082 13.2053C16.5879 13.6603 16.5468 14.1492 17.0341 14.6526C17.4239 15.0537 17.8508 15.4217 18.2785 15.7834C18.3993 15.8832 18.5773 15.934 18.7335 15.9598Z"/><path fill="#000" d="M21.926 12.046C21.893 12.401 21.305 12.731 21.305 12.731L20.485 12.398C20.485 12.398 20.469 11.915 20.489 11.676 20.511 11.404 20.593 11.131 20.883 11.032 21.141 10.944 21.422 10.93 21.63 11.156 21.854 11.405 21.955 11.707 21.926 12.046ZM16.855 14.094C16.841 14.106 16.827 14.119 16.814 14.132 16.837 14.164 16.86 14.198 16.882 14.232 16.932 14.308 16.981 14.383 17.046 14.443 17.717 15.103 18.529 15.253 19.416 15.054 20.235 14.868 20.933 14.428 21.63 13.989 21.749 13.914 21.868 13.839 21.988 13.765 22.026 13.742 22.054 13.703 22.083 13.664 22.096 13.646 22.11 13.628 22.125 13.611 22.119 13.598 22.114 13.586 22.109 13.573 22.103 13.557 22.096 13.54 22.088 13.523 22.044 13.537 21.999 13.549 21.953 13.56 21.861 13.583 21.769 13.606 21.688 13.649 21.47 13.763 21.256 13.883 21.041 14.003 20.678 14.205 20.315 14.408 19.939 14.582 18.951 15.036 18 15.013 17.15 14.239 17.096 14.188 17.032 14.146 16.97 14.105 16.945 14.089 16.92 14.073 16.896 14.056 16.882 14.068 16.868 14.081 16.855 14.094ZM18.128 11.465C18.197 11.726 18.229 12.28 18.229 12.28L17.6 12.786C17.6 12.786 17.05 12.106 17.067 11.639 17.079 11.293 17.243 11.046 17.491 11.006 17.748 10.963 18.046 11.15 18.128 11.465Z"/></svg>