<svg xmlns="http://www.w3.org/2000/svg" width="29" height="28" fill="none" viewBox="0 0 29 28"><mask id="path-1-inside-1_12020_318321" fill="#fff"><path d="M10.1874 3.82816C10.1004 3.61263 10.1026 3.37136 10.1934 3.15742C10.2843 2.94348 10.4564 2.7744 10.672 2.68738C10.8875 2.60036 11.1288 2.60251 11.3427 2.69338C11.5566 2.78425 11.7257 2.95638 11.8127 3.17191L12.6877 5.35941C12.7308 5.46613 12.7525 5.58029 12.7515 5.69538C12.7504 5.81046 12.7267 5.92422 12.6817 6.03015C12.6368 6.13608 12.5713 6.23212 12.4892 6.31276C12.4071 6.39341 12.3099 6.4571 12.2032 6.50019C12.0965 6.54328 11.9823 6.56493 11.8672 6.5639C11.7522 6.56287 11.6384 6.53918 11.5325 6.49419C11.4265 6.4492 11.3305 6.38378 11.2499 6.30167C11.1692 6.21957 11.1055 6.12238 11.0624 6.01566L10.1874 3.82816ZM3.67196 11.3127L5.85946 12.1877C5.96618 12.2308 6.08034 12.2524 6.19543 12.2514C6.31052 12.2504 6.42427 12.2267 6.5302 12.1817C6.63614 12.1367 6.73217 12.0713 6.81282 11.9892C6.89347 11.9071 6.95715 11.8099 7.00024 11.7032C7.04333 11.5964 7.06498 11.4823 7.06395 11.3672C7.06292 11.2521 7.03924 11.1384 6.99424 11.0324C6.94925 10.9265 6.88383 10.8305 6.80173 10.7498C6.71962 10.6692 6.62243 10.6055 6.51571 10.5624L4.32821 9.68738C4.11268 9.60036 3.87141 9.60252 3.65747 9.69338C3.44354 9.78425 3.27446 9.95638 3.18743 10.1719C3.10041 10.3874 3.10257 10.6287 3.19343 10.8427C3.2843 11.0566 3.45643 11.2257 3.67196 11.3127ZM25.3282 16.6874L23.1407 15.8124C22.9252 15.7254 22.6839 15.7275 22.47 15.8184C22.256 15.9092 22.087 16.0814 21.9999 16.2969C21.9129 16.5124 21.9151 16.7537 22.0059 16.9677C22.0968 17.1816 22.2689 17.3507 22.4845 17.4377L24.672 18.3127C24.8875 18.3997 25.1288 18.3976 25.3427 18.3067C25.5566 18.2158 25.7257 18.0437 25.8127 17.8282C25.8998 17.6126 25.8976 17.3714 25.8067 17.1574C25.7159 16.9435 25.5437 16.7744 25.3282 16.6874ZM17.9377 21.9844C17.8507 21.7689 17.6816 21.5968 17.4677 21.5059C17.2538 21.415 17.0125 21.4129 16.797 21.4999C16.5814 21.5869 16.4093 21.756 16.3184 21.9699C16.2276 22.1839 16.2254 22.4251 16.3124 22.6407L17.1874 24.8282C17.2745 25.0437 17.4435 25.2158 17.6575 25.3067C17.8714 25.3976 18.1127 25.3997 18.3282 25.3127C18.5437 25.2257 18.7159 25.0566 18.8067 24.8427C18.8976 24.6287 18.8998 24.3874 18.8127 24.1719L17.9377 21.9844ZM26.5215 2.02566C26.4412 1.94002 26.3446 1.87141 26.2372 1.8239C26.1299 1.7764 26.0141 1.75097 25.8968 1.74913C25.7794 1.74729 25.6629 1.76909 25.5541 1.81321C25.4454 1.85734 25.3466 1.92289 25.2637 2.00597L19.5313 7.73832L18.9429 7.14988C18.6178 6.82446 18.2318 6.56631 17.8069 6.39017C17.382 6.21404 16.9266 6.12338 16.4667 6.12338C16.0067 6.12338 15.5513 6.21404 15.1264 6.39017C14.7015 6.56631 14.3155 6.82446 13.9904 7.14988L12.1092 9.02785C12.0685 9.06848 12.0362 9.11673 12.0142 9.16984C11.9922 9.22296 11.9808 9.27989 11.9808 9.33738C11.9808 9.39487 11.9922 9.45181 12.0142 9.50492C12.0362 9.55803 12.0685 9.60628 12.1092 9.64691L18.8576 16.391C18.8982 16.4317 18.9465 16.4639 18.9996 16.4859C19.0527 16.508 19.1096 16.5193 19.1671 16.5193C19.2246 16.5193 19.2815 16.508 19.3347 16.4859C19.3878 16.4639 19.436 16.4317 19.4767 16.391L21.3076 14.56C21.9712 13.9092 22.3559 13.026 22.3806 12.0969C22.3896 11.6272 22.3035 11.1605 22.1274 10.725C21.9512 10.2894 21.6887 9.89407 21.3557 9.56269L20.7673 8.97535L26.4767 3.26925C26.6431 3.10776 26.7406 2.88821 26.749 2.65647C26.7573 2.42473 26.6758 2.19872 26.5215 2.02566ZM9.86696 9.88097C9.78408 9.79806 9.68537 9.73265 9.57672 9.68862C9.46806 9.6446 9.35166 9.62286 9.23443 9.6247C9.11721 9.62653 9.00155 9.65191 8.89432 9.69931C8.7871 9.74672 8.69049 9.81519 8.61024 9.90066C8.4559 10.0737 8.37439 10.2997 8.38275 10.5315C8.39111 10.7632 8.48868 10.9828 8.65509 11.1443L9.32337 11.8125L7.64665 13.4871C7.31435 13.8186 7.05255 14.2139 6.87699 14.6492C6.70143 15.0846 6.61574 15.5509 6.62509 16.0202C6.64819 16.9491 7.03135 17.8327 7.69368 18.4844L8.24056 19.0247L2.52243 24.733C2.36109 24.8901 2.26469 25.1022 2.25233 25.327C2.23997 25.5519 2.31256 25.7732 2.45571 25.9471C2.53433 26.0383 2.63091 26.1123 2.73943 26.1644C2.84795 26.2166 2.96607 26.2458 3.08639 26.2502C3.20671 26.2546 3.32665 26.2341 3.4387 26.1901C3.55075 26.146 3.6525 26.0793 3.73759 25.9941L9.46884 20.2618L10.0562 20.8502C10.7141 21.5051 11.6047 21.8727 12.533 21.8727C13.4613 21.8727 14.3518 21.5051 15.0098 20.8502L16.6876 19.1746L17.381 19.8691C17.4623 19.9504 17.5588 20.0149 17.6651 20.0589C17.7713 20.1029 17.8851 20.1255 18.0001 20.1255C18.1151 20.1255 18.2289 20.1029 18.3351 20.0589C18.4413 20.0149 18.5379 19.9504 18.6192 19.8691C18.7004 19.7878 18.7649 19.6913 18.8089 19.5851C18.8529 19.4789 18.8756 19.365 18.8756 19.25C18.8756 19.1351 18.8529 19.0212 18.8089 18.915C18.7649 18.8088 18.7004 18.7123 18.6192 18.631L9.86696 9.88097Z"/></mask><path fill="#3066ff" stroke="#3066ff" stroke-width="0.25" d="M10.1874 3.82816C10.1004 3.61263 10.1026 3.37136 10.1934 3.15742C10.2843 2.94348 10.4564 2.7744 10.672 2.68738C10.8875 2.60036 11.1288 2.60251 11.3427 2.69338C11.5566 2.78425 11.7257 2.95638 11.8127 3.17191L12.6877 5.35941C12.7308 5.46613 12.7525 5.58029 12.7515 5.69538C12.7504 5.81046 12.7267 5.92422 12.6817 6.03015C12.6368 6.13608 12.5713 6.23212 12.4892 6.31276C12.4071 6.39341 12.3099 6.4571 12.2032 6.50019C12.0965 6.54328 11.9823 6.56493 11.8672 6.5639C11.7522 6.56287 11.6384 6.53918 11.5325 6.49419C11.4265 6.4492 11.3305 6.38378 11.2499 6.30167C11.1692 6.21957 11.1055 6.12238 11.0624 6.01566L10.1874 3.82816ZM3.67196 11.3127L5.85946 12.1877C5.96618 12.2308 6.08034 12.2524 6.19543 12.2514C6.31052 12.2504 6.42427 12.2267 6.5302 12.1817C6.63614 12.1367 6.73217 12.0713 6.81282 11.9892C6.89347 11.9071 6.95715 11.8099 7.00024 11.7032C7.04333 11.5964 7.06498 11.4823 7.06395 11.3672C7.06292 11.2521 7.03924 11.1384 6.99424 11.0324C6.94925 10.9265 6.88383 10.8305 6.80173 10.7498C6.71962 10.6692 6.62243 10.6055 6.51571 10.5624L4.32821 9.68738C4.11268 9.60036 3.87141 9.60252 3.65747 9.69338C3.44354 9.78425 3.27446 9.95638 3.18743 10.1719C3.10041 10.3874 3.10257 10.6287 3.19343 10.8427C3.2843 11.0566 3.45643 11.2257 3.67196 11.3127ZM25.3282 16.6874L23.1407 15.8124C22.9252 15.7254 22.6839 15.7275 22.47 15.8184C22.256 15.9092 22.087 16.0814 21.9999 16.2969C21.9129 16.5124 21.9151 16.7537 22.0059 16.9677C22.0968 17.1816 22.2689 17.3507 22.4845 17.4377L24.672 18.3127C24.8875 18.3997 25.1288 18.3976 25.3427 18.3067C25.5566 18.2158 25.7257 18.0437 25.8127 17.8282C25.8998 17.6126 25.8976 17.3714 25.8067 17.1574C25.7159 16.9435 25.5437 16.7744 25.3282 16.6874ZM17.9377 21.9844C17.8507 21.7689 17.6816 21.5968 17.4677 21.5059C17.2538 21.415 17.0125 21.4129 16.797 21.4999C16.5814 21.5869 16.4093 21.756 16.3184 21.9699C16.2276 22.1839 16.2254 22.4251 16.3124 22.6407L17.1874 24.8282C17.2745 25.0437 17.4435 25.2158 17.6575 25.3067C17.8714 25.3976 18.1127 25.3997 18.3282 25.3127C18.5437 25.2257 18.7159 25.0566 18.8067 24.8427C18.8976 24.6287 18.8998 24.3874 18.8127 24.1719L17.9377 21.9844ZM26.5215 2.02566C26.4412 1.94002 26.3446 1.87141 26.2372 1.8239C26.1299 1.7764 26.0141 1.75097 25.8968 1.74913C25.7794 1.74729 25.6629 1.76909 25.5541 1.81321C25.4454 1.85734 25.3466 1.92289 25.2637 2.00597L19.5313 7.73832L18.9429 7.14988C18.6178 6.82446 18.2318 6.56631 17.8069 6.39017C17.382 6.21404 16.9266 6.12338 16.4667 6.12338C16.0067 6.12338 15.5513 6.21404 15.1264 6.39017C14.7015 6.56631 14.3155 6.82446 13.9904 7.14988L12.1092 9.02785C12.0685 9.06848 12.0362 9.11673 12.0142 9.16984C11.9922 9.22296 11.9808 9.27989 11.9808 9.33738C11.9808 9.39487 11.9922 9.45181 12.0142 9.50492C12.0362 9.55803 12.0685 9.60628 12.1092 9.64691L18.8576 16.391C18.8982 16.4317 18.9465 16.4639 18.9996 16.4859C19.0527 16.508 19.1096 16.5193 19.1671 16.5193C19.2246 16.5193 19.2815 16.508 19.3347 16.4859C19.3878 16.4639 19.436 16.4317 19.4767 16.391L21.3076 14.56C21.9712 13.9092 22.3559 13.026 22.3806 12.0969C22.3896 11.6272 22.3035 11.1605 22.1274 10.725C21.9512 10.2894 21.6887 9.89407 21.3557 9.56269L20.7673 8.97535L26.4767 3.26925C26.6431 3.10776 26.7406 2.88821 26.749 2.65647C26.7573 2.42473 26.6758 2.19872 26.5215 2.02566ZM9.86696 9.88097C9.78408 9.79806 9.68537 9.73265 9.57672 9.68862C9.46806 9.6446 9.35166 9.62286 9.23443 9.6247C9.11721 9.62653 9.00155 9.65191 8.89432 9.69931C8.7871 9.74672 8.69049 9.81519 8.61024 9.90066C8.4559 10.0737 8.37439 10.2997 8.38275 10.5315C8.39111 10.7632 8.48868 10.9828 8.65509 11.1443L9.32337 11.8125L7.64665 13.4871C7.31435 13.8186 7.05255 14.2139 6.87699 14.6492C6.70143 15.0846 6.61574 15.5509 6.62509 16.0202C6.64819 16.9491 7.03135 17.8327 7.69368 18.4844L8.24056 19.0247L2.52243 24.733C2.36109 24.8901 2.26469 25.1022 2.25233 25.327C2.23997 25.5519 2.31256 25.7732 2.45571 25.9471C2.53433 26.0383 2.63091 26.1123 2.73943 26.1644C2.84795 26.2166 2.96607 26.2458 3.08639 26.2502C3.20671 26.2546 3.32665 26.2341 3.4387 26.1901C3.55075 26.146 3.6525 26.0793 3.73759 25.9941L9.46884 20.2618L10.0562 20.8502C10.7141 21.5051 11.6047 21.8727 12.533 21.8727C13.4613 21.8727 14.3518 21.5051 15.0098 20.8502L16.6876 19.1746L17.381 19.8691C17.4623 19.9504 17.5588 20.0149 17.6651 20.0589C17.7713 20.1029 17.8851 20.1255 18.0001 20.1255C18.1151 20.1255 18.2289 20.1029 18.3351 20.0589C18.4413 20.0149 18.5379 19.9504 18.6192 19.8691C18.7004 19.7878 18.7649 19.6913 18.8089 19.5851C18.8529 19.4789 18.8756 19.365 18.8756 19.25C18.8756 19.1351 18.8529 19.0212 18.8089 18.915C18.7649 18.8088 18.7004 18.7123 18.6192 18.631L9.86696 9.88097Z" mask="url(#path-1-inside-1_12020_318321)"/></svg>