<svg xmlns="http://www.w3.org/2000/svg" width="28" height="28" fill="none" viewBox="0 0 28 28"><mask id="a" fill="#fff"><path d="M9.687 3.828a.876.876 0 0 1 1.626-.656l.875 2.187a.88.88 0 0 1-.485 1.141.876.876 0 0 1-1.14-.484zm-6.515 7.485 2.187.875a.877.877 0 0 0 .657-1.626l-2.188-.875a.876.876 0 1 0-.656 1.626m21.656 5.374-2.187-.875a.876.876 0 1 0-.657 1.626l2.188.875a.877.877 0 0 0 .656-1.626m-7.39 5.297a.877.877 0 0 0-1.626.657l.875 2.187a.877.877 0 0 0 1.626-.656zM26.02 2.026a.875.875 0 0 0-1.257-.02L19.03 7.738l-.588-.588a3.5 3.5 0 0 0-4.953 0l-1.88 1.878a.437.437 0 0 0 0 .619l6.748 6.744a.437.437 0 0 0 .619 0l1.83-1.831a3.58 3.58 0 0 0 1.074-2.463 3.48 3.48 0 0 0-1.025-2.534l-.589-.588 5.71-5.706a.9.9 0 0 0 .044-1.243M9.367 9.88a.875.875 0 0 0-1.257.02.9.9 0 0 0 .045 1.243l.668.668-1.676 1.675a3.48 3.48 0 0 0-1.022 2.533 3.58 3.58 0 0 0 1.069 2.464l.546.54-5.718 5.709a.9.9 0 0 0-.066 1.214.876.876 0 0 0 1.281.047l5.732-5.732.587.588a3.51 3.51 0 0 0 4.954 0l1.678-1.676.693.695a.873.873 0 0 0 1.238 0 .875.875 0 0 0 0-1.238z"/></mask><path fill="#a75aff" stroke="#a75aff" stroke-width=".25" d="M9.687 3.828a.876.876 0 0 1 1.626-.656l.875 2.187a.88.88 0 0 1-.485 1.141.876.876 0 0 1-1.14-.484zm-6.515 7.485 2.187.875a.877.877 0 0 0 .657-1.626l-2.188-.875a.876.876 0 1 0-.656 1.626Zm21.656 5.374-2.187-.875a.876.876 0 1 0-.657 1.626l2.188.875a.877.877 0 0 0 .656-1.626Zm-7.39 5.297a.877.877 0 0 0-1.626.657l.875 2.187a.877.877 0 0 0 1.626-.656zM26.02 2.026a.875.875 0 0 0-1.257-.02L19.03 7.738l-.588-.588a3.5 3.5 0 0 0-4.953 0l-1.88 1.878a.437.437 0 0 0 0 .619l6.748 6.744a.437.437 0 0 0 .619 0l1.83-1.831a3.58 3.58 0 0 0 1.074-2.463 3.48 3.48 0 0 0-1.025-2.534l-.589-.588 5.71-5.706a.9.9 0 0 0 .044-1.243ZM9.367 9.88a.875.875 0 0 0-1.257.02.9.9 0 0 0 .045 1.243l.668.668-1.676 1.675a3.48 3.48 0 0 0-1.022 2.533 3.58 3.58 0 0 0 1.069 2.464l.546.54-5.718 5.709a.9.9 0 0 0-.066 1.214.876.876 0 0 0 1.281.047l5.732-5.732.587.588a3.51 3.51 0 0 0 4.954 0l1.678-1.676.693.695a.873.873 0 0 0 1.238 0 .875.875 0 0 0 0-1.238z" mask="url(#a)"/></svg>