<svg xmlns="http://www.w3.org/2000/svg" width="116" height="20" fill="none" viewBox="0 0 116 20"><path fill="#f6b94f" d="m10 0 2.586 6.44 6.925.47-5.326 4.45 1.693 6.73L10 14.4l-5.878 3.69 1.693-6.73L.49 6.91l6.925-.47zM34 0l2.586 6.44 6.925.47-5.326 4.45 1.693 6.73L34 14.4l-5.878 3.69 1.693-6.73-5.326-4.45 6.925-.47zM58 0l2.586 6.44 6.925.47-5.326 4.45 1.693 6.73L58 14.4l-5.878 3.69 1.693-6.73-5.326-4.45 6.925-.47zM82 0l2.586 6.44 6.925.47-5.326 4.45 1.693 6.73L82 14.4l-5.878 3.69 1.693-6.73-5.326-4.45 6.925-.47zM106 0l2.586 6.44 6.925.47-5.326 4.45 1.693 6.73L106 14.4l-5.878 3.69 1.693-6.73-5.326-4.45 6.925-.47z"/></svg>