<svg xmlns="http://www.w3.org/2000/svg" width="22" height="22" fill="none" viewBox="0 0 22 22"><rect width="22" height="22" fill="url(#paint0_linear_2150_2778)" rx="11"/><g stroke="#fff" stroke-linecap="round" stroke-linejoin="round" stroke-width="1.5" clip-path="url(#clip0_2150_2778)"><path d="M9.313 5.375H5.938C5.627 5.375 5.375 5.627 5.375 5.938V9.313C5.375 9.623 5.627 9.875 5.938 9.875H9.313C9.623 9.875 9.875 9.623 9.875 9.313V5.938C9.875 5.627 9.623 5.375 9.313 5.375ZM9.313 12.125H5.938C5.627 12.125 5.375 12.377 5.375 12.688V16.063C5.375 16.373 5.627 16.625 5.938 16.625H9.313C9.623 16.625 9.875 16.373 9.875 16.063V12.688C9.875 12.377 9.623 12.125 9.313 12.125ZM16.063 5.375H12.688C12.377 5.375 12.125 5.627 12.125 5.938V9.313C12.125 9.623 12.377 9.875 12.688 9.875H16.063C16.373 9.875 16.625 9.623 16.625 9.313V5.938C16.625 5.627 16.373 5.375 16.063 5.375ZM12.125 12.125V14.375M12.125 16.625H14.375V12.125M14.375 13.25H16.625M16.625 15.5V16.625"/></g><defs><linearGradient id="paint0_linear_2150_2778" x1="11" x2="11" y1="0" y2="22" gradientUnits="userSpaceOnUse"><stop stop-color="#5695fd"/><stop offset="1" stop-color="#1554ff"/></linearGradient><clipPath id="clip0_2150_2778"><path fill="#fff" d="M0 0H18V18H0z" transform="translate(2 2)"/></clipPath></defs></svg>