<svg xmlns="http://www.w3.org/2000/svg" width="24" height="24" fill="none" viewBox="0 0 24 24"><path stroke="#fff" stroke-width="1.5" d="M9.77026 1.64292C9.9973 1.54857 10.2408 1.5 10.4866 1.5H14.1517C14.6467 1.5 15.1215 1.69667 15.4716 2.04673C15.8207 2.39583 16.0172 2.86896 16.0183 3.36255C16.0153 3.59215 16.0737 3.81843 16.1877 4.01787C16.3009 4.216 16.4648 4.38038 16.6624 4.49423C16.8595 4.61335 17.0855 4.67638 17.3159 4.67638C17.5477 4.67638 17.7749 4.61262 17.9729 4.49214C18.1835 4.36867 18.4166 4.28826 18.6586 4.2556C18.9015 4.22281 19.1485 4.23879 19.3852 4.30258C19.8637 4.43548 20.2718 4.74935 20.523 5.17777L20.5239 5.1793L22.3547 8.35193C22.6015 8.78003 22.6684 9.28852 22.5409 9.76592C22.4139 10.2413 22.1044 10.6472 21.6799 10.8955C21.4782 11.0067 21.3101 11.1701 21.1931 11.3686C21.0755 11.5683 21.0139 11.7961 21.0151 12.0278C21.0134 12.2561 21.0731 12.4806 21.188 12.678C21.3027 12.8752 21.4682 13.0379 21.6673 13.1493C22.0956 13.3981 22.4083 13.806 22.5373 14.2844C22.6666 14.7638 22.6003 15.2756 22.3537 15.7066L20.5239 18.8776L20.523 18.8791C20.2716 19.3079 19.8631 19.6219 19.384 19.7547C19.1498 19.8185 18.9051 19.8346 18.6645 19.8019C18.4259 19.7695 18.1962 19.6898 17.9888 19.5675C17.7927 19.4445 17.5676 19.3756 17.3362 19.368C17.1011 19.3603 16.8684 19.416 16.6623 19.5294C16.4563 19.6427 16.2846 19.8094 16.1652 20.012C16.0472 20.2125 15.9847 20.4407 15.9842 20.6733C15.9738 21.1604 15.7732 21.6243 15.4254 21.9657C15.0763 22.3082 14.6066 22.5001 14.1175 22.5H10.4525C9.95741 22.5 9.48262 22.3033 9.13255 21.9533C8.78345 21.6042 8.58691 21.131 8.58582 20.6374C8.58889 20.4078 8.53043 20.1816 8.41647 19.9821C8.30325 19.784 8.1394 19.6196 7.94177 19.5058C7.74467 19.3866 7.51869 19.3236 7.28825 19.3236C7.05643 19.3236 6.82912 19.3874 6.63119 19.5079C6.42056 19.6314 6.1875 19.7117 5.94554 19.7444C5.70267 19.7772 5.45571 19.7612 5.2191 19.6975C4.74045 19.5646 4.3323 19.2506 4.08106 18.8221L4.08026 18.8207L2.24957 15.6482C2.0027 15.2201 1.9357 14.7115 2.06324 14.2341C2.19021 13.7587 2.49969 13.3528 2.92424 13.1045C3.12589 12.9933 3.29403 12.8299 3.41101 12.6314C3.52869 12.4317 3.5902 12.2039 3.58909 11.9722C3.59071 11.744 3.53102 11.5194 3.41619 11.322C3.30143 11.1248 3.13585 10.962 2.93678 10.8506C2.50851 10.6019 2.1958 10.1939 2.06683 9.71561C1.93757 9.2362 2.00386 8.72436 2.2504 8.29339L4.08108 5.12098C4.33107 4.6946 4.73639 4.38166 5.21193 4.24764C5.44675 4.19174 5.69042 4.18337 5.92858 4.22306C6.16968 4.26324 6.40028 4.35194 6.6062 4.48362C6.80435 4.61024 7.03295 4.68115 7.26798 4.68888C7.50301 4.69661 7.73578 4.64089 7.94183 4.52756C8.14787 4.41424 8.31958 4.2475 8.43891 4.04487C8.55824 3.84224 8.62078 3.61054 8.61995 3.37539C8.61881 3.12952 8.66624 2.88585 8.75953 2.65837C8.85283 2.43089 8.99014 2.22408 9.1636 2.04981C9.33705 1.87555 9.54321 1.73728 9.77026 1.64292ZM10.0307 15.0563C10.6858 15.494 11.456 15.7276 12.2439 15.7276C13.3005 15.7276 14.3137 15.3079 15.0608 14.5608C15.8079 13.8137 16.2276 12.8005 16.2276 11.7439C16.2276 10.956 15.994 10.1858 15.5563 9.53066C15.1185 8.87553 14.4963 8.36493 13.7684 8.06341C13.0405 7.76189 12.2395 7.683 11.4667 7.83671C10.6939 7.99042 9.98411 8.36984 9.42697 8.92697C8.86984 9.48411 8.49042 10.1939 8.33671 10.9667C8.183 11.7395 8.26189 12.5405 8.56341 13.2684C8.86493 13.9963 9.37553 14.6185 10.0307 15.0563Z" clip-rule="evenodd"/></svg>