<svg xmlns="http://www.w3.org/2000/svg" width="24" height="24" fill="none" viewBox="0 0 24 24"><path fill="#fff" fill-rule="evenodd" d="M9.40546 1.39632C9.63791 1.29972 9.88716 1.25 10.1389 1.25H13.8912C14.398 1.25 14.8841 1.45135 15.2425 1.80975C15.6 2.16716 15.8012 2.65156 15.8023 3.1569C15.7992 3.39197 15.859 3.62363 15.9757 3.82782C16.0916 4.03067 16.2594 4.19897 16.4617 4.31552C16.6635 4.43748 16.8948 4.502 17.1308 4.502C17.3681 4.502 17.6007 4.43673 17.8034 4.31338C18.019 4.18697 18.2577 4.10465 18.5054 4.07121C18.7541 4.03764 19.007 4.054 19.2493 4.11931C19.7392 4.25537 20.157 4.57671 20.4142 5.01534L20.4151 5.0169L22.2895 8.26507C22.5422 8.70336 22.6107 9.22396 22.4802 9.71273C22.3502 10.1994 22.0333 10.615 21.5986 10.8692C21.3922 10.9831 21.2201 11.1504 21.1003 11.3536C20.9798 11.5581 20.9169 11.7913 20.918 12.0285C20.9163 12.2622 20.9775 12.4921 21.095 12.6941C21.2125 12.896 21.382 13.0626 21.5857 13.1767C22.0243 13.4314 22.3445 13.849 22.4765 14.3388C22.6088 14.8296 22.541 15.3536 22.2886 15.7949L20.4151 19.0414L20.4142 19.0429C20.1568 19.4819 19.7386 19.8034 19.2481 19.9393C19.0083 20.0047 18.7578 20.0211 18.5115 19.9877C18.2672 19.9545 18.032 19.8729 17.8196 19.7476C17.619 19.6217 17.3884 19.5513 17.1515 19.5435C16.9109 19.5355 16.6726 19.5926 16.4616 19.7086C16.2507 19.8246 16.0749 19.9954 15.9527 20.2028C15.8318 20.408 15.7679 20.6417 15.7673 20.8798C15.7567 21.3785 15.5514 21.8534 15.1952 22.2029C14.8378 22.5537 14.357 22.7501 13.8562 22.75H10.1039C9.59707 22.75 9.11097 22.5487 8.75257 22.1903C8.39516 21.8328 8.19393 21.3484 8.19282 20.8431C8.19596 20.608 8.13612 20.3764 8.01944 20.1722C7.90353 19.9693 7.73577 19.801 7.53344 19.6845C7.33165 19.5625 7.10029 19.498 6.86436 19.498C6.62702 19.498 6.3943 19.5633 6.19166 19.6867C5.97601 19.8131 5.7374 19.8954 5.48967 19.9288C5.24102 19.9624 4.98819 19.946 4.74594 19.8807C4.25589 19.7447 3.83803 19.4232 3.58081 18.9845L3.57998 18.9831L1.7057 15.7351C1.45296 15.2968 1.38436 14.7761 1.51494 14.2873C1.64494 13.8006 1.96179 13.385 2.39645 13.1308C2.6029 13.0169 2.77504 12.8496 2.89481 12.6464C3.01528 12.4419 3.07825 12.2088 3.07712 11.9716C3.07878 11.7379 3.01767 11.508 2.9001 11.3059C2.78261 11.104 2.61309 10.9373 2.40928 10.8233C1.97081 10.5686 1.65066 10.1509 1.51862 9.66122C1.38628 9.1704 1.45415 8.64637 1.70656 8.20514L3.58083 4.95719C3.83677 4.52066 4.25174 4.20028 4.7386 4.06306C4.97902 4.00583 5.22848 3.99726 5.47232 4.0379C5.71915 4.07903 5.95525 4.16985 6.16607 4.30466C6.36894 4.4343 6.60298 4.50689 6.84361 4.51481C7.08423 4.52272 7.32254 4.46567 7.53349 4.34965C7.74445 4.23362 7.92025 4.06291 8.04242 3.85546C8.16459 3.64801 8.22861 3.41079 8.22777 3.17004C8.22659 2.91832 8.27516 2.66885 8.37067 2.43595C8.46619 2.20305 8.60677 1.99132 8.78435 1.81291C8.96193 1.6345 9.17301 1.49292 9.40546 1.39632ZM9.67206 15.129C10.3428 15.5772 11.1313 15.8164 11.938 15.8164C13.0197 15.8164 14.0571 15.3867 14.822 14.6218C15.5869 13.8569 16.0166 12.8195 16.0166 11.7378C16.0166 10.9311 15.7774 10.1426 15.3292 9.47186C14.8811 8.80114 14.2441 8.27838 13.4988 7.96968C12.7535 7.66098 11.9335 7.58021 11.1423 7.73759C10.3511 7.89496 9.6244 8.28341 9.054 8.85381C8.4836 9.42421 8.09515 10.1509 7.93778 10.9421C7.78041 11.7333 7.86118 12.5534 8.16988 13.2986C8.47857 14.0439 9.00134 14.6809 9.67206 15.129Z" clip-rule="evenodd"/></svg>