<svg xmlns="http://www.w3.org/2000/svg" width="24" height="24" fill="none" viewBox="0 0 24 24"><path fill="#fff" fill-rule="evenodd" d="M11.991 2.00008C11.6213 1.99751 11.2511 2.05552 10.8956 2.17427L4.71613 4.23802C4.51354 4.30568 4.41393 4.45153 4.4023 4.5997C4.33921 5.40414 4.26854 7.02779 4.31457 10.0823C4.31472 10.0925 4.31467 10.1027 4.31441 10.1128L4.29981 10.6826C4.30032 11.111 4.3359 11.5365 4.40243 11.9579C4.40437 11.9702 4.40601 11.9826 4.40733 11.995C4.79684 15.6291 6.45458 18.0995 8.15192 19.6844C9.00381 20.4798 9.86553 21.0515 10.5796 21.4308C11.2993 21.813 11.8136 21.9708 11.9962 21.9976C12.1788 21.9708 12.6932 21.813 13.4129 21.4308C14.1269 21.0515 14.9887 20.4798 15.8405 19.6844C17.5379 18.0995 19.1956 15.6291 19.5851 11.995C19.5865 11.9826 19.5881 11.9702 19.59 11.9579C19.6566 11.5365 19.6921 11.111 19.6927 10.6826L19.6781 10.1128C19.6778 10.1027 19.6777 10.0925 19.6779 10.0823C19.7239 7.02779 19.6533 5.40414 19.5902 4.5997C19.5785 4.45153 19.4789 4.30568 19.2763 4.23802L13.0969 2.17427C12.7413 2.05552 12.3712 1.99751 12.0015 2.00008L11.991 2.00015L11.991 2.00008ZM10.4204 0.751517C10.9319 0.580699 11.4644 0.496952 11.9962 0.500085C12.5281 0.496952 13.0606 0.580699 13.572 0.751517L19.7515 2.81527C20.4622 3.05263 21.0218 3.6699 21.0856 4.48241C21.1535 5.34868 21.2239 7.01868 21.178 10.0896L21.1924 10.654L21.1927 10.6732C21.1927 11.1811 21.1513 11.6818 21.0746 12.1733C20.6374 16.2081 18.7807 18.9912 16.8643 20.7807C15.9078 21.6738 14.9362 22.3201 14.1165 22.7555C13.3293 23.1736 12.6242 23.4277 12.183 23.486C12.1314 23.494 12.0724 23.5 12.0086 23.5C12.0044 23.5 12.0003 23.5 11.9962 23.4999C11.9922 23.5 11.9881 23.5 11.9839 23.5C11.9201 23.5 11.8611 23.494 11.8095 23.486C11.3682 23.4277 10.6631 23.1736 9.876 22.7555C9.05623 22.3201 8.08468 21.6738 7.1282 20.7807C5.21173 18.9912 3.35505 16.2081 2.91786 12.1733C2.8412 11.6818 2.7998 11.1811 2.7998 10.6732L2.80005 10.654L2.81451 10.0897C2.76855 7.01869 2.83895 5.34868 2.9069 4.48241C2.97063 3.66991 3.53026 3.05263 4.24097 2.81527L10.4204 0.751517Z" clip-rule="evenodd"/><path fill="#fff" fill-rule="evenodd" d="M16.279 8.18053C16.6073 8.43308 16.6687 8.90397 16.4162 9.23228L12.1727 14.7487C12.0412 14.9198 11.8423 15.0259 11.6269 15.0399C11.4115 15.0539 11.2006 14.9744 11.0479 14.8218L8.5019 12.2757C8.209 11.9828 8.209 11.508 8.5019 11.2151C8.79479 10.9222 9.26966 10.9222 9.56256 11.2151L11.5046 13.1571L15.2272 8.31772C15.4798 7.9894 15.9507 7.92798 16.279 8.18053Z" clip-rule="evenodd"/></svg>