<svg xmlns="http://www.w3.org/2000/svg" width="24" height="24" fill="none" viewBox="0 0 24 24"><path fill="#fff" fill-rule="evenodd" d="M10.4763 1.24335C10.971 1.07814 11.486 0.997109 12.0004 1.00008C12.5148 0.997109 13.0298 1.07814 13.5245 1.24335L19.385 3.20058C20.0907 3.43628 20.6502 4.05111 20.7139 4.86312C20.7786 5.68844 20.8453 7.27488 20.8018 10.1878L20.8155 10.7211L20.8157 10.7417C20.8157 11.2277 20.7762 11.7067 20.703 12.1766C20.2852 16.0275 18.5121 18.6862 16.681 20.3959C15.7674 21.249 14.8391 21.8666 14.0551 22.283C13.3056 22.6811 12.6258 22.928 12.1908 22.9858C12.1384 22.9939 12.0779 23 12.0121 23L12.0004 22.9999L11.9887 23C11.9229 23 11.8624 22.9939 11.81 22.9858C11.3749 22.928 10.6952 22.6811 9.94569 22.283C9.16164 21.8666 8.23339 21.249 7.31976 20.3959C5.48871 18.6862 3.71562 16.0275 3.2978 12.1766C3.22461 11.7067 3.18506 11.2277 3.18506 10.7417L3.18532 10.7211L3.19899 10.1878C3.15543 7.27488 3.22217 5.68844 3.28691 4.86312C3.3506 4.05111 3.91005 3.43628 4.61578 3.20058L10.4763 1.24335ZM16.2664 9.43227C16.5374 9.07993 16.4715 8.57459 16.1192 8.30356C15.7668 8.03253 15.2615 8.09845 14.9905 8.45079L11.525 12.9559L9.75855 11.1895C9.44423 10.8751 8.93461 10.8751 8.62028 11.1895C8.30596 11.5038 8.30596 12.0134 8.62028 12.3277L11.0349 14.7424C11.1987 14.9061 11.4251 14.9914 11.6562 14.9764C11.8873 14.9614 12.1008 14.8476 12.242 14.664L16.2664 9.43227Z" clip-rule="evenodd"/></svg>