<svg xmlns="http://www.w3.org/2000/svg" width="28" height="28" fill="none" viewBox="0 0 28 28"><path fill="#50b55a" stroke="#50b55a" stroke-width=".125" d="M5.25 4.438h17.5a1.69 1.69 0 0 1 1.688 1.687v6.125c0 5.384-2.443 8.778-4.664 10.753l-.44.376c-2.515 2.054-5.011 2.752-5.117 2.78a.8.8 0 0 1-.427 0c-.105-.028-2.605-.725-5.117-2.78-2.331-1.908-5.11-5.386-5.11-11.129V6.125l.007-.167a1.69 1.69 0 0 1 1.68-1.52Zm13.125 6a.94.94 0 0 0-.663.274l-5.462 5.462-1.96-1.962a.938.938 0 0 0-1.326 1.326l2.625 2.625a.94.94 0 0 0 1.022.204.9.9 0 0 0 .304-.204l6.125-6.125.108-.106h-.02a.94.94 0 0 0 .184-.557.94.94 0 0 0-.578-.866.9.9 0 0 0-.359-.072Z"/></svg>