<svg xmlns="http://www.w3.org/2000/svg" width="16" height="16" fill="none" viewBox="0 0 16 16"><path fill="#fff" stroke="#fff" stroke-width=".125" d="M6.996 3.06a.93.93 0 0 1 .875.61l1.196 3.226.01.028.026.01 3.226 1.187a.93.93 0 0 1 .609.878V9a.93.93 0 0 1-.48.816l-.13.059-3.225 1.191-.026.01-.01.027-1.188 3.227a.933.933 0 0 1-1.75 0l-1.195-3.226-.01-.028-.027-.01L1.67 9.88a.932.932 0 0 1 0-1.75l3.227-1.195.026-.01.011-.028L6.121 3.67a.93.93 0 0 1 .875-.61ZM14 4.063a.437.437 0 0 1 .438.437v.563H15a.437.437 0 0 1 0 .875h-.562V6.5a.439.439 0 0 1-.747.31.44.44 0 0 1-.128-.31v-.562H13a.439.439 0 0 1-.31-.748.44.44 0 0 1 .31-.128h.563V4.5A.44.44 0 0 1 14 4.063Zm-3-3.5a.437.437 0 0 1 .438.437v1.063H12.5a.437.437 0 0 1 0 .874h-1.062V4a.439.439 0 0 1-.747.31.44.44 0 0 1-.128-.31V2.938H9.5a.438.438 0 1 1 0-.876h1.063V1A.44.44 0 0 1 11 .563Z"/></svg>