<svg xmlns="http://www.w3.org/2000/svg" xmlns:xlink="http://www.w3.org/1999/xlink"> <symbol fill="none" viewBox="0 0 16 16" id="base--arrow-square-out-16" xmlns="http://www.w3.org/2000/svg"> <path d="M13.5 6.25V2.5H9.75m-.752 4.502 4.5-4.5M11.5 9v4a.5.5 0 0 1-.5.5H3a.5.5 0 0 1-.5-.5V5a.5.5 0 0 1 .5-.5h4" stroke="currentColor" stroke-width="1.5" stroke-linecap="round" stroke-linejoin="round"/> </symbol> <symbol fill="none" viewBox="0 0 16 16" id="base--browsers" xmlns="http://www.w3.org/2000/svg"> <g clip-path="url(#aba)" stroke="currentColor" stroke-width="1.5" stroke-linecap="round" stroke-linejoin="round"> <path d="M4 5V3.5a.5.5 0 0 1 .5-.5h9a.5.5 0 0 1 .5.5v7a.5.5 0 0 1-.5.5H12"/> <path d="M11.5 5h-9a.5.5 0 0 0-.5.5v7a.5.5 0 0 0 .5.5h9a.5.5 0 0 0 .5-.5v-7a.5.5 0 0 0-.5-.5ZM2 7h10"/> </g> <defs> <clipPath id="aba"> <path fill="currentColor" d="M0 0h16v16H0z"/> </clipPath> </defs> </symbol> <symbol fill="none" viewBox="0 0 16 16" id="base--bug-beetle-16" xmlns="http://www.w3.org/2000/svg"> <path fill-rule="evenodd" clip-rule="evenodd" d="M7.171 3.2c.254-.317.558-.45.829-.45.27 0 .575.133.829.45.257.323.421.788.421 1.3v.083h-2.5V4.5c0-.512.164-.977.421-1.3ZM5.25 4.584V4.5c0-.814.257-1.62.75-2.236.496-.62 1.21-1.014 2-1.014s1.504.394 2 1.014c.493.616.75 1.422.75 2.236v.083h.333l2.467-1.85a.75.75 0 0 1 .9 1.2l-2.213 1.66c.263.52.431 1.08.493 1.657h1.937a.75.75 0 0 1 0 1.5H12.75v.947c0 .438-.07.867-.205 1.275l1.827 1.043a.75.75 0 0 1-.744 1.303L11.83 12.29c-.15.189-.316.367-.498.532-.895.814-2.095 1.26-3.333 1.26s-2.438-.446-3.333-1.26a4.502 4.502 0 0 1-.498-.532l-1.797 1.027a.75.75 0 1 1-.744-1.303l1.827-1.043a4.078 4.078 0 0 1-.205-1.275V8.75H1.333a.75.75 0 0 1 0-1.5H3.27c.062-.577.23-1.137.493-1.657L1.55 3.933a.75.75 0 0 1 .9-1.2l2.467 1.85h.333Zm6 3.417v-.46a3.318 3.318 0 0 0-.453-1.457H5.203c-.265.453-.419.95-.453 1.456v2.158c0 .741.323 1.468.926 2.016.605.55 1.44.87 2.324.87.884 0 1.719-.32 2.324-.87.603-.548.926-1.275.926-2.016V8Z" fill="currentColor"/> </symbol> <symbol fill="none" viewBox="0 0 16 16" id="base--chats" xmlns="http://www.w3.org/2000/svg"> <path d="M5 9v2.5a.5.5 0 0 0 .5.5h6.026L14 14V6a.5.5 0 0 0-.5-.5H11" stroke="currentColor" stroke-width="1.5" stroke-linecap="round" stroke-linejoin="round"/> <path d="M4.474 9 2 11V3a.5.5 0 0 1 .5-.5h8a.5.5 0 0 1 .5.5v5.5a.5.5 0 0 1-.5.5H4.474Z" stroke="currentColor" stroke-width="1.5" stroke-linecap="round" stroke-linejoin="round"/> </symbol> <symbol fill="none" viewBox="0 0 24 24" id="base--check" xmlns="http://www.w3.org/2000/svg"> <g clip-path="url(#aia)"> <path d="m20.25 6.75-10.5 10.5L4.5 12" stroke="currentColor" stroke-width="1.5" stroke-linecap="round" stroke-linejoin="round"/> </g> <defs> <clipPath id="aia"> <path fill="currentColor" d="M0 0h24v24H0z"/> </clipPath> </defs> </symbol> <symbol fill="none" viewBox="0 0 16 16" id="base--check-16" xmlns="http://www.w3.org/2000/svg"> <path fill-rule="evenodd" clip-rule="evenodd" d="M14.03 3.97a.75.75 0 0 1 0 1.06l-7 7a.75.75 0 0 1-1.06 0l-3.5-3.5a.75.75 0 0 1 1.06-1.06l2.97 2.97 6.47-6.47a.75.75 0 0 1 1.06 0Z" fill="currentColor"/> </symbol> <symbol viewBox="0 0 32 32" id="base--check-circle-16" xmlns="http://www.w3.org/2000/svg"> <path fill="none" stroke-linejoin="round" stroke-linecap="round" stroke-width="3" stroke="currentColor" d="m21.5 13-7.334 7-3.666-3.5"/> <path fill="none" stroke-linejoin="round" stroke-linecap="round" stroke-width="3" stroke="currentColor" d="M16 28c6.627 0 12-5.373 12-12S22.627 4 16 4v0C9.373 4 4 9.373 4 16s5.373 12 12 12v0z"/> </symbol> <symbol fill="none" viewBox="0 0 24 24" id="base--check-circle-24" xmlns="http://www.w3.org/2000/svg"> <g clip-path="url(#aga)" stroke="currentColor" stroke-width="1.5" stroke-linecap="round" stroke-linejoin="round"> <path d="m16.125 9.75-5.5 5.25-2.75-2.625"/> <path d="M12 21a9 9 0 1 0 0-18 9 9 0 0 0 0 18Z"/> </g> <defs> <clipPath id="aga"> <path fill="currentColor" d="M0 0h24v24H0z"/> </clipPath> </defs> </symbol> <symbol fill="none" viewBox="0 0 24 24" id="base--check-circle-green-24" xmlns="http://www.w3.org/2000/svg"> <g clip-path="url(#aha)"> <path d="M17 3.34a10 10 0 1 1-14.995 8.984L2 12l.005-.324A10 10 0 0 1 17 3.34Zm-1.293 5.953a1 1 0 0 0-1.32-.083l-.094.083L11 12.585l-1.293-1.292-.094-.083a1 1 0 0 0-1.403 1.403l.083.094 2 2 .094.083a1 1 0 0 0 1.226 0l.094-.083 4-4 .083-.094a1 1 0 0 0-.083-1.32Z" fill="currentColor"/> </g> <defs> <clipPath id="aha"> <path fill="currentColor" d="M0 0h24v24H0z"/> </clipPath> </defs> </symbol> <symbol fill="none" viewBox="0 0 24 24" id="base--chevron-down" xmlns="http://www.w3.org/2000/svg"> <path stroke="currentColor" stroke-linecap="round" stroke-linejoin="round" stroke-width="1.5" d="M19.5 9 12 16.5 4.5 9"/> </symbol> <symbol fill="none" viewBox="0 0 16 16" id="base--chevron-down-16" xmlns="http://www.w3.org/2000/svg"> <path d="m13 6-5 5-5-5" stroke="currentColor" stroke-width="1.5" stroke-linecap="round" stroke-linejoin="round"/> </symbol> <symbol fill="none" viewBox="0 0 16 16" id="base--chevron-right-16" xmlns="http://www.w3.org/2000/svg"> <path d="m6.5 3 5 5-5 5" stroke="currentColor" stroke-width="1.5" stroke-linecap="round" stroke-linejoin="round"/> </symbol> <symbol fill="none" viewBox="0 0 16 16" id="base--double-vpn" xmlns="http://www.w3.org/2000/svg"> <rect x="1" y="8.5" width="8" height="6" rx="1" stroke="currentColor" stroke-width="1.5"/> <path d="M3 6.5a2 2 0 1 1 4 0v2H3v-2Z" stroke="currentColor" stroke-width="1.5"/> <path stroke="currentColor" stroke-linecap="round" d="M5 10.5v2"/> <circle cx="5" cy="11" r="1" fill="currentColor"/> <path d="M10.91 11.5H14a1 1 0 0 0 1-1v-4a1 1 0 0 0-1-1H8.5m.5-2a2 2 0 1 1 4 0v2H9v-2Z" stroke="currentColor" stroke-width="1.5"/> <path stroke="currentColor" stroke-linecap="round" d="M11 7.5v2"/> <circle cx="11" cy="8" r="1" fill="currentColor"/> </symbol> <symbol fill="none" viewBox="0 0 16 16" id="base--download-simple-16" xmlns="http://www.w3.org/2000/svg"> <path d="M5.375 6.875 8 9.5l2.625-2.625M8 2.5v7m5.5 0V13a.5.5 0 0 1-.5.5H3a.5.5 0 0 1-.5-.5V9.5" stroke="currentColor" stroke-width="1.5" stroke-linecap="round" stroke-linejoin="round"/> </symbol> <symbol fill="none" viewBox="0 0 16 16" id="base--email-16" xmlns="http://www.w3.org/2000/svg"> <g clip-path="url(#aoa)" stroke="currentColor" stroke-width="1.5" stroke-linecap="round" stroke-linejoin="round"> <path d="M6.5 12H3.333A1.333 1.333 0 0 1 2 10.666V4a1.333 1.333 0 0 1 1.333-1.333h9.334A1.333 1.333 0 0 1 14 4v3.5"/> <path d="m2 4 6 4 6-4M10 12h4M12 10l2 2-2 2"/> </g> <defs> <clipPath id="aoa"> <path fill="currentColor" d="M0 0h16v16H0z"/> </clipPath> </defs> </symbol> <symbol fill="none" viewBox="0 0 16 16" id="base--eye-slash-hide-16" xmlns="http://www.w3.org/2000/svg"> <g clip-path="url(#apa)" stroke="currentColor" stroke-width="1.5" stroke-linecap="round" stroke-linejoin="round"> <path d="M9.682 9.85a2.5 2.5 0 0 1-3.364-3.7"/> <path d="M4.625 4.287C2.077 5.577 1 8 1 8s2 4.5 7 4.5a7.376 7.376 0 0 0 3.375-.788m1.663-1.143C14.4 9.349 15 8 15 8s-2-4.5-7-4.5a7.778 7.778 0 0 0-1.293.105"/> <path d="M8.47 5.544a2.502 2.502 0 0 1 2.02 2.22M3 2.5l10 11"/> </g> <defs> <clipPath id="apa"> <path fill="currentColor" d="M0 0h16v16H0z"/> </clipPath> </defs> </symbol> <symbol fill="none" viewBox="0 0 16 16" id="base--folder-lock" xmlns="http://www.w3.org/2000/svg"> <path d="M2 5V3.5a.5.5 0 0 1 .5-.5h3.294a.494.494 0 0 1 .35.144L8 5m6 5.25H9.5V13H14v-2.75Z" stroke="currentColor" stroke-width="1.5" stroke-linecap="round" stroke-linejoin="round"/> <path d="M7.037 13H2.463A.463.463 0 0 1 2 12.537V5h11.5a.5.5 0 0 1 .5.5v1" stroke="currentColor" stroke-width="1.5" stroke-linecap="round" stroke-linejoin="round"/> <path d="M10.5 10.25V9.5a1.25 1.25 0 0 1 2.5 0v.75" stroke="currentColor" stroke-width="1.5" stroke-linecap="round" stroke-linejoin="round"/> </symbol> <symbol fill="none" viewBox="0 0 16 16" id="base--game-controller-device" xmlns="http://www.w3.org/2000/svg"> <g clip-path="url(#ara)" stroke="currentColor" stroke-width="1.5" stroke-linecap="round" stroke-linejoin="round"> <path d="M9.5 6.75h2m-7 0h2m-1-1v2m5.25-4.266-5.5.016a3.25 3.25 0 0 0-3.201 2.685h0l-1.022 5.26a1.75 1.75 0 0 0 2.96 1.542h0L6.69 10l4.06-.016a3.25 3.25 0 1 0 0-6.5v0Z"/> <path d="m13.952 6.17 1.022 5.276a1.75 1.75 0 0 1-2.961 1.541h0l-2.7-2.997"/> </g> <defs> <clipPath id="ara"> <path fill="currentColor" d="M0 0h16v16H0z"/> </clipPath> </defs> </symbol> <symbol fill="none" viewBox="0 0 16 16" id="base--hard-drives" xmlns="http://www.w3.org/2000/svg"> <path d="M13 9H3a.5.5 0 0 0-.5.5v3a.5.5 0 0 0 .5.5h10a.5.5 0 0 0 .5-.5v-3A.5.5 0 0 0 13 9Zm0-6H3a.5.5 0 0 0-.5.5v3A.5.5 0 0 0 3 7h10a.5.5 0 0 0 .5-.5v-3A.5.5 0 0 0 13 3Z" stroke="currentColor" stroke-width="1.5" stroke-linecap="round" stroke-linejoin="round"/> <path d="M11.938 5a.687.687 0 1 1-1.375 0 .687.687 0 0 1 1.374 0Zm0 6a.687.687 0 1 1-1.375 0 .687.687 0 0 1 1.374 0Z" fill="currentColor" stroke="currentColor" stroke-width=".125"/> </symbol> <symbol fill="none" viewBox="0 0 16 16" id="base--info" xmlns="http://www.w3.org/2000/svg"> <path fill-rule="evenodd" clip-rule="evenodd" d="M8 2.75a5.25 5.25 0 1 0 0 10.5 5.25 5.25 0 0 0 0-10.5ZM1.25 8a6.75 6.75 0 1 1 13.5 0 6.75 6.75 0 0 1-13.5 0Z" fill="currentColor"/> <path fill-rule="evenodd" clip-rule="evenodd" d="M6.75 7.5a.75.75 0 0 1 .75-.75H8a.75.75 0 0 1 .75.75v2.793a.75.75 0 0 1-.25 1.457H8a.75.75 0 0 1-.75-.75V8.207a.75.75 0 0 1-.5-.707Z" fill="currentColor"/> <path d="M7.87 6a.75.75 0 1 0 0-1.5.75.75 0 0 0 0 1.5Z" fill="currentColor"/> </symbol> <symbol fill="none" viewBox="0 0 16 16" id="base--lock-key" xmlns="http://www.w3.org/2000/svg"> <g clip-path="url(#aua)" stroke="currentColor" stroke-width="1.5" stroke-linecap="round" stroke-linejoin="round"> <path d="M8 10a1.25 1.25 0 1 0 0-2.5A1.25 1.25 0 0 0 8 10Zm0 0v1.5"/> <path d="M13 5.5H3a.5.5 0 0 0-.5.5v7a.5.5 0 0 0 .5.5h10a.5.5 0 0 0 .5-.5V6a.5.5 0 0 0-.5-.5Zm-7.25 0V3.25a2.25 2.25 0 1 1 4.5 0V5.5"/> </g> <defs> <clipPath id="aua"> <path fill="currentColor" d="M0 0h16v16H0z"/> </clipPath> </defs> </symbol> <symbol fill="none" viewBox="0 0 16 16" id="base--magnifying-glass-search" xmlns="http://www.w3.org/2000/svg"> <g clip-path="url(#ava)" stroke="currentColor" stroke-width="1.5" stroke-linecap="round" stroke-linejoin="round"> <path d="M10.96 11.962 13.999 15M7.25 12.5a5.25 5.25 0 1 0 0-10.5 5.25 5.25 0 0 0 0 10.5Z"/> </g> <defs> <clipPath id="ava"> <path fill="currentColor" d="M0 0h16v16H0z"/> </clipPath> </defs> </symbol> <symbol viewBox="0 0 32 32" id="base--menu-burger-24" xmlns="http://www.w3.org/2000/svg"> <path fill="none" stroke-linejoin="round" stroke-linecap="round" stroke-width="2" stroke="currentColor" d="M6 10h20M6 16h20M6 22h20"/> </symbol> <symbol viewBox="0 0 32 32" id="base--minus-16" xmlns="http://www.w3.org/2000/svg"> <path fill="none" stroke-linejoin="round" stroke-linecap="round" stroke-width="3" stroke="currentColor" d="M5 16h22"/> </symbol> <symbol viewBox="0 0 32 32" id="base--minus-24" xmlns="http://www.w3.org/2000/svg"> <path fill="none" stroke-linejoin="round" stroke-linecap="round" stroke-width="2" stroke="currentColor" d="M5 16h22"/> </symbol> <symbol fill="none" viewBox="0 0 16 16" id="base--money" xmlns="http://www.w3.org/2000/svg"> <path d="M14.5 4h-13a.5.5 0 0 0-.5.5v7a.5.5 0 0 0 .5.5h13a.5.5 0 0 0 .5-.5v-7a.5.5 0 0 0-.5-.5Z" stroke="currentColor" stroke-width="1.5" stroke-linecap="round" stroke-linejoin="round"/> <path d="M8 10a2 2 0 1 0 0-4 2 2 0 0 0 0 4Zm3-6 4 3.5M11 12l4-3.5M5 4 1 7.5M5 12 1 8.5" stroke="currentColor" stroke-width="1.5" stroke-linecap="round" stroke-linejoin="round"/> </symbol> <symbol fill="none" viewBox="0 0 16 16" id="base--monitor-device" xmlns="http://www.w3.org/2000/svg"> <g clip-path="url(#baa)" stroke="currentColor" stroke-width="1.5" stroke-linecap="round" stroke-linejoin="round"> <path d="M3 12h10a1 1 0 0 0 1-1V4a1 1 0 0 0-1-1H3a1 1 0 0 0-1 1v7a1 1 0 0 0 1 1Zm7 2H6"/> </g> <defs> <clipPath id="baa"> <path fill="currentColor" d="M0 0h16v16H0z"/> </clipPath> </defs> </symbol> <symbol fill="none" viewBox="0 0 16 16" id="base--monitor-play" xmlns="http://www.w3.org/2000/svg"> <path d="M3 12h10a1 1 0 0 0 1-1V4a1 1 0 0 0-1-1H3a1 1 0 0 0-1 1v7a1 1 0 0 0 1 1Zm7 2H6" stroke="currentColor" stroke-width="1.5" stroke-linecap="round" stroke-linejoin="round"/> <path d="m10 7.5-3-2v4l3-2Z" stroke="currentColor" stroke-width="1.5" stroke-linecap="round" stroke-linejoin="round"/> </symbol> <symbol fill="none" viewBox="0 0 16 16" id="base--music-notes" xmlns="http://www.w3.org/2000/svg"> <path d="M13 5 5 7m0 5.75V4l8-2v8.75" stroke="currentColor" stroke-width="1.5" stroke-linecap="round" stroke-linejoin="round"/> <path d="M11.25 12.5a1.75 1.75 0 1 0 0-3.5 1.75 1.75 0 0 0 0 3.5Zm-8 2a1.75 1.75 0 1 0 0-3.5 1.75 1.75 0 0 0 0 3.5Z" stroke="currentColor" stroke-width="1.5" stroke-linecap="round" stroke-linejoin="round"/> </symbol> <symbol fill="none" viewBox="0 0 16 16" id="base--online-sms" xmlns="http://www.w3.org/2000/svg"> <path d="M11.501 9.5h1.002c.92 0 1.666-.746 1.666-1.667V4.167c0-.92-.746-1.667-1.666-1.667H6.336c-.92 0-1.667.746-1.667 1.667v1m5.167 0H3.503c-.92 0-1.667.746-1.667 1.666V10.5c0 .92.746 1.667 1.667 1.667h.5v1.666l3-1.666h2.833c.92 0 1.667-.746 1.667-1.667V6.833c0-.92-.747-1.666-1.667-1.666Z" stroke="currentColor" stroke-width="1.5" stroke-linecap="round" stroke-linejoin="round"/> </symbol> <symbol fill="none" viewBox="0 0 16 16" id="base--password" xmlns="http://www.w3.org/2000/svg"> <path d="M2.5 3.5v9m4-6.5v2m-1.9-.619 1.9.62M5.324 9.619 6.5 8m1.175 1.619L6.5 8m1.9-.619-1.9.62M12.5 6v2m-1.9-.619 1.9.62m-1.176 1.618L12.5 8m1.175 1.619L12.5 8m1.9-.619-1.9.62" stroke="currentColor" stroke-width="1.5" stroke-linecap="round" stroke-linejoin="round"/> </symbol> <symbol viewBox="0 0 32 32" id="base--plus-16" xmlns="http://www.w3.org/2000/svg"> <path fill="none" stroke-linejoin="round" stroke-linecap="round" stroke-width="3" stroke="currentColor" d="M5 16h22M16 5v22"/> </symbol> <symbol viewBox="0 0 32 32" id="base--plus-24" xmlns="http://www.w3.org/2000/svg"> <path fill="none" stroke-linejoin="round" stroke-linecap="round" stroke-width="2" stroke="currentColor" d="M5 16h22M16 5v22"/> </symbol> <symbol fill="none" viewBox="0 0 16 16" id="base--prohibit" xmlns="http://www.w3.org/2000/svg"> <g clip-path="url(#bia)" stroke="currentColor" stroke-width="1.5" stroke-linecap="round" stroke-linejoin="round"> <path d="M8 14A6 6 0 1 0 8 2a6 6 0 0 0 0 12ZM3.758 3.757l8.485 8.486"/> </g> <defs> <clipPath id="bia"> <path fill="currentColor" d="M0 0h16v16H0z"/> </clipPath> </defs> </symbol> <symbol fill="none" viewBox="0 0 16 16" id="base--prohibit-inset" xmlns="http://www.w3.org/2000/svg"> <g clip-path="url(#bha)" stroke="currentColor" stroke-width="1.5" stroke-linecap="round" stroke-linejoin="round"> <path d="M8 14A6 6 0 1 0 8 2a6 6 0 0 0 0 12ZM6.232 6.232l3.536 3.536"/> </g> <defs> <clipPath id="bha"> <path fill="currentColor" d="M0 0h16v16H0z"/> </clipPath> </defs> </symbol> <symbol fill="none" viewBox="0 0 16 16" id="base--question" xmlns="http://www.w3.org/2000/svg"> <g clip-path="url(#bja)" stroke="currentColor"> <path d="M8 14A6 6 0 1 0 8 2a6 6 0 0 0 0 12Z" stroke-width="1.5" stroke-linecap="round" stroke-linejoin="round"/> <path d="M8.688 11.375a.687.687 0 1 1-1.375 0 .687.687 0 0 1 1.375 0Z" fill="currentColor" stroke-width=".125"/> <path d="M8 9v-.5a1.75 1.75 0 1 0-1.75-1.75" stroke-width="1.5" stroke-linecap="round" stroke-linejoin="round"/> </g> <defs> <clipPath id="bja"> <path fill="currentColor" d="M0 0h16v16H0z"/> </clipPath> </defs> </symbol> <symbol fill="none" viewBox="0 0 16 16" id="base--shield-check" xmlns="http://www.w3.org/2000/svg"> <path d="M2.5 7.167V3.5A.5.5 0 0 1 3 3h10a.5.5 0 0 1 .5.5v3.667c0 5.25-4.457 6.99-5.346 7.285a.47.47 0 0 1-.308 0c-.89-.295-5.346-2.034-5.346-7.285Z" stroke="currentColor" stroke-width="1.5" stroke-linecap="round" stroke-linejoin="round"/> <path d="M10.75 6.5 7.083 10 5.25 8.25" stroke="currentColor" stroke-width="1.5" stroke-linecap="round" stroke-linejoin="round"/> </symbol> <symbol fill="none" viewBox="0 0 16 16" id="base--siren-16" xmlns="http://www.w3.org/2000/svg"> <path fill-rule="evenodd" clip-rule="evenodd" d="M8.75 1a.75.75 0 0 0-1.5 0v2.333a.75.75 0 1 0 1.5 0V1ZM6.988 4.25a2.75 2.75 0 0 0-2.701 2.235l-.908 4.765h-.03a1.583 1.583 0 1 0 0 3.167h9.301a1.583 1.583 0 0 0 0-3.167h-.03l-.907-4.765A2.75 2.75 0 0 0 9.012 4.25H6.988Zm5.662 8.5h-9.3a.083.083 0 1 0 0 .167h9.3a.083.083 0 0 0 0-.167Zm-1.556-1.5-.854-4.484A1.25 1.25 0 0 0 9.012 5.75H6.988c-.6 0-1.115.427-1.227 1.016l-.855 4.484h6.188ZM8 6.583a.75.75 0 0 1 .75.75v3.3h-1.5v-3.3a.75.75 0 0 1 .75-.75Zm4.25 1.584a.75.75 0 0 1 .75-.75h2.25a.75.75 0 0 1 0 1.5H13a.75.75 0 0 1-.75-.75Zm1.947-4.97a.75.75 0 1 0-1.06-1.06L11.47 3.802a.75.75 0 0 0 1.06 1.06l1.667-1.666ZM1.803 2.137a.75.75 0 0 0 0 1.06L3.47 4.864a.75.75 0 1 0 1.06-1.061L2.864 2.136a.75.75 0 0 0-1.061 0ZM.75 7.416a.75.75 0 1 0 0 1.5H3a.75.75 0 0 0 0-1.5H.75Z" fill="currentColor"/> </symbol> <symbol fill="none" viewBox="0 0 16 16" id="base--squares-four" xmlns="http://www.w3.org/2000/svg"> <g clip-path="url(#bma)" stroke="currentColor" stroke-width="1.5" stroke-linecap="round" stroke-linejoin="round"> <path d="M7 3H3v4h4V3Zm6 0H9v4h4V3ZM7 9H3v4h4V9Zm6 0H9v4h4V9Z"/> </g> <defs> <clipPath id="bma"> <path fill="currentColor" d="M0 0h16v16H0z"/> </clipPath> </defs> </symbol> <symbol fill="none" viewBox="0 0 16 16" id="base--stack" xmlns="http://www.w3.org/2000/svg"> <g clip-path="url(#bna)" stroke="currentColor" stroke-width="1.5" stroke-linecap="round" stroke-linejoin="round"> <path d="m2 11 6 3.5 6-3.5"/> <path d="m2 8 6 3.5L14 8"/> <path d="m2 5 6 3.5L14 5 8 1.5 2 5Z"/> </g> <defs> <clipPath id="bna"> <path fill="currentColor" d="M0 0h16v16H0z"/> </clipPath> </defs> </symbol> <symbol fill="none" viewBox="0 0 16 16" id="base--textbox" xmlns="http://www.w3.org/2000/svg"> <path d="M9 4.5h5.5a.5.5 0 0 1 .5.5v6a.5.5 0 0 1-.5.5H9m-2 0H1.5A.5.5 0 0 1 1 11V5a.5.5 0 0 1 .5-.5H7M7 3v10" stroke="currentColor" stroke-width="1.5" stroke-linecap="round" stroke-linejoin="round"/> <path d="M3.125 7h1.75" stroke="currentColor" stroke-width="1.5" stroke-linecap="round" stroke-linejoin="round"/> <path d="M4 7v2.25" stroke="currentColor" stroke-width="1.5" stroke-linecap="round" stroke-linejoin="round"/> </symbol> <symbol fill="none" viewBox="0 0 16 16" id="base--user-16" xmlns="http://www.w3.org/2000/svg"> <g clip-path="url(#bpa)" stroke="currentColor" stroke-width="1.5" stroke-linecap="round" stroke-linejoin="round"> <path d="M8 8.666a2 2 0 1 0 0-4 2 2 0 0 0 0 4Z"/> <path d="M8 2c4.8 0 6 1.2 6 6s-1.2 6-6 6-6-1.2-6-6 1.2-6 6-6Z"/> <path d="M4 13.367v-.034a2.667 2.667 0 0 1 2.667-2.667h2.666A2.667 2.667 0 0 1 12 13.333v.034"/> </g> <defs> <clipPath id="bpa"> <path fill="currentColor" d="M0 0h16v16H0z"/> </clipPath> </defs> </symbol> <symbol fill="none" viewBox="0 0 16 16" id="base--users" xmlns="http://www.w3.org/2000/svg"> <path d="M5.5 10a3.25 3.25 0 1 0 0-6.5 3.25 3.25 0 0 0 0 6.5Zm4.213-6.379A3.25 3.25 0 1 1 10.595 10" stroke="currentColor" stroke-width="1.5" stroke-linecap="round" stroke-linejoin="round"/> <path d="M1 12.337a5.501 5.501 0 0 1 9 0M10.594 10a5.493 5.493 0 0 1 4.5 2.337" stroke="currentColor" stroke-width="1.5" stroke-linecap="round" stroke-linejoin="round"/> </symbol> <symbol fill="none" viewBox="0 0 16 16" id="base--wifi-slash" xmlns="http://www.w3.org/2000/svg"> <g clip-path="url(#bra)"> <path d="M6.693 3.594c.433-.063.87-.095 1.307-.094a9.1 9.1 0 0 1 6.43 2.638M1.568 6.137a9.106 9.106 0 0 1 2.957-1.956m4.981 2.507a6.094 6.094 0 0 1 2.806 1.568m-8.624 0A6.144 6.144 0 0 1 6.75 6.625m-.943 3.756a3.181 3.181 0 0 1 4.225-.15" stroke="currentColor" stroke-width="1.5" stroke-linecap="round" stroke-linejoin="round"/> <path d="M8 13.5A.75.75 0 1 0 8 12a.75.75 0 0 0 0 1.5Z" fill="currentColor"/> <path d="m3 2.5 10 11" stroke="currentColor" stroke-width="1.5" stroke-linecap="round" stroke-linejoin="round"/> </g> <defs> <clipPath id="bra"> <path fill="currentColor" d="M0 0h16v16H0z"/> </clipPath> </defs> </symbol> <symbol fill="none" viewBox="0 0 16 16" id="base--x-close-cross-16" xmlns="http://www.w3.org/2000/svg"> <g clip-path="url(#bsa)" stroke="currentColor" stroke-width="1.5" stroke-linecap="round" stroke-linejoin="round"> <path d="m12.5 3.5-9 9M12.5 12.5l-9-9"/> </g> <defs> <clipPath id="bsa"> <path fill="currentColor" d="M0 0h16v16H0z"/> </clipPath> </defs> </symbol> <symbol fill="none" viewBox="0 0 24 24" id="base--x-close-cross-24" xmlns="http://www.w3.org/2000/svg"> <path d="m18.75 5.25-13.5 13.5M18.75 18.75 5.25 5.25" stroke="currentColor" stroke-width="1.5" stroke-linecap="round" stroke-linejoin="round"/> </symbol> <symbol fill="none" viewBox="0 0 16 16" id="base--youtube-logo" xmlns="http://www.w3.org/2000/svg"> <path d="M10 8 7 6v4l3-2Z" stroke="currentColor" stroke-width="1.5" stroke-linecap="round" stroke-linejoin="round"/> <path d="M1.5 8c0 1.862.194 2.95.337 3.512a1.006 1.006 0 0 0 .6.682c2.094.8 5.563.78 5.563.78s3.469.02 5.563-.78a1.006 1.006 0 0 0 .6-.682c.143-.562.337-1.65.337-3.512 0-1.863-.194-2.95-.338-3.513a1.006 1.006 0 0 0-.6-.68C11.47 3.006 8 3.024 8 3.024s-3.469-.019-5.563.781a1.006 1.006 0 0 0-.6.681C1.694 5.05 1.5 6.137 1.5 8Z" stroke="currentColor" stroke-width="1.5" stroke-linecap="round" stroke-linejoin="round"/> </symbol> <symbol fill="none" viewBox="0 0 56 56" id="platforms--android" xmlns="http://www.w3.org/2000/svg"> <path d="M40.831 21.002H17.5c-.644 0-1.166.523-1.166 1.167v18.665a5.843 5.843 0 0 0 4.666 5.717v5.95c0 1.929 1.57 3.5 3.5 3.5s3.5-1.571 3.5-3.5v-5.834h2.333v5.834c0 1.929 1.57 3.5 3.5 3.5s3.5-1.571 3.5-3.5v-5.95a5.841 5.841 0 0 0 4.666-5.717V22.17c0-.646-.523-1.167-1.167-1.167ZM35.271 6.217l1.967-4.59a1.165 1.165 0 0 0-.614-1.53 1.163 1.163 0 0 0-1.53.614l-1.967 4.591a12.78 12.78 0 0 0-3.96-.632 12.78 12.78 0 0 0-3.959.632L23.237.711a1.16 1.16 0 0 0-1.531-.614c-.593.254-.866.94-.611 1.53l1.967 4.59c-4.006 2.175-6.73 6.419-6.73 11.286 0 .644.523 1.166 1.167 1.166h23.332c.644 0 1.167-.522 1.167-1.166 0-4.867-2.723-9.111-6.727-11.286ZM24.5 14.003a1.167 1.167 0 1 1 0-2.334 1.167 1.167 0 0 1 0 2.334Zm9.333 0a1.167 1.167 0 1 1 0-2.334 1.167 1.167 0 0 1 0 2.334ZM47.83 21.002c-1.929 0-3.499 1.57-3.499 3.5v11.666c0 1.93 1.57 3.5 3.5 3.5s3.5-1.57 3.5-3.5V24.502c0-1.93-1.57-3.5-3.5-3.5ZM10.5 21.002c-1.93 0-3.5 1.57-3.5 3.5v11.666c0 1.93 1.57 3.5 3.5 3.5s3.5-1.57 3.5-3.5V24.502c0-1.93-1.57-3.5-3.5-3.5Z" fill="currentColor"/> </symbol> <symbol fill="none" viewBox="0 0 56 56" id="platforms--android_tv" xmlns="http://www.w3.org/2000/svg"> <path fill-rule="evenodd" clip-rule="evenodd" d="M52.719 3.5H3.28A3.285 3.285 0 0 0 0 6.781v32.594a3.285 3.285 0 0 0 3.281 3.281H52.72A3.285 3.285 0 0 0 56 39.375V6.781A3.285 3.285 0 0 0 52.719 3.5ZM37.108 21.595l3.097-5.467a.648.648 0 0 0-.228-.874.615.615 0 0 0-.853.232l-3.138 5.537c-2.394-1.114-5.088-1.735-7.986-1.735-2.898 0-5.592.62-7.986 1.735l-3.138-5.537a.62.62 0 0 0-.857-.232.644.644 0 0 0-.228.874l3.097 5.466c-5.34 2.95-8.957 8.458-9.555 14.906h37.334c-.598-6.448-4.215-11.957-9.56-14.905Zm-17.68 9.562c-.865 0-1.564-.716-1.564-1.594 0-.882.703-1.595 1.565-1.595.865 0 1.564.717 1.564 1.595a1.578 1.578 0 0 1-1.564 1.594Zm17.14 0c-.866 0-1.566-.716-1.566-1.594 0-.882.704-1.595 1.565-1.595.866 0 1.565.717 1.565 1.595a1.578 1.578 0 0 1-1.565 1.594ZM33.14 47.25H45.5a1.641 1.641 0 0 1 0 3.281h-35a1.641 1.641 0 0 1 0-3.281h12.36v-3.033h10.28v3.033Z" fill="currentColor"/> </symbol> <symbol fill="none" viewBox="0 0 56 56" id="platforms--android_tv_alt" xmlns="http://www.w3.org/2000/svg"> <path fill-rule="evenodd" clip-rule="evenodd" d="M52.182 7H3.818C1.655 7 0 8.655 0 10.818v29.273c0 2.163 1.655 3.818 3.818 3.818h48.364c2.138 0 3.818-1.654 3.818-3.818V10.818C56 8.655 54.32 7 52.182 7Zm-37.8 42h26.982c.763 0 1.527-.51 1.527-1.273 0-.763-.51-1.272-1.273-1.272H14.382c-.764 0-1.273.509-1.273 1.272 0 .764.51 1.273 1.273 1.273Zm25.823-29.372-3.097 5.466c5.344 2.95 8.961 8.458 9.559 14.906H9.333c.598-6.448 4.215-11.957 9.555-14.905l-3.097-5.467a.644.644 0 0 1 .228-.874.62.62 0 0 1 .857.232l3.138 5.537c2.394-1.114 5.088-1.735 7.986-1.735 2.898 0 5.592.62 7.986 1.735l3.138-5.537a.615.615 0 0 1 .853-.232.648.648 0 0 1 .228.874ZM17.864 33.063c0 .878.699 1.594 1.565 1.594.865 0 1.568-.716 1.564-1.594 0-.878-.699-1.595-1.564-1.595-.862 0-1.565.713-1.565 1.595Zm17.138 0c0 .878.7 1.594 1.565 1.594.866 0 1.569-.716 1.565-1.594 0-.878-.7-1.595-1.565-1.595-.861 0-1.565.713-1.565 1.595Z" fill="currentColor"/> </symbol> <symbol fill="none" viewBox="0 0 56 56" id="platforms--apple" xmlns="http://www.w3.org/2000/svg"> <path d="M19.895 56c-8.334-.048-15.228-17.062-15.228-25.726 0-14.154 10.617-17.252 14.71-17.252 1.843 0 3.812.724 5.55 1.365 1.214.447 2.47.908 3.168.908.419 0 1.404-.392 2.274-.737 1.855-.738 4.164-1.656 6.852-1.656h.016c2.008 0 8.094.44 11.754 5.936l.857 1.288-1.234.93c-1.762 1.33-4.978 3.756-4.978 8.561 0 5.69 3.642 7.88 5.392 8.932.772.465 1.571.944 1.571 1.992 0 .684-5.46 15.374-13.389 15.374-1.94 0-3.312-.583-4.521-1.097-1.224-.521-2.28-.97-4.025-.97-.885 0-2.003.418-3.187.862-1.618.604-3.45 1.29-5.527 1.29h-.055ZM38.06 0c.207 7.446-5.117 12.611-10.436 12.287C26.747 6.345 32.942 0 38.06 0Z" fill="currentColor"/> </symbol> <symbol fill="none" viewBox="0 0 56 57" id="platforms--apple_tv" xmlns="http://www.w3.org/2000/svg"> <path d="M55.995 17.524v-2.006c0-.564-.01-1.127-.025-1.69a24.569 24.569 0 0 0-.323-3.675 12.413 12.413 0 0 0-1.152-3.501 11.762 11.762 0 0 0-5.15-5.141 12.41 12.41 0 0 0-3.5-1.152A24.55 24.55 0 0 0 42.17.035 68.048 68.048 0 0 0 40.48.01H15.502c-.563 0-1.127.011-1.688.025a24.55 24.55 0 0 0-3.675.324 12.405 12.405 0 0 0-3.5 1.152A11.762 11.762 0 0 0 1.5 6.657a12.42 12.42 0 0 0-1.152 3.501 24.57 24.57 0 0 0-.323 3.676A68.114 68.114 0 0 0 0 15.525v25.079c0 .526.01 1.061.025 1.593.014 1.23.121 2.457.32 3.671a12.412 12.412 0 0 0 1.151 3.501 11.761 11.761 0 0 0 5.149 5.141c1.103.556 2.282.944 3.5 1.152 1.215.2 2.443.308 3.675.324a68.55 68.55 0 0 0 1.69.025h24.985c.564 0 1.127-.011 1.689-.025a24.542 24.542 0 0 0 3.675-.324 12.4 12.4 0 0 0 3.5-1.152 11.761 11.761 0 0 0 5.13-5.14 12.43 12.43 0 0 0 1.152-3.502c.2-1.215.308-2.444.324-3.676.016-.564.023-1.127.024-1.69v-2.009l.006-20.969Zm-38.747.655a4.499 4.499 0 0 1 2.975-1.544 4.538 4.538 0 0 1-1.05 3.235 3.756 3.756 0 0 1-3.008 1.418 4.252 4.252 0 0 1 1.083-3.11Zm5.796 16.136c-.843 1.241-1.712 2.45-3.1 2.482-1.338.025-1.784-.795-3.324-.795-1.54 0-2.034.77-3.299.82-1.339.049-2.355-1.317-3.197-2.556-1.736-2.507-3.05-7.072-1.266-10.153a4.901 4.901 0 0 1 4.165-2.531c1.315-.025 2.53.875 3.326.875.796 0 2.206-1.05 3.867-.944a4.751 4.751 0 0 1 3.694 2.01 4.594 4.594 0 0 0-2.182 3.851 4.506 4.506 0 0 0 2.702 4.095c-.323 1.01-.79 1.969-1.386 2.846Zm10.463-9.561h-2.712v7.928c0 1.225.539 1.792 1.725 1.792.325-.005.65-.028.971-.068v2.239a9.334 9.334 0 0 1-1.604.12c-2.8 0-3.892-1.074-3.892-3.798v-8.211h-2.076V22.53h2.076v-3.372h2.8v3.372h2.712v2.223Zm9.483 11.903h-2.974L35.01 22.531h2.959l3.51 11.352h.067l3.51-11.352h2.909L42.99 36.657Z" fill="currentColor"/> </symbol> <symbol fill="none" viewBox="0 0 56 56" id="platforms--bing" xmlns="http://www.w3.org/2000/svg"> <path d="M18.799 39.051c5.374-2.876 10.698-5.71 16.092-8.597a803.703 803.703 0 0 0-4.16-1.914c-1.04-.475-2.07-.941-3.11-1.417a.967.967 0 0 1-.531-.517c-1.601-3.538-3.212-7.066-4.814-10.594-.05-.103-.081-.217-.152-.413 1.172.362 2.274.703 3.365 1.044l13.767 4.283c2.641.818 5.283 1.656 7.934 2.452.367.114.449.29.449.652-.01 3.9-.01 7.79 0 11.69 0 .331-.092.507-.377.683-9.066 5.462-18.132 10.945-27.198 16.428-.408.248-.826.476-1.224.745-.204.145-.347.103-.53-.031L7.264 45.693c-.183-.135-.265-.28-.255-.518.01-.693 0-1.375 0-2.069 0-10.51.01-21.031.01-31.542 0-2.928 0-5.866-.02-8.793 0-.455.102-.507.51-.373C11.1 3.65 14.7 4.891 18.3 6.123c.305.103.366.279.366.569 0 2.12 0 4.241.01 6.362.042 8.493.082 16.997.123 25.49v.507Z" fill="currentColor"/> </symbol> <symbol fill="none" viewBox="0 0 56 56" id="platforms--chrome" xmlns="http://www.w3.org/2000/svg"> <path d="M28 37.297a9.297 9.297 0 1 0 0-18.594 9.297 9.297 0 0 0 0 18.594Z" fill="currentColor"/> <path d="M15.713 25.31c1.235-5.647 6.274-9.888 12.287-9.888h25.032A28.061 28.061 0 0 0 47.799 8.2C42.511 2.913 35.48 0 28 0 20.521 0 13.49 2.913 8.201 8.2a28.545 28.545 0 0 0-1.459 1.574l8.97 15.537Z" fill="currentColor"/> <path d="M31.815 39.986a12.533 12.533 0 0 1-3.815.592c-4.672 0-8.757-2.56-10.926-6.353a1.586 1.586 0 0 1-.046-.072L4.595 12.618C1.605 17.146 0 22.449 0 28c0 7.48 2.913 14.51 8.2 19.8 4.053 4.05 9.128 6.706 14.643 7.727l8.972-15.54Z" fill="currentColor"/> <path d="M36.463 18.703A12.548 12.548 0 0 1 40.578 28c0 2.314-.629 4.484-1.724 6.349-.01.021-.02.043-.033.064l-12.435 21.54c.535.03 1.073.047 1.614.047 7.479 0 14.51-2.913 19.799-8.2C53.087 42.51 56 35.48 56 28c0-3.216-.54-6.35-1.575-9.297H36.463Z" fill="currentColor"/> </symbol> <symbol fill="none" viewBox="0 0 56 56" id="platforms--duckduck" xmlns="http://www.w3.org/2000/svg"> <path fill-rule="evenodd" clip-rule="evenodd" d="M56 28c0 15.464-12.536 28-28 28S0 43.464 0 28 12.536 0 28 0s28 12.536 28 28Zm-4.293-10.033A25.727 25.727 0 0 0 46.2 9.8c-2.38-2.38-5.133-4.2-8.167-5.507C34.86 2.94 31.5 2.287 28 2.287c-3.5 0-6.86.7-10.033 2.006A25.728 25.728 0 0 0 9.8 9.8c-2.38 2.38-4.2 5.133-5.507 8.167C2.94 21.14 2.287 24.5 2.287 28c0 3.453.7 6.86 2.006 10.033A25.728 25.728 0 0 0 9.8 46.2c2.38 2.38 5.133 4.2 8.167 5.507C21.14 53.06 24.5 53.713 28 53.713c3.5 0 6.86-.7 10.033-2.006A25.73 25.73 0 0 0 46.2 46.2c2.38-2.38 4.2-5.133 5.507-8.167C53.06 34.86 53.713 31.5 53.713 28c0-3.5-.653-6.86-2.006-10.033Zm-21.83 25.64c-.955-2.431-1.69-5.036-1.69-7.3 0-.762.032-1.435.093-2.029 2.316 1.639 6.66 2.589 9.52 2.589 4.06 0 7.607-2.52 6.627-3.22-.596-.422-1.92-.144-3.596.209-1.475.31-3.223.677-4.991.677-2.52 0-4.807-1.026-4.807-2.146 0-1.307.747-1.634 3.92-1.354 3.314.327 11.9-3.546 11.9-4.573 0-.7-.98-1.307-2.52-1.353-.57-.018-1.808.373-3.36.863-1.47.464-3.224 1.017-4.956 1.396.156-.616.243-1.4.243-2.4 0-2.286-1.12-10.313-8.12-11.993-1.727-2.286-5.787-4.48-12.227-3.593 0 0 1.074.327 2.287.933 0 0-2.333.327-2.427 1.914 0 0 4.62-.234 7.234.606-6.02.794-9.147 3.92-8.587 9.707.793 8.167 4.247 22.727 5.46 27.813-9.147-3.313-15.727-12.086-15.727-22.4 0-13.113 10.64-23.8 23.8-23.8s23.8 10.64 23.8 23.8C51.753 39.2 44.007 48.58 33.6 51.1a60.417 60.417 0 0 1-1.633-2.94c-.747.42-2.567.653-3.547.42-.78-.106-.752-.724-.694-2.018.02-.409.04-.886.04-1.435 0-.187.187-.374.42-.514 0 .52-.016.972-.03 1.362-.05 1.33-.073 1.947.684 2.092.792.198 2.154.093 2.976-.2l-.002-.005a1.708 1.708 0 0 0 .387-.169l-.003.01c.034-.019.066-.037.095-.056.094-.047.14-.14.187-.234 1.447.56 4.573 1.68 5.227 1.447.84-.233.653-7.28-.327-7.513-.793-.187-3.873 2.006-5.04 2.846-.047-.233-.093-.42-.14-.513-.087-.29-1.27-.292-2.323-.073Zm4.283-24.8c-1.12-1.447-3.127-1.494-3.827.186 1.074-.84 2.38-1.026 3.827-.186Zm-12.507.046c-1.54-.933-4.106-1.026-3.966 1.914.793-1.82 1.82-2.147 3.966-1.914ZM31.687 23.1c0-.84.7-1.54 1.54-1.54.84 0 1.54.7 1.54 1.54 0 .84-.7 1.54-1.54 1.54-.84 0-1.54-.7-1.54-1.54Zm-12.18 1.073a1.772 1.772 0 1 1 3.546 0 1.773 1.773 0 1 1-3.546 0Zm14.28-1.213a.468.468 0 0 1 0-.933c.28 0 .466.186.466.466-.046.28-.233.467-.466.467Zm-11.854 1.073a.518.518 0 0 1-.513-.513c0-.28.233-.513.513-.513s.514.233.514.513-.234.513-.514.513Z" fill="currentColor"/> </symbol> <symbol fill="none" viewBox="0 0 56 56" id="platforms--edge" xmlns="http://www.w3.org/2000/svg"> <path d="M53.517 14.28C48.881 5.213 38.872 0 27.99 0 14.565 0 3.322 9.447.607 22.09c2.936-5.249 9.738-8.935 16.88-8.935 8.954 0 13.678 5.524 13.809 5.665 2.485 2.687 3.727 5.69 3.727 9.382 0 1.174-.6 2.915-1.707 4.355-.177.225-.721.546-.721 1.241 0 .572.371 1.12 1.032 1.581 3.147 2.187 9.078 1.898 9.093 1.898a13.037 13.037 0 0 0 6.62-1.827A13.428 13.428 0 0 0 56 23.885c.056-4.903-1.751-8.163-2.482-9.606Zm-30.4 38.52a17.49 17.49 0 0 1-5.268-5.081c-3.72-5.354-3.867-10.793-2.27-15.354a17.556 17.556 0 0 1 6.435-8.91c6.664-5.103 10.712-.638 11.188-.113a9.03 9.03 0 0 0-.552-1.145c-1.044-1.798-2.71-4.11-6.388-6.041-3.809-1.997-7.973-2.099-8.77-2.099-4.372 0-8.798 1.468-12.145 4.03C3.115 19.79.527 22.66.057 26.53c-.122 1.39-.311 7.09 2.597 13.353a28.004 28.004 0 0 0 11.487 12.439 28.022 28.022 0 0 0 16.558 3.548c-4.305-.747-7.437-3.007-7.582-3.072Zm28.319-11.102a.876.876 0 0 0-.895-.026c-.746.39-1.516.734-2.305 1.03a22.32 22.32 0 0 1-7.856 1.413c-10.354 0-19.373-7.12-19.373-16.257a6.898 6.898 0 0 1 .737-3.02 19.051 19.051 0 0 0-4.378 5.645c-1.685 3.315-3.727 9.95 1.505 17.122.736 1.006 2.598 3.387 6.326 5.382 2.662 1.428 5.534 2.214 8.098 2.214 3.969 0 13.038-3.776 18.41-12.291a.875.875 0 0 0-.27-1.212Z" fill="currentColor"/> </symbol> <symbol fill="none" viewBox="0 0 56 56" id="platforms--fb" xmlns="http://www.w3.org/2000/svg"> <path d="M56 28C56 12.536 43.464 0 28 0S0 12.536 0 28c0 13.975 10.24 25.56 23.625 27.66V36.094h-7.11V28h7.11v-6.169c0-7.017 4.18-10.893 10.576-10.893 3.064 0 6.268.546 6.268.546v6.891h-3.53c-3.479 0-4.564 2.159-4.564 4.373V28h7.766l-1.242 8.094h-6.524V55.66C45.761 53.56 56 41.975 56 28Z" fill="currentColor"/> </symbol> <symbol fill="none" viewBox="0 0 56 56" id="platforms--finder" xmlns="http://www.w3.org/2000/svg"> <path fill-rule="evenodd" clip-rule="evenodd" d="M33.213 39.877c5.395-.52 10.128-1.94 13.015-3.786l1.704 2.177c-3.976 2.32-9.134 3.834-14.719 4.402.213 4.516 1.232 8.994 3.228 13.33h8.578C51.084 56 56 51.084 56 45.02V10.98C56 4.916 51.085 0 45.02 0h-7.657c-7.477 8.819-11.596 19.058-12.857 30.08h10.176c-.853 3.313-1.373 6.58-1.468 9.797Zm4.543-27.307h2.888v6.673h-2.888V12.57Z" fill="currentColor"/> <path fill-rule="evenodd" clip-rule="evenodd" d="M33.757 0H10.98C4.916 0 0 4.916 0 10.98v34.04C0 51.084 4.916 56 10.98 56h22.19c-1.873-3.992-2.79-8.552-2.938-13.257v.116c-7.288.284-15.145-1.088-21.77-4.401l1.372-2.177c6.435 3.028 13.817 4.07 20.396 3.786.067-2.336.311-4.687.712-7.005H21.05C22.186 20.092 26.867 8.934 33.757 0ZM16.602 12.57h-2.887v6.673h2.887V12.57Z" fill="currentColor"/> </symbol> <symbol fill="none" viewBox="0 0 56 56" id="platforms--fire_tv" xmlns="http://www.w3.org/2000/svg"> <path fill-rule="evenodd" clip-rule="evenodd" d="M45.302 38.67c-4.799 3.54-11.759 5.425-17.75 5.425-8.398 0-15.961-3.105-21.683-8.271-.448-.407-.048-.96.491-.646 6.175 3.594 13.81 5.757 21.696 5.757 5.32 0 11.166-1.104 16.55-3.386.811-.345 1.49.535.696 1.12Z" fill="currentColor"/> <path fill-rule="evenodd" clip-rule="evenodd" d="M47.3 36.39c-.613-.788-4.056-.374-5.605-.188-.468.055-.541-.354-.119-.65 2.747-1.931 7.25-1.374 7.771-.726.53.65-.137 5.164-2.71 7.318-.397.332-.775.155-.598-.283.58-1.446 1.875-4.686 1.26-5.471ZM27.72 21.088c2.703 0 2.679 2.364 2.612 3.383H24.62c.104-1.773.96-3.383 3.1-3.383Zm4.329 4.954c.345 0 .389-1.135.404-1.613.13-3.439-1.685-5.108-4.637-5.108-1.628 0-3.132.588-4.072 1.725-.874 1.04-1.376 2.508-1.376 4.487 0 1.946.443 3.406 1.29 4.432.873 1.037 2.196 1.763 4.5 1.763.872 0 2.566-.186 3.627-.717.392-.144.396-.32.396-.69v-.639c0-.345-.15-.487-.524-.365-1.223.411-2.45.575-3.191.575-1.276 0-2.393-.37-3.008-1.1-.608-.789-.81-1.678-.86-2.75h7.45ZM4.463 19.674V17.4c0-1.82 1.825-1.588 2.986-1.44.517.1.712.013.712-.391v-.752c0-.376-.15-.509-.661-.646-2.858-.529-5.344.04-5.344 3.669v1.895l-1.672.195c-.354.03-.484.141-.484.498v.599c0 .325.14.455.453.455h1.703v9.428c0 .326.13.456.456.456h1.395c.326 0 .456-.13.456-.456v-9.428h3.092c.323 0 .453-.13.453-.455v-.896c0-.325-.148-.456-.453-.456H4.463ZM11.813 19.69h-1.37c-.325 0-.455.128-.455.453V30.91c0 .326.13.456.456.456h1.368c.326 0 .456-.13.456-.456V20.143c0-.26-.13-.453-.456-.453Zm-.69-4.866c-.803 0-1.418.542-1.418 1.403 0 .871.564 1.4 1.44 1.4.875 0 1.441-.54 1.441-1.4 0-.951-.599-1.402-1.463-1.402ZM51.132 31.365h-1.46c-.327 0-.506-.13-.637-.456L44.8 20.227c-.13-.325-.046-.537.296-.537h1.564c.314 0 .44.192.542.453l3.204 9.112 3.183-9.112c.144-.325.285-.453.61-.453h1.4c.39 0 .48.201.336.526l-4.24 10.693c-.114.261-.25.456-.563.456ZM37.748 28.37c0 2.719 1.873 3.168 3.229 3.168.727 0 1.315-.076 1.901-.2.717-.207.708-.329.708-.654v-.83c0-.325-.157-.426-.462-.356-.549.089-.911.153-1.455.175-1.504-.104-1.643-.586-1.643-2.052v-6.14h3.025c.323 0 .453-.13.453-.455v-.91c0-.326-.148-.455-.453-.455h-3.026v-2.806c0-.259-.128-.456-.455-.456h-.916c-.356 0-.533.13-.566.487l-.29 2.833-1.707.21c-.356.03-.486.208-.486.566v.53c0 .326.194.456.453.456h1.69v6.89ZM17.456 21.369l-.168-1.314c-.073-.323-.26-.367-.527-.367l-1.021.002c-.326 0-.456.128-.456.453V30.91c0 .326.13.456.455.456h1.363c.323 0 .453-.13.453-.456v-8.156c.89-.652 1.657-1.097 3.404-1.097.427.009 1.03.17 1.03-.287v-1.336c0-.299-.179-.465-.752-.465-1.441 0-2.408.365-3.781 1.8Z" fill="currentColor"/> </symbol> <symbol fill="none" viewBox="0 0 56 56" id="platforms--fire_tv_rectangle" xmlns="http://www.w3.org/2000/svg"> <path d="M23.826 20.541c.285-.788.892-1.335 1.751-1.492h.504c.782.002 1.424.53 1.732 1.193.173.372.235.614.295 1.013l.006.038c.019.11.056.326-.006.372-.04.03-.13.028-.186.027h-4.17c-.164-.006-.15-.094-.131-.213l.011-.086c.03-.331.08-.538.194-.852Z" fill="currentColor"/> <path fill-rule="evenodd" clip-rule="evenodd" d="M46 0H10C4.477 0 0 4.477 0 10v36c0 5.523 4.477 10 10 10h36c5.523 0 10-4.477 10-10V10c0-5.523-4.477-10-10-10ZM10.138 13.036A8.18 8.18 0 0 0 9.407 13c-.18 0-.352.01-.517.035-.28.022-.665.15-.913.274a2.495 2.495 0 0 0-.644.43c-.496.45-.764 1.055-.875 1.69l-.037.185-.028 1.29-.024.345.024.345v.184h-.409L5 17.801v1.29c.001.207.06.207.251.207h1.142v7.736l-.002.067c-.005.13-.013.348.057.393.04.025.112.024.164.024h1.461c.208 0 .24-.032.24-.23v-7.99h1.85c.236 0 .248-.035.33-.281a8.55 8.55 0 0 1 .037-.11l.377-1.109h-.337l-.288-.02H8.313v-1.52l.022-.276c.025-.338.077-.668.303-.944.328-.4.727-.417 1.212-.414.103 0 .259.016.36.033l.408.098.036.011c.056.018.133.043.177.03.078-.026.106-.168.124-.262.003-.018.006-.035.01-.049l.221-.829c.005-.018.01-.038.018-.06.026-.086.06-.193.005-.253-.041-.045-.154-.087-.227-.114l-.027-.01a4.96 4.96 0 0 0-.817-.183Zm4.318.809c-.252-.245-.602-.352-.951-.35-.05 0-.1.003-.15.007-.358.057-.662.196-.865.5-.15.226-.194.45-.19.714.006.593.42 1.048 1.032 1.13l.041.007c.089.012.142.02.247.007.25-.029.381-.054.6-.188.16-.097.351-.287.436-.45.223-.426.153-1.034-.2-1.377Zm6.51 3.703h-.08c-.822.007-1.475.251-2.128.748l-.744.633c0-.182-.085-.634-.125-.829a1.858 1.858 0 0 1-.008-.043c-.015-.079-.037-.205-.074-.239-.045-.042-.134-.04-.201-.04h-1.038c-.103-.003-.27-.006-.32.027-.062.04-.06.129-.06.198v.972l.017.207-.015.254v.645l.018.184-.018.161v.345l.02.346V27.11c-.003.128-.008.347.041.384.034.026.108.025.158.024h1.7c.032-.23.03-.463.026-.695l-.001-.203v-5.988c0-.054-.001-.111.024-.16.04-.077.39-.37.48-.442.427-.337.845-.628 1.392-.747l.24-.044h.236a1.835 1.835 0 0 1 .687.16c.072.031.175.075.23.023.038-.035.118-.245.156-.343l.013-.035.179-.414.158-.392.01-.021c.041-.093.136-.303.105-.366-.035-.074-.178-.125-.257-.154l-.004-.001a2.892 2.892 0 0 0-.816-.148Zm5.163.002h-.552l-.529.078a3.955 3.955 0 0 0-1.872.935c-1.06.95-1.535 2.529-1.537 3.89-.003 1.713.511 3.524 2.089 4.52.41.258.664.368 1.128.51.225.07.463.134.697.166l.192.014c.048.006.083.012.115.018.056.011.104.02.197.022h.264l.192.02.408-.021c.68-.007 1.824-.271 2.425-.574l.384-.192.01-.006c.046-.025.11-.06.13-.107.02-.052-.04-.175-.078-.253l-.02-.042-.332-.691a1.427 1.427 0 0 1-.021-.046c-.034-.074-.084-.181-.13-.204-.06-.03-.198.041-.29.089a5.806 5.806 0 0 1-.973.362c-.895.233-1.916.254-2.761-.16a2.897 2.897 0 0 1-1.516-1.883 3.328 3.328 0 0 1-.118-.668c0-.015-.003-.032-.005-.05-.008-.06-.017-.129.02-.166.04-.04.12-.038.18-.037h6.097c.207 0 .215-.008.216-.207v-.507l-.024-.437c-.005-.33-.08-.69-.153-1.013-.246-1.106-.799-2.16-1.816-2.791a4.152 4.152 0 0 0-2.017-.569Zm-11.645.284c-.032-.044-.149-.055-.253-.056-.056 0-.109.002-.143.004h-1.404l-.024.01c-.026.008-.045.015-.065.044-.033.045-.033.136-.032.198v.389l.024.3-.024.345v.805l.024.484v.553l-.024.437.024.345v.968l-.016.253.016.23v3.891l-.001.062c-.004.126-.011.36.04.398.033.026.107.025.158.024h1.508c.06 0 .137.002.178-.037.04-.039.039-.113.038-.17V17.988c0-.05.002-.118-.024-.154Zm17.322-.61c.08-.008.164-.01.263-.009l.058.001.045.001.066.002h9.256l.065.002c.133.006.249.03.378.103a.692.692 0 0 1 .187.16c.079.094.131.195.187.33.023.056.075.195.073.192l.498 1.236c.692 1.688 1.19 2.93 1.623 4.065l.745-1.873 1.07-2.665.6-1.55h3.58l-.7.928c.008-.01-.008.029-.032.091l-.064.163-.024.064c.01-.027-.15.41-.178.48l-3.494 8.254-.036.086-.057.14-.016.038-.018.04c-.093.21-.142.3-.274.405-.1.081-.214.13-.333.152a.915.915 0 0 1-.18.016H43.858a.784.784 0 0 1-.376-.103.711.711 0 0 1-.24-.226 1.49 1.49 0 0 1-.142-.271c-.025-.06-.08-.2-.077-.195l-.558-1.313-2.425-5.734-.22-.378h-2.724v8.22H34.06v-8.22h-2.953V18.03l-.001-.044.002-.068a.685.685 0 0 1 .215-.494c.15-.144.285-.18.484-.2Zm13.997 19.708c-4.942 3.81-12.108 5.837-18.277 5.837-8.647 0-16.434-3.34-22.326-8.898-.463-.437-.05-1.032.506-.695 6.357 3.866 14.22 6.193 22.34 6.193 5.477 0 11.497-1.188 17.038-3.643.836-.37 1.536.575.718 1.206Zm2.397-2.678c-.638-.817-4.212-.388-5.817-.194-.487.058-.562-.369-.124-.677 2.852-2.007 7.524-1.427 8.067-.755.547.677-.144 5.371-2.816 7.61-.411.345-.802.162-.62-.294.602-1.504 1.948-4.873 1.31-5.69Z" fill="currentColor"/> </symbol> <symbol fill="none" viewBox="0 0 56 56" id="platforms--firefox" xmlns="http://www.w3.org/2000/svg"> <path d="M19.683 17.003c.02 0 .01 0 0 0Zm-6.535-3.268c.02 0 .009 0 0 0Zm39.091 5.044c-1.178-2.835-3.571-5.89-5.441-6.866 1.529 2.99 2.412 6.001 2.743 8.237l.009.048c-3.074-7.65-8.273-10.733-12.526-17.445-.213-.339-.425-.68-.637-1.039-.111-.184-.203-.367-.304-.564a4.903 4.903 0 0 1-.395-1.076c0-.035-.027-.063-.064-.072h-.055L35.56.01c-.009 0-.02.008-.02.008s0-.008.01-.019c-6.039 3.534-8.533 9.729-9.178 13.659a14.683 14.683 0 0 0-5.374 1.371.7.7 0 0 0 .029 1.267.684.684 0 0 0 .55-.007 13.079 13.079 0 0 1 4.686-1.214l.157-.02c.221-.008.45-.019.672-.019a13.609 13.609 0 0 1 3.893.543l.22.065c.213.064.416.136.628.212.147.055.304.112.45.175.12.044.241.101.36.147.185.085.369.177.553.269l.247.118c.184.094.36.193.535.295.112.066.221.13.331.203a13.826 13.826 0 0 1 4.742 4.906c-1.444-1.01-4.042-2.023-6.534-1.581 9.755 4.877 7.133 21.675-6.389 21.038a11.735 11.735 0 0 1-4.326-1.003 22.45 22.45 0 0 1-.46-.22c-3.314-1.712-6.048-4.953-6.388-8.883 0 0 1.252-4.666 8.964-4.666.84 0 3.223-2.33 3.267-3.002-.02-.221-4.741-2.098-6.58-3.911-.985-.967-1.445-1.435-1.86-1.787a6.62 6.62 0 0 0-.709-.532 12.574 12.574 0 0 1-.072-6.629c-2.79 1.27-4.954 3.278-6.526 5.046h-.016c-1.077-1.363-.995-5.855-.94-6.794-.01-.063-.801.405-.904.48-.947.68-1.84 1.436-2.65 2.274a23.8 23.8 0 0 0-2.54 3.038 22.887 22.887 0 0 0-3.635 8.209c-.18.828-.327 1.663-.44 2.504-.036.21-.067.422-.092.634a17.2 17.2 0 0 0-.157 1.557l-.01.083c-.015.304-.035.6-.054.903v.136C0 43.85 12.15 56 27.136 56c13.418 0 24.564-9.748 26.747-22.543.048-.348.083-.698.12-1.048.543-4.65-.055-9.545-1.758-13.63h-.006Z" fill="currentColor"/> </symbol> <symbol fill="none" viewBox="0 0 56 56" id="platforms--g" xmlns="http://www.w3.org/2000/svg"> <path d="M55.405 28.63a32.44 32.44 0 0 0-.443-5.297H28.595v10.524h15.097c-.677 3.453-2.66 6.37-5.6 8.353v7h9.006c5.274-4.877 8.307-12.063 8.307-20.58Z" fill="currentColor"/> <path d="M28.595 56c7.56 0 13.883-2.52 18.503-6.79l-9.006-7c-2.52 1.68-5.717 2.707-9.497 2.707-7.303 0-13.487-4.924-15.703-11.574H3.605v7.21C8.202 49.7 17.652 56 28.595 56Z" fill="currentColor"/> <path d="M12.892 33.343A16.246 16.246 0 0 1 12.005 28c0-1.867.327-3.663.887-5.343v-7.21H3.605a27.675 27.675 0 0 0 0 25.106l9.287-7.21Z" fill="currentColor"/> <path d="M28.595 11.083c4.13 0 7.817 1.424 10.733 4.2l7.98-7.98C42.478 2.777 36.155 0 28.595 0 17.652 0 8.202 6.3 3.605 15.447l9.287 7.21c2.216-6.65 8.4-11.574 15.703-11.574Z" fill="currentColor"/> </symbol> <symbol fill="none" viewBox="0 0 56 56" id="platforms--imgur" xmlns="http://www.w3.org/2000/svg"> <path d="M28.198 17.218c4.19 0 6.167 2.629 6.167 8.099V47.83c0 5.47-1.896 8.169-6.167 8.169-4.27 0-6.249-2.7-6.249-8.169V25.317c0-5.47 1.978-8.099 6.249-8.099ZM28.197 12.927c-4.034 0-7.197-2.841-7.197-6.463C21 2.912 24.243 0 28.197 0s7.118 2.912 7.118 6.464c0 3.622-3.164 6.463-7.118 6.463Z" fill="currentColor"/> </symbol> <symbol fill="none" viewBox="0 0 56 56" id="platforms--instagram" xmlns="http://www.w3.org/2000/svg"> <path d="M27.999 5.045c7.476 0 8.361.029 11.314.163 2.73.125 4.212.58 5.2.964 1.306.508 2.239 1.114 3.22 2.094.98.98 1.586 1.912 2.093 3.22.383.986.84 2.469.964 5.199.134 2.952.163 3.837.163 11.314 0 7.476-.029 8.361-.163 11.314-.125 2.73-.58 4.212-.964 5.2-.508 1.306-1.115 2.239-2.094 3.22-.98.98-1.913 1.586-3.22 2.093-.987.383-2.47.84-5.199.964-2.952.134-3.838.163-11.314.163-7.477 0-8.362-.029-11.314-.163-2.73-.125-4.213-.58-5.2-.964-1.307-.508-2.24-1.115-3.22-2.094-.98-.98-1.586-1.913-2.093-3.22-.384-.987-.84-2.47-.964-5.199-.134-2.952-.163-3.838-.163-11.314 0-7.477.029-8.361.163-11.314.125-2.73.58-4.213.964-5.2.508-1.307 1.114-2.24 2.094-3.22.98-.98 1.912-1.586 3.22-2.093.986-.384 2.469-.84 5.199-.964 2.953-.134 3.837-.163 11.314-.163Zm0-5.045c-7.604 0-8.558.032-11.544.169-2.98.136-5.015.609-6.797 1.301C7.817 2.186 6.255 3.143 4.7 4.7 3.143 6.256 2.185 7.818 1.47 9.658.778 11.44.305 13.475.17 16.455.032 19.44 0 20.395 0 27.999c0 7.604.032 8.558.169 11.544.136 2.98.609 5.015 1.301 6.797.716 1.841 1.673 3.403 3.23 4.959 1.557 1.557 3.118 2.514 4.96 3.23 1.78.692 3.816 1.165 6.796 1.301 2.986.137 3.94.169 11.544.169 7.604 0 8.558-.032 11.544-.169 2.98-.136 5.016-.61 6.797-1.301 1.841-.716 3.403-1.673 4.959-3.23 1.557-1.557 2.514-3.118 3.23-4.96.692-1.78 1.166-3.816 1.301-6.796.137-2.986.169-3.94.169-11.544 0-7.604-.032-8.558-.169-11.544-.136-2.98-.609-5.016-1.301-6.797-.716-1.841-1.673-3.403-3.23-4.959-1.557-1.557-3.118-2.514-4.96-3.23C44.559.778 42.524.305 39.544.17 36.557.032 35.603 0 28 0Z" fill="currentColor"/> <path d="M27.999 13.622c-7.941 0-14.377 6.437-14.377 14.377s6.437 14.377 14.377 14.377S42.376 35.94 42.376 28 35.94 13.622 28 13.622Zm0 23.71a9.333 9.333 0 1 1 9.332-9.333A9.332 9.332 0 0 1 28 37.33ZM42.945 16.412a3.36 3.36 0 1 0 0-6.72 3.36 3.36 0 0 0 0 6.72Z" fill="currentColor"/> </symbol> <symbol fill="none" viewBox="0 0 56 56" id="platforms--ios" xmlns="http://www.w3.org/2000/svg"> <path d="M29.505 28.805c0 5.005-2.607 8.172-6.772 8.172-4.166 0-6.773-3.167-6.773-8.172 0-5.023 2.607-8.172 6.773-8.172 4.165 0 6.772 3.15 6.772 8.172ZM56 15.4v25.2c0 1.995-.017 5.145-1.102 7.945-.543 1.383-1.803 3.325-3.588 4.707-1.032.788-2.258 1.558-3.938 2.048-1.802.525-4.025.7-6.772.7H15.4c-2.748 0-4.97-.175-6.773-.718-1.68-.507-2.905-1.26-3.937-2.047-1.785-1.365-3.045-3.325-3.588-4.707C.018 45.745 0 42.595 0 40.6V15.4c0-1.995.018-5.145 1.103-7.945.542-1.383 1.802-3.325 3.587-4.707C5.722 1.96 6.947 1.19 8.627.7 10.43.175 12.652 0 15.4 0h25.2c2.765 0 4.97.175 6.773.718 1.68.507 2.922 1.26 3.937 2.047 1.785 1.365 3.045 3.325 3.587 4.707C55.983 10.255 56 13.405 56 15.4ZM11.043 38.972V26.827H8.54v12.145h2.503Zm.175-15.522a1.43 1.43 0 0 0-1.435-1.435 1.43 1.43 0 0 0-1.435 1.435c0 .788.647 1.435 1.434 1.435.806-.018 1.435-.648 1.435-1.435Zm20.894 5.355c0-6.457-3.605-10.517-9.38-10.517-5.774 0-9.38 4.06-9.38 10.517 0 6.458 3.605 10.5 9.38 10.5 5.776 0 9.38-4.042 9.38-10.5Zm16.24 4.392c0-2.87-1.68-4.567-5.914-5.495l-2.258-.49c-2.782-.612-3.867-1.715-3.867-3.307 0-2.082 1.96-3.308 4.497-3.308 2.66 0 4.41 1.365 4.637 3.588h2.538c-.123-3.447-3.045-5.88-7.105-5.88-4.218 0-7.175 2.363-7.175 5.705 0 2.887 1.767 4.742 5.845 5.617l2.258.49c2.817.613 3.955 1.75 3.955 3.448 0 2.013-2.013 3.448-4.76 3.448-2.923 0-4.953-1.33-5.25-3.518h-2.538c.245 3.518 3.202 5.793 7.647 5.793 4.533.017 7.49-2.328 7.49-6.09Z" fill="currentColor"/> </symbol> <symbol fill="none" viewBox="0 0 56 56" id="platforms--linux" xmlns="http://www.w3.org/2000/svg"> <path d="M13.82 37.57c-.142-.738-.427-1.553-.435-2.373-.027-2.726 1.086-5.104 2.473-7.368.028-.047.101-.063.152-.097-.07.353-.231.635-.378.913-1.023 1.969-1.944 3.973-1.99 6.246-.025 1.243.218 2.42 1.267 3.41-.013-.265-.037-.445-.033-.633.03-.882-.006-1.772.11-2.64.296-2.19 1.089-4.203 2.134-6.157 1.256-2.345 4.275-7.464 4.064-10.185-.003-.037.007-.073.013-.11.071-.38-.022-.68-.296-.994-1.073-1.227-.984-2.514.238-3.568.303-.257.29-.443.155-.786-.519-1.303-.64-2.65-.155-3.987.406-1.113 1.57-1.456 2.434-.716.579.499 1.002 1.129 1.109 1.918.05.377.069.759.1 1.136h2.187c0-.189.02-.37-.003-.551-.102-.8.195-1.482.61-2.126.843-1.318 2.792-1.595 3.761-.482.91 1.047 1.423 2.278 1.17 3.707-.092.515-.277 1.013-.425 1.541.567.35.974.859.905 1.564-.061.614-.274 1.208-.4 1.816-.048.248-.135.54-.051.763.246.686.567 1.35.865 2.02.337.752.704 1.495 1.026 2.25.833 1.957 1.65 3.923 2.468 5.886.317.778.68 1.555.905 2.363.691 2.489.838 5.034.615 7.602-.025.303.026.446.334.57.618.246.937.746.934 1.427 0 .277-.064.56-.02.825.041.26.126.577.304.742.699.629 1.805.64 2.614.15.966-.588 1.551-1.49 2.195-2.516-1.73-1.38-3.558-1.598-5.575-.638.221-.23.448-.528.71-.567.777-.098.979-.64 1.16-1.253.105-.369.231-.736.33-1.108.727-2.776.233-5.295-1.66-7.476-.49-.569-1.115-1.018-1.678-1.52 1.319.663 2.393 1.62 3.144 2.884 1.606 2.71 1.008 5.466.087 8.216 2.165.151 2.91.412 3.76 1.324.302-.034.597-.047.88-.11.131-.029.305-.135.345-.245.174-.502.352-1.01.445-1.528.293-1.548-.07-3.043-.503-4.51-.916-3.095-2.44-5.898-4.31-8.522-1.173-1.646-2.383-3.281-3.373-5.04-1.414-2.516-2.154-5.251-2.1-8.18.022-1.052-.038-2.131-.234-3.168-.342-1.827-.956-3.59-2.305-4.926C31.35.245 28.283-.551 24.815.37c-1.722.454-3.273 1.242-4.25 2.841-.792 1.295-1.1 2.747-1.088 4.225.024 2.72.024 5.458.306 8.156.251 2.386-.164 4.43-1.793 6.226-.65.715-1.216 1.52-1.788 2.313-2.39 3.29-3.933 7.007-5.343 10.786-.356.958-.5 1.934-.172 2.972 1.073-.725 2.157-.955 3.133-.32Zm8.498 14.716c.182.887-.256 1.567-1.042 2.095a4.209 4.209 0 0 0-.708.614c-.94.981-2.087 1.18-3.346.872a14.08 14.08 0 0 1-1.941-.617c-2.383-.957-4.85-1.577-7.358-2.086-.86-.17-1.718-.406-2.545-.7-1.176-.417-1.552-1.1-1.307-2.311.353-1.75.37-3.499.089-5.262-.22-1.38.122-1.87 1.475-2.225.516-.135 1.03-.292 1.551-.382.964-.172 1.682-.681 2.25-1.46.495-.682.974-1.391 1.56-1.992 1.037-1.066 1.962-1.11 2.935-.014 1.08 1.222 2.062 2.538 2.974 3.891 1.528 2.268 2.823 4.694 4.59 6.811.633.757.927 1.666.823 2.766Zm28.301-3.513c-.51.412-1.083.758-1.654 1.085-2.447 1.4-4.825 2.895-6.872 4.859-.997.96-2.2 1.274-3.534 1.258-.382-.026-.772-.023-1.157-.073-1.408-.182-2.234-.99-2.538-2.373-.248-1.142-.168-2.277.075-3.39.67-3.043.703-6.133.736-9.22.021-1.399.355-1.821 1.914-1.766 1.087.035 1.227.188 1.11 1.239-.139 1.306.828 2.284 2.307 2.425 1.64.161 2.683-.771 3.647-1.884.2-.236.343-.519.521-.777.43-.623 1.281-.588 1.577.113.176.422.27.934.218 1.387-.129 1.042.295 1.846.999 2.505a24.729 24.729 0 0 0 2.496 2.07c1.007.72 1.131 1.75.155 2.542ZM24.801 19.92c1.408.248 2.688-.07 3.87-.885.634-.436 1.29-.874 2.001-1.148 1.075-.416 1.63-1.117 1.71-2.255.072-.938-.102-1.287-1-1.645-.44-.179-.898-.33-1.44-.525.741-.255 1.176-.66 1.242-1.371a2.277 2.277 0 0 0-.59-1.778c-.416-.453-.979-.426-1.496-.248-.58.198-.742.742-.787 1.287-.04.478-.008.961-.008 1.443-1.45-.915-2.967-.828-4.51-.235-.062-.551-.065-1.109-.204-1.63-.164-.63-.76-1.004-1.274-.918-.496.08-.823.574-.847 1.266-.034.934.4 1.654 1.066 2.293-.344.295-.67.563-.984.84-1.04.91-1.123 1.888-.148 2.894.78.802 1.633 1.539 2.489 2.262.241.2.597.301.91.353Zm-3.84-3.657.164-.151c.169.117.356.224.509.365 1.7 1.548 3.602 1.595 5.578.686 1.197-.554 2.326-1.251 3.497-1.865.244-.129.532-.167.8-.251.028.06.048.116.073.175-.09.104-.16.239-.274.308-1.638 1.01-3.224 2.143-5.143 2.577-1.773.4-3.397.099-4.74-1.22-.187-.175-.313-.416-.464-.624Zm13.485 30.594-.823 6.52c-3.353-.843-6.838-.093-10.269-.1l-.23-2.902c4.203.516 8.048-.431 11.322-3.518ZM19.83 42.801c.55.454 1.097.923 1.614 1.416.486.466.618 1.073.54 1.722-.067.553-.58 1.044-1.125 1.021-.163-.006-.356-.215-.46-.377-1.212-1.884-2.405-3.782-3.615-5.666-.277-.434-.595-.84-.896-1.255l.04-.066c1.303 1.068 2.608 2.13 3.902 3.205Z" fill="currentColor"/> </symbol> <symbol fill="none" viewBox="0 0 25 24" id="platforms--mac" xmlns="http://www.w3.org/2000/svg"> <g clip-path="url(#cua)" fill-rule="evenodd" clip-rule="evenodd" fill="currentColor"> <path d="M14.734 17.09c2.313-.223 4.34-.831 5.578-1.622l.73.933c-1.704.994-3.914 1.643-6.308 1.886A15.276 15.276 0 0 0 16.118 24h3.676a4.706 4.706 0 0 0 4.706-4.706V4.706A4.706 4.706 0 0 0 19.794 0h-3.282c-3.204 3.78-4.97 8.168-5.51 12.892h4.361c-.365 1.42-.588 2.82-.629 4.198Zm1.947-11.703h1.238v2.86H16.68v-2.86Z"/> <path d="M14.967 0H5.206A4.706 4.706 0 0 0 .5 4.706v14.588A4.706 4.706 0 0 0 5.206 24h9.51c-.803-1.711-1.196-3.665-1.26-5.681v.05c-3.123.12-6.49-.467-9.33-1.887l.589-.933c2.758 1.298 5.921 1.744 8.74 1.623.03-1.002.134-2.01.306-3.003H9.52C10.009 8.611 12.016 3.83 14.968 0ZM7.615 5.387H6.378v2.86h1.237v-2.86Z"/> </g> <defs> <clipPath id="cua"> <path fill="currentColor" transform="translate(.5)" d="M0 0h24v24H0z"/> </clipPath> </defs> </symbol> <symbol fill="none" viewBox="0 0 56 56" id="platforms--macos" xmlns="http://www.w3.org/2000/svg"> <path fill-rule="evenodd" clip-rule="evenodd" d="M56 28c0 15.464-12.536 28-28 28S0 43.464 0 28 12.536 0 28 0s28 12.536 28 28Zm-25.632-8.627h.81v.64c0 .338-.1.614-.3.827-.192.204-.462.307-.81.307-.644 0-.966-.285-.966-.854a.79.79 0 0 1 .327-.653c.217-.178.53-.267.94-.267Zm-2.4-3.506v1.48a3.4 3.4 0 0 1 1.943-.6c.461 0 .788.098.98.293.19.196.286.48.286.853v.414h-.965c-.888 0-1.566.182-2.036.546-.47.365-.705.867-.705 1.507 0 .569.183 1.04.548 1.413.374.374.875.56 1.501.56.844 0 1.418-.288 1.722-.866v.813h1.553v-4.32c0-1.707-.896-2.56-2.688-2.56-.93 0-1.644.156-2.14.467Zm-9.602.72V15.52H16.8v6.76h1.566v-3.627c0-.648.135-1.124.405-1.426.27-.303.574-.454.913-.454.678 0 1.018.454 1.018 1.36v4.147h1.579v-3.627c0-.648.13-1.124.391-1.426.27-.303.574-.454.914-.454.678 0 1.018.454 1.018 1.36v4.147h1.578v-4.453c0-.765-.182-1.351-.548-1.76-.365-.418-.883-.627-1.553-.627-.443 0-.839.111-1.187.333a2.035 2.035 0 0 0-.783.947c-.287-.853-.913-1.28-1.879-1.28-.87 0-1.492.382-1.866 1.147Zm17.298 2.333c.017.64.204 1.156.561 1.547.365.39.857.586 1.474.586.54 0 1.04-.15 1.501-.453v1.387c-.46.275-1.035.413-1.722.413-1.018 0-1.845-.329-2.48-.987-.626-.657-.94-1.489-.94-2.493.01-.987.323-1.818.94-2.493.627-.676 1.48-1.014 2.558-1.014.644 0 1.192.125 1.644.374V17.2a2.657 2.657 0 0 0-1.487-.427c-.61 0-1.1.196-1.475.587-.374.391-.565.911-.574 1.56Zm-17.227 9.596C17.346 29.794 16.8 31.49 16.8 33.6c0 2.098.552 3.786 1.656 5.063 1.105 1.278 2.577 1.917 4.417 1.917 1.84 0 3.306-.64 4.397-1.917 1.105-1.277 1.657-2.965 1.657-5.063 0-2.125-.546-3.82-1.637-5.084-1.092-1.277-2.57-1.916-4.436-1.916-1.84 0-3.313.639-4.417 1.916Zm1.885 8.473c-.635-.834-.952-1.963-.952-3.39 0-1.438.311-2.574.933-3.408.622-.834 1.472-1.251 2.55-1.251 1.092 0 1.95.417 2.57 1.25.623.834.934 1.97.934 3.41 0 1.439-.311 2.575-.933 3.41-.622.82-1.472 1.23-2.551 1.23-1.066 0-1.916-.417-2.551-1.251Zm18.269-7.121v-2.461c-.876-.444-1.916-.666-3.122-.666-1.333 0-2.405.35-3.217 1.05-.8.698-1.2 1.626-1.2 2.783 0 .551.083 1.042.248 1.473.177.43.438.8.78 1.11.343.308.66.557.952.746.292.174.673.376 1.142.605.064.027.159.074.286.14.457.216.755.364.895.445a6.3 6.3 0 0 1 .628.403c.28.188.463.377.552.565.089.188.133.404.133.645 0 .512-.177.922-.533 1.231-.355.296-.825.444-1.408.444-1.295 0-2.488-.417-3.58-1.25v2.602c.952.578 2.152.867 3.599.867 1.332 0 2.404-.357 3.217-1.07.825-.726 1.237-1.694 1.237-2.904 0-.578-.095-1.09-.285-1.533a2.882 2.882 0 0 0-.838-1.17 5.966 5.966 0 0 0-1.028-.747c-.317-.188-.73-.403-1.237-.645-.724-.35-1.27-.666-1.638-.948-.355-.296-.533-.666-.533-1.11 0-.444.165-.807.495-1.09.343-.282.813-.423 1.41-.423 1.078 0 2.093.303 3.045.908Z" fill="currentColor"/> </symbol> <symbol fill="none" viewBox="0 0 56 56" id="platforms--opera" xmlns="http://www.w3.org/2000/svg"> <path d="M18.786 12.222c-3.099 3.654-5.101 9.06-5.241 15.12v1.316c.142 6.062 2.142 11.461 5.24 15.118 4.016 5.217 9.985 8.526 16.658 8.526 4.098 0 7.934-1.253 11.217-3.433a27.833 27.833 0 0 1-19.99 7.098C11.816 55.274 0 43.017 0 28 0 12.532 12.537 0 28 0h.105a27.918 27.918 0 0 1 18.557 7.128c-3.285-2.17-7.119-3.432-11.223-3.432-6.669 0-12.64 3.313-16.66 8.526h.007ZM56 28c0 8.297-3.605 15.745-9.338 20.872-7.182 3.5-13.874 1.052-16.09-.479C37.624 46.844 42.953 38.313 42.953 28c0-10.318-5.327-18.842-12.383-20.393 2.215-1.526 8.909-3.974 16.091-.479C52.395 12.25 56 19.705 56 28Z" fill="currentColor"/> </symbol> <symbol fill="none" viewBox="0 0 56 56" id="platforms--playstation" xmlns="http://www.w3.org/2000/svg"> <g clip-path="url(#cxa)" fill="currentColor"> <path d="M20.94 7c2.436.454 4.83 1.102 7.212 1.778 1.362.396 2.721.806 4.071 1.242 2.121.675 4.233 1.44 6.154 2.58.86.523 1.687 1.114 2.393 1.834a9.126 9.126 0 0 1 1.852 2.6c.837 1.75 1.124 3.703 1.21 5.625.039 1.253.036 2.518-.198 3.756-.194 1.075-.54 2.135-1.116 3.07-.508.824-1.214 1.538-2.071 1.998a5.475 5.475 0 0 1-2.696.635c-1.414.015-2.786-.436-4.056-1.027-.023-4.22-.003-8.442-.01-12.662-.008-.763.044-1.535-.11-2.288-.109-.584-.347-1.172-.805-1.568-.304-.274-.698-.429-1.094-.512a1.12 1.12 0 0 0-1.075.415c-.412.515-.52 1.198-.538 1.839-.004 11.299.004 22.598-.004 33.897-3.04-.964-6.08-1.928-9.119-2.894-.003-13.44-.001-26.878 0-40.318ZM7.278 35.594c3.963-1.403 7.922-2.82 11.886-4.219.006 1.556 0 3.112.003 4.67-.003.21.01.423-.016.633-3.133 1.11-6.261 2.24-9.391 3.359-.434.164-.88.35-1.214.68-.156.156-.283.386-.198.608.107.263.375.406.622.513.687.28 1.437.32 2.169.353.816-.013 1.635-.074 2.434-.25.54-.107 1.06-.288 1.574-.482 1.338-.484 2.675-.971 4.015-1.45.01 1.316.002 2.632.004 3.95-.004.263.012.528-.014.79-1.645.296-3.31.496-4.983.523a29.739 29.739 0 0 1-9.941-1.498c-1.05-.304-2.092-.709-2.968-1.375-.482-.373-.914-.843-1.133-1.42a1.958 1.958 0 0 1 .058-1.526c.221-.47.607-.842 1.032-1.132.982-.678 2.067-1.196 3.165-1.658.948-.403 1.93-.717 2.896-1.07Z"/> <path d="M39.164 33.821c.899-.104 1.804-.128 2.707-.16 2.973.01 5.96.38 8.804 1.272.558.17 1.098.39 1.654.566.991.362 1.983.801 2.776 1.514.477.434.888 1.02.893 1.688.028.545-.218 1.067-.571 1.468-.672.754-1.56 1.271-2.451 1.723-.95.484-1.97.796-2.964 1.164-6.075 2.181-12.15 4.362-18.223 6.546-.001-1.702.002-3.403-.001-5.103.01-.068-.028-.187.068-.205 4.622-1.644 9.242-3.293 13.863-4.942.625-.234 1.298-.403 1.828-.826.217-.17.43-.442.323-.735-.11-.255-.376-.397-.62-.503-.692-.273-1.445-.326-2.18-.347-1.153.008-2.315.15-3.41.52-3.292 1.153-6.578 2.32-9.87 3.47 0-1.827-.002-3.653 0-5.48 2.382-.835 4.87-1.342 7.374-1.63Z"/> </g> <defs> <clipPath id="cxa"> <path fill="currentColor" d="M0 0h56v56H0z"/> </clipPath> </defs> </symbol> <symbol fill="none" viewBox="0 0 56 56" id="platforms--reddit" xmlns="http://www.w3.org/2000/svg"> <path fill-rule="evenodd" clip-rule="evenodd" d="M56 28c0 15.464-12.536 28-28 28S0 43.464 0 28 12.536 0 28 0s28 12.536 28 28Zm-13.427-4.093A4.095 4.095 0 0 1 46.667 28c0 1.67-1.016 3.111-2.358 3.766.065.393.098.786.098 1.212 0 6.288-7.303 11.364-16.342 11.364-9.038 0-16.341-5.076-16.341-11.364 0-.426.033-.852.098-1.245C10.382 31.078 9.4 29.67 9.4 28a4.095 4.095 0 0 1 4.093-4.093c1.081 0 2.096.458 2.817 1.146 2.816-2.064 6.713-3.34 11.069-3.472l2.063-9.759c.065-.196.164-.36.327-.458a.816.816 0 0 1 .557-.099l6.779 1.441a2.833 2.833 0 0 1 2.587-1.637 2.921 2.921 0 0 1 2.915 2.915 2.921 2.921 0 0 1-2.915 2.914 2.918 2.918 0 0 1-2.914-2.783l-6.059-1.278-1.867 8.744c4.258.164 8.122 1.474 10.906 3.472a3.93 3.93 0 0 1 2.816-1.146ZM21.581 28a2.921 2.921 0 0 0-2.914 2.915 2.921 2.921 0 0 0 2.914 2.914 2.921 2.921 0 0 0 2.915-2.914A2.921 2.921 0 0 0 21.58 28Zm6.452 12.74c1.113 0 4.912-.132 6.91-2.13.294-.294.294-.753.065-1.08a.771.771 0 0 0-1.08 0c-1.278 1.244-3.93 1.703-5.863 1.703-1.932 0-4.617-.459-5.862-1.703a.771.771 0 0 0-1.08 0 .771.771 0 0 0 0 1.08c1.965 1.965 5.796 2.13 6.91 2.13Zm3.471-9.825a2.921 2.921 0 0 0 2.915 2.914 2.921 2.921 0 0 0 2.914-2.914A2.921 2.921 0 0 0 34.42 28a2.921 2.921 0 0 0-2.915 2.915Z" fill="currentColor"/> </symbol> <symbol fill="none" viewBox="0 0 56 56" id="platforms--router" xmlns="http://www.w3.org/2000/svg"> <path d="M48.984 36.953h-6.997l9.949-34.669c.146-.525.446-1.059.902-1.602.455-.543.92-.762 1.394-.656.546.105.993.35 1.339.735s.483.788.41 1.208l-6.997 34.984ZM.005 1.969c-.036-.42.11-.823.438-1.208s.765-.63 1.312-.735c.473-.106.938.113 1.394.656.455.543.756 1.077.902 1.602l9.948 34.669H7.002L.005 1.969Zm6.997 38.346h41.982c1.931 0 3.58.656 4.947 1.97 1.367 1.313 2.05 2.897 2.05 4.753 0 1.856-.683 3.441-2.05 4.754-1.366 1.313-3.015 1.97-4.947 1.97H7.002c-1.931 0-3.58-.657-4.947-1.97C.69 50.48.005 48.894.005 47.038c0-1.856.684-3.44 2.05-4.753 1.367-1.314 3.016-1.97 4.947-1.97ZM41.96 50.4c.965 0 1.795-.324 2.487-.972.692-.647 1.039-1.435 1.039-2.363 0-.928-.347-1.725-1.039-2.39a3.464 3.464 0 0 0-2.487-.998c-.966 0-1.786.332-2.46.998-.674.665-1.011 1.462-1.011 2.39 0 .928.337 1.716 1.01 2.363.675.648 1.495.972 2.46.972Zm-13.967 0a3.48 3.48 0 0 0 2.46-.972c.692-.647 1.039-1.435 1.039-2.363 0-.928-.347-1.725-1.039-2.39a3.464 3.464 0 0 0-2.487-.998c-.966 0-1.786.332-2.46.998-.674.665-1.011 1.462-1.011 2.39 0 .928.346 1.716 1.038 2.363a3.48 3.48 0 0 0 2.46.972Zm-13.966 0c.965 0 1.785-.324 2.46-.972.674-.647 1.01-1.435 1.01-2.363 0-.928-.336-1.725-1.01-2.39-.675-.666-1.495-.998-2.46-.998-.966 0-1.795.332-2.487.998-.693.665-1.04 1.462-1.04 2.39 0 .928.347 1.716 1.04 2.363.692.648 1.521.972 2.487.972Z" fill="currentColor"/> </symbol> <symbol fill="none" viewBox="0 0 56 56" id="platforms--router_wi-fi" xmlns="http://www.w3.org/2000/svg"> <path d="M40.833 34.456c-.653 0-1.166-.535-1.166-1.215V16.227c0-.68.513-1.215 1.166-1.215.654 0 1.167.559 1.167 1.215v17.014c0 .68-.513 1.215-1.167 1.215Z" fill="currentColor"/> <path d="M50.167 32.026H5.833C2.613 32.026 0 34.748 0 38.102v4.861c0 3.354 2.613 6.076 5.833 6.076h44.334c3.22 0 5.833-2.722 5.833-6.076v-4.861c0-3.354-2.613-6.076-5.833-6.076Zm-42 9.722c-.654 0-1.167-.535-1.167-1.215 0-.681.513-1.216 1.167-1.216.653 0 1.166.56 1.166 1.216 0 .656-.513 1.215-1.166 1.215Zm7 0c-.654 0-1.167-.535-1.167-1.215 0-.681.513-1.216 1.167-1.216.653 0 1.166.56 1.166 1.216 0 .656-.513 1.215-1.166 1.215Zm7 0c-.654 0-1.167-.535-1.167-1.215 0-.681.513-1.216 1.167-1.216.653 0 1.166.535 1.166 1.216 0 .68-.513 1.215-1.166 1.215Zm7 0c-.654 0-1.167-.535-1.167-1.215 0-.681.513-1.216 1.167-1.216.653 0 1.166.535 1.166 1.216 0 .68-.513 1.215-1.166 1.215Zm18.666 0H36.167c-.654 0-1.167-.535-1.167-1.215 0-.681.513-1.216 1.167-1.216h11.666c.654 0 1.167.535 1.167 1.216 0 .68-.513 1.215-1.167 1.215ZM37.543 20.894c-.303 0-.606-.122-.816-.365C35.607 19.387 35 17.855 35 16.227c0-1.629.607-3.16 1.703-4.302.444-.486 1.19-.486 1.657 0 .467.486.443 1.24 0 1.726a3.72 3.72 0 0 0-1.027 2.576 3.72 3.72 0 0 0 1.027 2.576c.443.462.443 1.24 0 1.726a1.15 1.15 0 0 1-.817.365ZM44.123 20.894c-.303 0-.606-.122-.816-.365-.444-.462-.444-1.24 0-1.726a3.72 3.72 0 0 0 1.026-2.576 3.72 3.72 0 0 0-1.026-2.576 1.286 1.286 0 0 1 0-1.726c.443-.486 1.19-.486 1.656 0a6.222 6.222 0 0 1 1.704 4.302c0 1.628-.607 3.16-1.704 4.302a1.16 1.16 0 0 1-.84.365Z" fill="currentColor"/> <path d="M34.23 24.32c-.303 0-.607-.12-.817-.364-4.083-4.278-4.083-11.205 0-15.458.444-.486 1.19-.486 1.657 0 .466.486.443 1.24 0 1.726-3.174 3.305-3.174 8.701 0 12.03.443.463.443 1.24 0 1.726-.233.22-.537.34-.84.34ZM47.437 24.32c-.304 0-.607-.12-.817-.364-.443-.462-.443-1.24 0-1.726 3.173-3.305 3.173-8.7 0-12.03a1.286 1.286 0 0 1 0-1.726c.443-.487 1.19-.487 1.657 0 4.083 4.277 4.083 11.204 0 15.458-.257.267-.537.389-.84.389Z" fill="currentColor"/> <path d="M30.94 27.748c-.303 0-.607-.122-.817-.365-5.903-6.15-5.903-16.187 0-22.337.444-.461 1.19-.461 1.657 0 .467.462.443 1.24 0 1.726-4.993 5.226-4.993 13.684 0 18.91.443.462.443 1.24 0 1.726-.257.243-.537.34-.84.34ZM50.727 27.748c-.303 0-.607-.122-.817-.365-.443-.461-.443-1.24 0-1.725 5.017-5.202 5.017-13.685 0-18.91-.443-.462-.443-1.24 0-1.726.444-.486 1.19-.462 1.657 0 5.903 6.15 5.903 16.188 0 22.337-.233.292-.537.389-.84.389Z" fill="currentColor"/> </symbol> <symbol fill="none" viewBox="0 0 56 56" id="platforms--smart_tv" xmlns="http://www.w3.org/2000/svg"> <path d="M50.4 3.5H5.6C2.427 3.5 0 5.927 0 9.1v29.867c0 3.173 2.427 5.6 5.6 5.6h11.2v7.466h22.4v-7.466h11.2c3.173 0 5.6-2.427 5.6-5.6V9.1c0-3.173-2.427-5.6-5.6-5.6ZM26.133 18.433h-5.6v14.934H16.8V18.433h-5.6V14.7h14.933v3.733ZM38.64 33.367h-4.48L28 14.7h3.92l4.48 13.627L40.88 14.7h3.92l-6.16 18.667Z" fill="currentColor"/> </symbol> <symbol fill="none" viewBox="0 0 56 56" id="platforms--twitch" xmlns="http://www.w3.org/2000/svg"> <path d="m14.667 0-10 10v36h12v10l10-10h8l18-18V0h-38Zm34 26-8 8h-8l-7 7v-7h-9V4h32v22Z" fill="currentColor"/> <path d="M42.667 11h-4v12h4V11ZM31.667 11h-4v12h4V11Z" fill="currentColor"/> </symbol> <symbol fill="none" viewBox="0 0 56 56" id="platforms--twitter" xmlns="http://www.w3.org/2000/svg"> <path d="M50.267 15.995c.034.493.034.987.034 1.485 0 15.181-11.557 32.69-32.69 32.69v-.009A32.525 32.525 0 0 1 0 45.011a23.07 23.07 0 0 0 17.004-4.762A11.504 11.504 0 0 1 6.27 32.27c1.722.332 3.497.264 5.187-.198a11.49 11.49 0 0 1-9.216-11.261v-.146a11.417 11.417 0 0 0 5.214 1.438A11.504 11.504 0 0 1 3.9 6.763a32.609 32.609 0 0 0 23.679 12.003 11.496 11.496 0 0 1 3.324-10.977c4.627-4.35 11.905-4.127 16.255.498a23.055 23.055 0 0 0 7.296-2.79 11.532 11.532 0 0 1-5.05 6.355A22.85 22.85 0 0 0 56 10.043a23.34 23.34 0 0 1-5.733 5.952Z" fill="currentColor"/> </symbol> <symbol fill="none" viewBox="0 0 58 56" id="platforms--wi-fi" xmlns="http://www.w3.org/2000/svg"> <path d="M53.742 20.54a.8.8 0 0 0 1.12-.109l2.247-2.655h.001a.786.786 0 0 0-.109-1.13C49.361 10.431 39.58 6.7 28.925 6.7 18.34 6.7 8.621 10.382.999 16.522a.798.798 0 0 0-.202.242l.263.143-.263-.143a.792.792 0 0 0 .093.893l2.25 2.659v.001a.804.804 0 0 0 1.111.107c6.744-5.42 15.324-8.661 24.674-8.661 9.419 0 18.054 3.29 24.817 8.778Zm0 0 .19-.232m-.19.233.19-.233m0 0a.5.5 0 0 0 .7-.068m-.7.068c-6.815-5.53-15.517-8.845-25.007-8.845-9.421 0-18.067 3.266-24.862 8.727l50.568.05m0 0 2.251-2.66a.486.486 0 0 0-.069-.7l-2.182 3.36ZM42.375 33.954v-.001a20.326 20.326 0 0 0-13.325-4.939c-5.1 0-9.758 1.862-13.33 4.945l-.004.003a.8.8 0 0 0-.08 1.111v.001l2.251 2.66h.002a.808.808 0 0 0 1.134.09l.003-.003a15.18 15.18 0 0 1 10.024-3.744c3.845 0 7.352 1.41 10.024 3.738l.004.003a.808.808 0 0 0 1.133-.09l.002-.001 2.25-2.658a.795.795 0 0 0-.088-1.115Zm-33.99-8.69-.001.002a.798.798 0 0 0-.1 1.123v.001l2.25 2.657v.001a.8.8 0 0 0 1.122.1A27.275 27.275 0 0 1 29.05 22.92c6.611 0 12.677 2.342 17.388 6.229h.002a.799.799 0 0 0 1.12-.1v-.002l2.25-2.657.001-.002a.796.796 0 0 0-.103-1.124 32.327 32.327 0 0 0-20.658-7.407 32.357 32.357 0 0 0-20.665 7.408Zm38.245 3.653a.499.499 0 0 0 .7-.062l-.7.062ZM24.686 43.942a4.25 4.25 0 0 0 1.26 3.018c.807.8 1.9 1.25 3.04 1.25 1.14 0 2.234-.45 3.04-1.25a4.25 4.25 0 0 0 1.262-3.018 4.25 4.25 0 0 0-1.261-3.018 4.318 4.318 0 0 0-3.04-1.249c-1.14 0-2.234.45-3.04 1.25a4.25 4.25 0 0 0-1.261 3.017Z" fill="currentColor" stroke="currentColor" stroke-width=".6"/> </symbol> <symbol fill="none" viewBox="0 0 56 56" id="platforms--wikipedia" xmlns="http://www.w3.org/2000/svg"> <path d="M43.092 10.5v.982c-1.295.23-2.276.637-2.941 1.221a11.233 11.233 0 0 0-2.816 3.982L22.327 47.317h-.999L6.262 16.287c-.702-1.593-1.656-2.566-1.944-2.92a4.72 4.72 0 0 0-1.66-1.288c-.656-.31-1.542-.508-2.658-.597V10.5h14.66v.982c-1.69.16-2.497.443-3.001.85s-.756.929-.756 1.566c0 .885.414 2.265 1.242 4.14l11.127 21.103L34.15 18.304c.846-2.053 1.548-3.477 1.548-4.274 0-.513-.261-1.004-.783-1.473-.522-.469-1.112-.8-2.354-.995-.09-.018-.243-.044-.459-.08V10.5h10.99Z" fill="currentColor"/> <path d="M56 10.5v.982c-1.296.23-2.276.637-2.942 1.221a11.233 11.233 0 0 0-2.816 3.982L37.072 47.317h-.998l-13.92-31.03c-.7-1.593-1.655-2.566-1.943-2.92a4.72 4.72 0 0 0-1.66-1.288c-.656-.31-1.251-.508-2.367-.597V10.5h14.37v.982c-1.692.16-2.498.443-3.002.85-.504.407-.756.929-.756 1.566 0 .885.414 2.265 1.242 4.14l9.979 21.103 9.042-20.837c.846-2.053 1.547-3.477 1.547-4.274 0-.513-.26-1.004-.783-1.473-.521-.469-1.403-.8-2.645-.995-.09-.018-.242-.044-.458-.08V10.5h11.28Z" fill="currentColor"/> </symbol> <symbol fill="none" viewBox="0 0 56 56" id="platforms--wikipedia_on_box" xmlns="http://www.w3.org/2000/svg"> <path fill-rule="evenodd" clip-rule="evenodd" d="M0 2a2 2 0 0 1 2-2h52a2 2 0 0 1 2 2v52a2 2 0 0 1-2 2H2a2 2 0 0 1-2-2V2Zm40.962 12v.798c-1.052.187-1.849.518-2.39.992a9.126 9.126 0 0 0-2.287 3.235l-4.11 8.387 4.663 9.859 7.346-16.93c.152-.368.298-.712.433-1.03.478-1.124.825-1.938.825-2.443 0-.416-.212-.816-.636-1.196-.424-.382-1.14-.651-2.15-.81a13.763 13.763 0 0 0-.372-.064V14h9.166v.798c-1.053.187-1.85.518-2.39.992a9.125 9.125 0 0 0-2.288 3.235L36.07 43.914h-.811l-5.338-11.9-5.83 11.9h-.812L11.038 18.702c-.49-1.111-1.13-1.85-1.45-2.22a7.23 7.23 0 0 1-.13-.153 3.836 3.836 0 0 0-1.348-1.046c-.534-.251-1.254-.413-2.16-.485V14h11.911v.798c-1.374.13-2.029.36-2.438.69-.41.33-.614.755-.614 1.273 0 .719.336 1.84 1.009 3.364l9.04 17.146 3.992-7.646-4.9-10.923c-.49-1.111-1.13-1.85-1.45-2.22l-.13-.153a3.836 3.836 0 0 0-1.348-1.046c-.533-.251-1.017-.413-1.923-.485V14h11.675v.798c-1.374.13-2.03.36-2.439.69-.41.33-.614.755-.614 1.273 0 .719.336 1.84 1.009 3.364l2.414 5.106 2.553-4.89c.152-.368.297-.711.433-1.03.478-1.124.824-1.938.824-2.443 0-.416-.212-.816-.636-1.196-.424-.382-.903-.651-1.912-.81a13.909 13.909 0 0 0-.373-.064V14h8.93Z" fill="currentColor"/> </symbol> <symbol fill="none" viewBox="0 0 56 56" id="platforms--windows" xmlns="http://www.w3.org/2000/svg"> <path d="m0 48.294 22.952 3.163V29.548H0v18.746ZM0 26.721h22.952V4.543L0 7.707V26.72ZM25.476 51.794 56 56V29.548H25.476v22.246ZM25.476 4.207V26.72H56V0L25.476 4.207Z" fill="currentColor"/> </symbol> <symbol fill="none" viewBox="0 0 56 56" id="platforms--xbox" xmlns="http://www.w3.org/2000/svg"> <path d="M13.443 6.21a4.05 4.05 0 0 1 .429-.362c4.116-2.67 8.863-4.098 14.131-4.098 4.925 0 9.543 1.366 13.476 3.73.288.166 1.072.705 1.47 1.189-3.804-4.19-14.976 4.808-14.976 4.808-3.86-2.983-7.418-5.01-10.058-5.74-2.218-.606-3.743-.097-4.472.472Zm33.806 3.956c-.11-.129-.24-.245-.355-.38-.956-1.053-2.138-1.304-3.204-1.243-.974.312-5.451 1.923-10.97 7.136 0 0 6.21 6.04 10.02 12.22 3.804 6.174 6.077 11.032 4.68 17.763a26.172 26.172 0 0 0 6.824-17.665 26.107 26.107 0 0 0-6.995-17.83Zm-9.482 20.367a178.922 178.922 0 0 0-7.504-7.896c-.722-.716-1.488-1.47-2.297-2.248 0 0-1.213 1.213-2.78 2.806v-.006c-2.016 2.04-4.631 4.692-6.083 6.247-2.585 2.757-9.99 11.412-10.4 16.27 0 0-1.648-3.848 1.966-12.73 2.358-5.812 9.494-14.522 12.47-17.364 0 0-2.725-2.99-6.137-5.06l-.024-.006s-.043-.03-.092-.061c-1.642-.98-3.443-1.74-5.164-1.844-1.758.129-2.879 1.421-2.879 1.421A26.108 26.108 0 0 0 1.75 28.003c0 14.499 11.748 26.247 26.253 26.247 7.694 0 14.609-3.314 19.417-8.594 0-.006-.55-3.467-4.08-8.434-.838-1.158-3.864-4.784-5.573-6.69Z" fill="currentColor"/> </symbol> <symbol fill="none" viewBox="0 0 56 56" id="platforms--youtube" xmlns="http://www.w3.org/2000/svg"> <path d="M54.83 15.493a7.037 7.037 0 0 0-4.952-4.982C45.513 9.333 28 9.333 28 9.333s-17.513 0-21.878 1.178a7.037 7.037 0 0 0-4.951 4.982C0 19.891 0 29.061 0 29.061s0 9.17 1.17 13.567a7.037 7.037 0 0 0 4.952 4.983C10.487 48.788 28 48.788 28 48.788s17.513 0 21.878-1.177a7.037 7.037 0 0 0 4.951-4.983C56 38.23 56 29.06 56 29.06s0-9.17-1.17-13.568ZM22.272 37.388V20.734l14.636 8.327-14.636 8.327Z" fill="currentColor"/> </symbol> <symbol fill="none" viewBox="0 0 16 16" id="social--facebook" xmlns="http://www.w3.org/2000/svg"> <path fill="currentColor" d="M16 8a8 8 0 1 0-9.25 7.903v-5.59H4.719V8H6.75V6.237c0-2.005 1.194-3.112 3.022-3.112.875 0 1.79.156 1.79.156V5.25h-1.008c-.994 0-1.304.617-1.304 1.25V8h2.219l-.355 2.313H9.25v5.59A8.002 8.002 0 0 0 16 8Z"/> </symbol> <symbol fill="none" viewBox="0 0 16 16" id="social--instagram" xmlns="http://www.w3.org/2000/svg"> <path fill="currentColor" d="M8 1.441c2.136 0 2.389.009 3.232.047.78.036 1.204.166 1.486.275.373.145.64.319.92.599.28.28.453.546.598.92.11.282.24.705.275 1.485.039.843.047 1.097.047 3.233s-.008 2.389-.047 3.232c-.035.78-.165 1.204-.275 1.486-.145.373-.319.64-.598.92a2.48 2.48 0 0 1-.92.598c-.282.11-.706.24-1.486.275-.843.039-1.096.047-3.232.047s-2.39-.008-3.233-.047c-.78-.035-1.203-.165-1.485-.275a2.482 2.482 0 0 1-.92-.598 2.474 2.474 0 0 1-.599-.92c-.11-.282-.24-.706-.275-1.486-.038-.843-.047-1.096-.047-3.232s.009-2.39.047-3.233c.036-.78.166-1.203.275-1.485.145-.374.319-.64.599-.92.28-.28.546-.454.92-.599.282-.11.705-.24 1.485-.275.844-.038 1.097-.047 3.233-.047ZM8 0C5.827 0 5.555.01 4.7.048 3.85.087 3.27.222 2.76.42a3.918 3.918 0 0 0-1.417.923A3.9 3.9 0 0 0 .42 2.76C.222 3.268.087 3.85.048 4.7.01 5.555 0 5.827 0 8c0 2.172.01 2.445.048 3.298.039.851.174 1.433.372 1.942.205.526.478.972.923 1.417.445.445.89.718 1.417.923.509.197 1.09.333 1.942.371.853.04 1.125.049 3.298.049s2.445-.01 3.298-.049c.852-.038 1.434-.174 1.942-.371a3.918 3.918 0 0 0 1.417-.923c.445-.445.718-.891.923-1.417.198-.509.333-1.09.372-1.942C15.99 10.445 16 10.172 16 8c0-2.173-.01-2.445-.048-3.299-.039-.851-.174-1.433-.372-1.941a3.918 3.918 0 0 0-.923-1.417A3.92 3.92 0 0 0 13.24.42c-.51-.198-1.09-.333-1.942-.372C10.445.01 10.172 0 8 0Z"/> <path fill="currentColor" d="M8 3.892a4.108 4.108 0 1 0 0 8.215 4.108 4.108 0 0 0 0-8.215Zm0 6.774a2.666 2.666 0 1 1 0-5.333 2.666 2.666 0 0 1 0 5.333Zm4.27-5.976a.96.96 0 1 0 0-1.92.96.96 0 0 0 0 1.92Z"/> </symbol> <symbol fill="none" viewBox="0 0 16 16" id="social--pinterest" xmlns="http://www.w3.org/2000/svg"> <path fill="currentColor" d="M8 0a8 8 0 0 0-2.915 15.452c-.07-.633-.134-1.606.027-2.297.146-.625.938-3.977.938-3.977S5.811 8.7 5.811 7.99c0-1.112.645-1.942 1.448-1.942.682 0 1.012.512 1.012 1.127 0 .686-.437 1.712-.663 2.663-.188.796.4 1.446 1.185 1.446 1.422 0 2.515-1.5 2.515-3.664 0-1.915-1.376-3.254-3.342-3.254-2.276 0-3.612 1.707-3.612 3.471 0 .688.265 1.425.595 1.826a.24.24 0 0 1 .056.23c-.061.252-.196.796-.222.907-.035.146-.116.177-.268.107-1-.465-1.624-1.926-1.624-3.1 0-2.523 1.834-4.84 5.286-4.84 2.775 0 4.932 1.977 4.932 4.62 0 2.757-1.739 4.976-4.151 4.976-.811 0-1.573-.421-1.834-.919l-.498 1.902c-.181.695-.669 1.566-.995 2.097A8 8 0 1 0 8 0Z"/> </symbol> <symbol fill="none" viewBox="0 0 16 16" id="social--reddit" xmlns="http://www.w3.org/2000/svg"> <path fill="currentColor" fill-rule="evenodd" d="M16 8A8 8 0 1 1 0 8a8 8 0 0 1 16 0Zm-3.836-1.17c.645 0 1.17.524 1.17 1.17 0 .477-.29.889-.674 1.076.018.112.028.225.028.346 0 1.797-2.087 3.247-4.67 3.247-2.582 0-4.668-1.45-4.668-3.247 0-.121.01-.243.028-.355a1.17 1.17 0 0 1 .477-2.236c.309 0 .599.13.805.327.804-.59 1.918-.954 3.162-.992l.59-2.788a.228.228 0 0 1 .093-.131c.047-.028.103-.038.16-.028l1.936.411a.81.81 0 0 1 .74-.467c.458 0 .832.374.832.832a.834.834 0 0 1-1.665.037l-1.731-.364-.534 2.498c1.217.047 2.32.421 3.116.992.206-.206.487-.328.805-.328ZM6.166 8a.835.835 0 0 0-.833.833c0 .458.375.832.833.832A.835.835 0 0 0 7 8.833.835.835 0 0 0 6.166 8Zm1.843 3.64c.318 0 1.404-.038 1.975-.608a.24.24 0 0 0 .018-.31.22.22 0 0 0-.308 0c-.365.356-1.123.487-1.675.487s-1.32-.13-1.675-.486a.22.22 0 0 0-.309 0 .22.22 0 0 0 0 .309c.561.561 1.656.608 1.974.608Zm.992-2.807c0 .458.374.832.833.832a.835.835 0 0 0 .833-.832A.835.835 0 0 0 9.834 8 .835.835 0 0 0 9 8.833Z" clip-rule="evenodd"/> </symbol> <symbol fill="none" viewBox="0 0 16 16" id="social--tiktok" xmlns="http://www.w3.org/2000/svg"> <path fill="currentColor" d="M12.87 3.207A3.83 3.83 0 0 1 11.127 0H8.376L8.37 11.024a2.311 2.311 0 1 1-2.308-2.4c.232.001.462.037.682.108V5.923a5.046 5.046 0 0 0-.682-.05A5.068 5.068 0 0 0 1 10.938 5.07 5.07 0 0 0 6.064 16a5.068 5.068 0 0 0 5.063-5.063v-5.59a6.541 6.541 0 0 0 3.827 1.231V3.827a3.81 3.81 0 0 1-2.084-.62Z"/> </symbol> <symbol fill="none" viewBox="0 0 25 24" id="social--twitter" xmlns="http://www.w3.org/2000/svg"> <g clip-path="url(#caa)"> <path d="M19.63 1h3.68l-8.08 9.2 9.44 12.48h-7.408l-5.8-7.584-6.64 7.584h-3.68l8.56-9.84L.662 1h7.592l5.24 6.928L19.63 1Zm-1.288 19.52h2.04L7.182 3.08H4.99l13.352 17.44Z" fill="currentColor"/> </g> <defs> <clipPath id="caa"> <path fill="currentColor" transform="translate(.75 1)" d="M0 0h24v21.68H0z"/> </clipPath> </defs> </symbol> <symbol id="base--globe" width="17" height="16" viewBox="0 0 17 16" fill="none" xmlns="http://www.w3.org/2000/svg"> <path d="M2 8H14" stroke="currentColor" stroke-width="1.5" stroke-linecap="round" stroke-linejoin="round"/> <path d="M14 8C14 4.68629 11.3137 2 8 2C4.68629 2 2 4.68629 2 8C2 11.3137 4.68629 14 8 14" stroke="currentColor" stroke-width="1.5" stroke-linecap="round" stroke-linejoin="round"/> <path d="M8 14C8 14 5.5 12 5.5 8C5.5 4 8 2 8 2C8 2 10.5 4 10.5 8V9" stroke="currentColor" stroke-width="1.5" stroke-linecap="round" stroke-linejoin="round"/> <path d="M11 12L12.5 13.5L16 10" stroke="currentColor" stroke-width="1.5" stroke-linecap="round" stroke-linejoin="round"/> </symbol> </svg>