<svg xmlns="http://www.w3.org/2000/svg" width="86" height="16" fill="none" viewBox="0 0 86 16"><path fill="#00b67a" d="M0 0h16.125v16H0zm17.469 0h16.125v16H17.469zm17.469 0h16.124v16H34.939zm17.468 0h16.125v16H52.406zm17.469 0H86v16H69.875z"/><path fill="#fff" d="m8.062 10.784 2.452-.617L11.54 13.3zm5.644-4.05H9.389L8.062 2.7 6.735 6.734H2.418l3.494 2.5-1.327 4.033 3.494-2.5 2.15-1.533zm11.825 4.05 2.452-.617 1.024 3.133zm5.643-4.05h-4.317L25.531 2.7l-1.328 4.034h-4.316l3.494 2.5-1.328 4.033 3.494-2.5 2.15-1.533zM43 10.784l2.453-.617 1.024 3.133zm5.644-4.05h-4.317L43 2.7l-1.327 4.034h-4.316l3.493 2.5-1.327 4.033 3.494-2.5 2.15-1.533zm11.825 4.05 2.452-.617 1.025 3.133zm5.644-4.05h-4.317L60.468 2.7l-1.327 4.034h-4.317l3.494 2.5-1.327 4.033 3.494-2.5 2.15-1.533zm11.825 4.05 2.452-.617 1.025 3.133zm5.644-4.05h-4.317L77.937 2.7 76.61 6.734h-4.317l3.494 2.5-1.327 4.033 3.494-2.5 2.15-1.533z"/></svg>