<svg xmlns="http://www.w3.org/2000/svg" width="105" height="24" fill="none" viewBox="0 0 105 24"><path fill="#00b67a" d="M25.148 9.171H15.54L12.583 0 9.608 9.171 0 9.154l7.77 5.675L4.795 24l7.77-5.675L20.335 24l-2.957-9.171z"/><path fill="#fff" d="M27.165 7.291h10.623v1.986h-4.183v11.192h-2.292V9.276h-4.165zm10.168 3.637h1.96v1.845h.035c.07-.264.192-.51.367-.755.175-.246.385-.475.648-.668.244-.21.524-.369.84-.492.297-.123.612-.193.927-.193.245 0 .42.017.508.017.087.018.192.035.28.035v2.02c-.14-.034-.298-.052-.456-.07-.157-.017-.297-.034-.455-.034q-.525 0-.997.21a2.5 2.5 0 0 0-.823.615c-.227.281-.42.615-.56 1.02-.14.403-.21.878-.21 1.405v4.533h-2.1zm15.19 9.54h-2.065v-1.335h-.035c-.263.492-.648.861-1.156 1.16a3.04 3.04 0 0 1-1.557.44c-1.242 0-2.153-.3-2.712-.932-.56-.615-.84-1.564-.84-2.811v-6.062h2.1v5.85c0 .844.157 1.442.49 1.775.315.352.77.527 1.347.527q.657 0 1.102-.21c.298-.14.543-.317.718-.545.193-.228.315-.51.403-.826.087-.316.122-.667.122-1.036v-5.535h2.1v9.54zm3.57-3.057c.07.615.297 1.037.7 1.3.402.247.892.37 1.452.37.193 0 .42-.018.665-.053s.49-.088.7-.176c.227-.088.403-.21.543-.386a.9.9 0 0 0 .192-.65c-.017-.264-.105-.492-.297-.668-.193-.176-.42-.299-.7-.422a6 6 0 0 0-.98-.263c-.368-.07-.736-.159-1.12-.246-.386-.088-.77-.194-1.138-.317a3.3 3.3 0 0 1-.98-.51 2.2 2.2 0 0 1-.683-.807c-.175-.334-.262-.72-.262-1.213 0-.527.122-.948.385-1.3.245-.351.578-.632.962-.843a4.4 4.4 0 0 1 1.296-.457 7.4 7.4 0 0 1 1.347-.123c.49 0 .963.053 1.4.158.438.106.857.264 1.207.51.368.228.666.544.893.913.245.37.385.826.455 1.353h-2.187c-.105-.51-.333-.843-.683-1.019a2.8 2.8 0 0 0-1.242-.263c-.14 0-.333.017-.526.035-.21.035-.384.07-.577.14-.175.07-.332.176-.455.299a.7.7 0 0 0-.193.51c0 .263.088.456.263.615s.402.28.7.404c.28.105.613.193.98.263s.752.158 1.137.246c.386.088.753.193 1.12.316s.7.281.98.51c.28.21.525.474.7.79s.263.72.263 1.178c0 .562-.122 1.036-.385 1.44-.262.387-.595.72-.997.967-.403.246-.875.421-1.365.544a7.3 7.3 0 0 1-1.488.176c-.595 0-1.155-.07-1.662-.21a4.2 4.2 0 0 1-1.33-.616 2.95 2.95 0 0 1-.876-1.036c-.21-.404-.332-.896-.35-1.476h2.118v.017zm6.912-6.483h1.592V8.047h2.1v2.864h1.89v1.563h-1.89v5.096c0 .228.018.404.035.58.018.158.07.298.123.403.07.106.175.194.297.246.14.053.316.088.56.088.14 0 .298 0 .438-.017s.297-.036.438-.07v1.633a9 9 0 0 1-.683.07c-.228.036-.437.036-.683.036-.56 0-.997-.053-1.33-.158a1.9 1.9 0 0 1-.787-.457 1.64 1.64 0 0 1-.385-.756 6 6 0 0 1-.123-1.054v-5.622h-1.592v-1.599zm7.053 0h1.977v1.3h.035c.298-.562.7-.948 1.225-1.194a3.95 3.95 0 0 1 1.715-.37c.752 0 1.4.124 1.96.405.56.263 1.015.615 1.383 1.09a4.55 4.55 0 0 1 .822 1.615c.175.616.28 1.283.28 1.968 0 .65-.087 1.265-.245 1.863-.175.597-.42 1.142-.752 1.598a3.7 3.7 0 0 1-1.278 1.107c-.525.282-1.12.422-1.82.422-.297 0-.612-.035-.91-.088a4 4 0 0 1-.875-.263 3.1 3.1 0 0 1-.77-.475 2.7 2.7 0 0 1-.595-.667h-.035V24h-2.1V10.928zm7.332 4.78c0-.422-.052-.844-.175-1.248a3.2 3.2 0 0 0-.508-1.072 2.8 2.8 0 0 0-.822-.755c-.333-.194-.718-.282-1.138-.282-.874 0-1.54.3-1.995.914-.437.615-.664 1.44-.664 2.46 0 .492.052.93.175 1.335.122.404.28.756.524 1.054.228.299.508.527.84.703.333.176.7.264 1.138.264.49 0 .875-.106 1.207-.3.333-.192.596-.456.823-.755.21-.316.367-.667.455-1.071.088-.422.14-.826.14-1.248m3.692-8.417h2.1v1.986h-2.1zm0 3.637h2.1v9.54h-2.1zm3.973-3.637h2.1v13.177h-2.1zm8.505 13.441c-.752 0-1.435-.123-2.03-.386a4.6 4.6 0 0 1-1.505-1.037 4.5 4.5 0 0 1-.927-1.599 6.3 6.3 0 0 1-.333-2.02c0-.72.105-1.388.333-2.003.21-.615.525-1.142.927-1.6.403-.438.91-.79 1.505-1.036a5.3 5.3 0 0 1 2.03-.386c.753 0 1.435.123 2.03.386a4.4 4.4 0 0 1 1.505 1.037c.403.44.718.984.928 1.599a6.2 6.2 0 0 1 .332 2.003c0 .737-.105 1.405-.332 2.02s-.525 1.142-.928 1.599c-.402.44-.91.79-1.505 1.037a5.2 5.2 0 0 1-2.03.386m0-1.669c.455 0 .875-.105 1.208-.299.35-.193.612-.456.84-.773.227-.316.385-.685.49-1.072a4.84 4.84 0 0 0 0-2.442 3.2 3.2 0 0 0-.49-1.071 2.7 2.7 0 0 0-.84-.756 2.46 2.46 0 0 0-1.208-.299c-.455 0-.875.106-1.207.3-.35.192-.613.456-.84.755a3.2 3.2 0 0 0-.49 1.071 4.8 4.8 0 0 0 0 2.442c.105.405.262.756.49 1.072s.507.58.84.773c.35.211.752.299 1.207.299m5.425-8.135h1.593V8.047h2.1v2.864h1.89v1.563h-1.89v5.096c0 .228.017.404.035.58.017.158.07.298.122.403.07.106.175.194.298.246.14.053.315.088.56.088.14 0 .297 0 .437-.017s.298-.036.438-.07v1.633a9 9 0 0 1-.683.07c-.227.036-.437.036-.682.036-.56 0-.998-.053-1.33-.158a1.9 1.9 0 0 1-.788-.457 1.64 1.64 0 0 1-.385-.756 6 6 0 0 1-.122-1.054v-5.622h-1.593v-1.599z"/><path fill="#005128" d="m17.968 16.902-.662-2.073-4.776 3.496z"/></svg>