<svg xmlns="http://www.w3.org/2000/svg" width="105" height="24" fill="none" viewBox="0 0 105 24"><path fill="#fff" d="M27.598 4.621H38.22v1.985h-4.182v11.192h-2.293V6.606H27.58zm10.167 3.637h1.96v1.845h.035c.07-.264.193-.51.368-.756s.385-.474.647-.667c.245-.211.525-.37.84-.492.298-.123.613-.194.928-.194.245 0 .42.018.507.018.088.018.193.035.28.035v2.02a4 4 0 0 0-.455-.07c-.157-.017-.297-.035-.455-.035q-.525 0-.997.211a2.5 2.5 0 0 0-.823.615c-.227.281-.42.615-.56 1.019s-.21.878-.21 1.406v4.533h-2.1zm15.19 9.54H50.89v-1.335h-.035c-.262.492-.647.86-1.155 1.16a3.04 3.04 0 0 1-1.557.439c-1.243 0-2.153-.299-2.713-.931-.56-.615-.84-1.564-.84-2.812V8.259h2.1v5.85c0 .844.158 1.441.49 1.775.315.352.77.527 1.348.527q.656 0 1.102-.21c.298-.141.543-.317.718-.545.192-.229.315-.51.402-.826s.123-.668.123-1.037V8.258h2.1v9.54zm3.57-3.057c.07.615.298 1.037.7 1.3.403.246.893.37 1.453.37.192 0 .42-.018.665-.053s.49-.088.7-.176c.227-.088.402-.211.542-.387a.9.9 0 0 0 .193-.65c-.018-.263-.105-.492-.298-.667-.192-.176-.42-.3-.7-.422a6 6 0 0 0-.98-.264c-.367-.07-.735-.158-1.12-.246-.385-.087-.77-.193-1.137-.316a3.3 3.3 0 0 1-.98-.51 2.2 2.2 0 0 1-.683-.808c-.175-.333-.262-.72-.262-1.212 0-.527.122-.949.385-1.3.245-.351.577-.632.962-.843s.823-.37 1.295-.457a7.4 7.4 0 0 1 1.348-.123c.49 0 .962.053 1.4.158s.857.264 1.207.51c.368.228.665.544.893.913.245.37.385.826.455 1.353h-2.188c-.105-.51-.332-.843-.682-1.019a2.8 2.8 0 0 0-1.243-.264c-.14 0-.332.018-.525.036-.21.035-.385.07-.577.14-.175.07-.333.176-.455.299a.7.7 0 0 0-.193.51c0 .263.088.456.263.614s.402.281.7.404c.28.106.612.194.98.264.367.07.752.158 1.137.246s.753.193 1.12.316.7.281.98.51c.28.21.525.474.7.79s.263.72.263 1.177c0 .563-.123 1.037-.385 1.441-.263.387-.595.72-.998.966-.402.246-.875.422-1.365.545a7.3 7.3 0 0 1-1.487.176c-.595 0-1.155-.07-1.663-.211a4.2 4.2 0 0 1-1.33-.615 2.95 2.95 0 0 1-.875-1.037c-.21-.404-.332-.896-.35-1.475h2.118v.017zm6.913-6.483h1.592V5.377h2.1V8.24h1.89v1.564h-1.89V14.9c0 .229.018.404.035.58.018.158.07.299.123.404.07.106.175.193.297.246.14.053.315.088.56.088.14 0 .298 0 .438-.018s.297-.035.437-.07v1.634c-.227.035-.455.053-.682.07-.228.036-.438.036-.683.036-.56 0-.997-.053-1.33-.159a1.9 1.9 0 0 1-.787-.456 1.64 1.64 0 0 1-.385-.756 6 6 0 0 1-.123-1.054V9.822h-1.592v-1.6zm7.052 0h1.978v1.3h.035c.297-.562.7-.949 1.225-1.195a3.95 3.95 0 0 1 1.715-.369c.752 0 1.4.123 1.96.405a3.7 3.7 0 0 1 1.382 1.089 4.55 4.55 0 0 1 .823 1.616c.175.615.28 1.283.28 1.968 0 .65-.088 1.265-.245 1.862-.175.598-.42 1.142-.753 1.6a3.7 3.7 0 0 1-1.277 1.106c-.525.281-1.12.422-1.82.422a5.3 5.3 0 0 1-.91-.088 4 4 0 0 1-.875-.264 3.1 3.1 0 0 1-.77-.474 2.7 2.7 0 0 1-.595-.668h-.035v4.762h-2.1V8.258zm7.333 4.779c0-.422-.053-.843-.175-1.248a3.2 3.2 0 0 0-.508-1.071 2.8 2.8 0 0 0-.822-.756c-.333-.193-.718-.28-1.138-.28-.875 0-1.54.298-1.995.913-.437.615-.665 1.44-.665 2.46 0 .491.053.93.175 1.335.123.404.28.755.525 1.054.228.299.508.527.84.703.333.175.7.263 1.138.263.49 0 .875-.105 1.207-.298.333-.194.595-.457.823-.756a3.1 3.1 0 0 0 .455-1.072c.087-.421.14-.825.14-1.247m3.692-8.416h2.1v1.985h-2.1zm0 3.637h2.1v9.54h-2.1zm3.973-3.637h2.1v13.177h-2.1zm8.505 13.44c-.753 0-1.435-.122-2.03-.386a4.6 4.6 0 0 1-1.505-1.036 4.5 4.5 0 0 1-.928-1.6 6.3 6.3 0 0 1-.332-2.02c0-.72.105-1.388.332-2.003.21-.614.525-1.142.928-1.598.402-.44.91-.791 1.505-1.037a5.3 5.3 0 0 1 2.03-.387c.752 0 1.435.123 2.03.387a4.35 4.35 0 0 1 1.505 1.037c.402.439.717.984.927 1.598s.333 1.283.333 2.003c0 .738-.105 1.406-.333 2.02-.227.616-.525 1.143-.927 1.6-.403.439-.91.79-1.505 1.036a5.2 5.2 0 0 1-2.03.387m0-1.668c.455 0 .875-.106 1.207-.299.35-.193.613-.457.84-.773.228-.316.385-.685.49-1.072a4.84 4.84 0 0 0 0-2.442 3.2 3.2 0 0 0-.49-1.072 2.7 2.7 0 0 0-.84-.755 2.46 2.46 0 0 0-1.207-.299c-.455 0-.875.106-1.208.299-.35.193-.612.457-.84.755a3.2 3.2 0 0 0-.49 1.072 4.8 4.8 0 0 0 0 2.442c.105.404.263.756.49 1.072.228.316.508.58.84.773.35.21.753.299 1.208.299m5.425-8.135h1.592V5.377h2.1V8.24H105v1.564h-1.89V14.9c0 .229.018.404.035.58.018.158.07.299.123.404.07.106.175.193.297.246.14.053.315.088.56.088.14 0 .298 0 .438-.018s.297-.035.437-.07v1.634c-.227.035-.455.053-.682.07-.228.036-.438.036-.683.036-.56 0-.997-.053-1.33-.159a1.9 1.9 0 0 1-.787-.456 1.63 1.63 0 0 1-.385-.756 6 6 0 0 1-.123-1.054V9.822h-1.592v-1.6z"/><path fill="#00b67a" d="M25.148 9.171H15.54L12.583 0 9.607 9.171 0 9.154l7.77 5.675L4.795 24l7.77-5.675L20.335 24l-2.957-9.171z"/><path fill="#005128" d="m18.042 16.902-.665-2.073-4.795 3.496z"/></svg>