<svg xmlns="http://www.w3.org/2000/svg" width="344" height="188" fill="none" viewBox="0 0 344 188"><path fill="url(#paint0_linear_11535_4507)" d="M0 12C0 5.37258 5.37258 0 12 0H332C338.627 0 344 5.37258 344 12V176C344 182.627 338.627 188 332 188H12C5.37259 188 0 182.627 0 176V12Z"/><g filter="url(#filter0_d_11535_4507)"><rect width="312" height="140" x="16" y="24" fill="#fff" rx="8" shape-rendering="crispEdges"/><circle cx="50" cy="58" r="18" fill="#98a0a9"/><path fill="#fff" d="M40.624 62L43.804 53.6H45.568L42.232 62H40.624ZM40.444 62L37.096 53.6H38.86L42.052 62H40.444ZM48.0242 59.216V57.704H49.7882C50.1562 57.704 50.4562 57.584 50.6882 57.344C50.9282 57.104 51.0482 56.788 51.0482 56.396C51.0482 56.14 50.9882 55.916 50.8682 55.724C50.7482 55.524 50.5842 55.368 50.3762 55.256C50.1682 55.144 49.9282 55.092 49.6562 55.1H48.0242V53.6L49.6922 53.588C50.2842 53.58 50.8082 53.7 51.2642 53.948C51.7202 54.188 52.0762 54.52 52.3322 54.944C52.5882 55.36 52.7162 55.844 52.7162 56.396C52.7162 56.94 52.5922 57.424 52.3442 57.848C52.0962 58.272 51.7562 58.608 51.3242 58.856C50.8922 59.096 50.3922 59.216 49.8242 59.216H48.0242ZM46.5722 62V53.6H48.2162V62H46.5722ZM59.6226 62L54.1866 54.5L55.5186 53.6L60.9306 61.064L59.6226 62ZM53.8026 62V53.6H55.5186L55.4466 55.052V62.012L53.8026 62ZM59.6226 62V53.6H61.2546V62H59.6226Z"/><path fill="#98a0a9" d="M85.91 57.18C84.87 57.18 83.95 56.95 83.15 56.49C82.35 56.03 81.72 55.39 81.26 54.57C80.81 53.75 80.585 52.81 80.585 51.75C80.585 50.69 80.81 49.755 81.26 48.945C81.72 48.125 82.345 47.485 83.135 47.025C83.925 46.555 84.835 46.32 85.865 46.32C86.905 46.32 87.82 46.555 88.61 47.025C89.41 47.485 90.03 48.125 90.47 48.945C90.92 49.755 91.145 50.69 91.145 51.75C91.145 52.81 90.92 53.75 90.47 54.57C90.03 55.39 89.415 56.03 88.625 56.49C87.845 56.95 86.94 57.18 85.91 57.18ZM85.91 55.59C86.59 55.59 87.19 55.425 87.71 55.095C88.23 54.765 88.635 54.315 88.925 53.745C89.225 53.165 89.375 52.5 89.375 51.75C89.375 51.01 89.225 50.35 88.925 49.77C88.625 49.19 88.21 48.74 87.68 48.42C87.16 48.09 86.555 47.925 85.865 47.925C85.185 47.925 84.58 48.09 84.05 48.42C83.53 48.74 83.115 49.19 82.805 49.77C82.505 50.34 82.355 51 82.355 51.75C82.355 52.5 82.505 53.165 82.805 53.745C83.115 54.315 83.535 54.765 84.065 55.095C84.605 55.425 85.22 55.59 85.91 55.59ZM95.663 57.18C94.873 57.18 94.268 56.985 93.848 56.595C93.438 56.195 93.233 55.625 93.233 54.885V47.16H94.898V54.57C94.898 54.92 94.978 55.185 95.138 55.365C95.308 55.545 95.553 55.635 95.873 55.635C95.973 55.635 96.083 55.615 96.203 55.575C96.323 55.535 96.458 55.46 96.608 55.35L97.223 56.625C96.963 56.805 96.703 56.94 96.443 57.03C96.183 57.13 95.923 57.18 95.663 57.18ZM91.988 50.94V49.5H96.923V50.94H91.988ZM98.5817 57L98.5667 46.365H100.247L100.262 57H98.5817ZM103.667 57V53.16L105.347 52.71V57H103.667ZM103.667 53.16C103.667 52.56 103.597 52.1 103.457 51.78C103.317 51.45 103.122 51.22 102.872 51.09C102.632 50.96 102.352 50.895 102.032 50.895C101.462 50.885 101.022 51.07 100.712 51.45C100.412 51.83 100.262 52.375 100.262 53.085H99.6167C99.6167 52.295 99.7317 51.62 99.9617 51.06C100.202 50.49 100.537 50.06 100.967 49.77C101.397 49.47 101.907 49.32 102.497 49.32C103.397 49.32 104.097 49.6 104.597 50.16C105.097 50.71 105.347 51.56 105.347 52.71L103.667 53.16ZM110.393 57.18C109.663 57.18 109.013 57.015 108.443 56.685C107.883 56.345 107.438 55.88 107.108 55.29C106.788 54.7 106.628 54.02 106.628 53.25C106.628 52.48 106.793 51.8 107.123 51.21C107.453 50.62 107.903 50.16 108.473 49.83C109.053 49.49 109.713 49.32 110.453 49.32C111.123 49.32 111.723 49.495 112.253 49.845C112.793 50.185 113.223 50.68 113.543 51.33C113.863 51.98 114.023 52.755 114.023 53.655H112.328C112.328 53.005 112.248 52.47 112.088 52.05C111.938 51.63 111.718 51.32 111.428 51.12C111.148 50.91 110.803 50.805 110.393 50.805C109.963 50.805 109.593 50.9 109.283 51.09C108.973 51.28 108.738 51.56 108.578 51.93C108.418 52.29 108.338 52.745 108.338 53.295C108.338 53.785 108.433 54.205 108.623 54.555C108.823 54.905 109.088 55.175 109.418 55.365C109.758 55.545 110.133 55.635 110.543 55.635C110.993 55.635 111.363 55.535 111.653 55.335C111.943 55.125 112.168 54.86 112.328 54.54L113.873 55.2C113.663 55.6 113.393 55.95 113.063 56.25C112.743 56.55 112.358 56.78 111.908 56.94C111.468 57.1 110.963 57.18 110.393 57.18ZM107.738 53.655V52.32H113.138V53.655H107.738ZM116.42 53.01C116.42 52.2 116.575 51.535 116.885 51.015C117.195 50.495 117.595 50.11 118.085 49.86C118.585 49.6 119.105 49.47 119.645 49.47V51.075C119.185 51.075 118.75 51.14 118.34 51.27C117.94 51.39 117.615 51.59 117.365 51.87C117.115 52.15 116.99 52.52 116.99 52.98L116.42 53.01ZM115.31 57V49.5H116.99V57H115.31ZM128.007 57L132.117 46.5H133.977L129.732 57H128.007ZM127.827 57L123.582 46.5H125.427L129.537 57H127.827ZM136.931 53.37V51.765H139.256C139.756 51.765 140.166 51.595 140.486 51.255C140.806 50.915 140.966 50.475 140.966 49.935C140.966 49.565 140.881 49.245 140.711 48.975C140.551 48.695 140.326 48.475 140.036 48.315C139.746 48.155 139.411 48.08 139.031 48.09H136.931V46.5L139.061 46.485C139.781 46.485 140.416 46.635 140.966 46.935C141.516 47.225 141.946 47.63 142.256 48.15C142.566 48.66 142.721 49.255 142.721 49.935C142.721 50.595 142.576 51.185 142.286 51.705C141.996 52.225 141.591 52.635 141.071 52.935C140.561 53.225 139.966 53.37 139.286 53.37H136.931ZM135.356 57V46.5H137.096V57H135.356ZM151.643 57L144.668 47.46L146.063 46.5L153.023 56.01L151.643 57ZM144.263 57V46.5H146.063L146.003 48V57H144.263ZM151.643 57V46.5H153.383V57H151.643Z"/><rect width="215" height="12" x="80" y="72" fill="#eff1f3" rx="2"/><rect width="167" height="12" x="80" y="92" fill="#eff1f3" rx="2"/><rect width="72" height="24" x="32" y="124" fill="#eff1f3" rx="12"/><rect width="72" height="24" x="116" y="124" fill="#eff1f3" rx="12"/><rect width="27" height="15" x="284.5" y="128.5" stroke="#98a0a9" rx="7.5"/><circle cx="292" cy="136" r="4" fill="#98a0a9"/></g><path stroke="#df5740" stroke-linecap="round" stroke-width="2" d="M286 114C286 114 322.5 113 322.5 132.5C322.5 145.102 310.499 151.897 298 153.5C285.181 155.145 268.5 151.5 268.5 138.5C268.5 119.474 294 122 294 122"/><defs><linearGradient id="paint0_linear_11535_4507" x1="172" x2="172" y1="0" y2="188" gradientUnits="userSpaceOnUse"><stop stop-color="#f4f8ff"/><stop offset="1" stop-color="#e4eeff"/></linearGradient><filter id="filter0_d_11535_4507" width="344" height="172" x="0" y="8" color-interpolation-filters="sRGB" filterUnits="userSpaceOnUse"><feFlood flood-opacity="0" result="BackgroundImageFix"/><feColorMatrix in="SourceAlpha" result="hardAlpha" values="0 0 0 0 0 0 0 0 0 0 0 0 0 0 0 0 0 0 127 0"/><feOffset/><feGaussianBlur stdDeviation="8"/><feComposite in2="hardAlpha" operator="out"/><feColorMatrix values="0 0 0 0 0.133333 0 0 0 0 0.180392 0 0 0 0 0.227451 0 0 0 0.12 0"/><feBlend in2="BackgroundImageFix" result="effect1_dropShadow_11535_4507"/><feBlend in="SourceGraphic" in2="effect1_dropShadow_11535_4507" result="shape"/></filter></defs></svg>