<svg xmlns="http://www.w3.org/2000/svg" width="64" height="64" fill="none" viewBox="0 0 64 64"><g id="Warning"><path id="Vector" stroke="#de4558" stroke-linecap="round" stroke-linejoin="round" stroke-width="1.5" d="M32 26V36"/><path id="Vector_2" stroke="#de4558" stroke-linecap="round" stroke-linejoin="round" stroke-width="1.5" d="M28.5476 10.0001L6.54763 48.0001C6.19715 48.6072 6.01234 49.2957 6.01172 49.9966C6.0111 50.6976 6.19469 51.3864 6.54409 51.9941C6.8935 52.6017 7.39645 53.1069 8.00257 53.459C8.60869 53.8111 9.29668 53.9977 9.99763 54.0001H53.9976C54.6986 53.9977 55.3866 53.8111 55.9927 53.459C56.5988 53.1069 57.1018 52.6017 57.4512 51.9941C57.8006 51.3864 57.9842 50.6976 57.9835 49.9966C57.9829 49.2957 57.7981 48.6072 57.4476 48.0001L35.4476 10.0001C35.0998 9.39231 34.5975 8.88717 33.9917 8.53585C33.3859 8.18454 32.698 7.99951 31.9976 7.99951C31.2973 7.99951 30.6094 8.18454 30.0036 8.53585C29.3977 8.88717 28.8955 9.39231 28.5476 10.0001V10.0001Z"/><path id="Vector_3" fill="#de4558" d="M32 46C32.8284 46 33.5 45.3284 33.5 44.5C33.5 43.6716 32.8284 43 32 43C31.1716 43 30.5 43.6716 30.5 44.5C30.5 45.3284 31.1716 46 32 46Z"/></g></svg>