<svg xmlns="http://www.w3.org/2000/svg" width="640" height="168" fill="none" viewBox="0 0 640 168"><g clip-path="url(#clip0_1606_74796)"><g filter="url(#filter0_d_1606_74796)"><rect width="600" height="148" x="20" y="20" fill="#dfe1e5" rx="8"/><rect width="599" height="147" x="20.5" y="20.5" stroke="#d9dbe9" rx="7.5"/></g><path fill="#fff" d="M32 32C32 29.7909 33.7909 28 36 28H84C86.2091 28 88 29.7909 88 32V60H32V32Z"/><rect width="20" height="20" x="40" y="36" fill="#f1f3f4" rx="2"/><g stroke="#4d4d4d" stroke-linecap="round" stroke-linejoin="round" stroke-width="1.5" clip-path="url(#clip1_1606_74796)"><path d="M77.375 42.625 70.625 49.375M77.375 49.375 70.625 42.625"/></g><path fill="#fff" fill-rule="evenodd" d="M28 64C30.2019 63.9915 31.9842 62.2039 31.9842 60V64H28Z" clip-rule="evenodd"/><path fill="#fff" d="M31.9843 60H88.0001V64H31.9843z"/><path fill="#fff" fill-rule="evenodd" d="M92 64C89.7909 64 88.0001 62.2091 88.0001 60H88V64H92Z" clip-rule="evenodd"/><path fill="#9c9ea0" fill-rule="evenodd" d="M116 38C115.724 38 115.5 38.2239 115.5 38.5V45.5H108.5C108.224 45.5 108 45.7239 108 46C108 46.2761 108.224 46.5 108.5 46.5H115.5V53.5C115.5 53.7761 115.724 54 116 54C116.276 54 116.5 53.7761 116.5 53.5V46.5H123.5C123.776 46.5 124 46.2761 124 46C124 45.7239 123.776 45.5 123.5 45.5H116.5V38.5C116.5 38.2239 116.276 38 116 38Z" clip-rule="evenodd"/><path fill="#f7f7fc" d="M20 64H620V112H20V64Z"/><path fill="#fff" d="M20 113H620V162C620 166.418 616.418 170 612 170H28C23.5817 170 20 166.418 20 162V113Z"/><path fill="#d9dbe9" d="M20 112H620V113H20z"/><path stroke="#c4c9ce" stroke-linecap="round" stroke-linejoin="round" stroke-width="1.5" d="M52.875 88H39.125M44.75 82.375 39.125 88 44.75 93.625"/><g stroke="#5c6977" stroke-linecap="round" stroke-linejoin="round" stroke-width="1.5" clip-path="url(#clip2_1606_74796)"><path d="M90.3881 85.7903H93.5131V82.6653"/><path d="M90.8614 92.8614C89.8999 93.8228 88.6749 94.4776 87.3412 94.7429C86.0076 95.0082 84.6253 94.872 83.3691 94.3517C82.1128 93.8313 81.0391 92.9501 80.2836 91.8195C79.5282 90.689 79.125 89.3597 79.125 88C79.125 86.6403 79.5282 85.311 80.2836 84.1805C81.0391 83.0499 82.1128 82.1687 83.3691 81.6483C84.6253 81.128 86.0076 80.9918 87.3412 81.2571C88.6749 81.5224 89.8999 82.1772 90.8614 83.1386L93.513 85.7903"/></g><rect width="408" height="40" x="116" y="68" fill="#fff" rx="20"/><g clip-path="url(#clip3_1606_74796)"><path stroke="#666" stroke-linecap="round" stroke-linejoin="round" d="M145 85.5H135C134.724 85.5 134.5 85.7239 134.5 86V93C134.5 93.2761 134.724 93.5 135 93.5H145C145.276 93.5 145.5 93.2761 145.5 93V86C145.5 85.7239 145.276 85.5 145 85.5Z"/><path fill="#666" d="M140 90.25C140.414 90.25 140.75 89.9142 140.75 89.5C140.75 89.0858 140.414 88.75 140 88.75C139.586 88.75 139.25 89.0858 139.25 89.5C139.25 89.9142 139.586 90.25 140 90.25Z"/><path stroke="#666" stroke-linecap="round" stroke-linejoin="round" d="M137.5 85.5V83.5C137.5 82.837 137.763 82.2011 138.232 81.7322C138.701 81.2634 139.337 81 140 81C140.663 81 141.299 81.2634 141.768 81.7322C142.237 82.2011 142.5 82.837 142.5 83.5V85.5"/></g><path fill="#4a5764" d="M159.027 93V83.018H160.147V93H159.027ZM163.955 93V89.416L165.075 88.996V93H163.955ZM163.955 89.416C163.955 88.7253 163.871 88.198 163.703 87.834C163.545 87.47 163.325 87.2227 163.045 87.092C162.765 86.952 162.448 86.882 162.093 86.882C161.477 86.882 160.997 87.1013 160.651 87.54C160.315 87.9693 160.147 88.5807 160.147 89.374H159.601C159.601 88.6367 159.709 88.002 159.923 87.47C160.138 86.938 160.451 86.532 160.861 86.252C161.272 85.972 161.767 85.832 162.345 85.832C163.185 85.832 163.853 86.0933 164.347 86.616C164.842 87.1387 165.085 87.932 165.075 88.996L163.955 89.416ZM169.366 93.168C168.685 93.168 168.157 92.9907 167.784 92.636C167.411 92.2813 167.224 91.782 167.224 91.138V83.816H168.344V91.026C168.344 91.3807 168.437 91.656 168.624 91.852C168.82 92.0387 169.091 92.132 169.436 92.132C169.548 92.132 169.655 92.118 169.758 92.09C169.87 92.0527 170.015 91.9687 170.192 91.838L170.626 92.748C170.383 92.9067 170.164 93.014 169.968 93.07C169.772 93.1353 169.571 93.168 169.366 93.168ZM166.006 86.994V86H170.444V86.994H166.006ZM174.557 93.168C173.876 93.168 173.348 92.9907 172.975 92.636C172.602 92.2813 172.415 91.782 172.415 91.138V83.816H173.535V91.026C173.535 91.3807 173.628 91.656 173.815 91.852C174.011 92.0387 174.282 92.132 174.627 92.132C174.739 92.132 174.846 92.118 174.949 92.09C175.061 92.0527 175.206 91.9687 175.383 91.838L175.817 92.748C175.574 92.9067 175.355 93.014 175.159 93.07C174.963 93.1353 174.762 93.168 174.557 93.168ZM171.197 86.994V86H175.635V86.994H171.197ZM177.186 95.8V86H178.236L178.306 87.288V95.8H177.186ZM180.672 93.168C180.084 93.168 179.566 93.014 179.118 92.706C178.679 92.398 178.339 91.9687 178.096 91.418C177.853 90.858 177.732 90.2187 177.732 89.5C177.732 88.772 177.853 88.1327 178.096 87.582C178.339 87.0313 178.679 86.602 179.118 86.294C179.566 85.986 180.084 85.832 180.672 85.832C181.297 85.832 181.848 85.986 182.324 86.294C182.8 86.602 183.169 87.0313 183.43 87.582C183.701 88.1327 183.836 88.772 183.836 89.5C183.836 90.2187 183.701 90.858 183.43 91.418C183.169 91.9687 182.8 92.398 182.324 92.706C181.848 93.014 181.297 93.168 180.672 93.168ZM180.42 92.146C180.859 92.146 181.246 92.034 181.582 91.81C181.927 91.586 182.198 91.2733 182.394 90.872C182.599 90.4707 182.702 90.0133 182.702 89.5C182.702 88.9867 182.604 88.5293 182.408 88.128C182.221 87.7267 181.955 87.414 181.61 87.19C181.265 86.966 180.873 86.854 180.434 86.854C180.023 86.854 179.655 86.966 179.328 87.19C179.011 87.414 178.759 87.7267 178.572 88.128C178.395 88.5293 178.306 88.9867 178.306 89.5C178.306 90.0133 178.395 90.4707 178.572 90.872C178.759 91.2733 179.011 91.586 179.328 91.81C179.645 92.034 180.009 92.146 180.42 92.146ZM187.737 93.168C187.224 93.168 186.776 93.0933 186.393 92.944C186.011 92.7853 185.689 92.58 185.427 92.328C185.175 92.076 184.993 91.8007 184.881 91.502L185.861 91.096C186.02 91.4133 186.258 91.67 186.575 91.866C186.893 92.062 187.243 92.16 187.625 92.16C188.064 92.16 188.433 92.076 188.731 91.908C189.03 91.7307 189.179 91.4833 189.179 91.166C189.179 90.8767 189.067 90.6433 188.843 90.466C188.629 90.2887 188.307 90.144 187.877 90.032L187.205 89.85C186.571 89.682 186.076 89.43 185.721 89.094C185.367 88.7487 185.189 88.3613 185.189 87.932C185.189 87.2693 185.404 86.756 185.833 86.392C186.272 86.0187 186.921 85.832 187.779 85.832C188.19 85.832 188.563 85.8927 188.899 86.014C189.235 86.1353 189.525 86.308 189.767 86.532C190.01 86.7467 190.187 87.0033 190.299 87.302L189.319 87.736C189.198 87.4187 188.997 87.19 188.717 87.05C188.437 86.91 188.097 86.84 187.695 86.84C187.266 86.84 186.93 86.9333 186.687 87.12C186.445 87.2973 186.323 87.5493 186.323 87.876C186.323 88.0627 186.421 88.24 186.617 88.408C186.823 88.5667 187.121 88.6973 187.513 88.8L188.213 88.982C188.671 89.094 189.053 89.262 189.361 89.486C189.669 89.7007 189.903 89.948 190.061 90.228C190.22 90.508 190.299 90.8067 190.299 91.124C190.299 91.544 190.187 91.908 189.963 92.216C189.739 92.524 189.436 92.762 189.053 92.93C188.671 93.0887 188.232 93.168 187.737 93.168ZM192.493 87.526C192.278 87.526 192.092 87.4513 191.933 87.302C191.784 87.1527 191.709 86.9707 191.709 86.756C191.709 86.5413 191.784 86.3593 191.933 86.21C192.092 86.0513 192.278 85.972 192.493 85.972C192.698 85.972 192.876 86.0513 193.025 86.21C193.184 86.3593 193.263 86.5413 193.263 86.756C193.263 86.9707 193.184 87.1527 193.025 87.302C192.876 87.4513 192.698 87.526 192.493 87.526ZM192.507 93.028C192.292 93.028 192.11 92.9533 191.961 92.804C191.812 92.6453 191.737 92.4587 191.737 92.244C191.737 92.0293 191.812 91.8473 191.961 91.698C192.11 91.5487 192.292 91.474 192.507 91.474C192.722 91.474 192.904 91.5487 193.053 91.698C193.212 91.8473 193.291 92.0293 193.291 92.244C193.291 92.4587 193.212 92.6453 193.053 92.804C192.904 92.9533 192.722 93.028 192.507 93.028ZM194.38 94.176L198.244 82.542H199.406L195.57 94.176H194.38ZM199.721 94.176L203.585 82.542H204.747L200.911 94.176H199.721Z"/><path fill="#20df9e" d="M547.997 95.9999C547.994 96 547.991 96 547.988 96C547.973 96 547.957 95.9984 547.938 95.9953C547.022 95.8835 542.365 93.7703 541.748 88.0557C541.693 87.7127 541.664 87.3646 541.664 87.0126L541.675 86.5813C541.641 84.2984 541.693 83.0713 541.743 82.4492C541.771 82.0917 542.018 81.8077 542.36 81.6942L546.994 80.1584C547.32 80.0505 547.659 79.9977 547.997 80.0001C548.336 79.9977 548.675 80.0505 549.001 80.1584L553.634 81.6942C553.977 81.8077 554.224 82.0917 554.252 82.4492C554.301 83.0714 554.354 84.2984 554.32 86.5813L554.331 87.0126C554.331 87.3646 554.301 87.7127 554.247 88.0557C553.63 93.7703 548.972 95.8835 548.057 95.9953C548.038 95.9984 548.021 96 548.007 96C548.004 96 548.001 96 547.997 95.9999Z"/><path fill="#20a690" fill-rule="evenodd" d="M547.997 95.2451C548.127 95.2182 548.473 95.1091 548.965 94.8496C549.487 94.5748 550.118 94.1591 550.743 93.5798C551.987 92.4273 553.205 90.6294 553.491 87.9763C553.493 87.9639 553.494 87.9517 553.496 87.9394C553.544 87.6357 553.57 87.3296 553.571 87.0219L553.56 86.6004C553.56 86.5903 553.56 86.5802 553.56 86.5701C553.594 84.3002 553.541 83.0982 553.494 82.5075C553.493 82.4864 553.486 82.4709 553.474 82.4564C553.46 82.4401 553.435 82.4193 553.392 82.4052L548.759 80.8694C548.513 80.788 548.258 80.7483 548.003 80.7501H547.992C547.737 80.7483 547.481 80.788 547.236 80.8694L542.602 82.4052C542.56 82.4193 542.534 82.4401 542.521 82.4564C542.509 82.4709 542.502 82.4864 542.5 82.5075C542.454 83.0982 542.401 84.3002 542.435 86.5701C542.435 86.5802 542.435 86.5903 542.435 86.6004L542.424 87.0219C542.425 87.3296 542.45 87.6357 542.499 87.9394C542.501 87.9517 542.502 87.9639 542.504 87.9763C542.79 90.6294 544.008 92.4273 545.251 93.5798C545.876 94.1591 546.508 94.5748 547.029 94.8496C547.522 95.1091 547.868 95.2182 547.997 95.2451ZM541.664 87.0126L541.675 86.5813C541.641 84.2984 541.693 83.0713 541.743 82.4492C541.771 82.0917 542.018 81.8077 542.36 81.6942L546.994 80.1584C547.32 80.0505 547.659 79.9977 547.997 80.0001C548.336 79.9977 548.675 80.0505 549.001 80.1584L553.634 81.6942C553.977 81.8077 554.224 82.0917 554.252 82.4492C554.301 83.0714 554.354 84.2984 554.32 86.5813L554.331 87.0126C554.331 87.3646 554.301 87.7127 554.247 88.0557C553.63 93.7703 548.972 95.8835 548.057 95.9953C548.038 95.9984 548.021 96 548.007 96C548.004 96 548.001 96 547.997 95.9999C547.994 96 547.991 96 547.988 96C547.973 96 547.957 95.9984 547.938 95.9953C547.022 95.8835 542.365 93.7703 541.748 88.0557C541.693 87.7127 541.664 87.3646 541.664 87.0126Z" clip-rule="evenodd"/><path fill="#000" d="M547.998 95.9999C547.998 93 547.95 83.2533 547.998 80.0001C548.337 79.9977 548.676 80.0505 549.001 80.1584L553.635 81.6942C553.977 81.8077 554.224 82.0917 554.253 82.4492C554.302 83.0714 554.355 84.2984 554.32 86.5813L554.331 87.0126C554.331 87.3646 554.302 87.7127 554.247 88.0557C553.63 93.7703 548.973 95.8835 548.057 95.9953C548.039 95.9984 548.022 96 548.007 96C548.004 96 548.001 96 547.998 95.9999Z" opacity="0.1"/><ellipse cx="547.997" cy="88.25" fill="#18aa79" rx="4.56" ry="4.5"/><ellipse cx="547.99" cy="87.5" fill="#4fffa8" rx="4.56" ry="4.5"/><path fill="#00b7ff" d="M544.188 87.4991C544.187 87.1672 544.232 86.8366 544.321 86.5163C544.467 86.8249 544.679 87.0916 544.824 87.4083C545.011 87.8154 545.512 87.7025 545.733 88.0592C545.929 88.3759 545.72 88.7764 545.867 89.1077C545.973 89.3482 546.225 89.4007 546.399 89.5766C546.576 89.7539 546.572 89.997 546.6 90.2283C546.63 90.5 546.68 90.7694 546.748 91.0345C546.748 91.0365 546.748 91.0386 546.75 91.0406C545.259 90.5272 544.188 89.1337 544.188 87.4991ZM548.012 91.25C547.798 91.2499 547.585 91.2324 547.374 91.1976C547.377 91.1447 547.378 91.0953 547.383 91.0609C547.431 90.7503 547.59 90.4465 547.804 90.214C548.015 89.9847 548.305 89.8296 548.483 89.5693C548.658 89.3154 548.71 88.9735 548.638 88.6767C548.532 88.2384 547.925 88.092 547.597 87.8543C547.409 87.7175 547.242 87.5062 546.995 87.489C546.881 87.4811 546.785 87.5052 546.672 87.4767C546.569 87.4503 546.487 87.3956 546.377 87.4098C546.171 87.4364 546.041 87.6525 545.819 87.6232C545.609 87.5956 545.393 87.3544 545.345 87.158C545.284 86.9056 545.487 86.8238 545.705 86.8013C545.796 86.7919 545.898 86.7818 545.986 86.8146C546.101 86.8564 546.155 86.967 546.259 87.0228C546.453 87.1272 546.492 86.9605 546.462 86.7917C546.418 86.5389 546.366 86.436 546.596 86.2619C546.755 86.142 546.891 86.0552 546.866 85.8397C546.851 85.7132 546.78 85.6559 546.846 85.5299C546.896 85.434 547.033 85.3474 547.123 85.2902C547.353 85.1425 548.111 85.1535 547.802 84.7401C547.711 84.6188 547.543 84.4019 547.384 84.3722C547.184 84.3353 547.096 84.5533 546.957 84.6494C546.814 84.7489 546.534 84.8618 546.391 84.708C546.198 84.5012 546.519 84.4334 546.59 84.2888C546.623 84.2214 546.59 84.1278 546.535 84.0397C546.606 84.01 546.679 83.9825 546.754 83.9571C546.8 83.9908 546.855 84.0111 546.913 84.0157C547.046 84.0243 547.172 83.9536 547.288 84.0426C547.417 84.1403 547.51 84.2638 547.682 84.2943C547.847 84.3238 548.023 84.229 548.064 84.0626C548.089 83.9614 548.064 83.8545 548.04 83.75C548.785 83.7542 549.512 83.973 550.131 84.3792C550.092 84.3644 550.044 84.3662 549.985 84.3929C549.864 84.448 549.693 84.5883 549.679 84.7274C549.663 84.8852 549.9 84.9075 550.013 84.9075C550.182 84.9075 550.354 84.8333 550.299 84.6414C550.275 84.5582 550.243 84.4717 550.191 84.4193C550.316 84.5043 550.436 84.5966 550.55 84.6955C550.548 84.6973 550.546 84.6989 550.544 84.7008C550.43 84.818 550.296 84.9108 550.218 85.0534C550.162 85.1538 550.1 85.2015 549.988 85.2275C549.926 85.2418 549.856 85.247 549.804 85.2877C549.66 85.399 549.742 85.6667 549.878 85.747C550.051 85.8483 550.307 85.8007 550.437 85.6559C550.539 85.5426 550.599 85.3459 550.782 85.3461C550.863 85.3459 550.94 85.3769 550.998 85.4322C551.073 85.5092 551.059 85.5811 551.075 85.6772C551.103 85.848 551.257 85.7554 551.35 85.6692C551.418 85.7881 551.48 85.9105 551.534 86.0359C551.431 86.181 551.35 86.3393 551.103 86.1701C550.955 86.0687 550.864 85.9216 550.678 85.8759C550.515 85.8368 550.349 85.8775 550.189 85.9046C550.006 85.9357 549.79 85.9493 549.652 86.0847C549.518 86.2152 549.448 86.3899 549.306 86.521C549.031 86.7749 548.914 87.0521 549.092 87.4112C549.264 87.7564 549.622 87.9438 550.009 87.9191C550.388 87.8943 550.783 87.6783 550.772 88.2196C550.768 88.4112 550.809 88.5439 550.869 88.7219C550.924 88.886 550.921 89.045 550.933 89.2144C550.946 89.4127 550.977 89.6094 551.028 89.8018C550.671 90.2527 550.214 90.6175 549.691 90.8685C549.168 91.1195 548.594 91.25 548.012 91.25Z"/><path fill="#000" d="M546.476 90.501C548.994 90.501 551.036 88.4863 551.036 86.001C551.036 85.1428 550.792 84.3406 550.37 83.6582C551.681 84.4486 552.556 85.874 552.556 87.501C552.556 89.9863 550.514 92.001 547.996 92.001C546.347 92.001 544.903 91.1375 544.102 89.8438C544.793 90.2607 545.606 90.501 546.476 90.501Z" opacity="0.1"/><path fill="#342b53" fill-rule="evenodd" d="M547.997 91.125C550.026 91.125 551.671 89.502 551.671 87.5C551.671 85.498 550.026 83.875 547.997 83.875C545.969 83.875 544.324 85.498 544.324 87.5C544.324 89.502 545.969 91.125 547.997 91.125ZM547.997 92C550.516 92 552.557 89.9853 552.557 87.5C552.557 85.0147 550.516 83 547.997 83C545.479 83 543.438 85.0147 543.438 87.5C543.438 89.9853 545.479 92 547.997 92Z" clip-rule="evenodd"/><g filter="url(#filter1_d_1606_74796)"><ellipse cx="551.923" cy="85.375" fill="#ff5e5c" rx="1.9" ry="1.875"/><path fill="#fff" fill-rule="evenodd" d="M552.49 85.093H552.633C552.688 85.093 552.733 85.1373 552.733 85.192V86.1509C552.733 86.2057 552.688 86.25 552.633 86.25H551.202C551.146 86.25 551.102 86.2057 551.102 86.1509V85.192C551.102 85.1373 551.146 85.093 551.202 85.093H551.345V84.8148C551.345 84.5029 551.601 84.25 551.917 84.25C552.233 84.25 552.49 84.5029 552.49 84.8148V85.093ZM551.631 85.093H552.204L552.204 84.8148C552.204 84.6589 552.075 84.5324 551.917 84.5324C551.759 84.5324 551.631 84.6588 551.631 84.8148V85.093ZM551.917 85.8633C552.039 85.8633 552.139 85.7653 552.139 85.6445C552.139 85.5237 552.039 85.4258 551.917 85.4258C551.795 85.4258 551.695 85.5237 551.695 85.6445C551.695 85.7653 551.795 85.8633 551.917 85.8633Z" clip-rule="evenodd"/></g><path fill="#000" d="M593.471 83.5286L593.825 83.175H593.825L593.471 83.5286ZM593.471 86.4814L593.118 86.1278L593.471 86.4814ZM591.69 87.0672L591.336 86.7136L591.69 87.0672ZM591.3 88.005L590.8 88.0068L590.8 88.0031L591.3 88.005ZM591.69 88.9428L591.336 89.2964H591.336L591.69 88.9428ZM593.471 89.5286L593.825 89.175H593.825L593.471 89.5286ZM593.471 92.4814L593.825 92.8349L593.825 92.8349L593.471 92.4814ZM590.529 92.8719L590.175 92.5184L590.175 92.5184L590.529 92.8719ZM589.943 94.65L589.589 94.2964L589.589 94.2964L589.943 94.65ZM587.471 92.8719L587.825 92.5184L587.825 92.5184L587.471 92.8719ZM584.529 92.4814L584.175 92.8349L584.175 92.8349L584.529 92.4814ZM584.138 89.5386L584.492 89.185L584.492 89.185L584.138 89.5386ZM582.36 88.9528L582.006 89.3063H582.006L582.36 88.9528ZM581.97 88.005L582.47 88.003L582.47 88.007L581.97 88.005ZM588.057 81.36L588.411 81.7135L588.057 81.36ZM589.943 81.36L589.589 81.7135L589.943 81.36ZM593 83.8333H591V82.8333H593V83.8333ZM593.118 83.8821C593.087 83.8509 593.044 83.8333 593 83.8333V82.8333C593.31 82.8333 593.606 82.9562 593.825 83.175L593.118 83.8821ZM593.167 84C593.167 83.9558 593.149 83.9134 593.118 83.8821L593.825 83.175C594.044 83.3938 594.167 83.6906 594.167 84H593.167ZM593.167 84.01V84H594.167V84.01H593.167ZM594.167 84.01V86H593.167V84.01H594.167ZM594.167 86V86.01H593.167V86H594.167ZM594.167 86.01C594.167 86.3194 594.044 86.6161 593.825 86.8349L593.118 86.1278C593.149 86.0966 593.167 86.0542 593.167 86.01H594.167ZM593.825 86.8349C593.606 87.0537 593.31 87.1766 593 87.1766V86.1766C593.044 86.1766 593.087 86.1591 593.118 86.1278L593.825 86.8349ZM593 87.1766H592.63V86.1766H593V87.1766ZM592.63 87.1766C592.41 87.1766 592.201 87.2636 592.044 87.4207L591.336 86.7136C591.679 86.3706 592.143 86.1766 592.63 86.1766V87.1766ZM592.044 87.4207C591.888 87.5759 591.801 87.7865 591.8 88.0068L590.8 88.0031C590.802 87.5199 590.994 87.0562 591.336 86.7136L592.044 87.4207ZM591.336 89.2964C590.994 88.9538 590.802 88.4901 590.8 88.0068L591.8 88.0031C591.801 88.2235 591.888 88.4341 592.044 88.5892L591.336 89.2964ZM592.63 89.8333C592.143 89.8333 591.679 89.6394 591.336 89.2964L592.044 88.5892C592.201 88.7463 592.41 88.8333 592.63 88.8333V89.8333ZM593 89.8333H592.63V88.8333H593V89.8333ZM593.118 89.8821C593.087 89.8509 593.044 89.8333 593 89.8333V88.8333C593.31 88.8333 593.606 88.9562 593.825 89.175L593.118 89.8821ZM593.167 90C593.167 89.9558 593.149 89.9134 593.118 89.8821L593.825 89.175C594.044 89.3938 594.167 89.6906 594.167 90H593.167ZM593.167 90.01V90H594.167V90.01H593.167ZM594.167 90.01V92H593.167V90.01H594.167ZM594.167 92V92.01H593.167V92H594.167ZM594.167 92.01C594.167 92.3194 594.044 92.6161 593.825 92.8349L593.118 92.1278C593.149 92.0966 593.167 92.0542 593.167 92.01H594.167ZM593.825 92.8349C593.606 93.0537 593.31 93.1766 593 93.1766V92.1766C593.044 92.1766 593.087 92.1591 593.118 92.1278L593.825 92.8349ZM593 93.1766H591V92.1766H593V93.1766ZM591 93.1766C590.956 93.1766 590.913 93.1942 590.882 93.2255L590.175 92.5184C590.394 92.2996 590.691 92.1766 591 92.1766V93.1766ZM590.882 93.2255C590.851 93.2567 590.833 93.2991 590.833 93.3433H589.833C589.833 93.0339 589.956 92.7371 590.175 92.5184L590.882 93.2255ZM590.833 93.3433V93.71H589.833V93.3433H590.833ZM590.833 93.71C590.833 94.1974 590.639 94.6605 590.296 95.0036L589.589 94.2964C589.746 94.1394 589.833 93.9299 589.833 93.71H590.833ZM590.296 95.0036C589.952 95.3477 589.486 95.54 589 95.54V94.54C589.222 94.54 589.433 94.4524 589.589 94.2964L590.296 95.0036ZM589 95.54C588.514 95.54 588.048 95.3477 587.704 95.0036L588.411 94.2964C588.567 94.4524 588.779 94.54 589 94.54V95.54ZM587.704 95.0036C587.361 94.6605 587.167 94.1974 587.167 93.71H588.167C588.167 93.9299 588.254 94.1394 588.411 94.2964L587.704 95.0036ZM587.167 93.71V93.3433H588.167V93.71H587.167ZM587.167 93.3433C587.167 93.2991 587.149 93.2567 587.118 93.2255L587.825 92.5184C588.044 92.7371 588.167 93.0339 588.167 93.3433H587.167ZM587.118 93.2255C587.087 93.1942 587.044 93.1766 587 93.1766V92.1766C587.31 92.1766 587.606 92.2996 587.825 92.5184L587.118 93.2255ZM587 93.1766H585V92.1766H587V93.1766ZM585 93.1766C584.691 93.1766 584.394 93.0537 584.175 92.8349L584.882 92.1278C584.913 92.1591 584.956 92.1766 585 92.1766V93.1766ZM584.175 92.8349C583.956 92.6161 583.833 92.3194 583.833 92.01H584.833C584.833 92.0542 584.851 92.0966 584.882 92.1278L584.175 92.8349ZM583.833 92.01V92H584.833V92.01H583.833ZM583.833 92V90.01H584.833V92H583.833ZM583.833 90.01C583.833 89.9658 583.816 89.9234 583.785 89.8921L584.492 89.185C584.71 89.4038 584.833 89.7006 584.833 90.01H583.833ZM583.785 89.8921C583.753 89.8609 583.711 89.8433 583.667 89.8433V88.8433C583.976 88.8433 584.273 88.9662 584.492 89.185L583.785 89.8921ZM583.667 89.8433H583.3V88.8433H583.667V89.8433ZM583.3 89.8433C582.813 89.8433 582.349 89.6494 582.006 89.3063L582.714 88.5992C582.871 88.7563 583.08 88.8433 583.3 88.8433V89.8433ZM582.006 89.3063C581.662 88.9622 581.47 88.4957 581.47 88.01H582.47C582.47 88.2315 582.558 88.4433 582.714 88.5992L582.006 89.3063ZM581.47 88.01C581.47 88.0077 581.47 88.0054 581.47 88.003L582.47 88.007C582.47 88.0079 582.47 88.0089 582.47 88.01H581.47ZM582.47 88C582.47 88.0011 582.47 88.0021 582.47 88.003L581.47 88.007C581.47 88.0046 581.47 88.0022 581.47 88H582.47ZM582.714 87.4107C582.558 87.5667 582.47 87.7785 582.47 88H581.47C581.47 87.5143 581.662 87.0478 582.006 86.7036L582.714 87.4107ZM583.3 87.1667C583.08 87.1667 582.871 87.2537 582.714 87.4107L582.006 86.7036C582.349 86.3606 582.813 86.1667 583.3 86.1667V87.1667ZM583.667 87.1667H583.3V86.1667H583.667V87.1667ZM584.492 86.8249C584.273 87.0437 583.976 87.1667 583.667 87.1667V86.1667C583.711 86.1667 583.753 86.1491 583.785 86.1178L584.492 86.8249ZM584.833 86C584.833 86.3094 584.71 86.6062 584.492 86.8249L583.785 86.1178C583.816 86.0866 583.833 86.0442 583.833 86H584.833ZM583.833 86V84.01H584.833V86H583.833ZM584.833 84V84.01H583.833V84H584.833ZM584.882 83.8821C584.851 83.9134 584.833 83.9558 584.833 84H583.833C583.833 83.6906 583.956 83.3938 584.175 83.175L584.882 83.8821ZM585 83.8333C584.956 83.8333 584.913 83.8509 584.882 83.8821L584.175 83.175C584.394 82.9562 584.691 82.8333 585 82.8333V83.8333ZM587 83.8333H585V82.8333H587V83.8333ZM587.825 83.4916C587.606 83.7104 587.31 83.8333 587 83.8333V82.8333C587.044 82.8333 587.087 82.8158 587.118 82.7845L587.825 83.4916ZM588.167 82.6667C588.167 82.9761 588.044 83.2728 587.825 83.4916L587.118 82.7845C587.149 82.7533 587.167 82.7109 587.167 82.6667H588.167ZM588.167 82.3V82.6667H587.167V82.3H588.167ZM588.411 81.7135C588.254 81.8706 588.167 82.0801 588.167 82.3H587.167C587.167 81.8126 587.361 81.3494 587.704 81.0064L588.411 81.7135ZM589 81.47C588.779 81.47 588.567 81.5576 588.411 81.7135L587.704 81.0064C588.048 80.6622 588.514 80.47 589 80.47V81.47ZM589.589 81.7135C589.433 81.5576 589.222 81.47 589 81.47V80.47C589.486 80.47 589.952 80.6622 590.296 81.0064L589.589 81.7135ZM589.833 82.3C589.833 82.0801 589.746 81.8706 589.589 81.7135L590.296 81.0064C590.639 81.3494 590.833 81.8126 590.833 82.3H589.833ZM589.833 82.6667V82.3H590.833V82.6667H589.833ZM590.175 83.4916C589.956 83.2728 589.833 82.9761 589.833 82.6667H590.833C590.833 82.7109 590.851 82.7533 590.882 82.7845L590.175 83.4916ZM591 83.8333C590.691 83.8333 590.394 83.7104 590.175 83.4916L590.882 82.7845C590.913 82.8158 590.956 82.8333 591 82.8333V83.8333Z"/></g><defs><clipPath id="clip0_1606_74796"><path fill="#fff" d="M0 0H640V168H0z"/></clipPath><clipPath id="clip1_1606_74796"><path fill="#fff" d="M0 0H12V12H0z" transform="translate(68 40)"/></clipPath><clipPath id="clip2_1606_74796"><path fill="#fff" d="M0 0H20V20H0z" transform="translate(76 78)"/></clipPath><clipPath id="clip3_1606_74796"><path fill="#fff" d="M0 0H16V16H0z" transform="translate(132 80)"/></clipPath><filter id="filter0_d_1606_74796" width="652" height="200" x="-6" y="-6" color-interpolation-filters="sRGB" filterUnits="userSpaceOnUse"><feFlood flood-opacity="0" result="BackgroundImageFix"/><feColorMatrix in="SourceAlpha" result="hardAlpha" values="0 0 0 0 0 0 0 0 0 0 0 0 0 0 0 0 0 0 127 0"/><feMorphology in="SourceAlpha" operator="dilate" radius="2" result="effect1_dropShadow_1606_74796"/><feOffset/><feGaussianBlur stdDeviation="12"/><feComposite in2="hardAlpha" operator="out"/><feColorMatrix values="0 0 0 0 0.305882 0 0 0 0 0.294118 0 0 0 0 0.4 0 0 0 0.12 0"/><feBlend in2="BackgroundImageFix" result="effect1_dropShadow_1606_74796"/><feBlend in="SourceGraphic" in2="effect1_dropShadow_1606_74796" result="shape"/></filter><filter id="filter1_d_1606_74796" width="7.80005" height="7.75" x="548.023" y="81.5" color-interpolation-filters="sRGB" filterUnits="userSpaceOnUse"><feFlood flood-opacity="0" result="BackgroundImageFix"/><feColorMatrix in="SourceAlpha" result="hardAlpha" values="0 0 0 0 0 0 0 0 0 0 0 0 0 0 0 0 0 0 127 0"/><feOffset/><feGaussianBlur stdDeviation="1"/><feComposite in2="hardAlpha" operator="out"/><feColorMatrix values="0 0 0 0 0 0 0 0 0 0 0 0 0 0 0 0 0 0 0.2 0"/><feBlend in2="BackgroundImageFix" result="effect1_dropShadow_1606_74796"/><feBlend in="SourceGraphic" in2="effect1_dropShadow_1606_74796" result="shape"/></filter></defs></svg>