<svg xmlns="http://www.w3.org/2000/svg" width="1024" height="1024" fill="none"><g clip-path="url(#a)"><path fill="#5C6977" d="M1023.9 459.01v70c-1.78 1.63-4 1.37-6.15 1.38h-21.443c-1.8 0-3.669-.33-5.349.66a7.8 7.8 0 0 0-1.101 1.33c-.92 2.1-.519 4.3-.519 6.44v89c0 2.46.45 5-1.06 7.29-1.84 1.54-4.07 1.24-6.2 1.26h-21.45c-5.75 0-6.25.5-6.25 6.29v89.29c0 2.66.099 5.32-.151 8-.06.66-.18-.13 0 .48s.321-.21.551-.14c2.16-1.18 4.519-.94 6.829-.94h54.763c2.62 0 5.37-.34 7.6 1.6v35c-1.93 1.74-4.32 1.32-6.59 1.39-8.72.25-17.453-.49-26.143.44a6.98 6.98 0 0 0-1.19 1c-1.48 4.91-.609 9.92-.609 14.87 0 5.45-.791 11 .539 16.36.37.384.787.72 1.24 1 8.72 1.08 17.453.19 26.163.48 2.28.08 4.66-.34 6.59 1.39v34c-1.78 1.62-4 1.39-6.15 1.39h-57.802c-6.56 0-7.401-.88-7.421-7.6-.06-18.43 0-36.87 0-55.31 0-2 .271-4-.399-5.91a7.58 7.58 0 0 0-1-1.31c-2.26-1.52-4.801-.79-7.211-.83-6.41-.1-12.819 0-19.219 0-1.8 0-3.71-.27-4.68 1.84-.85 4.12-.391 8.27-.411 12.4-.06 15.89 0 31.77 0 47.66 0 2.62.34 5.33-1.19 7.73-2.11 1.85-4.7 1.26-7.14 1.36-8.76.36-17.559-.67-26.279.61-1.41.95-1.571 2.37-1.571 3.92v24.16c0 1.55.17 3 1.68 3.82 8.53 1.17 17.071.2 25.591.53 2.59.11 5.31-.33 7.56 1.53a5.853 5.853 0 0 1 1.24 3.69c.24 9.22.24 18.443 0 27.67a6.007 6.007 0 0 1-1.24 3.69c-2.43 2-5.361 1.54-8.151 1.55-17.66.05-35.32 0-53 0-7.27 0-7.419.2-7.469 7.65 0 7 .179 14-.101 21-.22 5.45-1.88 7.11-7.38 7.26-8.33.22-16.66.13-25 0-2 0-4.06 0-5.42-1.93-.26-20.58 0-41.17-.119-61.76 0-2.15.289-4.32-.401-6.41a7.66 7.66 0 0 0-1-1.27c-2.64-1.49-5.529-.8-8.259-.72-7.7.23-15.461-.92-23.101.7a6.827 6.827 0 0 0-1 1.37c-.73 1.95-.409 4-.409 5.94v89.15c0 2.46.44 5-.93 7.31-1.56 1.62-3.61 1.44-5.57 1.44-9.26 0-18.521.14-27.771-.06-.67 0 .141-.15-.489 0-.9.2.17.37.07.6 1.83 7.81.61 15.73.82 23.59.1 3.52.94 7.29-1.51 10.5H634.997c-1.46-1.62-1.54-3.63-1.559-5.64-.051-8-.151-16 0-24 .129-6.06 1.779-7.7 7.809-7.88 7.5-.21 15-.13 22.49 0 4 0 5.731-1.55 5.651-5.61a497.563 497.563 0 0 1 0-20c.06-3.86-1.59-5.29-5.38-5.27-18.987.06-37.987.06-57 0-4.13 0-5.61 1.62-5.53 5.64.15 6.82.09 13.66 0 20.49 0 2.31.179 4.7-1.461 6.68-1.93 1.32-4.14 1-6.28 1h-92.669c-2.13 0-4.351.28-6.271-1.08-1.42-1.68-1.25-3.73-1.25-5.7v-58.37c0-1.81-.14-3.69 1.07-5.27.42-.27.791-.71 1.271-.75 11-.81 21.919-1.48 32.849.35 1.91 1.62 1.55 3.87 1.57 6 .07 7.23 0 14.46 0 21.68 0 1.93-.4 4 1.25 5.56 3 1.64 6.221.71 9.321.79 5.65.16 11.31.06 17 0 1.81 0 3.729.29 4.899-1.64 1.25-8.24.22-16.5.58-24.74.11-2.59-.439-5.34 1.581-7.55 1.929-1.34 4.149-1.06 6.279-1.06h128.221c2.14 0 4.35-.3 6.32.9 2.11 2.17 1.589 4.95 1.699 7.56.34 8.3-.63 16.63.59 24.89.91 1.46 2.32 1.65 3.88 1.65 9.24 0 18.471.07 27.711-.06.66 0-.17 0 .49-.07 1.09-.18 0-.46 0-.71-1.71-7.22-.601-14.53-.771-21.8-.26-11.16 1-10.36-10.62-10.4h-15.94c-2.14 0-4.35.1-6.2-1.34-1.56-2.22-1.1-4.78-1.1-7.22 0-19 0-38.07-.07-57.11 0-1.52.88-3.32-.84-4.54-8.56.42-17.099.14-25.639.24-2.12 0-4.29-.27-6.25.85-1.69 1.35-1.391 3.25-1.401 5v20.82c0 2.12.3 4.35-1.34 6.13-2.29 1.42-4.84 1-7.3 1-29.566.04-59.136.04-88.709 0-2.25 0-4.72-.65-6.53 1.43-1.7 3.65-.751 7.51-.871 11.25-.17 5.45 0 10.9-.08 16.35 0 2 0 4-1.47 5.61a5.478 5.478 0 0 1-3.17 1.28c-10.53.12-21.079.88-31.599-.42a10.501 10.501 0 0 1-1.63-1.09c-1.58-2.38-1.221-5.1-1.231-7.71v-53.14c0-2.31.191-4.64-.519-6.88a3.338 3.338 0 0 0-2.851-1.69c-9.26 0-18.509-.2-27.769.11-.66 0 .17-.05-.47.13-1 .27-.1.54 0 .82.94 1.89.77 3.91.78 5.89v55.41c0 2.32.19 4.69-1.06 6.82a6.481 6.481 0 0 1-1.5 1.21c-8.22 1.6-16.531.52-24.801.71-8.62.2-8.63 0-8.63 8.87v51.29c0 2.48.21 5-.65 7.4a3.405 3.405 0 0 1-1.2 1.48c-4.2 1.53-8.569.8-12.849.74-7.12-.1-14.281.82-21.371-.59a3.134 3.134 0 0 1-1.34-1.4c-1.06-2.73-.759-5.59-.759-8.41V855.25c-.17-5.18-.61-5.74-5.81-5.77-13.17-.1-26.331 0-39.491 0h-52c-7.58 0-8.59-1.12-8.66-8.76-.06-7.16 0-14.33 0-21.49 0-2.16-.08-4.36 1.17-6.3 2.06-1.93 4.66-1.41 7.08-1.42 18.37-.05 36.74 0 55.11 0 2 0 4 .32 5.87-.5a7.636 7.636 0 0 0 1.25-1.16c1.64-7.38.21-14.85.74-22.25.27-3.71-1.069-7.64 1.381-11.09a8.187 8.187 0 0 1 4.75-1.13c8.08-.09 16.169-.07 24.259 0a9.049 9.049 0 0 1 4.78 1c2.1 2 1.48 4.61 1.58 7 .34 8.77-.62 17.57.57 26.31a4.622 4.622 0 0 0 5.08 1.78h58.721a4.073 4.073 0 0 0 4.139-1.36c1.5-4 .69-8.13.65-12.17-.05-6.37.78-12.77-.56-19.08a6.124 6.124 0 0 0-1.25-1c-8.81-1.07-17.629-.17-26.419-.49-2.29-.08-4.72.41-6.69-1.31-1.91-3.42-1.081-7.15-1.171-10.76-.15-5.81 0-11.63-.06-17.45 0-2.9-1.339-4.23-4.239-4.23-19.94 0-39.891-.14-59.831.07a5.347 5.347 0 0 0-2.369.66c-1.93 1.44-1.511 3.55-1.52 5.5v20.39c0 2.12.309 4.36-1.331 6.15-1.62 1.12-3.48 1-5.28 1-7.78.04-15.559.04-23.339 0-1.81 0-3.661.14-5.311-.89-1.77-1.68-1.47-3.91-1.489-6-.06-6.89 0-13.79 0-20.69 0-1.92.429-4-1.431-5.45-4-1.58-8.23-.62-12.34-.77-6.46-.22-12.94.19-19.38-.25-1.85 1.19-1 3-1 4.55-.1 7.44 0 14.89-.07 22.33 0 2.12.301 4.34-1.279 6.16-1.601 1.13-3.451 1-5.261 1-9.75 0-19.489.1-29.239 0-2.401-1.51-2.111-4-2.151-6.27-.13-7 0-14-.06-21-.07-6.09-.47-6.48-7.14-6.49h-105.34c-7 0-14 .08-21-.05-2.27 0-4.769.25-6.269-2.17-.091-21.78 0-43.55 0-65.33 0-1.82-.091-3.69 1.129-5.26 2-1.54 4.39-1.39 6.71-1.39 18.634-.04 37.27-.04 55.91 0 2.16 0 4.35-.09 6.33 1 1.93 1.59 1.65 3.83 1.67 5.93.06 7.41 0 14.81 0 22.22 0 1.79-.31 3.63.61 5.31.38.426.806.809 1.27 1.14 1.58.83 3.27.57 4.92.57h90.881c1.95 0 4.059.4 5.509-1.49 1.73-7.32.35-14.74.82-22.09.23-3.71-.84-7.6 1.38-11.07 2-1.63 4.34-1.45 6.64-1.47 7-.07 13.93 0 20.89 0 2 0 4 .22 5.8-.91 1.95-1.67 1.41-4 1.41-6.05v-54.66c0-2.28-.37-4.66 1-6.77 1.74-1.67 4.001-1.37 6.081-1.39 7.239-.06 14.489 0 21.739 0 1.94 0 4 .37 5.46-1.48 1.66-7.39.23-14.87.75-22.27.26-3.73-1-7.65 1.25-11.16 2.06-1.43 4.44-1.25 6.76-1.27 7-.06 14 .06 21 0 5.14-.08 5.67-.6 5.74-5.85.12-9 0-18 0-27 0-21.48-.05-43 0-64.43 0-7.58 1.12-8.61 8.72-8.68 7-.06 14-.06 21 0 2.32 0 4.69-.15 6.76 1.25 1.92 2 1.64 4.56 1.67 7 .08 6.91 0 13.82 0 20.73 0 2-.2 4 .89 5.75 1.68 2 4 1.43 6.08 1.43h54.901c7.25 0 7.879.67 7.929 8.08v19.47c0 2-.349 4.06 1.571 5.48 2.2 1.05 4.56.74 6.85.75h53.13c2.63 0 5.329-.3 7.759 1.12.519.41.928.943 1.19 1.55 1.35 10.44.56 20.91.49 31.37 0 3.19-1.999 4.75-5.099 5-1.83.15-3.661.15-5.491.15h-51.91c-2.32 0-4.669-.24-6.879.7-1.55 1.12-1.63 2.75-1.63 4.45v62.1c0 .67-.12-.14.07.49.3 1 .42-.15.68-.11 2-1.08 4.219-.87 6.37-.88h19c9.31 0 9.999.73 10.059 9.84v21.5c0 11.49.05 23 0 34.48 0 7.26-1.129 8.31-8.489 8.38-7.83.08-15.661.15-23.491 0-5.76-.14-6.999-1.39-7.169-7.19-.21-7-.001-14-.081-21 0-2.15.21-4.34-.77-6.37-1.6-2-3.89-1.58-6-1.59h-54.85c-2.3 0-4.69.37-6.76-1.1-1.75-1.91-1.5-4.32-1.52-6.61-.07-6.81 0-13.62 0-20.42 0-1.82.111-3.67-.799-5.34-1.31-1.74-3.21-1.5-5-1.5h-55.321c-1.82 0-3.719-.21-4.949 1.59-1 2.24-.681 4.6-.681 6.91v51.89a44.913 44.913 0 0 1-.349 7.44c.18 1.37 1.229 1.34 2.229 1.34h25.78c1.58 0 3-.24 3.71-1.85 1-8.31.25-16.62.41-24.92.18-8.55.93-9.38 9.49-9.43h20.44c2.32 0 4.7-.13 6.68 1.47 2 2.21 1.581 5 1.591 7.59.06 17.94 0 35.89 0 53.83 0 6.85.209 7.06 6.919 7.07h54.831c2.74 0 5.739-.63 7.899 1.93.29 20.64.001 41.28.141 61.91 0 2.15-.371 4.34.509 6.41.341.452.733.861 1.171 1.22 8.19 1.58 16.43.24 24.63.69 2.91.17 5.999-.66 8.609 1.37 1.45 2.06 1.2 4.45 1.22 6.75.06 6.66.13 13.33 0 20-.09 3.91 1.17 5.77 5.4 5.74 18.81-.11 37.63-.07 56.44 0 3.61 0 5.09-1.42 5-5-.1-6.82 0-13.65 0-20.48-.05-5.77-.52-6.29-6.28-6.31-18.15-.06-36.29 0-54.44 0-2.63 0-5.37.34-7.68-1.47-1.29-1.28-1.459-3-1.489-4.62-.16-8.31-.19-16.63 0-24.94.12-5.81 1.439-7 7.729-7.07 17.46-.14 34.92 0 52.37 0 9.81 0 9.811 0 9.811-9.9 0-5.32.07-10.64 0-16-.07-5.36-.58-5.86-6.13-5.93-7-.08-14 .07-21-.07-2.4 0-5.11.43-6.69-2.24v-64.32c0-2.13-.281-4.36 1.179-6.23 2.19-1.59 4.75-1.35 7.22-1.36h90.37c8.27 0 9.171 1 9.231 9.16.04 6.82.04 13.643 0 20.47 0 2.32.139 4.69-1.201 6.78-2 2-4.52 1.72-7 1.75-6.91.09-13.819 0-20.739 0-2 0-4.001-.16-5.791.8-1.74 1.3-1.51 3.19-1.51 5v56.2c0 1.8-.28 3.71 1.42 5 7.38 1.78 14.851.53 22.261.77 3.08.1 6.319.77 9.229-1 1.78-1.79 1.24-4.07 1.24-6.18V713.8c0-7.62.57-8.13 8.33-8.16h20c1.81 0 3.701.28 5.281-.95 1.82-1.74 1.37-4 1.37-6.11v-55.73c0-7.48.729-8.14 8.329-8.18h21.39c2 0 4.001-.2 5.781 1 1.76 2.15 1.269 4.74 1.279 7.18v55.35c0 2.13-.379 4.37 1.341 6.13 1.66 1.52 3.71 1.25 5.69 1.25h126.089c2 0 4 .28 5.68-1.2 1.48-1.46 1.341-3.32 1.341-5.15v-56.41c0-1.82.19-3.69-1.24-5.16-1.63-1.55-3.67-1.22-5.62-1.23h-21.68c-2.1 0-4.3.29-6.19-1-1.6-2-1.35-4.4-1.38-6.71-.067-7.16-.067-14.323 0-21.49 0-4-1.661-5.68-5.711-5.6-7.16.14-14.319 0-21.489.07-2 0-4.46 0-4.48 2.76-.05 9.62-1.111 19.27.629 28.83 1.35 1.69 3.26 1.39 5 1.4h20.851c2.11 0 4.35-.31 6.12 1.37 1.25 1.94.949 4.14 1 6.26.046 7.42.046 14.843 0 22.27 0 2 .179 4-1.141 5.7-1.89 1.45-4.11 1.16-6.25 1.16-18.966.04-37.936.04-56.909 0-2.13 0-4.361.29-6.271-1.11-1.48-1.86-1.2-4.09-1.2-6.22v-163c0-2-.209-4 .901-5.83a4.448 4.448 0 0 1 3.589-1.45c10 .05 20.001-.62 29.931.35.592.236 1.11.626 1.5 1.13 1.54 3.49.769 7.17.829 10.77.13 7.27 0 14.54 0 21.81a2.457 2.457 0 0 0 0 .5c.24 1.11.46-.14.7 0 10-1.68 20.12-.69 30.18-.54a3.864 3.864 0 0 1 1.912.496 3.864 3.864 0 0 1 1.419 1.374c1.64 9 .34 18.16.77 27.24.1 2.09-.55 4.4 1.61 5.92 7.94 1.47 15.939.46 23.899.62 10.29.2 10.53.41 10.7 10.68.13 8-.679 15.95.531 23.88.9 1.44 2.289 1.67 3.849 1.67h24.141c1.52 0 3-.1 3.89-1.56a7 7 0 0 0 .539-3.43v-59.43a5.758 5.758 0 0 0-.52-2.9 7.4 7.4 0 0 0-1.17-1.21c-8.37-1.49-16.799-.26-25.179-.68-2.431-.12-5 .5-7.12-1.35-1.35-2.12-1-4.51-1-6.81v-54.93c0-2.12.469-4.41-1.641-6-7.61-1.51-15.279-.52-22.909-.65-11.41-.2-11.64-.29-11.64-11.85 0-6.49-.13-13 .06-19.48.159-5.51 1.36-6.82 6.89-6.87 20-.18 40-.18 60 0 5.91 0 7.129 1.43 7.279 7.6.16 7 0 14 .07 21 .07 5.85.48 6.3 6.261 6.32 18.149.05 36.3 0 54.452 0 2.77-.1 5.52-.4 7.76 1.5Z"/><path fill="#FEFEFE" d="M459.052 458.96h-27.92c-7.46 0-7.46 0-7.46 7.23 0 30.9-.16 61.81.14 92.71.05 5.3-1.56 6.29-6.38 6.12-9.46-.33-18.93 0-28.4.07-1.17 7.51-.19 15.07-.53 22.6-.18 4.1.43 8.21-.33 12.3-11.45 1-22.92.16-34.38.42a1.998 1.998 0 0 1-1.52-1.09c-1-2.19-.83-4.54-.84-6.84v-55.16c0-2.46-.3-5 1.16-7.23 1.74-1.63 3.93-1.53 6.08-1.54h22.34c1.8 0 3.67.26 5.19-1.08a3.32 3.32 0 0 0 1.07-2.17c.36-9 .47-18-.05-27.05a2.819 2.819 0 0 0-.85-1.73 4.398 4.398 0 0 0-3.17-1.14h-24.72a3.783 3.783 0 0 0-3.47 1.46c-1.29 5.73-.26 11.52-.59 17.25-.28 4.76.64 9.57-.64 14.28-.318.556-.81.992-1.4 1.24-6.83 2-13.82.75-20.73.85-4.54.07-9.29 1.14-13.65-1.26-1.62-1.77-1.34-4-1.36-6.13-.05-7 0-13.91 0-20.87 0-1.8.3-3.66-.67-5.33-1.44-1.9-3.53-1.47-5.46-1.48h-21.68c-1.8 0-3.63.13-5.34-.67a2.994 2.994 0 0 1-1.26-1.35c-1.2-10.28-.41-20.59-.46-30.88 0-2.95 1.7-4.54 4.64-4.86a56.944 56.944 0 0 1 6-.2h52.41c6.16 0 6.58-.44 6.64-6.45.06-6.65-.07-13.31 0-20 .07-3.72-1.22-5.44-5.19-5.42-19.133.093-38.267.093-57.4 0-3.86 0-5.31 1.58-5.26 5.36.1 7.15.06 14.31 0 21.46 0 2.31.16 4.69-1.34 6.73a4.647 4.647 0 0 1-3.16 1.27c-10.25.13-20.5.78-30.73-.36a4.22 4.22 0 0 1-1.62-1c-1.68-2.54-1.24-5.42-1.27-8.21-.07-6.46 0-12.93-.05-19.39-.07-5.25-.52-5.71-5.67-5.78-7.12-.1-14.25 0-21.38-.05-2.3 0-4.68.18-6.67-1.41a6.713 6.713 0 0 1-1-4.27c-.06-8.96-.06-17.923 0-26.89a6.273 6.273 0 0 1 .91-3.8c1.73-1.68 3.93-1.56 6.09-1.57h21.94c1.81 0 3.72.3 5.05-1.39 1.65-4 .8-8.15.77-12.2-.05-6.05.79-12.14-.64-18.13-1-1.45-2.47-1.46-4-1.46h-22.84c-1.55 0-3 .13-3.85 1.67-1.15 7.97-.21 16.1-.54 24.15-.1 2.6.4 5.31-1.18 7.69-1.79 1.54-4 1.43-6.13 1.43h-21.85c-1.8 0-3.66-.32-5.33.7a7.518 7.518 0 0 0-1.12 1.37c-.94 2.27-.51 4.63-.51 6.93v193.2c0 2.79.56 5.68-.93 8.32-1.72 1.72-3.94 1.42-6.05 1.44-7.06.06-14.13 0-21.19 0-1.79 0-3.64-.3-5.24.83-1.76 1.72-1.39 4-1.41 6v20.22c0 2.28.2 4.63-1.24 6.66-1.84 1.49-4 1.19-6.17 1.2h-21.76c-1.79 0-3.69-.29-5 1.4-1.62 4-.8 8.17-.75 12.23.08 6.06-.88 12.17.71 18.15 1.33 1.75 3.25 1.39 5 1.39h21.83c1.81 0 3.66-.16 5.36.73.264.168.485.396.644.666.16.269.255.572.276.884-.08 23 .27 46.07-.18 69.1 1.65 1.76 3.77.85 5.64.85 43.24.06 86.477.043 129.71-.05 4.21 0 5.8.73 5.55 5.35-.43 8.3-.17 16.63-.08 24.94 0 1.54-.8 3.35.84 4.63 11.15-.54 22.3 0 33.45-.27 1.92-1.1 1-3 1.05-4.46.09-8.43 0-16.86.08-25.29 0-1.59-.63-3.32.63-4.76h34.79c1.11 8.66.23 17.35.5 26 .07 2.46 0 4.93.05 7.39 1.25 2.11 3.29 1 4.94 1.07 9.88.41 19.8-.58 29.68.53.34 11.67.92 23.33-.3 35h.18c-1.7 1-3.57.51-5.36.51-19.75 0-39.5 0-59.26.05-1.78 0-3.65-.49-5.36.51-.09 10.47-.09 20.94-.33 31.41-.07 3.13 1.45 3.46 4 3.43 9-.09 18 0 27 0 23.29 0 46.58.11 69.86-.09 4.18 0 5.23 1.17 5.22 5.29-.15 44.08-.09 88.16-.09 132.25 0 .83.1 1.66.15 2.49-1.75 2.12-4.22 1.69-6.48 1.72-6.83.1-13.65 0-20.48.06-2.13 0-4.36-.31-6.21 1.19-1.59 1.65-1.2 3.72-1.21 5.68v21.41c0 2.14.24 4.36-1.39 6.14h-35.16c-1.94-2.24-1.58-5-1.59-7.62V962.8c0-2.32.2-4.67-.59-6.91-1.34-2.08-3.47-1.65-5.42-1.66h-21.48c-1.82 0-3.68.14-5.42-.65a2.998 2.998 0 0 1-1.28-1.33c-.85-2.24-.58-4.59-.59-6.89V891.1c0-2.1.51-4.39-1.6-5.94-9.29-1.42-18.61-.54-27.91-.5-2.28 0-3.14 1.51-3.32 3.59-.18 2.08-.13 4-.13 6v120.95c0 2.94.55 6.05-1.59 8.63h-35c-2.34-2.9-1.6-6.36-1.6-9.63-.04-75.287-.04-150.583 0-225.89 0-2 0-4-.08-6-.09-2.44-1.27-3.62-3.71-3.71-2-.08-4-.08-6-.08H9.802c-3.27 0-6.73.74-9.63-1.6v-106c1.94-1.74 4.34-1.3 6.63-1.39 8.75-.33 17.53.68 26.24-.6a7.451 7.451 0 0 0 1.14-1.24c1.29-7.29.25-14.62.56-21.91.08-1.83.08-3.67 0-5.5-.11-4 1.75-5.76 5.73-5.75h23c2 0 4.06.4 5.53-1.47 1.63-7.18.25-14.44.74-21.63.27-3.88-.9-7.91 1.09-11.64 2.3-1.76 5-1.3 7.62-1.4 8.22-.33 16.47.64 24.65-.6 1.48-.92 1.64-2.35 1.63-3.91v-22.9c0-1.55-.09-3-1.63-3.89-8.06-1.23-16.16-.22-24.22-.55-2.62-.11-5.31.31-7.73-1.16a4.099 4.099 0 0 1-1-1.62c-.83-8.62-.29-17.26-.36-25.89-.11-12.13 0-24.26 0-36.39 0-2.14-.29-4.34.88-6.33 1.84-1.89 4.26-1.64 6.55-1.67 7-.08 14 0 21-.05 2 0 4 .25 5.69-1.21 1.19-1.42.89-3.12.9-4.74v-20.77c0-1.79.3-3.68-1.24-5.09-2.26-1.58-4.83-1-7.29-1.09-8.13-.38-16.3.75-24.4-.7a2.939 2.939 0 0 1-1.33-1.21c-1.53-8.81-.34-17.69-.73-26.54-.1-2.06.6-4.37-1.58-5.87-7.93-1.41-15.9-.25-23.83-.63-2.78-.14-5.68.42-8.2-1.33-1.69-1.93-1.49-4.31-1.51-6.6-.07-6.93 0-13.87-.05-20.81 0-2.11.3-4.33-1.18-6.16-1.63-1.61-3.71-1.23-5.67-1.24H6.382c-2.14 0-4.36.24-6.14-1.39v-70a4.732 4.732 0 0 1 3.17-1.29c10.31 0 20.63-.64 30.93.36a3.424 3.424 0 0 1 1.45 1.16c1.79 8.35.35 16.83.87 25.23.15 2.53-1 5.41 1.65 7.37 6.47 1.23 13 .28 19.45.55 2.16.09 4.33 0 6.5 0 6.38.19 7.42 1.22 7.53 7.77.11 7 0 14 0 21 .06 6.71.47 7.17 7 7.19 18.173.047 36.337.047 54.49 0 5.73 0 6.16-.5 6.24-6.36.09-7.33-.14-14.67.09-22 .19-5.79 1.82-7.4 7.59-7.56 7.5-.2 15 0 22.5-.09 5.16-.08 5.71-.61 5.79-5.79.107-6.667.107-13.333 0-20-.09-5.36-.66-5.9-6.18-6-6.67-.1-13.33 0-20 0-8.27-.08-9.66-1.44-9.76-9.56-.07-6 0-12 0-18 0-8.36-.07-8.43-8.26-8.43H8.822c-3 0-6.06.57-8.64-1.57v-35c2.9-2.34 6.36-1.6 9.63-1.6 75.293-.04 150.59-.04 225.89 0 2 0 4 0 6-.08 2.44-.09 3.62-1.27 3.71-3.71.08-2 .08-4 .08-6V9.75c0-3.27-.74-6.73 1.6-9.63h34.91c1.71 1.92 1.56 4.31 1.58 6.63v21c.06 6.24.54 6.71 6.92 6.78 7 .08 14-.06 21 .06 6.81.11 8 1.21 8.07 7.78.11 7.31.06 14.64 0 21.95 0 2 .06 4-1.19 5.76-1.8 1.55-4 1.45-6.15 1.46h-21.93c-2 0-4-.34-5.6 1.34-1.42 1.91-1.1 4.14-1.1 6.27v88.82c0 7.12.45 7.51 7.72 7.55h19c2 0 4 .22 5.54-1.54 1.21-2 .75-4.23.75-6.35 0-29.72.017-59.437.05-89.15 0-2.45-.49-5 1-7.27a5.2 5.2 0 0 1 3.13-1.33c10.52 0 21-.76 31.57.42a3.11 3.11 0 0 1 1.41 1.32c1 2.39.65 4.91.66 7.39v88.67c0 2.14-.37 4.33.56 6.37.92 1.44 2.33 1.67 3.89 1.67h23.83c1.56 0 3-.25 4-1.58 1.3-2 .89-4.2.89-6.32V78.68c0-2.61-.54-5.35 1.11-7.74a4.33 4.33 0 0 1 2.73-1.07c10.11-.22 20.22-.3 30.33 0 .833.06 1.631.359 2.3.86 1.66 1.95 1.46 4.34 1.48 6.65.07 6.64 0 13.29 0 19.94 0 7 .17 7.12 7.36 7.16 6.65 0 13.3-.1 20 .05 6.35.14 7.54 1.33 7.64 7.69.12 7.64.07 15.29 0 22.94 0 2 0 4-1.19 5.77-1.69 1.76-3.92 1.51-6 1.53-7.26.06-14.52 0-21.78 0-2 0-4-.32-5.35 1.7-.86 2.44-.58 5-.59 7.44v87.34c0 2.79.41 5.69-1.29 8.24-.26.2-.52.54-.8.56-11.47 1-22.94 1.46-34.4-.22-1.94-2-1.6-4.6-1.63-7-.09-7.13-.14-14.25 0-21.37.08-4-1.46-5.67-5.54-5.56-7.12.19-14.25 0-21.37.06-1.65 0-3.33-.06-4.78 1-1.89 1.71-1.35 4-1.35 6.09v54.68c0 2.29.37 4.67-1 6.77-2.28 1.86-5 1.46-7.65 1.47-18.13.05-36.26 0-54.39 0-7.25 0-7.68.47-7.73 7.57-.04 6.32-.04 12.653 0 19 0 2-.21 4 1.39 5.62 1.63 1.17 3.5.83 5.29.84h22.28c2 0 4-.19 5.69 1.16a6 6 0 0 1 1.22 3.7c.22 9.24.22 18.48 0 27.72a5.551 5.551 0 0 1-1 3.26 5.685 5.685 0 0 1-1.38 1.3c-8.4 1.38-16.86.28-25.28.65-2.29.11-4.66-.49-6.81.73a3.409 3.409 0 0 0-1.22 2.13c-.41 9-.36 18 0 26.95a2.79 2.79 0 0 0 .722 2.099 2.783 2.783 0 0 0 2.028.901 236.43 236.43 0 0 0 27.92-.14c.66-.05 1.14-.64 1.56-1.16 1.44-8.61.25-17.26.64-25.88.12-2.45-.42-5 1.5-7.13.26-.2.51-.54.8-.58 11.35-1.32 22.7-1.93 34 .35 1.73 1.73 1.46 4 1.47 6.11.06 7.31 0 14.63 0 22 0 1.8-.32 3.68.83 5.3 1.73 1.74 4 1.37 6.06 1.39h20.2c2.29 0 4.64-.2 6.67 1.24 1.49 1.84 1.18 4.06 1.2 6.17.05 7.27 0 14.54 0 21.8 0 1.8-.28 3.68 1.26 5.09 3.65 1.67 7.48.63 11.21.77 5.1.19 10.21.06 15.32 0 1.8 0 3.69.23 4.83-1.68.87-1.92.53-3.95.53-5.92v-55.33c0-2.29-.37-4.69 1.07-6.77.4-.29.75-.73 1.25-.77 11.28-.9 22.55-1.67 33.79.41.522.42.937.958 1.21 1.57.84 2.24.67 4.59.67 6.91v89.83c0 2.48.26 5-.9 7.36l-.68.73ZM918 599.86c0-10.29-.14-20.58.07-30.86.07-3.33-1-4.17-4.18-4.11-10.29.18-20.58.05-30.87 0-1.3-6.22-.2-12.51-.57-18.75-.32-5.43.68-10.89-.54-16.29-9.15-1.26-18.35-.2-27.53-.54-2.13-.08-4.27-.09-6.41-.13-1.13-7.61-.17-15.26-.52-22.88-.17-3.8.54-7.64-.46-11.41h.08c-8.95-1-17.92-.16-26.88-.46-2.81-.1-5.64.4-8.43-.33-.2-.27-.53-.52-.56-.81-1.15-11.27-1.78-22.55.3-33.79.38-.499.839-.931 1.36-1.28 7.55-1.7 15.21-.61 22.83-.76 11.83-.24 10.64.87 10.7-10.83 0-5.48.07-11 0-16.46 0-2 0-4.42-2.82-4.43-9.6-.05-19.22-1.1-28.76.63-1.85 1.49-1.39 3.58-1.4 5.51v21.23c0 2.13.17 4.32-1.56 6-.27.21-.51.55-.8.58-11.29 1.14-22.59 1.86-33.85-.37-1.78-1.67-1.53-3.9-1.55-6-.06-7.26 0-14.52 0-21.77 0-2 .33-4-1.68-5.36-7.08-1.34-14.22-.3-21.31-.6-2.48-.11-5 .07-7.44-.25-2.64-.33-4.37-1.65-4.43-4.44-.2-9.93-.31-19.86.07-29.79a4.117 4.117 0 0 1 .89-2.28c2.48-1.88 5.4-1.44 8.19-1.44 28.667-.04 57.317-.04 85.95 0h4.49c5.35-.22 6-.76 6-6.2.11-7.33 0-14.66.06-22 .1-6.44 1.24-7.51 7.59-7.76 8.64-.34 17.31.66 25.91-.61 2.08-1.34 1.66-3.47 1.67-5.42v-21.49c0-1.82-.14-3.67.65-5.41a2.99 2.99 0 0 1 1.34-1.28c2.24-.85 4.58-.58 6.89-.59h54.7c2.11 0 4.36.44 6.06-1.39 1.23-1.58 1.09-3.46 1.11-5.27.05-6.5.08-13 0-19.48-.09-6.16-.68-6.73-7-6.81-5.82-.08-11.65 0-17.48 0h-71.43c-7.4 0-7.79.45-7.85 8 0 7 .14 14-.08 21-.18 5.52-1.4 6.87-6.88 6.92-20 .19-40 .13-59.94 0a8.005 8.005 0 0 1-4.77-1.18c-1.6-1.82-1.29-4.06-1.31-6.2v-22c0-1.81.32-3.7-1-5.27-1.33-1.31-3-1.27-4.69-1.28-7.16-.05-14.32-.13-21.47 0-5 .11-5.71.82-5.82 5.92-.15 7.32 0 14.64-.08 22-.11 6.73-1.24 7.91-7.86 8-7.48.12-15 .17-22.46 0-6.05-.16-7.63-1.77-7.76-7.87-.17-7.32 0-14.64-.08-22-.06-5.48-.55-6-6-6.06-18.14-.08-36.27 0-54.41-.05-2.79 0-5.7.45-8.21-1.37a5.73 5.73 0 0 1-1.08-3.72c-.1-9.39-.12-18.77 0-28.16a5.698 5.698 0 0 1 .89-3.28c2.23-2 5-1.48 7.61-1.6 8.28-.37 16.61.72 24.85-.66 2.2-1.53 1.49-3.86 1.57-5.93.38-8.73-.71-17.51.61-26.23a3.122 3.122 0 0 1 1.27-1.33 194.964 194.964 0 0 1 33.74-.15 3.228 3.228 0 0 1 1.41 1.18c1.64 8.85.36 17.79.78 26.68.1 2.08-.58 4.39 1.67 5.85 9.13 1.22 18.27.39 27.39.44 3.48 0 3.88-2.47 3.9-5.15.07-9.64 0-19.28 0-28.93 0-9.14.1-18.29 0-27.43-.09-5.34-.8-6-6.13-6.12-7.31-.14-14.63 0-22-.08-6.45-.12-7.77-1.29-7.81-7.53-.13-19.45-.1-38.9 0-58.36 0-2.29-.09-4.73 2.16-6.32 8.73-1.62 17.55-.31 26.32-.75 2.11-.1 4.35.51 6.22-1 1.75-2.19 1.2-4.78 1.2-7.21.04-29.4.04-58.8 0-88.2 0-2.78-.45-5.71 1.59-8.11h35c2.34 2.9 1.6 6.36 1.6 9.62.04 75.333.04 150.633 0 225.9 0 2 0 4 .08 6 .09 2.44 1.27 3.62 3.71 3.71 2 .08 4 .08 6 .08h225.89c3.27 0 6.73-.74 9.63 1.6v35c-1.92 1.71-4.31 1.56-6.62 1.58-7.15.05-14.3 0-21.44 0-5.66.07-6.27.62-6.3 6.36-.09 18.29 0 36.57-.06 54.86 0 2.79.43 5.69-1.37 8.2-2.12 1.8-4.7 1.33-7.14 1.34h-54.61c-2.1 0-4.35-.49-6.1 1.25-1.16 1.42-.92 3.11-.93 4.74v21.23c0 1.63-.22 3.32.95 4.71 1.82 1.74 4.09 1.2 6.2 1.2h53.47c9.08 0 9.24.27 9.4 9.14.14 8-.62 16 .48 23.9.354.495.763.948 1.22 1.35 7.74 1.58 15.54.25 23.29.73 3.24.2 6.69-.91 9.63 1.38v35c-21.95 0-43.9-.07-65.86.08-3.42 0-4.58-.81-4.48-4.38.26-8.81 0-17.63.14-26.45.07-3.27-.62-4.7-4.33-4.67-20.96.16-41.917.16-62.87 0-3.13 0-4 1-3.92 4 .16 9.14.22 18.29 0 27.44-.09 3.46 1.24 4.08 4.31 4 10.31-.16 20.62-.06 30.94-.06 1.15 1.67.56 3.55.57 5.33.06 21.3 0 42.6.06 63.9.94 2.14 2.86 1.18 4.33 1.2 8.45.09 16.9 0 25.35.07 1.6 0 3.32-.53 4.82.55l-.12-.1c.77.82.57 1.86.57 2.83v65.18a6.164 6.164 0 0 1-.28 2 224.05 224.05 0 0 1-35.15-.08Z"/><path fill="#5C6977" d="M1023.9 247.05c-1.66.06-3.32.17-5 .17-78.763 0-157.523.043-236.283.13-4.83 0-6-1.16-6-6 .174-78.76.217-157.52.13-236.28 0-1.66.11-3.32.17-5 80.994 0 161.977-.034 242.953-.1 3.43 0 4.11.67 4.1 4.1-.1 81-.13 161.993-.07 242.98ZM.101 776.95c1.66-.06 3.32-.17 5-.17 78.76 0 157.52-.043 236.28-.13 4.83 0 6 1.16 6 6-.173 78.76-.216 157.52-.13 236.28 0 1.66-.11 3.32-.17 5-80.986 0-161.97.03-242.95.1-3.43 0-4.11-.67-4.1-4.1.1-81 .124-161.993.07-242.98ZM247.049.11c.06 1.66.17 3.32.17 5 0 78.76.043 157.52.13 236.28 0 4.83-1.16 6-6 6-78.76-.173-157.52-.217-236.28-.13-1.66 0-3.32-.11-5-.17 0-80.987-.034-161.97-.1-242.95 0-3.43.67-4.11 4.1-4.1 81 .093 161.993.117 242.98.07ZM706.997 105.97c-1.33 1.21-.76 2.81-.77 4.23 0 20.46.07 40.91-.11 61.37 0 3.73.95 4.88 4.73 4.75 8.64-.28 17.3.07 25.94-.16 3.73-.05 5.21.73 5.21 4.95-.22 20.62-.12 41.25-.07 61.87 0 2.55.05 4.44-3.52 4.35-10.47-.28-20.94-.24-31.41-.32-1.12-9.87-.15-19.77-.52-29.65-.06-1.77.59-3.64-.57-5.29l.11.1c-5.21-1.31-10.52-.55-15.77-.52-6.42 0-12.88-.79-19.27.51l.1-.1c-1.35 5.52-.28 11.14-.58 16.7-.33 6.08.57 12.19-.5 18.25l-33.88.21c-1.92-1.66-1.47-4-1.49-6.05-.08-7.3 0-14.61 0-21.91 0-1.81.29-3.68-.78-5.32-1.51-1.83-3.61-1.43-5.57-1.44h-21.46c-2.13 0-4.38.3-6.18-1.35-1.11-1.62-1-3.49-1-5.31-.04-7.826-.04-15.66 0-23.5 0-1.82-.12-3.69 1-5.3 2.14-1.79 4.72-1.3 7.16-1.3h54.76c2.1 0 4.39.52 6-1.47 1.07-1.84.84-3.87.84-5.85V114.1c0-2.12.29-4.35-1.16-6.21-1.61-1.63-3.68-1.28-5.64-1.29h-20.88c-2.12 0-4.36.29-6.14-1.36-1.2-1.79-1-3.84-1-5.82V78.94c0-8.69.41-9.11 8.91-9.12h54.45c2 0 4 .31 5.9-.52a3.644 3.644 0 0 0 1.73-3.36c0-9.47.14-18.95-.1-28.42 0-.66.05.17-.09-.48-.24-1-.52-.09-.79 0-2.38 1.12-4.91.79-7.38.79h-52.41c-2.31 0-4.67-.29-6.87.75-1.94 1.44-1.52 3.55-1.53 5.51v20.46c0 2.12.3 4.38-1.42 6.14-1.48 1-3.17.92-4.83.92-20.14.04-40.283.04-60.43 0-1.66 0-3.35 0-4.8-1.05-.2-.26-.54-.51-.57-.79-1.36-11.18-1.85-22.36.24-33.52 1.74-1.69 4-1.39 6.07-1.4 7.41-.06 14.82 0 22.23 0 1.79 0 3.64.28 5.27-.76 1.83-1.49 1.44-3.57 1.45-5.51V6.37c0-2.13-.22-4.33 1.39-6.09h141c0 33.58-.05 67.164-.15 100.75 0 1.65 1 3.65-.9 5a333.724 333.724 0 0 0-33.95-.06Z"/><path fill="#FEFEFE" d="M812.243 952.91c7.21 1.64 14.51.54 21.75.64 4.41.06 10.06 2.07 13-1 2.61-2.79.69-8.28.79-12.57.13-5.32.46-10.7-.08-16-.54-5.3 1.56-6.18 6.36-6.13 21.31.26 42.64.11 64 .1l.63.7c1.29 11.16 1 22.33.2 33.51a3.151 3.151 0 0 1-1.2 1.38c-8.86 1.59-17.8.36-26.69.76-2.08.1-4.4-.58-5.83 1.72-.74 2.29-.52 4.63-.53 6.94v53.31c0 2.63.34 5.37-1.59 7.61h-141.05c0-11.61-.017-23.22-.05-34.84 5.37-1.45 10.83-.38 16.25-.59 5-.2 10 0 14.94-.07 1.19 0 2.76.63 3.35-1.22v-98.93c0-1.78-.54-3.66.55-5.35l-.11.11c6.22-1.3 12.51-.46 18.76-.49 5.42 0 10.89-.79 16.27.49l-.1-.11c.293.396.479.861.54 1.35-.05 22.88.24 45.79-.16 68.68Z"/><path fill="#5C6977" d="M.104 282.04c45.11 0 90.22.14 135.33 0 4.81 0 6.31 1.14 6 6-.43 8 .11 16-.21 24-.17 4.41.84 6.18 5.69 5.94 8.63-.42 17.31 0 26-.19 3.35-.08 4.23 1 4.16 4.26-.2 8.993-.2 17.993 0 27 .07 3.19-.76 4.32-4.12 4.24-9.15-.22-18.31.08-27.46-.15-3.42-.09-4.25 1.14-4.19 4.3.15 9.15 0 18.31.11 27.47 0 3-.79 4.06-3.93 4.05-20.967-.12-41.94-.12-62.92 0-3.3 0-4.34-1.07-4.27-4.31.17-8.82-.12-17.65.14-26.46.11-3.81-.82-5.19-4.91-5.08-9.81.25-19.63 0-29.44-.1-1.11-9.86-.15-19.75-.51-29.62-.07-1.76.59-3.63-.58-5.28l.12.1c-5.2-1.31-10.5-.31-15.74-.59-6.42-.33-12.88.58-19.28-.49l.01-35.09Z"/><path fill="#FEFEFE" d="m1023.9 740.96-64.096.13c-2 0-4 .14-5.95.21-.71-1.43-.4-3-.4-4.43 0-32.16 0-64.32-.11-96.47 0-3.93 1-5.14 5-5 8.49.3 17 .14 25.49.05 1.53 0 3.36.82 4.56-1 .13-33.06 0-66.11.08-99.17 0-1.78-.55-3.66.55-5.34l-.1.13c5.87-1.28 11.816-.49 17.716-.52 5.9-.03 11.55-.62 17.28.42l-.02 210.99Z"/><path fill="#5C6977" d="M459.053 141.11c0-10.48-.12-21 0-31.43 0-2.82-.76-3.7-3.62-3.65-9.31.17-18.63-.06-27.94.13-3.09.07-4-.93-3.9-3.95.2-10.31.14-20.62.19-30.92 1.94-2.24 4.6-1.56 7-1.56 18.41-.07 36.82 0 55.24-.06 2 0 4 .32 5.87-.53a3.38 3.38 0 0 0 1.66-2.89c0-9.63.21-19.27-.11-28.9 0-.66.06.16-.13-.48-.28-1-.54-.07-.82 0-9.93 1.58-19.89.74-29.83.48a4.791 4.791 0 0 1-5-4.72c-.54-9.962-.54-19.947 0-29.91a4.574 4.574 0 0 1 1.34-2.61h70c1.5 1.63 1.39 3.67 1.39 5.66v94.94a13.392 13.392 0 0 1-.46 4.45 3.414 3.414 0 0 1-1.2 1.51c-2.82 1.39-5.86.94-8.82 1-5.82.07-11.64-.05-17.45 0-5.21.08-5.76.59-5.84 5.7-.12 7 0 14-.06 20.94-.06 6.94-1.15 8.21-8 8.3-7.81.09-15.62.05-23.43 0a11.076 11.076 0 0 1-5.36-.89l-.72-.61Z"/><path fill="#FEFEFE" d="M565.137 36.11v34c1.71 1 3.57.49 5.35.49h59.1c1.8 0 3.64-.32 5.41.33.86 11.66.56 23.32.16 35-1.81 1.94-4.23 1.67-6.52 1.7-6.8.09-13.6 0-20.41 0-1.82 0-3.66-.11-5.34.79-1.92 1.45-1.48 3.56-1.49 5.5v21.39c0 2.12.3 4.36-1.34 6.14-1.63 1.11-3.5 1-5.31 1-8.146.04-16.293.04-24.44 0-1.82 0-3.69.13-5.31-1-1.7-1.92-1.5-4.31-1.53-6.61-.07-7 0-13.92 0-20.89-.05-5.91-.38-6.25-6.14-6.3-7-.07-13.92 0-20.88-.05-2.29 0-4.7.26-6.59-1.54-.58-3.3-.25-6.63-.25-9.94V5.45c0-1.79-.46-3.66.46-5.38h70c1 11.63.47 23.27.26 34.9-6.23 1.31-12.53.22-18.78.57-5.55.34-11-.59-16.41.57Z"/><path fill="#5C6977" d="M352.92 953.93c0 23.334.037 46.67.11 70H282c0-45.12.14-90.25 0-135.37 0-4.87 1.25-6.23 6.06-6 9.63.47 19.28.31 28.93.42 1 1.71.49 3.58.5 5.36v59.31c0 1.77-.58 3.66.57 5.33l-.09-.15c4.18 1.33 8.47.41 12.7.61 7.45.33 14.87-.6 22.25.49ZM317.903 69.96c0-9.8-.27-19.62 0-29.42.11-4.08-1.3-5-5.11-4.94-8.64.25-17.29-.07-25.93.15-3.63.09-4.91-.9-4.82-4.74.24-10.3 0-20.61 0-30.91h140.96c1.49 1.62 1.39 3.65 1.39 5.63v59.08c0 1.81.15 3.67-1.09 5.23-11.35 1.12-22.73.39-34.09.37-2-1.61-1.56-3.9-1.58-6-.08-7 0-14 0-20.93 0-1.81.3-3.72-1.42-5-6.7-1.75-13.51-.69-20.25-.75-12.41-.11-11.19-1.45-11.42 11.5-.12 6.75.87 13.56-.73 20.27a1.995 1.995 0 0 1-1.46 1.07c-10.21.09-20.43 0-30.64 0-1.29-.02-2.71.39-3.81-.61Z"/><path fill="#FEFEFE" d="M599.997 987.85c.11-9.81.37-19.62.24-29.43 0-3.59.76-4.91 4.66-4.87 20.48.2 41 .16 61.45 0 3.31 0 4.71.66 4.6 4.34-.26 8.82-.2 17.65 0 26.47.06 3.06-.93 4-4 4-8.82-.16-17.66.13-26.47-.14-4-.12-5.52.9-5.41 5.21.25 10.15 0 20.3-.11 30.45h-139.96a6.591 6.591 0 0 1-1.53-4.59c-.133-8.59-.133-17.18 0-25.78a6.5 6.5 0 0 1 1.45-4.62c1.73-.9 3.59-.46 5.39-.46 31.454 0 62.904-.017 94.35-.05 1.78.02 3.66.56 5.34-.53Z"/><path fill="#5C6977" d="M1023.9 882.93v70a5.356 5.356 0 0 1-3.66 1.34c-10 .06-19.93.22-29.897-.09a4.545 4.545 0 0 1-2.33-.77c-1.84-1.87-1.6-4.28-1.63-6.58-.08-7 0-14 0-21-.06-5.84-.49-6.28-6.23-6.34-6.32-.07-12.65 0-19 0-2.15 0-4.34.13-6.42-.67a3.25 3.25 0 0 1-1.43-1.22c-1.5-5.21-.7-10.54-.69-15.8 0-6.1-.74-12.25.57-18.32a3.056 3.056 0 0 1 1.38-1.35c1.557-.6 3.224-.859 4.89-.76 19.453-.047 38.903-.047 58.347 0 2.14-.02 4.34-.03 6.1 1.56Z"/><path fill="#FEFEFE" d="M.102 494v-70a4.727 4.727 0 0 1 3.17-1.29c10.3 0 20.61-.64 30.9.37a3.134 3.134 0 0 1 1.39 1.21c1.67 3.45.79 7.15.89 10.74.15 5.61 0 11.24 0 16.86 0 1.8-.25 3.7 1.6 4.9 8.19 1.39 16.44.26 24.64.64 2.58.13 5.33-.41 7.51 1.63.465.478.779 1.083.9 1.74.63 10.698.59 21.426-.12 32.12 0 .51-.44.87-.7 1.29-1.55 1.25-3.42 1.16-5.24 1.16-19.78.053-39.557.053-59.33 0-1.95.03-3.98.13-5.61-1.37ZM459.003.11c0 10.29.17 20.58-.09 30.87-.09 3.69.88 4.86 4.66 4.8 10.11-.17 20.23.1 30.34.2 1 11.4.73 22.8.18 34.21-3.11.82-6.27.35-9.4.36-18.427.06-36.857.06-55.29 0-1.81 0-3.66.31-5.43-.32-.72-1.24-.43-2.6-.44-3.91V3.99c0-1.31-.32-2.68.47-3.89l35 .01Z"/><path fill="#5C6977" d="M.102 529v-34a4.576 4.576 0 0 1 2.88-.48h64.64a6.331 6.331 0 0 1 2.44.31c.92 1.54.48 3.24.49 4.87v63.66a3.41 3.41 0 0 1-.42 1.87 4.348 4.348 0 0 1-2.73 1.09c-10.13.14-20.26.85-30.37-.38a3.522 3.522 0 0 1-1.47-1.12c-1.54-3.46-.68-7.12-.85-10.69-.37-7.35.64-14.74-.59-22.06a7.208 7.208 0 0 0-1.21-1.12c-8.73-1.26-17.48-.22-26.21-.56-2.27-.09-4.7.35-6.6-1.39ZM987.906 353.11c.93-6.94.33-13.92.38-20.88.11-15.12.13-30.24 0-45.36 0-3.65.94-4.88 4.75-4.79 10.304.24 20.604 0 30.904 0v71a7.15 7.15 0 0 1-5.12 1.51c-9.46 0-18.924.32-28.384-.19a6.392 6.392 0 0 1-1.79-.63l-.74-.66Z"/><path fill="#FEFEFE" d="m1023.9 882.93-69.731-.13c-1.62-1.1-1.6-2.84-1.62-4.49-.09-8.66-.06-17.32 0-26 0-3 .73-5 4.52-4.94 21.65.13 43.301.06 65.001.06a3.47 3.47 0 0 1 1.9.49l-.07 35.01ZM1023.9 953.92c0 22.33 0 44.66.07 67 0 2.5-.56 3.11-3.07 3.07-10.66-.16-21.322-.07-32.002-.07-1.49-1.62-1.4-3.65-1.4-5.63v-59.11c0-1.8-.15-3.67 1.11-5.23a254.703 254.703 0 0 1 35.292-.03Z"/><path fill="#5C6977" d="M882.93 1023.9c-.48-23.33-.48-46.647 0-69.94 8.57-1.21 17.18-.22 25.77-.51 2.82-.09 5.64-.07 8.47 0a1.998 1.998 0 0 1 1.51 1.1c1 2.2.84 4.55.84 6.87v54.84c0 2.62.34 5.37-1.6 7.61l-34.99.03Z"/><path fill="#FEFEFE" d="M917.922 1023.9v-69.92c1.45-1.42 3.3-1.45 5.14-1.46 8.33 0 16.66-.1 25 0 5.13.08 6.19 1.08 6.22 6.21.12 20 .06 40 0 60 0 1.84 0 3.69-1.39 5.17h-34.97Z"/><path fill="#5C6977" d="M987.908 1023.9h-34c-.79-1.22-.47-2.59-.47-3.89 0-20.63.09-41.25-.11-61.88 0-4.16 1.31-5.7 5.37-5.65 8.15.1 16.3 0 24.45 0 1.68 0 3.35.07 4.75 1.17.82 23.44.823 46.86.01 70.25ZM494.928 988.87c-.38 11.68-.54 23.36.07 35h-36a5.87 5.87 0 0 1-1.47-4.08c0-10-.54-20.05.31-30.06a4.685 4.685 0 0 1 1-1.66l.19-.2a5.293 5.293 0 0 1 3.63-1.42c10.09 0 20.19-.72 30.26.42a3.485 3.485 0 0 1 1.52 1.14c.16.31.32.59.49.86ZM.102 599.98v-35a5.877 5.877 0 0 1 4.08-1.47c10 0 20-.53 30 .3.615.21 1.178.552 1.65 1l.21.18a6.061 6.061 0 0 1 1.49 4.11c.15 9.1.22 18.19 0 27.28a6.587 6.587 0 0 1-1 3.31 4.148 4.148 0 0 1-1.55 1.21c-10.58 1.35-21.19.57-31.8.46a4.892 4.892 0 0 1-3.08-1.38Z"/><path fill="#FEFEFE" d="M459.06 988.8c0 11.7-.017 23.4-.05 35.1H424a4.275 4.275 0 0 1-1.23-2.64c0-10.52-.76-21 .39-31.55a2.34 2.34 0 0 1 1.41-1.22c11.51.09 23.01-.49 34.49.31Z"/><path fill="#5C6977" d="M388.998 988.83c9.44-1.13 18.92-.19 28.38-.52 2.14-.07 4.34.4 6.4-.61l.3.32c.25.24.31.46.2.66-.11.2-.21.29-.3.29v-.09c-1.24 6.55-.23 13.16-.56 19.73-.26 5.09.56 10.22-.48 15.29h-33.94a253.37 253.37 0 0 1 0-35.07Z"/><path fill="#FEFEFE" d="m35.212 565.04-35.11-.05v-35a230.9 230.9 0 0 1 35 .1l-.1-.13c1.26 5.88.46 11.83.51 17.74.05 5.91.49 11.58-.3 17.34ZM1023.9 776.95v35c-11.65.847-23.35.82-35.002-.08l.13.09c-1.28-9.71-.28-19.46-.53-29.19-.05-1.93-.6-4 .53-5.82l-.12.1c6.21-1.31 12.492-.45 18.732-.5 5.36-.06 10.86-.69 16.26.4ZM.102 599.98c11.59.61 23.18.54 34.78 0a4.842 4.842 0 0 1 1.56 4c.08 9.28.14 18.57 0 27.85a5.38 5.38 0 0 1-1 3.27 5.506 5.506 0 0 1-3.72 1.16c-9.14.12-18.28.09-27.41 0a5.925 5.925 0 0 1-4.16-1.36l-.05-34.92ZM988.832 352.98l35.068.05v35c-1 .894-2.3 1.373-3.64 1.34-9.43.11-18.86.15-28.288 0a5.262 5.262 0 0 1-3.26-1 6.26 6.26 0 0 1-1.16-4.23c-.08-8.96-.08-17.926 0-26.9a6.244 6.244 0 0 1 1.28-4.26Z"/><path fill="#5C6977" d="M35.168 389.04c1.13 9.43.19 18.9.52 28.35.07 2.14-.38 4.34.58 6.4-.09.18-.18.35-.26.53a.767.767 0 0 1-1-.3h.09c-6.55-1.24-13.16-.23-19.73-.56-5.09-.26-10.22.56-15.29-.48v-34a253.347 253.347 0 0 1 35.09.06ZM.102 669.97v-34c10.94-1.08 21.9-.19 32.85-.5 1.93 0 2.68.78 2.63 2.66-.27 10.62.53 21.26-.44 31.88v-.07a251.39 251.39 0 0 1-35.04.03ZM1023.9 389.02v34c-11.66.798-23.35.798-35.003 0v.09c-1-10.62-.16-21.26-.44-31.89 0-1.87.67-2.73 2.61-2.67 10.933.29 21.933-.6 32.833.47ZM1023.9 847.94c-22.25-.06-44.503-.116-66.763-.17-1.58 0-3.55-.46-3.49 2.22.27 10.93-.67 21.89.52 32.81l-.38.21-.92.07-.62-.7a6.53 6.53 0 0 1-.62-1.72c-.54-8.27-.09-16.54-.26-24.81-.12-5.68-.66-6.27-6.28-6.35-9.1-.13-18.2.09-27.31-.1-9.79.23-19.58.08-29.37.08a10.247 10.247 0 0 1-4.85-.84 1.296 1.296 0 0 1-.7-1.6l35.07-.14c1.94-1.7 4.33-1.52 6.64-1.54 7-.06 14 0 21 0 5.2-.06 5.73-.54 5.76-5.74.08-18.29 0-36.58.06-54.88 0-2.61-.47-5.36 1.38-7.67 2 1.3 1.14 3.33 1.15 5 .06 20 .15 40 0 60 0 4 1.2 5.05 5.09 5 21.66-.18 43.323-.1 65.003-.11l-.11.98ZM987.927 953.95c-9.79 0-19.59.14-29.37-.12-3.82-.1-4.74 1.21-4.72 4.85.15 21.74.08 43.48.08 65.22h-1c0-21.91-.11-43.83.09-65.74 0-3.83-1.08-4.74-4.74-4.61-10.1.35-20.22.32-30.34.43l-.11-.23c-.24-.21-.31-.41-.21-.59s.2-.25.29-.25h.1a6.918 6.918 0 0 1 1.53-1c7.58-1.12 15.2-.39 22.81-.51 9.08-.13 9 0 9.1-9.34.05-7.28-.28-14.57.21-21.85a5.696 5.696 0 0 1 .6-1.74l.61-.69h.93l.23.11c1.67 1.95 1.48 4.34 1.5 6.64.06 7 0 13.95 0 20.93.07 5.27.51 5.73 5.66 5.81 6.81.09 13.62 0 20.43 0 2.33 0 4.67 0 6.66 1.54h35.633v1c-11.68-.48-23.37-.46-35.063 0-.28.6-.58.62-.91.14Z"/><path fill="#5C6977" d="M1023.9 389.02c-10.27 0-20.55.11-30.832-.06-3.29-.05-4.28 1.08-4.23 4.3.15 9.94 0 19.89 0 29.83-1.29-9.55-.571-19.16-.431-28.72.06-4.76-1.499-5.68-5.879-5.63-19.73.22-39.481.12-59.221.05-1.69 0-3.639.86-5.119-.79a4.061 4.061 0 0 1 1.609-1.07c3.43-.83 6.92-.47 10.391-.48 16.733-.04 33.459-.04 50.179 0 2.31 0 4.641-.21 6.901.54a6.71 6.71 0 0 1 1.649 1h35.003l-.02 1.03ZM530 .11v106a.57.57 0 0 1-.471.107.57.57 0 0 1-.389-.287L529 .11h1ZM35.144 670.02c0-9.94-.14-19.89 0-29.82 0-3.23-1-4.34-4.23-4.29-10.28.17-20.55.07-30.82.07v-1h35a6.863 6.863 0 0 1 1.58-1 219.526 219.526 0 0 1 32.54-.07 3.71 3.71 0 0 1 1.54 1.06c-1.19 1.82-3 1-4.56 1-8.66.09-17.32.26-26-.06-3.93-.14-4.72 1.22-4.61 4.81.26 8.15.11 16.32.06 24.47.05 1.6.54 3.31-.5 4.83ZM424 .11c0 23.334-.027 46.667-.08 70-.31.34-.61.31-.89-.06L423 .11h1ZM987.926 953.95c.3 0 .61 0 .91-.05l.07 70h-1l.02-69.95ZM70.063 495.01h-70v-1l70 .08a.548.548 0 0 1 .19.63c-.04.18-.11.29-.19.29ZM599.921 34.94l.08-34.83h1v31.36c0 1.54.78 3.36-1 4.57-.33-.23-.45-.46-.35-.71.1-.25.16-.39.27-.39ZM423 1023.9V994c0-1.73-.74-3.7 1-5.12v35l-1 .02ZM388.996 988.83v35.07h-1v-30.61c.09-1.49-.85-3.33 1-4.46ZM.103 669.97h35c-1.07 2-2.93.95-4.37 1-10.23.11-20.45.06-30.67.06l.04-1.06ZM1023.9 530l-35.002.1c1.38-1.82 3.37-1.06 5.09-1.07 10.002-.07 19.942 0 29.912 0v.97ZM35.102 530.11l-35-.1v-1h29.91c1.72.03 3.71-.73 5.09 1.1ZM1023.9 776.95l-35.002.09c1.36-1.88 3.37-1 5.07-1 10.002-.08 20.002 0 29.952 0l-.02.91ZM988.867 811.86l35.003.08v1h-30.003c-1.63-.06-3.64.82-5-1.08Z"/><path fill="#5C6977" d="M988.859 423.01h35.001v1c-10.21 0-20.42 0-30.631-.05-1.42-.01-3.23.97-4.37-.95ZM.102 423.02h29.9c1.73 0 3.7-.74 5.12 1h-35l-.02-1ZM.102 317.04c10 0 20-.05 29.94 0 1.71 0 3.71-.81 5.08 1l-35-.08-.02-.92ZM35.172 389.04H.102v-1h30.61c1.49.07 3.29-.93 4.46 1Z"/><path fill="#FEFEFE" d="M706 705.98c.06-10.63.09-21.26.23-31.9 0-2.26-.55-3.25-3-3.24-34.067.126-68.137.206-102.21.24-1 1.71-.48 3.57-.49 5.36-.15 21.51.21 43-.21 64.54 2.89 1.94 6.11.73 9.16.82 7.15.21 14.32.27 21.47 0 3.63-.15 4.45 1.14 4.36 4.52-.23 8.49-.25 17 0 25.47.11 3.82-.84 5.13-4.92 5.09-20-.22-40 0-59.94-.2-4.16 0-5.78.67-5.59 5.34.42 10 .12 20 .12 30l-.86.41c-10.27.11-20.53 0-30.8 0-1.12 0-2.33.31-3.33-.55l.13.09a2.836 2.836 0 0 1-.58-1.85c.08-22.72-.17-45.44.14-68.16-1.52-1.59-3.47-.81-5.2-.82-20-.06-40-.15-59.94.06-4.13 0-5.67-.63-5.6-5.32.3-21.63.14-43.28.14-64.92l.89-.41c22.05-.11 44.11 0 66.16 0a5.383 5.383 0 0 1 2.91.41c.11 10.3.36 20.59.25 30.88 0 3.49 1 4.58 4.49 4.49 9.14-.22 18.29-.2 27.42 0 3.11.06 3.9-.92 3.89-3.95-.127-21.107-.127-42.22 0-63.34 0-3.17-1.07-3.88-4-3.85-10.3.11-20.6 0-30.91-.1-.82-.8-.61-1.84-.61-2.82v-64.29c0-1-.18-2 .55-2.86 21.77 0 43.55-.14 65.33 0 3.79 0 5.19-.79 5-4.86-.39-10-.28-19.93-.37-29.89a3.395 3.395 0 0 1 3-1.57c10.43 0 20.88-.8 31.31.43.602.279 1.094.75 1.4 1.34.82 1.89.64 3.9.65 5.88v57.14c0 2.13.32 4.34-1 6.26-1.62 1.91-3.87 1.54-6 1.56-7.23.07-14.46 0-21.69 0-1.93 0-4-.4-5.53 1.31-1.57 3-.81 6.2-.74 9.27.15 7.08-.82 14.2.61 21.21a4.17 4.17 0 0 0 3.58 1.39h25a3.587 3.587 0 0 0 3.41-1.61c1.18-8.72.22-17.46.53-26.18.09-2.45-.3-5 1.4-7.13 1.88-1.39 4.09-1.26 6.24-1.27 19.14-.04 38.276-.04 57.41 0 2.15 0 4.35-.09 6.29 1.15 1.73 1.73 1.42 4 1.44 6.09.06 7.45 0 14.9 0 22.35 0 1.8-.28 3.67.95 5.24 1.6 1.67 3.68 1.34 5.65 1.34 7.15 0 14.3-.06 21.45 0 5.6.09 6 .54 6 5.91-.11 21.78.28 43.56-.2 65.34-5.67 1.3-11.41.4-17.11.56-5.7.16-11.51.07-17.27 0l-.86-.4ZM459.08 493.89v-34.93l-.08.09c1.91-1.71 4.28-1.59 6.6-1.61 7.46 0 14.93-.14 22.38 0 4.1.09 5.61-1.53 5.52-5.56-.17-7.13-.09-14.27 0-21.4 0-2.3-.18-4.68 1.31-6.71 2.19-1.63 4.75-1.17 7.19-1.17h54.62c2.09 0 4.37.52 6-1.46 1.83-6.65.39-13.41.87-20.09.29-4.05-.87-8.24 1.2-12.12 1.8-1.56 4-1.26 6.12-1.28h21.71c2 0 4 .31 5.32-1.72 1.1-3.94.46-7.95.56-11.92.13-5.16-.16-10.32.13-15.46.29-5.14 1.92-6.66 7.12-7 1.16-.09 2.33-.07 3.49-.07h89.29c2.63 0 5.35-.33 7.74 1.28 1.19 1.36 1.23 3 1.23 4.71 0 20.92.09 41.84 0 62.76a9.377 9.377 0 0 1-.34 2.46 4.335 4.335 0 0 1-1.06 1.67c-1.89 1.34-4.09 1.26-6.25 1.28-7.49 0-15 .08-22.49 0-2.45 0-5.08.26-6.85-2.12-1.54-5.35-.43-10.84-.76-16.25s.67-10.89-.63-16.25c-1-1.41-2.45-1.53-4-1.53h-23.56c-1.55 0-3 .13-4 1.52-1.53 3.16-.81 6.53-.88 9.8-.11 5.47 0 10.94 0 16.4-.09 7.41-1 8.36-8.27 8.43-6.46.07-12.92 0-19.38 0a16.177 16.177 0 0 0-5.88.59c-1.68 1-1.63 2.7-1.63 4.37v22.23c0 1.7 0 3.33 1.89 4.17 3.64.8 7.32.4 11 .41 16.63.05 33.26 0 49.89.05 7.31 0 8.38 1.16 8.46 8.41.08 7.25.05 14.63 0 21.95 0 2.15.08 4.35-1.21 6.27-2.11 1.83-4.7 1.33-7.14 1.34-18.57.05-37.15 0-55.73 0-2.11 0-4.36-.49-6.14 1.2-1.42 1.74-.9 3.82-1 5.77-.24 8.46.44 16.94-.4 25.4a3.26 3.26 0 0 1-1.08 1.46l-69.96-.24c-.91-11.3-.43-22.61-.26-33.91 1.84-1.93 4.27-1.61 6.56-1.64 7.15-.09 14.31-.13 21.46 0 3.89.08 5.85-1.15 5.74-5.4-.19-7.48-.13-15 0-22.46.05-3.57-1.31-5.12-5-5.06-7.65.12-15.31.1-23 0-3.7-.05-5 1.65-5 5.15.05 7.32.07 14.64 0 22 0 2.29.29 4.72-1.59 6.59-22.84.49-45.68.13-68.52.2a2.738 2.738 0 0 1-1.31-.6ZM794.001 846.99c-16 0-32-.09-48 .07-3.24 0-4.2-.85-4.18-4.15.12-32.307.12-64.617 0-96.93 0-3.25.87-4.19 4.15-4.18 32.32.12 64.633.12 96.94 0 3.25 0 4.18.87 4.17 4.15-.12 32.307-.12 64.62 0 96.94 0 3.25-.86 4.21-4.15 4.17-16.34-.16-32.66-.07-48.93-.07ZM670.999 847.92h34.86c1.06 1.13.62 2.53.62 3.81 0 21.75.06 43.51 0 65.27a1.468 1.468 0 0 1-1.13 1.4c-46.446.1-92.893.1-139.34 0l-.9-.4v-35c1.71-1 3.58-.51 5.37-.51 31.607 0 63.22-.023 94.84-.07 1.71 0 3.67.86 5.14-.84.19-9.59 0-19.18.11-28.77-.05-1.65-.47-3.34.43-4.89ZM211.05 671.05H142.1c-.41.52-.77.49-1.09-.08l.11.11a8.756 8.756 0 0 1-1.05-1.64c-1.16-10.26-.52-20.54-.35-30.82a4.297 4.297 0 0 1 1.11-2.72c1.86-1.4 4-1.28 6.2-1.28 7.79 0 15.59-.12 23.38 0 3.85.07 5.36-1.43 5.29-5.29-.15-7.79-.06-15.58 0-23.37 0-2.15-.12-4.34 1.29-6.21 2-1.56 4.39-1.35 6.69-1.35 18.9-.04 37.8-.04 56.7 0 2.15 0 4.33-.07 6.31 1a3.82 3.82 0 0 1 1.25 1.51c.67 11.34 1.39 22.68-.39 34-1.74 1.72-4 1.41-6.1 1.43-7.3.06-14.6 0-21.9 0-1.8 0-3.71-.32-5.07 1.33-1.61 3.31-.74 6.83-.84 10.24-.19 6.74.14 13.5-.18 20.25a6.246 6.246 0 0 1-.4 1.71l-.43.76a1.2 1.2 0 0 1-1.58.42Z"/><path fill="#FEFEFE" d="M318.003 670.94v34.78c-1.06 1.22-2.49.7-3.75.7h-98.82c-1.13 0-2.35.28-3.35-.56l.1.11c-1.3-6.22-.46-12.52-.49-18.78 0-5.42-.77-10.9.47-16.3l-.12.13c1.74-1.67 4-1.45 6.07-1.46h21.29c1.94 0 4 .41 5.41-1.55 1.54-8.21.3-16.47.72-24.69.13-2.59-.43-5.33 1.47-7.59a6.665 6.665 0 0 1 3.77-1.1c9.45-.07 18.9-.14 28.36 0a5.277 5.277 0 0 1 2.83.81c1.86 1.86 1.62 4.27 1.65 6.57.08 7 0 14 0 21 0 2-.24 4 1.22 5.68 1.61 1.29 3.51.87 5.31.89 8.49.12 17-.17 25.48.16a5.2 5.2 0 0 1 1.72.58l.66.62ZM422.998 777.02l-33.88-.2c-1.34-5.51-.49-11.12-.52-16.67 0-6.07-.64-12.17.4-18.22 22 0 44 0 66-.14 3.37 0 4.13 1.06 4.09 4.23-.13 10 0 20 .1 30 9.84 1.07 19.71.14 29.56.49 1.77.06 3.63-.55 5.3.54l-.13-.09c1.27 5.88.5 11.84.51 17.75 0 5.75.74 11.54-.51 17.26l.13-.09c-.84.74-1.88.56-2.86.56h-64.34c-1 0-2 .19-2.86-.56l.12.1c-1.3-6.2-.2-12.47-.57-18.7-.33-5.43.65-10.88-.54-16.26ZM459.052 670.94c-10.48 0-21 0-31.45-.1-2.45 0-4.07.14-4 3.36.25 10.47.23 20.95.32 31.43-.63 1.14-1.73.8-2.67.8h-30a3.003 3.003 0 0 1-2.33-.62l.08-69.8c1-.76 2.24-.51 3.38-.51h63.21c1.13 0 2.34-.29 3.35.56l.21 33.95a.585.585 0 0 1 .201.556.578.578 0 0 1-.391.444l.09-.07ZM671.081 706.11l34.92-.08-.09-.07c.72.85.53 1.88.53 2.86v64.83c0 1.12.38 2.36-.67 3.28h-34.67c-.81-.81-.61-1.85-.61-2.82v-65.16c0-1.03-.19-2.07.59-2.84ZM352.93 670.91H318l.09.08a6.362 6.362 0 0 1-1.44-4.62c0-21-.11-42.08 0-63.11a7.754 7.754 0 0 1 .33-2 4.247 4.247 0 0 1 1.07-1.66c1.72-1.22 3.72-1.24 5.69-1.26 7.74-.06 15.48-.05 23.23 0 2.15 0 4.31 0 6 1.62l-.08-.09c.394.525.58 1.177.52 1.83v64.31c.08 1.67.59 3.39-.48 4.9ZM952.727 777.02c.06 22.29.07 44.58.25 66.87 0 2.91-1.279 3.16-3.599 3.14-10.48-.11-21.001-.1-31.44-.13v-69.86c5.869-1.26 11.819-.49 17.719-.5 5.74 0 11.531-.72 17.241.49l-.171-.01ZM565.003 811.97c21.64 0 43.28.22 64.92 0 4.55-.05 5.59 1.31 5.42 5.59-.33 8.48-.2 17 0 25.47.06 2.89-.54 4.07-3.79 4-20.98-.14-41.957-.14-62.93 0-2.89 0-3.63-.9-3.6-3.68.11-10.15 0-20.3-.08-30.46-.25-.28-.3-.52-.17-.73.13-.21.25-.29.36-.29l-.13.1ZM494.002 988.18c-11.66.06-23.33.59-35-.28 0-21.77.1-43.54-.08-65.3 0-3.7.88-4.8 4.66-4.71 10.13.25 20.27 0 30.4 0 .813 23.433.82 46.863.02 70.29ZM494.909 917.89l-.12-69.93c11.4-1 22.81-.57 34.22-.2.11 14.59.27 29.18.31 43.76 0 8.79-.15 17.58-.23 26.37l-.81.46c-10.847.1-21.7.1-32.56 0l-.81-.46ZM706.081 952.58c-.04-11.213-.077-22.42-.11-33.62-.56-.38-.55-.74 0-1.09l-.1.1c.31-.51.67-.52 1.07-.12 9.79 0 19.58.24 29.36.06 3.49-.07 5 .54 4.86 4.52-.33 10.11-.15 20.24-.17 30.36-8.57 1.39-17.2.38-25.79.53-3 .04-6.2 1.08-9.12-.74ZM493.898 564.92c-10.43 0-20.86-.06-31.29.1-2.82 0-3.67-.81-3.63-3.63.16-10.43.09-20.86.1-31.29 5.54-1.33 11.16-.52 16.73-.51 6.06 0 12.17-.79 18.21.5l-.11-.11c1.29 9.36.3 18.76.53 28.14.05 2.25.65 4.62-.54 6.8ZM883.004 848.03l35-.08a6.578 6.578 0 0 1 1.45 4.64c0 9.27.32 18.55-.17 27.83a6.287 6.287 0 0 1-.63 1.78l-.65.69h-34.72a1.768 1.768 0 0 1-.631-.729 1.77 1.77 0 0 1-.159-.951c.27-11.1-.71-22.1.51-33.18Z"/><path fill="#FEFEFE" d="M917.996 917.97v-35.08l-.08.09a6.37 6.37 0 0 1 4.61-1.43c8.6-.054 17.197-.054 25.79 0a6.417 6.417 0 0 1 4.64 1.37l-.1.07c1.32 5.52.49 11.13.51 16.69 0 6.07.67 12.17-.42 18.22v.06a4.84 4.84 0 0 1-3.17 1.26c-10.08 0-20.17.54-30.24-.3a7.197 7.197 0 0 1-1.63-1l.09.05ZM530.004 917.89l35.05.07-.09-.08c.33.18.47.39.41.64s-.15.39-.24.39l-.21 33.89c-5.19 1.31-10.47.51-15.7.54-6.42 0-12.87.52-19.28-.3a280.44 280.44 0 0 1 .06-35.15ZM847.893 635.22c0-10.45 0-20.9-.18-31.34-.06-3 1.12-3.63 3.8-3.59 9 .12 17.92.21 26.87 0 3.74-.1 4.36 1.49 4.32 4.72-.13 9.95 0 19.9 0 29.85-3.81 1.44-7.77.55-11.65.58-7.7.02-15.44.33-23.16-.22Z"/><path fill="#5C6977" d="M812.884 495.05c0 58.3.023 116.604.07 174.91.26.84 0 1.16-.9.95-1.7-1.5-1.67-3.56-1.67-5.54 0-55.509-.16-111 0-166.54.026-.496.083-.99.17-1.48a5.474 5.474 0 0 1 .66-1.8 1.2 1.2 0 0 1 1.67-.5ZM741.001 706.01c0-22.12 0-44.24.17-66.35 0-3.32-1.24-3.78-4.07-3.74-8.81.15-17.63.11-26.44 0-1.48 0-3.36 1-4.45-1 .444-.439.976-.78 1.56-1 8.46-1 17-.25 25.44-.47 5.79-.16 6.16-.47 6.22-6.34.07-6.83-.12-13.66.1-20.48.07-2.11-.68-4.88 2.52-5.75 1.65 1.75 1.45 4 1.47 6.1.08 6.45 0 12.91 0 19.36 0 6.8.27 7 6.89 7.09 6.62.09 13.23 0 19.85 0 2.28 0 4.68-.27 6.59 1.5.37.72.15 1.13-.65 1.24-10-.07-19.93 0-29.88-.29-3.62-.1-4.45 1.27-4.43 4.62.13 20.43.09 40.86 0 61.29 0 1.7.85 3.71-1.09 5-.26-.24-.32-.44-.19-.61.13-.17.24-.17.39-.17ZM988.648 634.93c-1.15 1.88-3 1-4.52 1-8.974.087-17.944.087-26.91 0-2.36 0-3.61.34-3.59 3.19.14 34.06.213 68.117.22 102.17-2-.89-.86-2.61-.86-3.84-.08-32.42 0-64.83-.15-97.24 0-4.1 1-5.45 5.25-5.34 10 .27 19.95 0 29.92 0l.64.06ZM917.842 706.11c-1.32 1.55-3.1.87-4.67.87-43.88.04-87.76.04-131.64 0-1.57 0-3.38.67-4.61-1l.74-.65c2.35-1.17 4.88-.91 7.36-.91h124.79c2.47 0 5-.26 7.33 1l.7.69ZM565.123 918.91l-.17-1h141.05V919l-140.88-.09ZM212 705.88l106-.16c-.82 1.94-2.56 1.21-3.91 1.21-32.667.04-65.307.04-97.92 0-1.46.01-3.1.57-4.17-1.05ZM670.777 881.89c-1.25 2.15-3.29 1-4.88 1-33.62.107-67.237.147-100.85.12 1.57-1.93 3.73-1 5.59-1 33.127-.073 66.257-.096 99.39-.07.24-.49.49-.48.75-.05Z"/><path fill="#5C6977" d="M988.652 634.93c-.21 0-.43-.05-.64-.06 0-33.76-.03-67.524-.09-101.29 0-1.29-.32-2.72 1.08-3.61 0 33.18-.033 66.353-.1 99.52 0 1.81-.16 3.62-.25 5.44ZM530.003 494.73v34.29c-1.53-1.31-.94-3.09-1-4.68 0-8.31-.181-16.63.049-24.93.1-3.58-1.169-4.49-4.579-4.47-20.12.13-40.231.08-60.351 0-1.7 0-3.709.83-5.06-1.07l70.191.09a.747.747 0 0 1 .75.77ZM776.998 882.9c0 33.174-.033 66.344-.1 99.51 0 1.82-.13 3.64-.2 5.45h-.68c-.04-33.8-.07-67.596-.09-101.39.07-1.26-.38-2.72 1.07-3.57ZM740.999 706.01a8.174 8.174 0 0 0-.14.84c-9.83 0-19.66.23-29.48 0-3.59-.07-4.47 1.18-4.44 4.59.13 20.15.09 40.31 0 60.47 0 1.65 1 3.72-1.15 4.94l.15-71 35.06.16ZM600.003 987.85c-.87 2-2.62 1-3.91 1-33.734.046-67.457.046-101.17 0v-.21c-.24-.19-.31-.37-.2-.52.11-.15.19-.21.29-.21l104.99-.06ZM707.004 917.85l-1.07.12-.09-70.1c2.39.61 1.07 2.53 1.08 3.71.08 22.09.08 44.18.08 66.27ZM530.068 565.11l.06 70c-1.88.32-1.1-1.16-1.1-1.84-.02-21.733-.03-43.453-.03-65.16 0-1.1-.18-2.33 1.07-3Z"/><path fill="#5C6977" d="M495.002 987.93a3.6 3.6 0 0 1-.09.73l-.92-.48v-70.29c.3.02.601.02.9 0l.08.09c.36.19.48.4.38.62-.1.22-.2.34-.31.34-.026 22.993-.04 45.99-.04 68.99ZM671.079 706.11v70.81c-1.6-.78-1.11-2.27-1.11-3.5v-63.74c.03-1.33-.34-2.77 1.11-3.57ZM458.94 636.11l-69.94-.1c1.1-1.47 2.71-1 4.14-1h61.72c1.41-.01 3.04-.55 4.08 1.1ZM389.003 741.93l.12 34.89c0 10 0 20.07-.14 30.1 0 1.7.76 3.68-1.11 5l.15-35c-.3-.11-.43-.26-.38-.45.05-.19.12-.32.2-.32.06-9.7.09-19.41.21-29.11.03-1.72-.66-3.65.95-5.11ZM529.654 741.94c.11 11.91.26 23.82.34 35.73.07 11.42.07 22.85.1 34.28-1.39-.89-1.08-2.31-1.08-3.59v-63.58c.107-.967.322-1.92.64-2.84Z"/><path fill="#5C6977" d="M318.078 812.959c1.25-2.14 3.29-.94 4.87-1 21.7-.12 43.4-.1 65.1-.12-1.38 1.85-3.37 1-5.07 1-21.63.13-43.26.11-64.9.12ZM424 811.86h70c-.84 1.51-2.32 1.06-3.57 1.06h-62.92c-1.22 0-2.69.45-3.51-1.06ZM600.28 740.98c-.087-22.833-.18-45.663-.28-68.49 0-.7.16-1.27 1-1.41v64.6c0 1.78.49 3.66-.72 5.3ZM918.112 528.99c-.06-20.82-.123-41.64-.19-62.46 0-2.5-.07-5-.11-7.49 1.91 1.55 1.071 3.71 1.071 5.59.07 21.44 0 42.88 0 64.32-.2.42-.471.43-.771.04ZM141 670.93l1.09.08c0 21.56-.02 43.116-.06 64.67 0 1.77.56 3.66-.69 5.29-.087-19.54-.18-39.077-.28-58.61l-.06-11.43ZM952.797 599.92v-69.93c1.55 1.05 1.08 2.67 1.08 4.1 0 22-.02 43.977-.06 65.93a.61.61 0 0 1-1.02-.1ZM352.93 670.91l.22-69.9c.28-.43.56-.41.84 0v65.4c.01 1.51.87 3.38-1.06 4.5ZM459 671.02c.07-.34.13-.67.19-1h65.72c1.4 0 3-.61 4.14.9l-70.05.1ZM812.239 952.91l-.3-53.62c0-5.46-.026-10.923-.08-16.39 1.33.67 1.07 1.94 1.07 3.05v64.66a8.298 8.298 0 0 1-.69 2.3ZM917.997 636.03c1.35 1.17.89 2.76.9 4.2v61.2c0 1.59.52 3.37-1.06 4.63v-.11c-1.56-1.79-1.5-4-1.51-6.14-.04-19.246-.04-38.496 0-57.75a10.517 10.517 0 0 1 1-5.33l.67-.7ZM847.891 635.22l34.83-.4c10.07 0 20.13.07 30.19.19 1.73 0 3.67-.67 5.1 1h-.19a5.625 5.625 0 0 1-4.14 1.45c-10 0-19.95.55-29.91-.32a4.76 4.76 0 0 1-1.65-1c-9.64-.06-19.28-.09-28.92-.19-1.78-.02-3.68.54-5.31-.73ZM776.203 636.19a1.24 1.24 0 0 0 .5-.13c1.71 1.25 1.79 3.14 1.8 4.95.14 19.94.11 39.88 0 59.81a7.117 7.117 0 0 1-1.55 5.13h-.05a2.152 2.152 0 0 1-.816-.911 2.151 2.151 0 0 1-.184-1.209l.3-67.64ZM813 670.77v-.81l69 .06a1.207 1.207 0 0 1 .05.952 1.194 1.194 0 0 1-.66.688 10 10 0 0 1-4.83.89c-19.193.06-38.383.06-57.57 0-2.2-.02-4.46.16-5.99-1.78Z"/><path fill="#5C6977" d="M354 601.01h-.84l-.16-1.08h34.91c.4-.44.75-.4 1 .1-1.27 1.61-3.07.93-4.63.94-10.07.05-20.18.03-30.28.04ZM952.803 599.92l1 .1c-.77 1.19-2 .95-3.12.95h-29.22c-1.25 0-2.71.43-3.51-1.1l34.85.05ZM706.078 952.58c11.64.69 23.29.29 34.94.21.38 1.46-.74 1.11-1.42 1.11h-30.67c-1.14.01-2.37.12-2.85-1.32ZM529.998 917.89l.06 34.91c.32.25.43.49.3.72-.13.23-.24.33-.36.33-1.71-1.44-.94-3.4-1-5.12-.09-9.93-.07-19.86-.09-29.79-.32-.24-.42-.46-.29-.66s.24-.3.36-.3l.08-.09c.313.021.627.021.94 0ZM883 848.03l.26 34.81c-1.55-.44-1.29-1.74-1.29-2.85v-30.84c0-.83 0-1.66.92-2.11.007.333.043.664.11.99ZM318.222 741.909c-.06 10.13-.07 20.27-.24 30.39 0 1.47 1 3.33-1 4.42-.34-.16-.44-.32-.33-.47a.42.42 0 0 1 .34-.23v-33.46a1.118 1.118 0 0 1 .38-.82c.21-.1.63.11.85.17ZM388.942 705.83c11.67.1 23.33.48 35-.2a1.368 1.368 0 0 1-1.33 1.23c-11.127.04-22.257.04-33.39 0-.13 0-.36-.17-.37-.27.008-.256.038-.51.09-.76ZM776.056 987.87c.226-.025.454-.025.68 0-1.08 2-3 1-4.41 1-10.14.15-20.28.15-30.42.2.44-2.36 2.32-1.05 3.37-1.07 10.26-.16 20.52-.12 30.78-.13ZM565.002 811.89c-.06.34-.12.68-.19 1-10.11 0-20.23.06-30.34 0-1.54 0-3.37.74-4.55-1h35.08ZM881.894 670.78a3.86 3.86 0 0 1 0-.76l.21-33.879a3.89 3.89 0 0 0 .82-.161c1.45 1.6 1.55 3.59 1.56 5.58.07 7.91.17 15.83-.07 23.74-.04 1.97.88 4.86-2.52 5.48Z"/><path fill="#5C6977" d="m388.998 600.01-1-.1c0-10.12 0-20.23.18-30.35 0-1.46-1-3.32.95-4.42l-.13 34.87ZM881.903 529.88c2 1.1 1 3 1 4.41.12 10.21.11 20.42.13 30.63-1.9-1.35-1-3.36-1-5.06-.15-9.99-.12-19.98-.13-29.98ZM212.119 670.91v35.08c-1.9-1.35-1-3.35-1-5-.09-10-.05-19.93-.05-29.89l1.05-.19ZM493.898 564.92v-34.94a2.651 2.651 0 0 1 1.08 2.59v29.79c.02 1 .02 2.01-1.08 2.56ZM635.002 530l-34.93.32-.15-1.07.18-.22a5.208 5.208 0 0 1 1.61-1.05c9.85-1.12 19.73-.46 29.6-.37 1.52.01 3.41.12 3.69 2.39Z"/><path fill="#5C6977" d="M493.998 530.11h-34.92c.53-.35 1-1 1.57-1 10.593-.06 21.183-.06 31.77 0 .58 0 1.07.64 1.58 1ZM424 988.97c.005-.336.039-.67.1-1l34.72.08c.07.23.15.46.22.7l-35.04.22ZM387.847 776.16c-.011.268.051.534.18.77-10.15 0-20.29.07-30.43 0-1.44 0-3.31 1.1-4.37-1 .27-.47.53-.45.79 0l33.83.23ZM494.001 777.03c-10.15 0-20.3 0-30.44-.14-1.45 0-3.3 1.07-4.42-.89 10.27 0 20.53-.06 30.8 0 1.44-.02 3.06-.6 4.06 1.03ZM953 777.03h-35c.34-.31.69-.9 1-.9 10.94-.047 21.88-.047 32.82 0 .4-.02.76.59 1.18.9ZM846.997 494.92c1.68 4.61.52 9.38.71 14.06.26 6.74.19 13.49.27 20.23-2.21-.71-.87-2.5-.88-3.64-.17-10.22-.1-20.46-.1-30.65ZM422.997 777.02c2 1.07.93 2.92 1 4.36.13 10.19.11 20.38.14 30.58-1.82-1.39-1-3.37-1-5.08-.14-9.96-.14-19.91-.14-29.86Z"/><path fill="#5C6977" d="M493.906 811.95v-35a2.671 2.671 0 0 1 1.08 2.6v29.81a2.645 2.645 0 0 1-1.08 2.59ZM989.002 776.94v35a2.606 2.606 0 0 1-1.08-2.59v-29.82c0-1.01.08-2 1.08-2.59ZM812.882 495.05l-.69.08a.826.826 0 0 1-.41-.74c0-.3.08-.45.16-.45 10.2 0 20.41 0 30.61.11 1.49 0 3.31-.89 4.51.89l-34.18.11ZM918.109 528.99c.274.015.547.015.82 0 9.63 0 19.27 0 28.91.08 1.72 0 3.7-.74 5.1 1.06-10.14 0-20.28 0-30.41-.15-1.46-.06-3.32.99-4.42-.99ZM528.999 847.76l-34.22.2-.06-.49c11.44-.62 22.87-1.13 34.28.29ZM530 953.85l.06-1h34.86c-1 1.64-2.65 1.09-4.05 1.09-10.3-.03-20.59-.07-30.87-.09ZM812 883.01h-35c.22-.346.532-.623.902-.799a2.182 2.182 0 0 1 1.188-.201h30.85a2.21 2.21 0 0 1 2.06 1ZM528.997 917.98c0 .32-.02.654-.06 1h-33.9c0-.32-.02-.653-.06-1h34.02ZM670.777 881.89h-.75c0-10-.07-19.92 0-29.88 0-1.4-.62-3 .95-4.11-.08 11.334-.147 22.664-.2 33.99ZM317 776.02a5.45 5.45 0 0 0 0 .7c-11.34.36-22.68.42-34 0 5.15-1.65 10.44-.51 15.67-.69 6.13-.23 12.25-.04 18.33-.01ZM354.002 775.94h-.79c-.066-11.333-.14-22.666-.22-34 1.74 1.22 1 3 1 4.59.07 9.8.01 19.58.01 29.41ZM388.003 389c-10-.06-20.001-.09-30.051-.23-1.55 0-3.299.71-4.64-.75.561-9.93.32-19.88.14-29.81-.08-4.22 1.431-5.64 5.401-5.6 7.29.07 14.589 0 21.879 0 2 0 4 .3 5.64-1.25 1.43-1.49 1.25-3.36 1.25-5.18v-56.35c0-1.82.19-3.69-1.25-5.15-1.65-1.56-3.71-1.21-5.67-1.22h-20.879c-2.1 0-4.37.39-6.05-1.48-.46-23-.151-45.93-.151-68.89 0-.3.261-.6.411-.9 10.42-.08 20.84-.07 31.25-.28 2.94-.06 3.609 1.07 3.589 3.77-.08 10.42 0 20.85.08 31.27 3.12 1.5 6.421.52 9.631.6 7.09.18 14.2.11 21.3 0 1.34 0 2.999.82 4.069-.78-.09-10.46-.239-20.92-.259-31.38-.04-22.6-.04-45.197 0-67.79 0-1.82.209-3.63.319-5.45 11.65-1.08 23.32-.51 35-.29 1.86 1.88 1.55 4.3 1.58 6.59.09 6.64.001 13.29.051 19.94.06 5.57.49 6 5.919 6.09 7.14.1 14.291-.06 21.441.07 7 .13 8.64 1.62 8.54 8.59-.12 9.28.89 18.59-.62 27.84a3.229 3.229 0 0 1-1.22 1.39l-.891.22c-9.3-.25-18.609-.06-27.929-.11-1.82 0-3.73-.22-4.77 1.82-.68 2.47-.45 5-.45 7.47v122.18c0 2.8.37 5.67-.89 8.35l-.66.74-34.89.09c-1.3 1.62-.631 3.52-.631 5.27-.06 19.75 0 39.5 0 59.24 0 1.81.301 3.66-.309 5.44-11.35.89-22.71.46-34.07.22-1.24-6.33-.24-12.74-.58-19.1-.37-5.09.55-10.18-.63-15.2ZM247.082 599.93c-7.45.89-14.94.33-22.4.37-15.81.08-31.62 0-47.42-.06-1.19-1.27-.66-2.85-.66-4.29V392.84c0-1.31-.26-2.67.4-3.92h-.06c11.36-.76 22.72-.48 34.08-.14 1.22 10 .16 20 .58 30 .07 1.7-.89 3.62.75 5.1 10.59-.09 21.17-.14 31.76-.3 2.34 0 3.19.78 3.16 3.15-.15 10.75-.17 21.5-.24 32.26l-.68.62c-4.31 1.6-8.8.62-13.2.86-6.39.36-12.82-.66-19.16.63a3 3 0 0 0-1.47 2.46c.13 9.45-.6 18.92.41 28.34.309.425.669.811 1.07 1.15a166.34 166.34 0 0 0 31.16 0 7.117 7.117 0 0 0 1-1.23c1.07-8.69.18-17.4.48-26.08.08-2.26-.41-4.65 1.37-6.57l34-.09c1.16 7.53.16 15.1.54 22.64.2 4.08-.65 8.21.49 12.25 6.91 1.27 13.88.21 20.81.56 4.46.23 9-.53 13.38.46.54 11.37.47 22.73 0 34.09-2.28 1.94-5 1.3-7.64 1.31-29.54.053-59.08.053-88.62 0-2.15 0-4.32-.3-6.4.41-.47.283-.906.618-1.3 1-1.62 2.82-.72 5.89-.79 8.83-.15 5.82-.06 11.66 0 17.49 0 1.8-.32 3.76 1.79 4.78 8.32 1 16.65.26 25 .43 8.59.18 9.39.89 9.43 9.48v20c0 2.16.15 4.35-.89 6.37l-.73.75ZM564.997 389.11l-.18 34c-1.73.86-3.59.43-5.39.43-19.92 0-39.84 0-59.77.06-1.57 0-3.3-.68-4.75.58-.08 9.47-.44 19-.12 28.42.17 5-.87 6.93-6.37 6.64-9.79-.5-19.63-.13-29.44-.13l.18-105.06c1.78-1.68 4-1.32 6.16-1.34 9.3-.09 18.61.1 27.92-.12l.94.05a2.586 2.586 0 0 1 1.46 1.11c1.89 7.88.45 15.89.92 23.83.18 2.95-.64 6 1 8.78 1.75 1.84 4 1.29 6.12 1.29h54.73c2.25 0 4.7-.54 6.59 1.46Z"/><path fill="#5C6977" d="M353.923 281.94c9.63 0 19.26 0 28.89.13 1.77 0 3.68-.56 5.26.81l-.64.71c-2.14 1.23-4.5 1-6.81 1-7 .06-14 .08-20.93 0-3.58 0-5.13 1.44-5.09 5 .06 5.65 0 11.3 0 16.95v38.88c0 2.31.22 4.67-.87 6.85-.21.24-.43.47-.64.7h-35.07l.09.09c-.04-11.587-.087-23.183-.14-34.79-.64-1.12-1.74-.75-2.66-.74-10.76.13-21.53-.34-32.28.23-1.94-2.88-.73-6.08-.82-9.11-.21-7.29.13-14.6-.15-21.88-.15-3.81 1.2-4.75 4.84-4.72 22.06.14 44.12.07 66.18.06.17-.5.46-.56.84-.17ZM317.778 176.11c-.73 1.35-2 .89-3.11.89-9.49 0-19-.06-28.47.07-2.91 0-4.13-.73-4.12-3.9.09-33.29 0-66.58.06-99.87 0-.81-.09-1.68.76-2.2a276.92 276.92 0 0 1 34.21-.13c.78 1.76.39 3.61.39 5.42v94.26a20.821 20.821 0 0 0 .28 5.46ZM283 493.93c-1.67-1.45-1-3.4-1-5.13v-29.76c0-10.32.22-20.65 0-31-.06-3.54 1.08-4.5 4.53-4.47 20.82.127 41.64.127 62.46 0 3.33 0 4.22 1 4.15 4.25-.19 9-.25 18 0 27 .11 3.69-1.23 4.31-4.56 4.29-20.32-.14-40.64.05-61-.17-4-.05-5 1.2-4.87 5 .41 10 .29 20 .29 29.99ZM353.068 600.02a344.54 344.54 0 0 1-35.06-.09l-.64-.72a7.738 7.738 0 0 1-.85-3.85c0-21.27-.37-42.53.19-63.8a6.357 6.357 0 0 1 .69-1.78l.6-.76c11.62.63 23.26.32 34.89.15.32.15.45.32.38.52s-.17.33-.26.33l.06 70ZM105.888 706.92c.06 10.63.1 21.27.21 31.9 0 1.95-.37 3.08-2.7 3.08-22.28-.08-44.56-.08-66.83-.13-.39 0-.78-.52-1.17-.8.46-9.63 0-19.26.23-28.89 0-1.79-.51-3.66.53-5.36 23.25-.27 46.49-.61 69.73.2ZM317.729 388.02c-5.33 1.79-10.81.48-16.21.73s-10.64.05-16 .05c-1.76 0-3.42-.08-3.41-2.5 0-10.81.09-21.61.18-32.42 0-.2.45-.41.69-.62 9.55.64 19.12.1 28.67.3 1.8 0 3.63-.32 5.4.33 1 9.22.15 18.47.43 27.7a40.754 40.754 0 0 0 .25 6.43ZM71.101 459.04c10 0 20-.05 29.92 0 1.36 0 3-.77 4.09.86 1 8.86.17 17.75.45 26.62.08 2.46-.22 4.94.21 7.4-4.66 1.67-9.47.53-14.2.68-6.8.23-13.62.09-20.43.11a244.211 244.211 0 0 1-.04-35.67ZM212.151 317.04c-.08-10.62-.1-21.24-.26-31.86 0-2.44.92-3.11 3.23-3.09 9.626.1 19.256.1 28.89 0 2.29 0 3.29.63 3.25 3.07-.16 10.62-.2 21.24-.28 31.86a252.878 252.878 0 0 1-34.83.02ZM317.001 246.98c-10.62.08-21.24.12-31.86.28-2.44 0-3.1-1-3.07-3.25.08-9.627.08-19.26 0-28.9 0-2.3.65-3.26 3.09-3.22 10.62.16 21.24.18 31.86.26a252.878 252.878 0 0 1-.02 34.83ZM141.088 634.95v-30.74c0-1.34-.82-3 .88-4 9.64.71 19.3.1 29 .34 1.79 0 3.67-.51 5.37.54.53 10.45.1 20.9.24 31.35 0 1.56 0 3.09-2.21 3-11.11-.27-22.21.67-33.28-.49ZM212 387.93l.2-33.91a256.23 256.23 0 0 1 34.83 0c.33 11.33.6 22.67-.14 34a232.198 232.198 0 0 1-34.89-.09ZM388.279 495a220.519 220.519 0 0 1 0 34c-11.42.91-22.84.58-34.27.16a283.278 283.278 0 0 1-.09-34.23 264.221 264.221 0 0 1 34.36.07ZM141.287 636.11l-.22 33.76a246.247 246.247 0 0 1-34.87.09c-.22-11.34-.49-22.69.13-34 11.67-.65 23.32-1.03 34.96.15ZM70.002 459l-34-.14c-.7-11.572-.7-23.177 0-34.75l.29-.33 33.76.19c1.2 7.89.27 15.83.51 23.75.11 3.47.1 7 0 10.44l-.56.84ZM105.003 600.04l-33.75.16c-1.37-1-1.51-2.49-1.53-4-.12-9-.1-18.08 0-27.13a5.63 5.63 0 0 1 1.39-4.09l34 .13a244.871 244.871 0 0 1-.11 34.93Z"/><path fill="#5C6977" d="m141.289 636.11-35-.19c2.72-1.7 5.72-.68 8.56-.75 8.73-.21 17.47-.19 26.2-.26 10.11 0 20.22-.14 30.32.11 3.78.09 4.82-1.15 4.73-4.82-.25-9.77-.12-19.55-.15-29.32-.32-.23-.41-.44-.28-.63.13-.19.24-.28.36-.28.04-24.813.083-49.63.13-74.45V394.6c0-1.9-.8-4 .74-5.72 0 68.113.027 136.227.08 204.34 0 2.33.12 4.66.19 7-.08 10.44-.29 20.88-.15 31.31 0 3.49-1 4.55-4.5 4.5-10.35-.13-20.79.08-31.23.08ZM388.06 36.11c1.59 1.48.92 3.42.93 5.16.07 9.62 0 19.23.06 28.84.35.23.46.46.34.68-.12.22-.25.31-.37.31-.06 33.127-.133 66.25-.22 99.37 0 1.93.67 4-.64 5.8-.23-.22-.46-.45-.7-.66-1.42-2.64-1-5.52-1-8.32V82.51c0-1.66-.06-3.33 0-5 .07-3.34-1.48-4.79-4.83-4.79h-21.44a16.372 16.372 0 0 1-5.44-.54 6.314 6.314 0 0 1-1.62-1l-.15.18a.707.707 0 0 1-.23-.68c.05-.24.11-.36.17-.36l.22-.24c2-1.68 4.37-1.44 6.68-1.46 7-.05 14 0 21 0 5.22-.06 5.61-.47 5.67-5.8.08-6.66 0-13.33 0-20-.01-2.45-.14-4.84 1.57-6.71ZM317.779 176.11c-.93-.94-.74-2.15-.74-3.29V73.24c.037-.671.114-1.339.23-2 .14-.46.37-.52.71-.17.014 34.026.02 68.04.02 102.04 0 1-.13 2-.22 3Z"/><path fill="#5C6977" d="M353.07 71.11a.772.772 0 0 0 .72.19c2 1.75 1.83 4.17 1.83 6.47.04 30.7.04 61.407 0 92.12a11.881 11.881 0 0 1-.81 5.37 1.295 1.295 0 0 1-1.62.74l-.12-104.89ZM71.1 459.04v35.68c-.066 23.087-.14 46.177-.22 69.27-.25.45-.51.45-.77 0l-.09-69v-.93c.41-11.7.52-23.39-.06-35.08l.22-.1c.3-.33.56-.29.75.12l.17.04ZM389 71.05v-1h34c.296-.015.594-.015.89 0 23.333.44 46.69.44 70.07 0 .27.15.37.32.29.5-.08.18-.15.28-.23.28-21.1.047-42.203.107-63.31.18-2.32 0-4.64.14-7 .21-11.54-.033-23.11-.09-34.71-.17Z"/><path fill="#5C6977" d="M70.151 563.99h.77c.06.34.13.68.19 1l.15 35.19-.48 34.76a5.157 5.157 0 0 0-.68-.05c-1.51-1.59-1.56-3.61-1.56-5.6 0-9.27-.19-18.54.08-27.82v-1.93c-.26-9.65-.08-19.3-.09-28.95 0-2 .11-4 1.54-5.65.008-.318.035-.635.08-.95ZM105.893 706.92l-69.76-.08v-.65l68.32-.21c.7-.01 1.29.13 1.44.94ZM317.998 71.11c-.216.12-.462.18-.71.17l-34.39-.17c5.5-1.54 11.12-.41 16.67-.7 6.11-.32 12.24.47 18.33-.43l35 .26.06 1-34.96-.13ZM318.118 952.95c-1.94-1.56-1-3.72-1-5.59-.08-21.47-.07-42.94-.08-64.41 2.15 1.24 1 3.28 1 4.87.06 21.71.05 43.42.08 65.13ZM353.921 281.94a3.1 3.1 0 0 0-.85.18v-66.1c0-1.28-.92-3 .94-3.87-.006 23.26-.036 46.524-.09 69.79ZM212.002 387.93l34.89.1c-2.72 1.72-5.72.69-8.57.75-8.75.21-17.51.18-26.26.24-.25.47-.55.52-.88.07l-34.19-.15c1.25-1.71 3.06-.86 4.59-.87 10.09-.12 20.23-.11 30.42-.14ZM423.124 423.02c-.04-22.14-.067-44.277-.08-66.41 0-1.25-.45-2.74 1.13-3.51-.047 21.48-.1 42.963-.16 64.45 0 1.82-.17 3.64-.26 5.46l-.63.01ZM387.86 353.31c-8 1.6-16.17.48-24.25.67-9.58.22-9.41.05-9.63 9.77-.19 8.09.94 16.22-.68 24.27l-.22-35-.08.09a4.86 4.86 0 0 1 3.12-1.41c10.11-.11 20.23-.82 30.33.39a2.804 2.804 0 0 1 1.41 1.22ZM423.94 246.74a1.337 1.337 0 0 1-1.34 1.21c-11.126.04-22.263.04-33.41 0-.13 0-.36-.17-.37-.27.016-.273.056-.544.12-.81l35-.13ZM317 246.98v-34.83c.81.12 1 .68 1 1.38v32.06c0 .71-.17 1.27-1 1.39ZM106.203 670l34.87-.09c0 .38 0 .75.05 1.13-10.19 0-20.39 0-30.58-.13-1.43-.02-3.27 1.09-4.34-.91ZM105 600.04c0-11.627.023-23.26.07-34.9.81.13 1 .7 1 1.41v31.59c-.01.81.03 1.67-1.07 1.9Z"/><path fill="#5C6977" d="M36.128 706.19c.02.217.02.434 0 .65 0 9.77 0 19.55-.06 29.32 0 1.62.45 3.33-.67 4.81l-.28-33.33a1.27 1.27 0 0 1 1.01-1.45ZM354.002 528.95l34.31.05c-1.18 1.81-3 .94-4.52.95-10.25.09-20.5.06-30.75.07a2.428 2.428 0 0 0-.12-.85l.23-.16c.21-.5.5-.5.85-.06ZM353.203 175.97h.68a4.172 4.172 0 0 1 1.73-.94 179.266 179.266 0 0 1 30.65 0 3.111 3.111 0 0 1 1.68 1l.22.24c-3.26 1.69-6.76.68-10.14.76-6.8.18-13.6.12-20.4 0-1.47-.07-3.34.94-4.42-1.06ZM247.002 354.03h-34.83c.11-.81.66-1 1.37-1h32.07c.71.01 1.26.18 1.39 1ZM458.93 142.11H424c1-2 2.92-1 4.36-1 10.23-.09 20.46 0 30.69 0l-.1-.06c.29.24.38.47.28.7-.1.23-.23.36-.3.36ZM317.729 388.02c-1.51-6.5-.41-13.09-.66-19.63-.18-4.78 0-9.58 0-14.36-.34-.19-.45-.38-.34-.57.11-.19.22-.29.34-.29l1.08-.1-.09-.09c-.12 11.68-.23 23.36-.33 35.04ZM494 353.11c-1.08 1.53-2.71.92-4.1.92h-30.75l-.09-1-.06.08a6.541 6.541 0 0 1 4.58-1.61c8.627-.126 17.25-.126 25.87 0 1.65.02 3.34.19 4.55 1.61ZM35.002 318.02c1.81 1.39 1 3.37 1.05 5.08.08 9.94 0 19.88 0 29.82-2-1.1-.93-3-1-4.43-.05-10.15-.05-20.31-.05-30.47ZM388.281 495l-34.35.06c-.24.43-.48.41-.72 0a121.217 121.217 0 0 1 35.07-.06ZM317.173 495.11c-9.69 0-19.39 0-29.08-.1-1.71 0-3.66.71-5.07-1 10.12 0 20.24 0 30.36.09 1.47 0 3.34-1 4.43 1l-.64.01ZM352.921 953.93c-9.94 0-19.88 0-29.82-.05-1.71 0-3.7.75-5.07-1.08 10.15 0 20.3 0 30.45.17 1.52.02 3.33-1.02 4.44.96ZM247.997 459.11v30.31c0 1.53.76 3.36-1 4.53-2.63-11.51-2.29-23.05-.15-34.58.12-.64 0 .19.28-.4l-.09.06.96.08ZM71.003 459.02a3.126 3.126 0 0 1-.75-.12c-.08-11.64-.156-23.28-.23-34.92 1.76.7 1 2.25 1 3.41.07 10.54-.02 21.09-.02 31.63ZM423.118 423.02h.63c-.33 1-1.18 1-2 1l-32.67-.23v-.66l34.04-.11ZM283 317.77c8.83-1.63 17.74-.47 26.6-.63 2.74-.05 5.9-1.5 8.34 1.14l-34.94-.51ZM212.148 317.04h34.85c-.14.28-.27.81-.41.81-11.333.04-22.666.04-34 0-.17 0-.3-.53-.44-.81Z"/><path fill="#5C6977" d="M389.127 423.11c.014.22.014.44 0 .66-1.92-1.12-1-3-1-4.47-.1-10.1-.07-20.2-.08-30.31 1.71 1.45 1 3.42 1 5.15.04 9.67.04 19.33.08 28.97ZM211.133 389.11l.88-.07.33 34.92c-2-.71-1.24-2.47-1.24-3.78-.05-10.37.01-20.73.03-31.07ZM105.771 493.93c-1.51-6.51-.42-13.1-.66-19.65-.17-4.79 0-9.58 0-14.37a1.485 1.485 0 0 1 .94 1.57c-.086 10.813-.18 21.63-.28 32.45ZM317.174 495.11c.212.025.427.025.64 0 .066 11.334.13 22.667.19 34l-.2-.06-.36.34-.35-.34c.033-11.36.06-22.673.08-33.94ZM353.208 495.11c.24.02.481.02.72 0V529c-.29 0-.57 0-.85.06l.13-33.95ZM317 353.17a6.17 6.17 0 0 0 0 .86h-29.27c-1.58 0-3.32.58-4.73-.74l34-.12ZM176.072 600.01c0 .3-.06.6-.08.91-10.08 0-20.16.016-30.24.05-1.3 0-2.68.27-3.76-.79l34.08-.17ZM705.829 353.11c-28.92 0-57.83-.05-86.75.08-6.07 0-14.07-2.69-17.69 1.13-3.62 3.82-.74 11.72-1.06 17.83-.27 5.29.57 10.61-.47 15.87a272.12 272.12 0 0 1-35.08.08c-1.63-2-1.39-4.39-1.39-6.7-.04-30.8-.04-61.607 0-92.42 0-7.35 1.12-8.51 8.37-8.51 8.82 0 17.65-.41 26.44.25 2.29-.82 1.32-2.79 1.34-4.24.1-7.58 0-15.16.07-22.75 0-2.1-.29-4.33 1.36-6.1 1.94-1.25 4.13-.95 6.25-1 7.407-.04 14.817-.04 22.23 0 1.8 0 3.65-.17 5.27.91 1.4 1.92.62 4.12.72 6.19.45 9.44-.8 18.91.68 28.33 21.81 0 43.63.12 65.44 0 3.79 0 4.83 1 4.72 4.76-.26 9 0 18-.13 27 0 3 .76 4.15 3.92 4.09 9.154-.167 18.31-.167 27.47 0 3 .06 3.63-1.13 3.59-3.82-.12-9.15 0-18.32-.09-27.47 0-3 .49-4.59 4.05-4.51 9.66.21 19.32.07 29 .08.95 0 2-.26 2.62.88-.57 11.25-.12 22.5-.24 33.74 0 .6.4.86.73 1.2 21.62 0 43.24-.19 64.86-.07 3.81 0 5.2-.8 5.05-4.9-.33-8.8 0-17.63-.15-26.44-.05-3 .52-4.5 4-4.49 32.93.12 65.87.07 98.8.07 1.89 0 3.88-.18 3.82 2.59-.26 10.76.71 21.54-.53 32.29-1.71 1-3.59.48-5.38.48-19.82.05-39.64 0-59.46.06-1.78 0-3.67-.58-5.34.57l.12-.11c-1.31 5.19-.32 10.46-.59 15.69-.34 6.4.57 12.83-.49 19.22-9.64.07-19.28.43-28.91.08-4.62-.17-5.52 1.4-5.36 5.61.32 8.3-.11 16.63.18 24.93.15 4.11-1.06 5.38-5.26 5.36-31.59-.17-63.18-.1-94.77-.08-2 0-4 .18-6 .27-1 9.43-.15 18.88-.45 28.32-.06 2 .45 4-.46 5.89a5.506 5.506 0 0 1-3.71 1.08c-8.88.08-17.76.08-26.64 0a5.326 5.326 0 0 1-3.69-1.12c-.82-1.75-.42-3.61-.42-5.41 0-19.81 0-39.62-.05-59.43.07-1.83.71-3.73-.54-5.36Z"/><path fill="#5C6977" d="M740.906 422.97c0-9.57.001-19.14.081-28.71 0-1.74-.66-3.66.88-5.17 0 10.32.09 20.63-.06 30.95 0 2.84.88 3.69 3.69 3.68 10.13 0 20.26.17 30.4.29 1 11.71.629 23.43.199 35.16a4.85 4.85 0 0 1-3.179 1.25c-9.45.37-18.9.3-28.35.05-3.15-.09-5-1.82-5-5-.11-10.26-.77-20.54.35-30.8a7.641 7.641 0 0 1 .989-1.7ZM811.943 493.94l.24 1.19-.22-.17a5.996 5.996 0 0 1-4.08 1.52c-9.24.15-18.47.26-27.7-.07a5.92 5.92 0 0 1-2.82-.84 3.822 3.822 0 0 1-1.25-1.48c-1-11.43-1.43-22.87.21-34.3l.6-.75h35.08l-.08-.09c0 11.674.007 23.337.02 34.99ZM813.003 424.01c10.65-.11 21.29-.2 31.93-.35 2.18 0 2.88 1 2.86 3 0 9.82-.09 19.65 0 29.47 0 2.68-1.33 2.91-3.42 2.89-10.49-.09-21-.11-31.46-.16a244.78 244.78 0 0 1 .09-34.85ZM636.119 282.11c-2.38-.46-1-2.34-1.06-3.39-.16-10.23-.13-20.48-.15-30.72a5.58 5.58 0 0 1-1-1.6c-.66-11.2-1.12-22.4.27-33.58a1.745 1.745 0 0 1 1.5-1l.39 35.38.05 34.91ZM882.898 318.11c1.55-1.94 3.7-1 5.56-1 21.54-.08 43.08-.06 64.62-.07-1.29 2-3.32 1-5 1-21.69.07-43.44.07-65.18.07ZM918.109 353.98c.72-1.83 2.3-.9 3.42-.9 22.127-.053 44.254-.053 66.38 0l-.11.26a1.54 1.54 0 0 1-.93 1.52 11.195 11.195 0 0 1-4.89.74c-19.28.04-38.56.04-57.84 0a13.535 13.535 0 0 1-4.43-.51 4.632 4.632 0 0 1-1.6-1.11ZM671 212.11c.52-.34 1-1 1.56-1 10.667-.06 21.307-.06 31.92 0 .52 0 1 .64 1.56 1H671Z"/><path fill="#5C6977" d="M881.944 352.92c0-9.95-.05-19.89 0-29.84 0-1.7-.78-3.69 1-5.07 0 10.17 0 20.33-.15 30.49.06 1.45 1.15 3.32-.85 4.42ZM669.998 246.98v-30.41c0-1.53-.78-3.37 1-4.54 0 10.2 0 20.41-.14 30.61.03 1.47 1.14 3.29-.86 4.34ZM705.877 212.04c1.85 1.37 1 3.36 1 5.07.09 9.95.05 19.91.05 29.87-2-1.06-.93-2.92-1-4.35-.04-10.2-.02-20.4-.05-30.59ZM812.999 424.01l-.06 34.89h-1l.08.09c0-10.4-.06-20.8 0-31.2-.02-1.22-.94-2.93.98-3.78ZM775.997 458.91l-.059-34.9c1.909.85 1 2.56 1 3.84.079 10.39 0 20.79 0 31.19l.059-.09a.575.575 0 0 1-.511.266.578.578 0 0 1-.489-.306ZM777.179 317.96c-1.27-.35-1.21-1.42-1.21-2.39v-30.76a5.506 5.506 0 0 1 .69-1.79l.52 34.94ZM918.109 353.98c.291-.003.58.052.85.16 2.37 4.94 2.22 29.34-.2 33.73a3.38 3.38 0 0 0-.55.13c-.04-11.34-.073-22.68-.1-34.02ZM707 105.97c2.05-1.7 4.5-.92 6.71-.83 9.07.34 18.18-1.07 27.21.71l-33.92.12Z"/><path fill="#FEFEFE" d="M812.082 123.54c0-27.65.08-55.3-.09-82.94 0-4 1.13-5 5-5 55.473.12 110.94.12 166.4 0 4 0 5 1.17 5 5.06-.12 55.46-.12 110.923 0 166.39 0 4-1.21 5-5.07 5-55.473-.12-110.94-.12-166.4 0-4 0-5-1.13-5-5 .23-27.87.16-55.69.16-83.51ZM35.681 899.9c0-27.48.07-55-.08-82.45 0-3.87.62-5.49 5.07-5.47 55.46.153 110.927.153 166.401 0 4 0 4.94 1.15 4.93 5-.12 55.473-.12 110.94 0 166.4 0 4-1.14 5-5 5-55.46-.12-110.927-.12-166.4 0-4 0-5-1.18-5-5.06.15-27.79.08-55.61.08-83.42ZM123.549 211.92c-27.65 0-55.3-.08-82.94.09-4 0-5-1.1-5-5 .12-55.466.12-110.933 0-166.4 0-4 1.14-5 5-5 55.46.12 110.924.12 166.39 0 4 0 5 1.19 5 5.06-.12 55.474-.12 110.94 0 166.4 0 4-1.1 5-5 5-27.81-.23-55.63-.15-83.45-.15Z"/><path fill="#5C6977" d="M529.133 105.93c.285.08.576.14.87.18 10.47 0 20.95 0 31.42-.16 2.84 0 3.68.8 3.64 3.64-.13 10.48 0 21 0 31.43 6.57 1.25 13.19.31 19.79.54 4.81.16 9.63 0 14.45.08a2.003 2.003 0 0 1 1.45 1.08c1.7 7.4.62 14.91.78 22.36.21 9.38.06 9.39 9.28 9.4h52.43c2.62 0 5.38-.44 7.67 1.43-1.54 2-3.7 1.08-5.58 1.09-21.454.073-42.897.11-64.33.11a6.79 6.79 0 0 1-1.72 1 15.276 15.276 0 0 1-4.94.51c-19.11 0-38.23.06-57.34 0-8.19 0-9.55-1.4-9.58-9.63-.054-18.607-.054-37.22 0-55.84 0-2.47-.22-5 1.61-7.12l.1-.1Z"/><path fill="#FEFEFE" d="M670.897 175.93c-22.59.1-45.19.17-67.78.33-3.22 0-2.76-2.06-2.78-4-.1-9.96-.197-19.924-.29-29.89a2.994 2.994 0 0 1 1.65-2.12c7.84-1.45 15.77-.34 23.66-.7 2.61-.12 5.29.41 7.78-.76 1.78-1.29 1.42-3.21 1.43-5v-21.76c0-1.8-.18-3.64.72-5.33a2.003 2.003 0 0 1 1.42-1.07c11.07.15 22.14-.46 33.19.33 1.75 1.44.9 3.42.9 5.12.11 21.61.09 43.23.1 64.85ZM635.943 36.11c8.58-.89 17.18-.33 25.77-.35 14.72 0 29.45.15 44.17.25a239.65 239.65 0 0 1 .12 34.19c-4.29.79-8.62.32-12.93.34-17.82.06-35.63 0-53.45.09-3.22 0-4.37-.83-4.22-4.18.48-10.12-.49-20.27.54-30.34Z"/><path fill="#5C6977" d="M635.941 36.11v30.35c0 2-.46 4 2.79 3.94 22.38-.19 44.76-.25 67.14-.35.3.16.43.36.38.59-.05.23-.11.36-.2.36-21.63 0-43.26.18-64.89 0-4.13 0-5.46 1.1-5.32 5.29.34 9.64.19 19.29.24 28.94.24.23.3.44.18.61-.12.17-.21.25-.31.25h.05l-.6.33-.54-.42.09-35c-.37-.2-.5-.42-.39-.65.11-.23.23-.34.35-.34 0-9.61 0-19.22.06-28.83.03-1.69-.63-3.63.97-5.07Z"/><path fill="#5C6977" d="M634.998 70.11v1h-65.92c-1.29 0-3 1-3.93-1h69.85ZM706.086 70.96a3.073 3.073 0 0 0-.18-1v-34c1-.5 1.07.22 1.07.87v32.46c-.08.57-.6 1.12-.89 1.67ZM635.7 211.81a1.206 1.206 0 0 0-.78.29 3.167 3.167 0 0 1-1.69 1c-10.56.64-21.13 1.31-31.67-.38a1.162 1.162 0 0 1-.628-.684 1.178 1.178 0 0 1 .068-.926h30.42c1.45 0 3.03-.56 4.28.7Z"/><path fill="#5C6977" d="M601.001 211.11v.84a1.45 1.45 0 0 1-1.65-.68c-1.83-5.15-.71-10.49-.92-15.74-.17-4.46-.08-8.93 0-13.4a7.843 7.843 0 0 1 1.48-5.13l1.09.11v34ZM599.922 34.94v1.09h-34.82c1.1-2 2.95-.9 4.41-.92 10.16-.12 20.28-.12 30.41-.17ZM636 106.11c0-.29.08-.58.13-.86l30.6-.14c1.14 0 2.33-.14 3.2.87l-33.93.13ZM917.9 952.91a3.44 3.44 0 0 1-.08.84l-34.89.21c1.08-2 2.93-1 4.39-1 10.19-.09 20.39-.05 30.58-.05ZM917.883 917.88l1 .19a4.799 4.799 0 0 1 1.05 1.62c1.09 9.69.37 19.41.4 29.12a4.92 4.92 0 0 1-1.65 4c-.26 0-.51.07-.76.12 0-11.68-.014-23.363-.04-35.05Z"/><path fill="#FEFEFE" d="M599.918 176.98v35.13c-.23.2-.46.4-.68.61-7 1.82-14.18.68-21.27.82-12.85.27-11.32-1.07-11.42 11.57-.05 5.14.08 10.28 0 15.42-.09 3.65 1.54 5 5.07 5 7-.06 13.93 0 20.9 0 2.31 0 4.65-.2 6.87.76a2.078 2.078 0 0 1 1.11 1.44v29.62c0 1.59.58 3.3-.61 4.75-9.8 0-19.61.33-29.39-.09-4.83-.21-5.59 1.53-5.57 5.84.17 33.38.09 66.76.1 100.14-.86.7-1.89.52-2.87.52h-64.28a4.777 4.777 0 0 1-2.9-.46c-.51-11.66-.55-23.31 0-35l.66-.64c4-1.65 8.15-.68 12.23-.92 6.4-.38 12.86.74 19.2-.7 1.46-.95 1.5-2.43 1.5-3.95v-22.73c0-1.52 0-3-1.54-3.91-10.13-.88-20.24-1.29-30.31.28-1.66 1.38-1.33 3.3-1.33 5.09v21.36c0 2.13.26 4.36-1.48 6.09l.09.09h-35c0-47 .024-94 .07-141 11.65-.86 23.347-.883 35-.07l-.12.06c2 2.06 1.47 4.66 1.47 7.1v54.82c0 2-.35 4 .61 5.86 1 1.4 2.45 1.62 4 1.63 8 .06 16 .06 24 0 1.52 0 3-.18 4-1.56.92-1.73.58-3.59.58-5.38v-54.11c0-2.09.57-4.37-1.4-6-3-1.51-6.2-.66-9.29-.86-7.39-.49-14.86 1-22.19-.95l-.65-.66c-.12-10.14-.43-20.29-.29-30.43.06-4-.87-5.59-5.21-5.42-8.64.33-17.32-.12-26 .19-3.88.14-4.7-1.16-4.62-4.78.22-9.82 0-19.65 0-29.47v-1c11 .11 21.92.17 32.88.35 3.16 0 2.83-2 2.83-4 0-9 .17-18-.08-26.95-.1-3.55 1-4.47 4.48-4.39 10 .22 20 .07 29.94.07.114 16.12.224 32.233.33 48.34 0 6 .2 12-.07 18-.18 3.61 1.1 4.61 4.82 4.61 21.91-.2 43.91-.12 65.83-.13Z"/><path fill="#5C6977" d="M494.072 70.87c0-.26-.02-.52-.06-.78l-.09-34.12c1.5-.35 1.07.82 1.07 1.47v30.79c.01.98.13 2.02-.92 2.64ZM634.926 141.11c-11.27.54-22.55.37-33.83.09-1.31-5.2-.53-10.48-.53-15.71 0-6.41-.65-12.85.4-19.24l33.93-.17.16.13a263.758 263.758 0 0 1-.13 34.9Z"/><path fill="#5C6977" d="M601.001 106.21c.04 11.653.083 23.303.13 34.95l-1.051 1.19a1.09 1.09 0 0 0-.149-.78l.119-.38c0-10.37-.06-20.74 0-31.12-.05-1.28-.899-2.96.951-3.86Z"/><path fill="#5C6977" d="m600.001 141.19-.11.39c-11.25 1-22.5.38-33.75.31-.37 0-.74-.57-1.11-.87l34.97.17Z"/><path fill="#FEFEFE" d="M388.057 36.11c0 9.93-.15 19.86 0 29.79.07 3.29-.55 4.69-4.26 4.56-10.24-.36-20.5-.32-30.75-.43 0-10.16.06-20.32 0-30.48 0-2.17 0-3.93 3-3.85 10.72.26 21.38-.5 32.01.41ZM988.267 952.88h-31c-1.79 0-3.73.43-3.68-2.54.19-10.81.26-21.62.37-32.44 10.16 0 20.31.15 30.46 0 3.11 0 4 1 3.94 4-.15 10.33-.08 20.65-.09 30.98Z"/><path fill="#5C6977" d="m952.91 917.9-.09-34.91a5.22 5.22 0 0 1 1 0v34.81a3.439 3.439 0 0 1-.91.1ZM36 424.11l.09 34.74c-2-1.1-.91-3-.92-4.41-.13-10.14-.1-20.29-.12-30.43.32.008.637.041.95.1Z"/><path fill="#FEFEFE" d="M70.06 564.96c.53 11.7.46 23.4 0 35.1a5.426 5.426 0 0 1-3.66 1.26c-9.7-.07-19.41.46-29.11-.3a3.303 3.303 0 0 1-1.56-1.07c0-11.65-.56-23.31.32-35l34.01.01Z"/><path fill="#5C6977" d="M35.21 565.04c-.073-11.68-.143-23.37-.21-35.07 1.21.73 1.09 1.94 1.08 3.09-.06 10.58-.123 21.163-.19 31.75l-.68.23ZM987.877 353.98c0-.22 0-.43-.08-.65l1-.34c.04 11.667.077 23.334.11 35a4.469 4.469 0 0 0-.9-.12 6.003 6.003 0 0 1-1.66-4.53c-.14-8.26-.14-16.52 0-24.78a6.838 6.838 0 0 1 1.53-4.58ZM36.084 634.94h-1l-.24-35c.3.065.611.044.9-.06l.26.16a5.272 5.272 0 0 1 1.07 1.61c1.12 9.86.42 19.74.4 29.62a5.181 5.181 0 0 1-1.39 3.67ZM918 881.94c0-11.333-.024-22.667-.07-34 9.83 0 19.66.13 29.49-.1 4-.09 5.73 1 5.59 5.35-.31 9.65-.22 19.32-.29 29-11.54.21-23.12.7-34.72-.25Z"/><path fill="#5C6977" d="m918.001 881.94 34.72.24c.022.254.079.503.17.74l-35 .06.11-1.04ZM918.719 952.79l.21-33.85c11.28-1 22.56-.53 33.85-.22.06 10.26.07 20.52.21 30.78 0 2.56-.93 3.53-3.49 3.49-10.26-.13-20.5-.14-30.78-.2Z"/><path fill="#5C6977" d="m952.78 918.72-33.85.22v-.87l34-.11c-.05.26-.09.51-.15.76ZM987.878 353.98c.046 11.334.1 22.64.16 33.92h-69.28c.073-11.246.14-22.493.2-33.74l68.92-.18ZM36.078 634.94v-34a254.57 254.57 0 0 1 33.94 0l.06 34h-34ZM635.004 530c-1.46-1.68-3.42-1-5.15-1-9.63-.08-19.26-.05-28.89-.06a288.243 288.243 0 0 1-.09-34c1.76-.78 3.61-.39 5.42-.39 19.78 0 39.56 0 59.34-.06 1.75 0 3.66.7 5.27-.66 0-9.78-.22-19.57.08-29.35.13-4.21-.74-5.61-5.34-5.56-21.56.23-43.11 0-64.67-.05a244.185 244.185 0 0 1 .08-34.86c9.93-.11 19.87-.38 29.8-.25 3.53 0 4.41-1.12 4.44-4.53.08-10.07-.76-20.16.44-30.21 11.37-.94 22.75-.44 34.12-.27 1.36 5.57.31 11.23.6 16.84.31 5.8-.51 11.63.44 17.42 6.87 1.53 13.83.27 20.73.66 4.79.27 9.61-.48 14.38.41l.64.72c1.18 2.33.9 4.85.9 7.32v53.22c0 2.3-.35 4.66.88 6.8 1.67 2 4 1.44 6.07 1.45h54.9c2.29 0 4.71-.43 6.73 1.2a5.673 5.673 0 0 1 1.11 3.26c.14 9.48.23 19 0 28.44a4.612 4.612 0 0 1-.76 2.35c-1.67 1.78-3.91 1.49-6 1.51-6.91.06-13.82 0-20.73 0-1.93 0-4-.42-5.43 1.49-1.61 9.4-.55 18.84-.61 28.26 0 3 2.37 3.2 4.61 3.23 7 .1 13.94 0 20.9.06 2.46 0 5-.29 7.15 1.46 1 1.46 1 3.15 1 4.81.04 8.48.04 16.967 0 25.46 0 1.65 0 3.34-1 4.81a4.466 4.466 0 0 1-3.14 1.34c-10.46.15-20.92.87-31.36-.37-1.9 4.13-.67 8.49-.85 12.74-.22 5.65-.2 11.33 0 17 .12 3.19-.83 4.43-4.2 4.36-10-.22-20-.14-30-.17-.82-10.07-.08-20.16-.39-30.23-.05-1.52.86-3.31-.81-4.57l-69.46.18c-1.31-1.62-.64-3.52-.64-5.27-.06-19.89 0-39.78-.07-59.67 0-1.78.57-3.65-.55-5.33l.11.06Z"/><path fill="#5C6977" d="M634.907 529.98c1.85 1.59 1 3.73 1 5.61.127 21.547.207 43.1.24 64.66l-.52 34.71a1.529 1.529 0 0 1-1.47-.92c-1.32-10.81-.94-21.63-.22-32.45a6.57 6.57 0 0 1 1-1.57c.007-23.346-.003-46.693-.03-70.04Z"/><path fill="#5C6977" d="M635.001 634.92h.7a2.003 2.003 0 0 1-2.07 1h-31.42c-.83 0-1.67-.06-2-1.05a4.3 4.3 0 0 1 1.61-1c9.83-.94 19.67-.37 29.51-.33a5.29 5.29 0 0 1 3.67 1.38ZM705.633 600.11c1.85.55 1.31 2.11 1.31 3.33 0 10.49-.06 21-.11 31.47a4.846 4.846 0 0 0-.66 0l-.54-34.8ZM635.003 600.02c0 .31 0 .62-.05.93a5.174 5.174 0 0 1-3.58 1.45c-9.84 0-19.68.65-29.51-.33a3.997 3.997 0 0 1-1.59-1.09c1-1.78 2.66-.95 4-1 10.22-.02 20.47.03 30.73.04Z"/><path fill="#5C6977" d="M600.248 600.98h.63a6.997 6.997 0 0 1 1.66 5c.087 7.94.087 15.877 0 23.81 0 1.84-.25 3.64-1.67 5h-.65c-.37-11.18-.43-22.5.03-33.81ZM529.996 494.73l-.76-.75c0-10.3.18-20.61 0-30.91-.05-3.32 1-4.21 4.25-4.13 9.3.21 18.61.17 27.91 0 2.84 0 3.68.79 3.63 3.63-.16 9.47-.21 18.94 0 28.41.08 3.37-1.38 3.75-4.14 3.72-10.26-.08-20.57.01-30.89.03ZM495 388.04l70-.06h34.89c-2.38 1.73-5.08.71-7.6.77-9.09.22-18.18.2-27.27.28-21.447 0-42.893-.023-64.34-.07-1.93.02-4.05.8-5.68-.92ZM670.892 493.82c-1.46 2.12-3.65 1.13-5.48 1.13-21.51.1-43 .09-64.55.11h-.62c1.33-2 3.34-1 5-1 21.87-.14 43.76-.18 65.65-.24ZM494.898 424.11c.53-2.18 2.3-1 3.36-1 22.18-.09 44.37-.05 66.55 0-1.3 2.05-3.32.89-4.93.9-21.66.1-43.32.1-64.98.1ZM705.828 353.11c1.91 1.11 1.09 3 1.09 4.5.047 21.8.047 43.6 0 65.4a.469.469 0 0 1-.82 0l-.27-69.9ZM600.999 424c0 11.62-.027 23.24-.08 34.86-.3-.3-.87-.6-.88-.9-.04-10.85-.04-21.72-.04-32.57a1.221 1.221 0 0 1 1-1.39Z"/><path fill="#5C6977" d="M706.1 423h34.82c.05.35.09.71.14 1.06-4.91 2.33-30.39 2.29-35.13-.05l.07.09c0-.39.07-.74.1-1.1ZM670.079 389.11l-34.36-.11c.69-1.34 2-1 3-1h29.16c1 0 2.4-.59 2.87 1.05-.18.45-.43.46-.67.06Z"/><path fill="#5C6977" d="M670.08 389.11h.72c0 11.334.026 22.63.08 33.89-1.73-1.63-.85-3.74-.86-5.61-.02-9.43-.02-18.85.06-28.28ZM600.244 495.03c.206.015.413.015.62 0l.09 33.92c-.288 0-.575.02-.86.06l.15-33.98ZM776.768 794.04c0-4.49.11-9 0-13.47-.09-2.61.4-3.92 3.48-3.87 9.48.19 19 .14 28.46 0 2.55 0 3.499.69 3.459 3.37-.14 9.65-.12 19.3 0 28.95 0 2.47-.929 3.1-3.219 3.07-9.65-.09-19.31-.13-29 0-2.85.05-3.26-1.24-3.2-3.61.1-4.78.02-9.61.02-14.44ZM247.188 636.11l-.19 33.86a251.9 251.9 0 0 1-34.86 0c-.23-11.33-.54-22.66.16-34a228.424 228.424 0 0 1 34.89.14ZM318.002 599.93c0 .36-.08.71-.11 1.07a5.212 5.212 0 0 1-1.64 1.05 20.876 20.876 0 0 1-6.4.51h-54.64a21.259 21.259 0 0 1-6.41-.5 4.997 4.997 0 0 1-1.63-1.06c0-.35-.07-.71-.1-1.07l-.08.1c1.91-1.71 4.28-1.65 6.61-1.66h57.86c2.33 0 4.7-.06 6.61 1.65l-.07-.09Z"/><path fill="#5C6977" d="m247.191 636.11-34.91-.12c2.72-1.71 5.72-.69 8.57-.75 8.75-.21 17.5-.18 26.24-.24a6.225 6.225 0 0 1 1.64-1c9.9-1.1 19.83-.48 29.75-.35 1.52 0 3.47.13 3.58 2.49l-34.87-.03ZM212.123 669.96h34.88c-1.06 2-2.91.92-4.34.94-10.21.13-20.43.11-30.64.13l.1-1.07Z"/><path fill="#5C6977" d="M247.999 634.91c-.29 0-.59 0-.89.07l.09-34c.277.02.554.02.83 0 2.36 4.81 2.34 29.23-.03 33.93Z"/><path fill="#5C6977" d="M248 634.91V601h69.07c.226.44.368.918.42 1.41-.06 22.46.23 44.92-.15 67.38-3.65 1.43-7.45.49-11.17.63-7.72.29-15.45-.32-23.17.31-1.67-1.25-.82-3-.83-4.55-.11-10-.1-20.06-.12-30.09-1.38-1.83-3.37-1.06-5.1-1.08-9.65-.09-19.31-.08-28.95-.1Z"/><path fill="#5C6977" d="m316.998 669.97.06-69h.82c.06 23.333.124 46.666.19 70l-1.07-.19c-.34-.2-.45-.39-.34-.58.11-.19.25-.23.34-.23Z"/><path fill="#5C6977" d="M317 669.969a6.17 6.17 0 0 0 0 .86l-34-.1c4.81-1.64 9.78-.54 14.66-.71 6.46-.21 12.91-.05 19.34-.05Z"/><path fill="#FEFEFE" d="M775.999 565.11c-9.8-.06-19.6-.27-29.4-.09-3.53.07-4.94-.59-4.81-4.55.32-10.12.14-20.27.17-30.4 9.73-1.29 19.51-.19 29.25-.61 1.73-.08 3.66.8 5.18-.78.23-10.75 0-21.49.1-32.23a2.102 2.102 0 0 1 .6-1.68l34.89.17v171.42c0 1.44-1.1 3.32 1 4.39h68.94c2.07-1 1-2.94 1-4.38.11-10.14.07-20.28.07-30.42h34.88v70h-140.87l-.3-69.84c-2.87-2-6.07-.74-9.1-.83-7.28-.21-14.59-.21-21.88 0-3.08.09-3.94-.88-3.89-3.93.17-10.11 0-20.22 0-30.34 7.52-1.43 15.11-.26 22.67-.61 3.78-.18 7.58-.25 11.37-.36 1.3-6.18.44-12.43.49-18.64.08-5.45.7-10.89-.36-16.29Z"/><path fill="#5C6977" d="M388.071 282.88c1.28 1.19.94 2.75.94 4.21v61.61c0 1.61.41 3.37-1.15 4.61l.14-.32c-1.73-1.91-1.58-4.3-1.58-6.6-.04-18.907-.04-37.817 0-56.73 0-2.31-.14-4.68 1.53-6.62l.12-.16ZM494.412 282.11c-.91-7.25-.32-14.53-.38-21.8-.12-16.07-.08-32.14-.11-48.2l1.12-.11c1.64 1.95 1.53 4.32 1.53 6.64 0 18.93.06 37.86 0 56.79-.01 2.38.57 5.11-2.16 6.68ZM494 212.04l-35 .07c.51-.33 1-1 1.54-1 10.6-.06 21.197-.06 31.79 0 .67 0 1.16.62 1.67.93Z"/><path fill="#FEFEFE" d="M318.079 600.02h-71.08c.08-10.59 0-21.17.3-31.75.07-3.19-1.44-3.38-3.91-3.36-10.43.08-20.85 0-31.28 0a223.233 223.233 0 0 1 0-35l-.09.13c1.17-.94 2.56-.56 3.85-.56h98.31c1.28 0 2.69-.45 3.8.64-.27 23.33-.41 46.62.1 69.9ZM247.107 458.99c-.04 11.66-.083 23.327-.13 35l.08-.06c-5.89 1.27-11.84.5-17.75.51-5.75 0-11.54.74-17.26-.51l.09.13c-1.25-6.54-.45-13.14-.5-19.71 0-5.08-.7-10.21.47-15.26l35-.1Z"/><path fill="#5C6977" d="m318 530.17-106-.08c1.57-1.9 3.73-1.05 5.61-1.05 33.153-.067 66.297-.093 99.43-.08h.71l.25 1.21Z"/><path fill="#5C6977" d="M212.139 529.96v35c-.33-.52-1-1-1-1.55-.06-10.62-.06-21.237 0-31.85.02-.56.66-1.08 1-1.6ZM212.047 493.91h35a2.671 2.671 0 0 1-2.6 1.08h-29.8a2.643 2.643 0 0 1-2.6-1.08Z"/><path fill="#5C6977" d="M212.108 459.11v35c-.34-.52-1.001-1-1.001-1.57-.06-10.62-.06-21.236 0-31.85.04-.58.671-1.1 1.001-1.58ZM493.913 352.99c0-10.16-.001-20.32.149-30.48 0-1.47-1-3.34 1-4.43a6.434 6.434 0 0 1 1.511 4.59c.126 8.587.126 17.177 0 25.77a6.793 6.793 0 0 1-1.5 4.61l-1.16-.06Z"/><path fill="#FEFEFE" d="M388 283.04c0 23.334.017 46.65.05 69.95l-35.05.12c0-21.79.19-43.58 0-65.36 0-4 1.13-5 5-4.91 10 .27 20 .16 30 .2Z"/><path fill="#5C6977" d="M387.939 175.98h-34.06l-.09-104.69c10.14-.06 20.29 0 30.43-.24 3.23-.07 3.86 1.33 3.85 4.18-.1 33.574-.143 67.157-.13 100.75ZM70 600.95H36.1a5.925 5.925 0 0 0-.1-.84l34.06-.05c.01.29-.01.59-.06.89ZM599.828 282.11c0-11.7.027-23.4.08-35.1a1.247 1.247 0 0 1 1.18-.07.779.779 0 0 1-.09 1.09v33.22c.009.313-.102.616-.31.85-.19.12-.58.01-.86.01Z"/><path fill="#5C6977" d="M601 248.01c.02-.276.02-.553 0-.83 1.17-1.46 2.86-1.62 4.51-1.65 8.29-.17 16.58-.15 24.87 0a6.584 6.584 0 0 1 4.62 1.58c0 .3 0 .6-.07.89l-33.93.01Z"/><path fill="#FEFEFE" d="m705.922 423.98 35.13.05c0 10.45.11 20.9 0 31.35 0 2.74.69 3.77 3.59 3.72 10.44-.2 20.89-.15 31.34-.19h1v35c-1 .89-2.21.57-3.34.58h-63.85c-1.24 0-2.7.61-3.68-.78l-.19-69.73Z"/><path fill="#5C6977" d="M706.07 493.68c15.13.11 30.27.25 45.41.31 8.49 0 17-.06 25.46-.09-.01.304.03.609.12.9l-.2.18c-.25.51-.53.5-.85.06-21.53 0-43 0-64.58-.09-1.8-.01-4.05 1.08-5.36-1.27Z"/><path fill="#FEFEFE" d="m635.002 247.11-34 .09-1.09-.19.11.1a7.313 7.313 0 0 1-1.6-5.1c-.094-8.293-.094-16.583 0-24.87a7.325 7.325 0 0 1 1.6-5.11l-.11.1 1.1-.18 33.91.17.08 34.99Z"/><path fill="#5C6977" d="M900.428 177.01c-16.33 0-32.65-.09-49 .07-3.51 0-4.539-1-4.529-4.54.12-32.667.12-65.334 0-98 0-3.37 1.089-4.28 4.279-4.27 32.82.08 65.644.08 98.471 0 3.05 0 4 1 4 4-.08 32.82-.08 65.64 0 98.46 0 3.2-.911 4.32-4.281 4.29-16.28-.1-32.61-.01-48.94-.01ZM123.597 846.99c16.16 0 32.33.08 48.48-.07 3.46 0 5 .54 5 4.57-.16 32.667-.16 65.333 0 98 0 3.36-1.13 4.25-4.32 4.24-32.82-.08-65.64-.08-98.46 0-3.09 0-4-1.07-4-4.07.08-32.82.08-65.64 0-98.46 0-3.24 1-4.28 4.31-4.24 16.39.15 32.67.03 48.99.03ZM123.601 177.01c-16.17 0-32.33-.11-48.49.08-3.73 0-4.84-1-4.83-4.76.127-32.486.127-64.973 0-97.46 0-3.47 1-4.6 4.52-4.58 32.487.12 64.974.12 97.46 0 3.67 0 4.84 1 4.82 4.77-.14 32.48-.14 64.967 0 97.46 0 3.45-1 4.6-4.5 4.56-16.33-.16-32.66-.07-48.98-.07ZM634.93 141.11c.046-11.627.09-23.26.13-34.9a5.388 5.388 0 0 1 1 0c0 10.16 0 20.32-.11 30.47-.04 1.43.94 3.28-1.02 4.43ZM494.406 282.11c1-1.7.57-3.57.57-5.36.06-21.58.09-43.16.09-64.74l33.93.1c.94 1.71.46 3.57.47 5.36.14 21.51-.19 43 .19 64.55-1.87 1.69-4.14.87-6.17.79-9.7-.33-19.44 1.16-29.08-.7ZM599.997 212.01c.52 11.7.52 23.393 0 35.08-10.45.05-20.91 0-31.35.19-2.68 0-3.83-.54-3.77-3.52.167-9.46.167-18.917 0-28.37-.06-3 1.09-3.56 3.76-3.52 10.47.15 20.93.11 31.36.14ZM495.047 353.05v-35c11.333-.46 22.647-.46 33.94 0 .83 11.602.83 23.248 0 34.85l-33.94.15Z"/><path fill="#5C6977" d="M529.647 282.11c-1.11-1.67-.63-3.54-.63-5.33-.013-21.553-.02-43.11-.02-64.67 1.65.51 1 1.91 1 2.91.04 21.687.04 43.374 0 65.06a11.922 11.922 0 0 1-.35 2.03ZM529 352.92v-34.85c.28.16.8.31.8.46.04 11.334.04 22.647 0 33.94-.01.15-.53.3-.8.45ZM775.999 565.11c.83.12 1 .69 1 1.39v31.62c0 .79.1 1.68-1 1.85-.04-11.606-.04-23.226 0-34.86ZM776.737 528.95c-1.08 2-2.999 1-4.419 1-10.12.12-20.25.11-30.38.14 1.37-1.79 3.33-1 5-1.06 9.699-.09 19.4-.08 29.09-.1l.709.02Z"/><path fill="#5C6977" d="M776.74 528.95h-.67l-.07-33.91c.284.001.568-.019.85-.06l-.11 33.97ZM600.867 634.87v-33.89h34.05v34l-34.05-.11Z"/></g><defs><clipPath id="a"><path fill="#fff" d="M0 0h1024v1024H0z"/></clipPath></defs></svg>