<svg xmlns="http://www.w3.org/2000/svg" width="640" height="168" fill="none" viewBox="0 0 640 168"><g clip-path="url(#clip0_1607_66410)"><g filter="url(#filter0_d_1607_66410)"><path fill="#f0f0f4" d="M20 28C20 23.5817 23.5817 20 28 20H612C616.418 20 620 23.5817 620 28V169H20V28Z"/><path stroke="#d9dbe9" d="M20.5 28C20.5 23.8579 23.8579 20.5 28 20.5H612C616.142 20.5 619.5 23.8579 619.5 28V168.5H20.5V28Z"/></g><path fill="url(#paint0_linear_1607_66410)" d="M50.9311 39.3725C50.5941 38.5616 49.9106 37.6862 49.3753 37.4094C49.757 38.1486 50.0219 38.9424 50.1607 39.7627L50.1621 39.7757C49.2853 37.5905 47.7989 36.7081 46.5842 34.789C46.5228 34.692 46.4614 34.5947 46.4015 34.4921C46.3673 34.4335 46.3399 34.3806 46.3161 34.332C46.2657 34.2345 46.2269 34.1314 46.2004 34.0248C46.2004 34.0199 46.1987 34.0152 46.1954 34.0115C46.1922 34.0078 46.1877 34.0054 46.1828 34.0048C46.178 34.0035 46.173 34.0035 46.1682 34.0048C46.1672 34.0048 46.1656 34.0066 46.1644 34.007C46.1632 34.0074 46.1606 34.0092 46.1588 34.01L46.1618 34.0048C44.2138 35.1454 43.5524 37.2566 43.4924 38.3131C42.7142 38.3665 41.9701 38.6531 41.3572 39.1358C41.2933 39.0816 41.2265 39.031 41.1571 38.9841C40.9804 38.3655 40.9729 37.7109 41.1353 37.0885C40.4199 37.435 39.7842 37.9263 39.2685 38.5312H39.2649C38.9576 38.1416 38.9792 36.8569 38.9968 36.5886C38.9059 36.6251 38.8191 36.6712 38.7379 36.7261C38.4665 36.9197 38.2129 37.137 37.9799 37.3754C37.7143 37.6446 37.4718 37.9356 37.2549 38.2453V38.2465V38.2451C36.7563 38.9518 36.4027 39.7502 36.2143 40.5943L36.2039 40.6456C36.1893 40.7138 36.1367 41.0556 36.1277 41.1298C36.1277 41.1356 36.1265 41.141 36.1259 41.1468C36.058 41.4997 36.0159 41.857 36 42.216V42.256C36.0034 44.1967 36.7343 46.0657 38.0484 47.4939C39.3624 48.9221 41.1641 49.8057 43.0979 49.9704C45.0316 50.1351 46.9568 49.5689 48.4935 48.3835C50.0302 47.1981 51.0666 45.4797 51.3982 43.5675C51.4112 43.4675 51.4218 43.3684 51.4334 43.2673C51.5931 41.947 51.4202 40.6077 50.9303 39.3713L50.9311 39.3725ZM41.9924 45.4437C42.0286 45.4611 42.0626 45.4799 42.0998 45.4965L42.1052 45.4999C42.0676 45.4819 42.03 45.4632 41.9924 45.4437ZM50.1623 39.7779V39.7705L50.1637 39.7787L50.1623 39.7779Z"/><path fill="url(#paint1_radial_1607_66410)" d="M50.9311 39.3725C50.5942 38.5616 49.9106 37.6862 49.3753 37.4094C49.757 38.1486 50.022 38.9424 50.1607 39.7627V39.7701L50.1621 39.7783C50.76 41.489 50.6735 43.3646 49.9208 45.0131C49.0319 46.9203 46.8812 48.8751 43.5134 48.7791C39.8755 48.676 36.6698 45.9756 36.0715 42.4397C35.9624 41.882 36.0715 41.5992 36.1263 41.146C36.0515 41.4981 36.0098 41.8563 36.0016 42.2162V42.2562C36.005 44.1969 36.7359 46.0659 38.05 47.4941C39.364 48.9223 41.1658 49.8059 43.0995 49.9706C45.0332 50.1353 46.9585 49.5691 48.4951 48.3837C50.0318 47.1983 51.0682 45.4799 51.3998 43.5677C51.4128 43.4676 51.4234 43.3686 51.435 43.2675C51.5948 41.9472 51.4218 40.6079 50.9319 39.3715L50.9311 39.3725Z"/><path fill="url(#paint2_radial_1607_66410)" d="M50.9311 39.3725C50.5942 38.5616 49.9106 37.6862 49.3753 37.4094C49.757 38.1486 50.022 38.9424 50.1607 39.7627V39.7701L50.1621 39.7783C50.76 41.489 50.6735 43.3646 49.9208 45.0131C49.0319 46.9203 46.8812 48.8751 43.5134 48.7791C39.8755 48.676 36.6698 45.9756 36.0715 42.4397C35.9624 41.882 36.0715 41.5992 36.1263 41.146C36.0515 41.4981 36.0098 41.8563 36.0016 42.2162V42.2562C36.005 44.1969 36.7359 46.0659 38.05 47.4941C39.364 48.9223 41.1658 49.8059 43.0995 49.9706C45.0332 50.1353 46.9585 49.5691 48.4951 48.3837C50.0318 47.1983 51.0682 45.4799 51.3998 43.5677C51.4128 43.4676 51.4234 43.3686 51.435 43.2675C51.5948 41.9472 51.4218 40.6079 50.9319 39.3715L50.9311 39.3725Z"/><path fill="url(#paint3_radial_1607_66410)" d="M47.1611 40.2829C47.1779 40.2947 47.1935 40.3065 47.2093 40.3184C47.0145 39.9729 46.772 39.6566 46.4889 39.3789C44.0776 36.9676 45.8572 34.1521 46.1571 34.008L46.1601 34.0036C44.2121 35.1442 43.5508 37.2553 43.4907 38.3119C43.5812 38.3057 43.6708 38.2981 43.7633 38.2981C44.4544 38.2994 45.1329 38.4837 45.7297 38.8323C46.3265 39.1809 46.8203 39.6812 47.1611 40.2825V40.2829Z"/><path fill="url(#paint4_radial_1607_66410)" d="M43.7674 40.7652C43.7546 40.9581 43.073 41.6234 42.8347 41.6234C40.6295 41.6234 40.2713 42.9575 40.2713 42.9575C40.369 44.0809 41.1518 45.0066 42.0981 45.4949C42.1413 45.5173 42.1851 45.5375 42.229 45.5573C42.3049 45.5909 42.3808 45.622 42.4567 45.6506C42.7815 45.7655 43.1216 45.8311 43.4658 45.8453C47.3319 46.0266 48.0803 41.2228 45.2906 39.8281C45.9487 39.7425 46.6151 39.9043 47.1606 40.2821C46.8199 39.6808 46.326 39.1804 45.7292 38.8319C45.1324 38.4833 44.4539 38.299 43.7628 38.2977C43.6707 38.2977 43.5807 38.3053 43.4902 38.3115C42.712 38.3648 41.9679 38.6515 41.3551 39.1341C41.4734 39.2342 41.6068 39.3678 41.888 39.645C42.4143 40.1635 43.764 40.7005 43.767 40.7636L43.7674 40.7652Z"/><path fill="url(#paint5_radial_1607_66410)" d="M43.7674 40.7652C43.7546 40.9581 43.073 41.6234 42.8347 41.6234C40.6295 41.6234 40.2713 42.9575 40.2713 42.9575C40.369 44.0809 41.1518 45.0066 42.0981 45.4949C42.1413 45.5173 42.1851 45.5375 42.229 45.5573C42.3049 45.5909 42.3808 45.622 42.4567 45.6506C42.7815 45.7655 43.1216 45.8311 43.4658 45.8453C47.3319 46.0266 48.0803 41.2228 45.2906 39.8281C45.9487 39.7425 46.6151 39.9043 47.1606 40.2821C46.8199 39.6808 46.326 39.1804 45.7292 38.8319C45.1324 38.4833 44.4539 38.299 43.7628 38.2977C43.6707 38.2977 43.5807 38.3053 43.4902 38.3115C42.712 38.3648 41.9679 38.6515 41.3551 39.1341C41.4734 39.2342 41.6068 39.3678 41.888 39.645C42.4143 40.1635 43.764 40.7005 43.767 40.7636L43.7674 40.7652Z"/><path fill="url(#paint6_radial_1607_66410)" d="M40.9938 38.8782C41.0566 38.9182 41.1085 38.953 41.1539 38.9844C40.9772 38.3659 40.9697 37.7113 41.1321 37.0888C40.4167 37.4353 39.781 37.9266 39.2653 38.5316C39.3031 38.5306 40.4281 38.5104 40.9938 38.8782Z"/><path fill="url(#paint7_radial_1607_66410)" d="M36.0701 42.4401C36.6686 45.9759 39.8741 48.6774 43.5121 48.7794C46.8799 48.8747 49.031 46.9196 49.9195 45.0134C50.6722 43.365 50.7587 41.4894 50.1608 39.7786V39.7712C50.1608 39.7654 50.1596 39.762 50.1608 39.7638L50.1622 39.7768C50.4373 41.5732 49.5237 43.3127 48.0951 44.4913L48.0907 44.5013C45.3072 46.7686 42.6438 45.8689 42.1055 45.5019C42.0679 45.4839 42.0303 45.4651 41.9927 45.4457C40.37 44.67 39.6994 43.1925 39.8435 41.9238C39.4583 41.9295 39.0798 41.8233 38.7537 41.6182C38.4276 41.4131 38.168 41.1178 38.0063 40.7682C38.4323 40.5072 38.918 40.3597 39.4172 40.3397C39.9164 40.3196 40.4123 40.4277 40.8579 40.6537C41.7762 41.0706 42.8212 41.1116 43.7694 40.7682C43.7664 40.7051 42.4167 40.1679 41.8904 39.6496C41.6093 39.3724 41.4758 39.239 41.3575 39.1387C41.2936 39.0846 41.2268 39.0339 41.1574 38.987C41.1114 38.9556 41.0596 38.9216 40.9973 38.8808C40.4316 38.513 39.3066 38.5332 39.2694 38.5342H39.2658C38.9585 38.1446 38.9801 36.8599 38.9977 36.5916C38.9067 36.6281 38.8199 36.6742 38.7387 36.729C38.4674 36.9227 38.2137 37.14 37.9807 37.3784C37.7143 37.6468 37.4707 37.9371 37.2527 38.2462V38.2474V38.246C36.7542 38.9527 36.4005 39.7512 36.2122 40.5953C36.2084 40.6111 35.9328 41.8157 36.0687 42.4405L36.0701 42.4401Z"/><path fill="url(#paint8_radial_1607_66410)" d="M46.4889 39.3784C46.772 39.6565 47.0146 39.9731 47.2093 40.3189C47.2519 40.3512 47.2917 40.3832 47.3256 40.4142C49.0839 42.035 48.1626 44.3263 48.094 44.4883C49.5223 43.3115 50.4352 41.5708 50.1611 39.7738C49.2838 37.5867 47.7958 36.7042 46.5832 34.7852C46.5217 34.6881 46.4603 34.5909 46.4005 34.4882C46.3662 34.4296 46.3388 34.3768 46.315 34.3282C46.2646 34.2306 46.2258 34.1275 46.1994 34.021C46.1994 34.0161 46.1976 34.0113 46.1944 34.0076C46.1911 34.0039 46.1866 34.0016 46.1817 34.001C46.177 33.9997 46.1719 33.9997 46.1671 34.001C46.1661 34.001 46.1645 34.0028 46.1633 34.0032C46.1621 34.0036 46.1595 34.0054 46.1577 34.0062C45.8578 34.1485 44.0786 36.9658 46.4899 39.375L46.4889 39.3784Z"/><path fill="url(#paint9_radial_1607_66410)" d="M47.3253 40.415C47.2915 40.3839 47.2516 40.3519 47.209 40.3197C47.1932 40.3079 47.1776 40.2961 47.1608 40.2843C46.6153 39.9064 45.9489 39.7446 45.2908 39.8302C48.0803 41.225 47.3319 46.0275 43.466 45.8474C43.1218 45.8333 42.7817 45.7677 42.4569 45.6527C42.381 45.6243 42.3051 45.5932 42.2292 45.5595C42.1853 45.5395 42.1415 45.5195 42.0983 45.4971L42.1037 45.5005C42.6428 45.8685 45.3054 46.7675 48.0889 44.4999L48.0933 44.4899C48.1627 44.3278 49.084 42.0366 47.3249 40.4158L47.3253 40.415Z"/><path fill="url(#paint10_radial_1607_66410)" d="M40.2715 42.9563C40.2715 42.9563 40.6295 41.6222 42.8349 41.6222C43.0732 41.6222 43.7554 40.9568 43.7676 40.7639C42.8194 41.1074 41.7744 41.0663 40.8561 40.6495C40.4105 40.4235 39.9146 40.3154 39.4154 40.3354C38.9162 40.3555 38.4305 40.503 38.0045 40.7639C38.1662 41.1136 38.4258 41.4089 38.7519 41.614C39.078 41.8191 39.4565 41.9252 39.8417 41.9195C39.698 43.1876 40.3684 44.665 41.9909 45.4414C42.0271 45.4588 42.0611 45.4776 42.0983 45.4942C41.1512 45.005 40.3692 44.0797 40.2715 42.9569V42.9563Z"/><path fill="url(#paint11_linear_1607_66410)" d="M50.9312 39.3725C50.5942 38.5616 49.9107 37.6862 49.3754 37.4094C49.7571 38.1486 50.022 38.9424 50.1608 39.7627L50.1622 39.7757C49.2853 37.5905 47.7989 36.7081 46.5843 34.789C46.5229 34.692 46.4614 34.5947 46.4016 34.4921C46.3674 34.4335 46.34 34.3806 46.3162 34.332C46.2658 34.2345 46.227 34.1314 46.2005 34.0248C46.2005 34.0199 46.1988 34.0152 46.1955 34.0115C46.1923 34.0078 46.1878 34.0054 46.1829 34.0048C46.1781 34.0035 46.1731 34.0035 46.1683 34.0048C46.1673 34.0048 46.1657 34.0066 46.1645 34.007C46.1633 34.0074 46.1607 34.0092 46.1589 34.01L46.1619 34.0048C44.2138 35.1454 43.5525 37.2566 43.4925 38.3131C43.5829 38.3069 43.6726 38.2993 43.765 38.2993C44.4561 38.3006 45.1346 38.485 45.7314 38.8335C46.3282 39.1821 46.8221 39.6824 47.1628 40.2838C46.6173 39.9059 45.9509 39.7441 45.2928 39.8297C48.0823 41.2245 47.3339 46.027 43.4681 45.8469C43.1238 45.8328 42.7837 45.7671 42.4589 45.6522C42.383 45.6238 42.3071 45.5927 42.2312 45.559C42.1874 45.5389 42.1435 45.5189 42.1003 45.4965L42.1057 45.4999C42.0681 45.4819 42.0305 45.4632 41.9929 45.4437C42.0291 45.4611 42.0631 45.4799 42.1003 45.4965C41.1532 45.0071 40.3712 44.0818 40.2736 42.9592C40.2736 42.9592 40.6315 41.6251 42.8369 41.6251C43.0752 41.6251 43.7574 40.9597 43.7696 40.7668C43.7666 40.7038 42.4169 40.1665 41.8906 39.6482C41.6095 39.3711 41.476 39.2376 41.3577 39.1374C41.2938 39.0832 41.227 39.0326 41.1576 38.9857C40.9809 38.3671 40.9734 37.7125 41.1358 37.0901C40.4204 37.4366 39.7847 37.9279 39.269 38.5328H39.2654C38.9581 38.1432 38.9797 36.8585 38.9973 36.5902C38.9063 36.6267 38.8196 36.6728 38.7383 36.7277C38.467 36.9213 38.2133 37.1386 37.9803 37.377C37.7148 37.6462 37.4723 37.9372 37.2554 38.2469V38.2481V38.2467C36.7568 38.9534 36.4031 39.7518 36.2148 40.5959L36.2044 40.6472C36.1898 40.7154 36.1244 41.062 36.1149 41.1364C36.0551 41.4942 36.0169 41.8552 36.0005 42.2176V42.2576C36.0039 44.1983 36.7348 46.0673 38.0488 47.4955C39.3629 48.9237 41.1646 49.8073 43.0984 49.972C45.0321 50.1367 46.9573 49.5705 48.494 48.3851C50.0306 47.1997 51.0671 45.4813 51.3987 43.5691C51.4117 43.4691 51.4223 43.37 51.4339 43.2689C51.5936 41.9486 51.4207 40.6093 50.9308 39.3729L50.9312 39.3725ZM50.1618 39.7709L50.1632 39.7791L50.1618 39.7709Z"/><path fill="#d9dbe9" d="M68 28H69V56H68z"/><g filter="url(#filter1_d_1607_66410)"><rect width="72" height="28" x="77" y="28" fill="#fff" rx="4" shape-rendering="crispEdges"/><rect width="20" height="20" x="85" y="32" fill="#f1f3f4" rx="2"/><g stroke-linecap="round" stroke-linejoin="round" clip-path="url(#clip1_1607_66410)"><path stroke="#0c0c0d" d="M138.375 38.625L131.625 45.375"/><path stroke="#4d4d4d" d="M138.375 45.375L131.625 38.625"/></g></g><path fill="#5b5b65" fill-rule="evenodd" d="M171 36C170.724 36 170.5 36.2239 170.5 36.5V41.5H165.5C165.224 41.5 165 41.7239 165 42C165 42.2761 165.224 42.5 165.5 42.5H170.5V47.5C170.5 47.7761 170.724 48 171 48C171.276 48 171.5 47.7761 171.5 47.5V42.5H176.5C176.776 42.5 177 42.2761 177 42C177 41.7239 176.776 41.5 176.5 41.5H171.5V36.5C171.5 36.2239 171.276 36 171 36Z" clip-rule="evenodd"/><path fill="#f9f9fb" d="M21 60H619V108H21V60Z"/><path fill="#fff" d="M21 109H619V168H21V109Z"/><path fill="#d9dbe9" d="M21 108H619V109H21z"/><path stroke="#c4c9ce" stroke-linecap="round" stroke-linejoin="round" stroke-width="1.5" d="M52.875 84H39.125M44.75 78.375 39.125 84 44.75 89.625M79.125 84H92.875M87.25 78.375 92.875 84 87.25 89.625"/><g stroke="#5c6977" stroke-linecap="round" stroke-linejoin="round" stroke-width="1.5" clip-path="url(#clip2_1607_66410)"><path d="M130.388 81.7903H133.513V78.6653"/><path d="M130.861 88.8614C129.9 89.8228 128.675 90.4776 127.341 90.7429C126.008 91.0082 124.625 90.872 123.369 90.3517C122.113 89.8313 121.039 88.9501 120.284 87.8195C119.528 86.689 119.125 85.3597 119.125 84C119.125 82.6403 119.528 81.311 120.284 80.1805C121.039 79.0499 122.113 78.1687 123.369 77.6483C124.625 77.128 126.008 76.9918 127.341 77.2571C128.675 77.5224 129.9 78.1772 130.861 79.1386L133.513 81.7903"/></g><rect width="368" height="32" x="156" y="68" fill="#f0f0f4" rx="4"/><path stroke="url(#paint12_linear_1607_66410)" stroke-linecap="round" stroke-linejoin="round" d="M172 78L177.667 80.6667C177.667 80.6667 177.58 84.0842 176.285 86.2004C175.118 88.1081 172 90 172 90C172 90 168.882 88.1081 167.715 86.2004C166.42 84.0842 166.333 80.6667 166.333 80.6667L172 78Z"/><path stroke="#000" stroke-linecap="round" stroke-linejoin="round" d="M189.333 84.667C189.333 84.313 189.474 83.974 189.724 83.724 189.974 83.474 190.313 83.333 190.667 83.333H197.333C197.687 83.333 198.026 83.474 198.276 83.724 198.526 83.974 198.667 84.313 198.667 84.667V88.667C198.667 89.02 198.526 89.359 198.276 89.61 198.026 89.86 197.687 90 197.333 90H190.667C190.313 90 189.974 89.86 189.724 89.61 189.474 89.359 189.333 89.02 189.333 88.667V84.667ZM191.333 83.333V80.667C191.333 79.959 191.614 79.281 192.114 78.781 192.614 78.281 193.293 78 194 78 194.707 78 195.386 78.281 195.886 78.781 196.386 79.281 196.667 79.959 196.667 80.667V83.333"/><path fill="#4a5764" d="M209.432 89V79.018H210.552V89H209.432ZM214.36 89V85.416L215.48 84.996V89H214.36ZM214.36 85.416C214.36 84.7253 214.276 84.198 214.108 83.834C213.949 83.47 213.73 83.2227 213.45 83.092C213.17 82.952 212.852 82.882 212.498 82.882C211.882 82.882 211.401 83.1013 211.056 83.54C210.72 83.9693 210.552 84.5807 210.552 85.374H210.006C210.006 84.6367 210.113 84.002 210.328 83.47C210.542 82.938 210.855 82.532 211.266 82.252C211.676 81.972 212.171 81.832 212.75 81.832C213.59 81.832 214.257 82.0933 214.752 82.616C215.246 83.1387 215.489 83.932 215.48 84.996L214.36 85.416ZM219.91 89.168C219.229 89.168 218.702 88.9907 218.328 88.636C217.955 88.2813 217.768 87.782 217.768 87.138V79.816H218.888V87.026C218.888 87.3807 218.982 87.656 219.168 87.852C219.364 88.0387 219.635 88.132 219.98 88.132C220.092 88.132 220.2 88.118 220.302 88.09C220.414 88.0527 220.559 87.9687 220.736 87.838L221.17 88.748C220.928 88.9067 220.708 89.014 220.512 89.07C220.316 89.1353 220.116 89.168 219.91 89.168ZM216.55 82.994V82H220.988V82.994H216.55ZM225.197 89.168C224.516 89.168 223.988 88.9907 223.615 88.636C223.242 88.2813 223.055 87.782 223.055 87.138V79.816H224.175V87.026C224.175 87.3807 224.268 87.656 224.455 87.852C224.651 88.0387 224.922 88.132 225.267 88.132C225.379 88.132 225.486 88.118 225.589 88.09C225.701 88.0527 225.846 87.9687 226.023 87.838L226.457 88.748C226.214 88.9067 225.995 89.014 225.799 89.07C225.603 89.1353 225.402 89.168 225.197 89.168ZM221.837 82.994V82H226.275V82.994H221.837ZM227.782 91.8V82H228.832L228.902 83.288V91.8H227.782ZM231.268 89.168C230.68 89.168 230.162 89.014 229.714 88.706C229.275 88.398 228.934 87.9687 228.692 87.418C228.449 86.858 228.328 86.2187 228.328 85.5C228.328 84.772 228.449 84.1327 228.692 83.582C228.934 83.0313 229.275 82.602 229.714 82.294C230.162 81.986 230.68 81.832 231.268 81.832C231.893 81.832 232.444 81.986 232.92 82.294C233.396 82.602 233.764 83.0313 234.026 83.582C234.296 84.1327 234.432 84.772 234.432 85.5C234.432 86.2187 234.296 86.858 234.026 87.418C233.764 87.9687 233.396 88.398 232.92 88.706C232.444 89.014 231.893 89.168 231.268 89.168ZM231.016 88.146C231.454 88.146 231.842 88.034 232.178 87.81C232.523 87.586 232.794 87.2733 232.99 86.872C233.195 86.4707 233.298 86.0133 233.298 85.5C233.298 84.9867 233.2 84.5293 233.004 84.128C232.817 83.7267 232.551 83.414 232.206 83.19C231.86 82.966 231.468 82.854 231.03 82.854C230.619 82.854 230.25 82.966 229.924 83.19C229.606 83.414 229.354 83.7267 229.168 84.128C228.99 84.5293 228.902 84.9867 228.902 85.5C228.902 86.0133 228.99 86.4707 229.168 86.872C229.354 87.2733 229.606 87.586 229.924 87.81C230.241 88.034 230.605 88.146 231.016 88.146ZM238.333 89.168C237.82 89.168 237.372 89.0933 236.989 88.944C236.606 88.7853 236.284 88.58 236.023 88.328C235.771 88.076 235.589 87.8007 235.477 87.502L236.457 87.096C236.616 87.404 236.854 87.656 237.171 87.852C237.488 88.048 237.838 88.146 238.221 88.146C238.66 88.146 239.024 88.062 239.313 87.894C239.612 87.7167 239.761 87.474 239.761 87.166C239.761 86.8767 239.649 86.6433 239.425 86.466C239.21 86.2887 238.893 86.144 238.473 86.032L237.801 85.85C237.166 85.682 236.672 85.43 236.317 85.094C235.962 84.7487 235.785 84.3613 235.785 83.932C235.785 83.2693 236 82.756 236.429 82.392C236.868 82.0187 237.516 81.832 238.375 81.832C238.786 81.832 239.159 81.8927 239.495 82.014C239.831 82.1353 240.12 82.308 240.363 82.532C240.606 82.7467 240.783 83.0033 240.895 83.302L239.915 83.736C239.794 83.4187 239.593 83.1947 239.313 83.064C239.033 82.924 238.692 82.854 238.291 82.854C237.862 82.854 237.526 82.9427 237.283 83.12C237.04 83.2973 236.919 83.5493 236.919 83.876C236.919 84.0627 237.017 84.24 237.213 84.408C237.418 84.5667 237.717 84.6973 238.109 84.8L238.809 84.982C239.266 85.094 239.649 85.262 239.957 85.486C240.265 85.7007 240.498 85.948 240.657 86.228C240.816 86.508 240.895 86.8067 240.895 87.124C240.895 87.544 240.783 87.908 240.559 88.216C240.335 88.524 240.032 88.762 239.649 88.93C239.266 89.0887 238.828 89.168 238.333 89.168ZM243.089 83.526C242.874 83.526 242.687 83.4513 242.529 83.302C242.379 83.1527 242.305 82.9707 242.305 82.756C242.305 82.5413 242.379 82.3593 242.529 82.21C242.687 82.0513 242.874 81.972 243.089 81.972C243.294 81.972 243.471 82.0513 243.621 82.21C243.779 82.3593 243.859 82.5413 243.859 82.756C243.859 82.9707 243.779 83.1527 243.621 83.302C243.471 83.4513 243.294 83.526 243.089 83.526ZM243.103 89.028C242.888 89.028 242.706 88.9533 242.557 88.804C242.407 88.6453 242.333 88.4587 242.333 88.244C242.333 88.0293 242.407 87.8473 242.557 87.698C242.706 87.5487 242.888 87.474 243.103 87.474C243.317 87.474 243.499 87.5487 243.649 87.698C243.807 87.8473 243.887 88.0293 243.887 88.244C243.887 88.4587 243.807 88.6453 243.649 88.804C243.499 88.9533 243.317 89.028 243.103 89.028ZM244.976 90.176L248.84 78.542H250.002L246.166 90.176H244.976ZM250.317 90.176L254.181 78.542H255.343L251.507 90.176H250.317Z"/><g clip-path="url(#clip3_1607_66410)"><path stroke="#525156" stroke-linecap="round" stroke-linejoin="round" d="M508.459 77.8063L509.911 81.2663C509.946 81.3502 510.003 81.423 510.077 81.4768C510.15 81.5305 510.237 81.5632 510.328 81.5713L514.044 81.8925C514.142 81.9004 514.236 81.9374 514.314 81.9988C514.392 82.0602 514.449 82.1432 514.48 82.2374C514.51 82.3315 514.512 82.4325 514.485 82.5277C514.458 82.6228 514.403 82.7078 514.328 82.7719L511.508 85.2313C511.44 85.2915 511.389 85.3691 511.361 85.4559C511.333 85.5427 511.329 85.6355 511.349 85.7244L512.194 89.3831C512.217 89.4787 512.21 89.5787 512.176 89.6707C512.142 89.7627 512.082 89.8427 512.003 89.9006C511.923 89.9585 511.829 89.9918 511.731 89.9964C511.633 90.0009 511.536 89.9766 511.451 89.9263L508.258 87.9888C508.18 87.9416 508.091 87.9166 508 87.9166C507.909 87.9166 507.82 87.9416 507.743 87.9888L504.549 89.9263C504.465 89.9766 504.367 90.0009 504.269 89.9964C504.171 89.9918 504.077 89.9585 503.998 89.9006C503.918 89.8427 503.858 89.7627 503.824 89.6707C503.79 89.5787 503.783 89.4787 503.806 89.3831L504.651 85.7244C504.671 85.6355 504.667 85.5427 504.639 85.4559C504.611 85.3691 504.56 85.2915 504.492 85.2313L501.673 82.7719C501.597 82.7078 501.542 82.6228 501.515 82.5277C501.488 82.4325 501.49 82.3315 501.52 82.2374C501.551 82.1432 501.608 82.0602 501.686 81.9988C501.764 81.9374 501.858 81.9004 501.956 81.8925L505.673 81.5713C505.763 81.5632 505.85 81.5305 505.923 81.4768C505.997 81.423 506.054 81.3502 506.089 81.2663L507.541 77.8063C507.58 77.7168 507.644 77.6406 507.726 77.5871C507.807 77.5336 507.903 77.5051 508 77.5051C508.098 77.5051 508.193 77.5336 508.274 77.5871C508.356 77.6406 508.42 77.7168 508.459 77.8063Z"/></g><path fill="#20df9e" d="M555.997 91.9999C555.994 92 555.991 92 555.988 92C555.973 92 555.957 91.9984 555.938 91.9953C555.022 91.8835 550.365 89.7703 549.748 84.0557C549.693 83.7127 549.664 83.3646 549.664 83.0126L549.675 82.5813C549.641 80.2984 549.693 79.0713 549.743 78.4492C549.771 78.0917 550.018 77.8077 550.36 77.6942L554.994 76.1584C555.32 76.0505 555.659 75.9977 555.997 76.0001C556.336 75.9977 556.675 76.0505 557.001 76.1584L561.634 77.6942C561.977 77.8077 562.224 78.0917 562.252 78.4492C562.301 79.0714 562.354 80.2984 562.32 82.5813L562.331 83.0126C562.331 83.3646 562.301 83.7127 562.247 84.0557C561.63 89.7703 556.972 91.8835 556.057 91.9953C556.038 91.9984 556.021 92 556.007 92C556.004 92 556.001 92 555.997 91.9999Z"/><path fill="#20a690" fill-rule="evenodd" d="M555.997 91.2451C556.127 91.2182 556.473 91.1091 556.965 90.8496C557.487 90.5748 558.118 90.1591 558.743 89.5798C559.987 88.4273 561.205 86.6294 561.491 83.9763C561.493 83.9639 561.494 83.9517 561.496 83.9394C561.544 83.6357 561.57 83.3296 561.571 83.0219L561.56 82.6004C561.56 82.5903 561.56 82.5802 561.56 82.5701C561.594 80.3002 561.541 79.0982 561.494 78.5075C561.493 78.4864 561.486 78.4709 561.474 78.4564C561.46 78.4401 561.435 78.4193 561.392 78.4052L556.759 76.8694C556.513 76.788 556.258 76.7483 556.003 76.7501H555.992C555.737 76.7483 555.481 76.788 555.236 76.8694L550.602 78.4052C550.56 78.4193 550.534 78.4401 550.521 78.4564C550.509 78.4709 550.502 78.4864 550.5 78.5075C550.454 79.0982 550.401 80.3002 550.435 82.5701C550.435 82.5802 550.435 82.5903 550.435 82.6004L550.424 83.0219C550.425 83.3296 550.45 83.6357 550.499 83.9394C550.501 83.9517 550.502 83.9639 550.504 83.9763C550.79 86.6294 552.008 88.4273 553.251 89.5798C553.876 90.1591 554.508 90.5748 555.029 90.8496C555.522 91.1091 555.868 91.2182 555.997 91.2451ZM549.664 83.0126L549.675 82.5813C549.641 80.2984 549.693 79.0713 549.743 78.4492C549.771 78.0917 550.018 77.8077 550.36 77.6942L554.994 76.1584C555.32 76.0505 555.659 75.9977 555.997 76.0001C556.336 75.9977 556.675 76.0505 557.001 76.1584L561.634 77.6942C561.977 77.8077 562.224 78.0917 562.252 78.4492C562.301 79.0714 562.354 80.2984 562.32 82.5813L562.331 83.0126C562.331 83.3646 562.301 83.7127 562.247 84.0557C561.63 89.7703 556.972 91.8835 556.057 91.9953C556.038 91.9984 556.021 92 556.007 92C556.004 92 556.001 92 555.997 91.9999C555.994 92 555.991 92 555.988 92C555.973 92 555.957 91.9984 555.938 91.9953C555.022 91.8835 550.365 89.7703 549.748 84.0557C549.693 83.7127 549.664 83.3646 549.664 83.0126Z" clip-rule="evenodd"/><path fill="#000" d="M555.998 91.9999C555.998 89 555.95 79.2533 555.998 76.0001C556.337 75.9977 556.676 76.0505 557.001 76.1584L561.635 77.6942C561.977 77.8077 562.224 78.0917 562.253 78.4492C562.302 79.0714 562.355 80.2984 562.32 82.5813L562.331 83.0126C562.331 83.3646 562.302 83.7127 562.247 84.0557C561.63 89.7703 556.973 91.8835 556.057 91.9953C556.039 91.9984 556.022 92 556.007 92C556.004 92 556.001 92 555.998 91.9999Z" opacity="0.1"/><ellipse cx="555.997" cy="84.25" fill="#18aa79" rx="4.56" ry="4.5"/><ellipse cx="555.99" cy="83.5" fill="#4fffa8" rx="4.56" ry="4.5"/><path fill="#00b7ff" d="M552.188 83.4991C552.187 83.1672 552.232 82.8366 552.321 82.5163C552.467 82.8249 552.679 83.0916 552.824 83.4083C553.011 83.8154 553.512 83.7025 553.733 84.0592C553.929 84.3759 553.72 84.7764 553.867 85.1077C553.973 85.3482 554.225 85.4007 554.399 85.5766C554.576 85.7539 554.572 85.997 554.6 86.2283C554.63 86.5 554.68 86.7694 554.748 87.0345C554.748 87.0365 554.748 87.0386 554.75 87.0406C553.259 86.5272 552.188 85.1337 552.188 83.4991ZM556.012 87.25C555.798 87.2499 555.585 87.2324 555.374 87.1976C555.377 87.1447 555.378 87.0953 555.383 87.0609C555.431 86.7503 555.59 86.4465 555.804 86.214C556.015 85.9847 556.305 85.8296 556.483 85.5693C556.658 85.3154 556.71 84.9735 556.638 84.6767C556.532 84.2384 555.925 84.092 555.597 83.8543C555.409 83.7175 555.242 83.5062 554.995 83.489C554.881 83.4811 554.785 83.5052 554.672 83.4767C554.569 83.4503 554.487 83.3956 554.377 83.4098C554.171 83.4364 554.041 83.6525 553.819 83.6232C553.609 83.5956 553.393 83.3544 553.345 83.158C553.284 82.9056 553.487 82.8238 553.705 82.8013C553.796 82.7919 553.898 82.7818 553.986 82.8146C554.101 82.8564 554.155 82.967 554.259 83.0228C554.453 83.1272 554.492 82.9605 554.462 82.7917C554.418 82.5389 554.366 82.436 554.596 82.2619C554.755 82.142 554.891 82.0552 554.866 81.8397C554.851 81.7132 554.78 81.6559 554.846 81.5299C554.896 81.434 555.033 81.3474 555.123 81.2902C555.353 81.1425 556.111 81.1535 555.802 80.7401C555.711 80.6188 555.543 80.4019 555.384 80.3722C555.184 80.3353 555.096 80.5533 554.957 80.6494C554.814 80.7489 554.534 80.8618 554.391 80.708C554.198 80.5012 554.519 80.4334 554.59 80.2888C554.623 80.2214 554.59 80.1278 554.535 80.0397C554.606 80.01 554.679 79.9825 554.754 79.9571C554.8 79.9908 554.855 80.0111 554.913 80.0157C555.046 80.0243 555.172 79.9536 555.288 80.0426C555.417 80.1403 555.51 80.2638 555.682 80.2943C555.847 80.3238 556.023 80.229 556.064 80.0626C556.089 79.9614 556.064 79.8545 556.04 79.75C556.785 79.7542 557.512 79.973 558.131 80.3792C558.092 80.3644 558.044 80.3662 557.985 80.3929C557.864 80.448 557.693 80.5883 557.679 80.7274C557.663 80.8852 557.9 80.9075 558.013 80.9075C558.182 80.9075 558.354 80.8333 558.299 80.6414C558.275 80.5582 558.243 80.4717 558.191 80.4193C558.316 80.5043 558.436 80.5966 558.55 80.6955C558.548 80.6973 558.546 80.6989 558.544 80.7008C558.43 80.818 558.296 80.9108 558.218 81.0534C558.162 81.1538 558.1 81.2015 557.988 81.2275C557.926 81.2418 557.856 81.247 557.804 81.2877C557.66 81.399 557.742 81.6667 557.878 81.747C558.051 81.8483 558.307 81.8007 558.437 81.6559C558.539 81.5426 558.599 81.3459 558.782 81.3461C558.863 81.3459 558.94 81.3769 558.998 81.4322C559.073 81.5092 559.059 81.5811 559.075 81.6772C559.103 81.848 559.257 81.7554 559.35 81.6692C559.418 81.7881 559.48 81.9105 559.534 82.0359C559.431 82.181 559.35 82.3393 559.103 82.1701C558.955 82.0687 558.864 81.9216 558.678 81.8759C558.515 81.8368 558.349 81.8775 558.189 81.9046C558.006 81.9357 557.79 81.9493 557.652 82.0847C557.518 82.2152 557.448 82.3899 557.306 82.521C557.031 82.7749 556.914 83.0521 557.092 83.4112C557.264 83.7564 557.622 83.9438 558.009 83.9191C558.388 83.8943 558.783 83.6783 558.772 84.2196C558.768 84.4112 558.809 84.5439 558.869 84.7219C558.924 84.886 558.921 85.045 558.933 85.2144C558.946 85.4127 558.977 85.6094 559.028 85.8018C558.671 86.2527 558.214 86.6175 557.691 86.8685C557.168 87.1195 556.594 87.25 556.012 87.25Z"/><path fill="#000" d="M554.476 86.501C556.994 86.501 559.036 84.4863 559.036 82.001C559.036 81.1428 558.792 80.3406 558.37 79.6582C559.681 80.4486 560.556 81.874 560.556 83.501C560.556 85.9863 558.514 88.001 555.996 88.001C554.347 88.001 552.903 87.1375 552.102 85.8438C552.793 86.2607 553.606 86.501 554.476 86.501Z" opacity="0.1"/><path fill="#342b53" fill-rule="evenodd" d="M555.997 87.125C558.026 87.125 559.671 85.502 559.671 83.5C559.671 81.498 558.026 79.875 555.997 79.875C553.969 79.875 552.324 81.498 552.324 83.5C552.324 85.502 553.969 87.125 555.997 87.125ZM555.997 88C558.516 88 560.557 85.9853 560.557 83.5C560.557 81.0147 558.516 79 555.997 79C553.479 79 551.438 81.0147 551.438 83.5C551.438 85.9853 553.479 88 555.997 88Z" clip-rule="evenodd"/><g filter="url(#filter2_d_1607_66410)"><ellipse cx="559.923" cy="81.375" fill="#ff5e5c" rx="1.9" ry="1.875"/><path fill="#fff" fill-rule="evenodd" d="M560.49 81.093H560.633C560.688 81.093 560.733 81.1373 560.733 81.192V82.1509C560.733 82.2057 560.688 82.25 560.633 82.25H559.202C559.146 82.25 559.102 82.2057 559.102 82.1509V81.192C559.102 81.1373 559.146 81.093 559.202 81.093H559.345V80.8148C559.345 80.5029 559.601 80.25 559.917 80.25C560.233 80.25 560.49 80.5029 560.49 80.8148V81.093ZM559.631 81.093H560.204L560.204 80.8148C560.204 80.6589 560.075 80.5324 559.917 80.5324C559.759 80.5324 559.631 80.6588 559.631 80.8148V81.093ZM559.917 81.8633C560.039 81.8633 560.139 81.7653 560.139 81.6445C560.139 81.5237 560.039 81.4258 559.917 81.4258C559.795 81.4258 559.695 81.5237 559.695 81.6445C559.695 81.7653 559.795 81.8633 559.917 81.8633Z" clip-rule="evenodd"/></g><path stroke="#5b5b65" stroke-linecap="round" stroke-linejoin="round" d="M584 80.6667H586C586.177 80.6667 586.346 80.5964 586.471 80.4714C586.596 80.3464 586.667 80.1768 586.667 80V79.3333C586.667 78.9797 586.807 78.6406 587.057 78.3905C587.307 78.1405 587.646 78 588 78C588.354 78 588.693 78.1405 588.943 78.3905C589.193 78.6406 589.333 78.9797 589.333 79.3333V80C589.333 80.1768 589.404 80.3464 589.529 80.4714C589.654 80.5964 589.823 80.6667 590 80.6667H592C592.177 80.6667 592.346 80.7369 592.471 80.8619C592.596 80.987 592.667 81.1565 592.667 81.3333C592.667 85.9786 592.667 84.6881 592.667 89.3333C592.667 89.5101 592.596 89.6797 592.471 89.8047C592.346 89.9298 592.177 90 592 90C587.651 90 588.349 90 584 90C583.823 90 583.654 89.9298 583.529 89.8047C583.404 89.6797 583.333 89.5101 583.333 89.3333V87.3333C583.333 87.1565 583.404 86.987 583.529 86.8619C583.654 86.7369 583.823 86.6667 584 86.6667H584.667C585.02 86.6667 585.359 86.5262 585.609 86.2761C585.86 86.0261 586 85.687 586 85.3333C586 84.9797 585.86 84.6406 585.609 84.3905C585.359 84.1405 585.02 84 584.667 84H584C583.823 84 583.654 83.9298 583.529 83.8047C583.404 83.6797 583.333 83.5101 583.333 83.3333V81.3333C583.333 81.1565 583.404 80.987 583.529 80.8619C583.654 80.7369 583.823 80.6667 584 80.6667Z"/></g><defs><radialGradient id="paint1_radial_1607_66410" cx="0" cy="0" r="1" gradientTransform="translate(49.406 35.805)scale(16.1686)" gradientUnits="userSpaceOnUse"><stop offset="0.129" stop-color="#ffbd4f"/><stop offset="0.186" stop-color="#ffac31"/><stop offset="0.247" stop-color="#ff9d17"/><stop offset="0.283" stop-color="#ff980e"/><stop offset="0.403" stop-color="#ff563b"/><stop offset="0.467" stop-color="#ff3750"/><stop offset="0.71" stop-color="#f5156c"/><stop offset="0.782" stop-color="#eb0878"/><stop offset="0.86" stop-color="#e50080"/></radialGradient><radialGradient id="paint2_radial_1607_66410" cx="0" cy="0" r="1" gradientTransform="translate(43.403 42.408)scale(16.1686)" gradientUnits="userSpaceOnUse"><stop offset="0.3" stop-color="#960e18"/><stop offset="0.351" stop-color="#b11927" stop-opacity="0.74"/><stop offset="0.435" stop-color="#db293d" stop-opacity="0.343"/><stop offset="0.497" stop-color="#f5334b" stop-opacity="0.094"/><stop offset="0.53" stop-color="#ff3750" stop-opacity="0"/></radialGradient><radialGradient id="paint3_radial_1607_66410" cx="0" cy="0" r="1" gradientTransform="translate(45.404 32.203)scale(11.7122)" gradientUnits="userSpaceOnUse"><stop offset="0.132" stop-color="#fff44f"/><stop offset="0.252" stop-color="#ffdc3e"/><stop offset="0.506" stop-color="#ff9d12"/><stop offset="0.526" stop-color="#ff980e"/></radialGradient><radialGradient id="paint4_radial_1607_66410" cx="0" cy="0" r="1" gradientTransform="translate(41.602 46.61)scale(7.69809)" gradientUnits="userSpaceOnUse"><stop offset="0.353" stop-color="#3a8ee6"/><stop offset="0.472" stop-color="#5c79f0"/><stop offset="0.669" stop-color="#9059ff"/><stop offset="1" stop-color="#c139e6"/></radialGradient><radialGradient id="paint5_radial_1607_66410" cx="0" cy="0" r="1" gradientTransform="matrix(3.96786 -.95931 1.12311 4.64538 44.185 41.02)" gradientUnits="userSpaceOnUse"><stop offset="0.206" stop-color="#9059ff" stop-opacity="0"/><stop offset="0.278" stop-color="#8c4ff3" stop-opacity="0.064"/><stop offset="0.747" stop-color="#7716a8" stop-opacity="0.45"/><stop offset="0.975" stop-color="#6e008b" stop-opacity="0.6"/></radialGradient><radialGradient id="paint6_radial_1607_66410" cx="0" cy="0" r="1" gradientTransform="translate(43.203 35.204)scale(5.53894)" gradientUnits="userSpaceOnUse"><stop stop-color="#ffe226"/><stop offset="0.121" stop-color="#ffdb27"/><stop offset="0.295" stop-color="#ffc82a"/><stop offset="0.502" stop-color="#ffa930"/><stop offset="0.732" stop-color="#ff7e37"/><stop offset="0.792" stop-color="#ff7139"/></radialGradient><radialGradient id="paint7_radial_1607_66410" cx="0" cy="0" r="1" gradientTransform="translate(47.605 31.602)scale(23.6325)" gradientUnits="userSpaceOnUse"><stop offset="0.113" stop-color="#fff44f"/><stop offset="0.456" stop-color="#ff980e"/><stop offset="0.622" stop-color="#ff5634"/><stop offset="0.716" stop-color="#ff3647"/><stop offset="0.904" stop-color="#e31587"/></radialGradient><radialGradient id="paint8_radial_1607_66410" cx="0" cy="0" r="1" gradientTransform="rotate(83.976 4.536 41.812)scale(17.3183 11.3658)" gradientUnits="userSpaceOnUse"><stop stop-color="#fff44f"/><stop offset="0.06" stop-color="#ffe847"/><stop offset="0.168" stop-color="#ffc830"/><stop offset="0.304" stop-color="#ff980e"/><stop offset="0.356" stop-color="#ff8b16"/><stop offset="0.455" stop-color="#ff672a"/><stop offset="0.57" stop-color="#ff3647"/><stop offset="0.737" stop-color="#e31587"/></radialGradient><radialGradient id="paint9_radial_1607_66410" cx="0" cy="0" r="1" gradientTransform="translate(43.203 37.205)scale(14.7518)" gradientUnits="userSpaceOnUse"><stop offset="0.137" stop-color="#fff44f"/><stop offset="0.48" stop-color="#ff980e"/><stop offset="0.592" stop-color="#ff5634"/><stop offset="0.655" stop-color="#ff3647"/><stop offset="0.904" stop-color="#e31587"/></radialGradient><radialGradient id="paint10_radial_1607_66410" cx="0" cy="0" r="1" gradientTransform="translate(47.005 38.006)scale(16.1466)" gradientUnits="userSpaceOnUse"><stop offset="0.094" stop-color="#fff44f"/><stop offset="0.231" stop-color="#ffe141"/><stop offset="0.509" stop-color="#ffaf1e"/><stop offset="0.626" stop-color="#ff980e"/></radialGradient><clipPath id="clip0_1607_66410"><path fill="#fff" d="M0 0H640V168H0z"/></clipPath><clipPath id="clip1_1607_66410"><path fill="#fff" d="M0 0H12V12H0z" transform="translate(129 36)"/></clipPath><clipPath id="clip2_1607_66410"><path fill="#fff" d="M0 0H20V20H0z" transform="translate(116 74)"/></clipPath><clipPath id="clip3_1607_66410"><path fill="#fff" d="M0 0H16V16H0z" transform="translate(500 76)"/></clipPath><linearGradient id="paint0_linear_1607_66410" x1="49.9046" x2="37.0291" y1="36.4821" y2="48.9047" gradientUnits="userSpaceOnUse"><stop offset="0.048" stop-color="#fff44f"/><stop offset="0.111" stop-color="#ffe847"/><stop offset="0.225" stop-color="#ffc830"/><stop offset="0.368" stop-color="#ff980e"/><stop offset="0.401" stop-color="#ff8b16"/><stop offset="0.462" stop-color="#ff672a"/><stop offset="0.534" stop-color="#ff3647"/><stop offset="0.705" stop-color="#e31587"/></linearGradient><linearGradient id="paint11_linear_1607_66410" x1="49.7486" x2="38.7948" y1="36.4161" y2="47.3719" gradientUnits="userSpaceOnUse"><stop offset="0.167" stop-color="#fff44f" stop-opacity="0.8"/><stop offset="0.266" stop-color="#fff44f" stop-opacity="0.634"/><stop offset="0.489" stop-color="#fff44f" stop-opacity="0.217"/><stop offset="0.6" stop-color="#fff44f" stop-opacity="0"/></linearGradient><linearGradient id="paint12_linear_1607_66410" x1="178" x2="169" y1="78" y2="87.5" gradientUnits="userSpaceOnUse"><stop stop-color="#8770eb"/><stop offset="1" stop-color="#345ac5"/></linearGradient><filter id="filter0_d_1607_66410" width="652" height="201" x="-6" y="-6" color-interpolation-filters="sRGB" filterUnits="userSpaceOnUse"><feFlood flood-opacity="0" result="BackgroundImageFix"/><feColorMatrix in="SourceAlpha" result="hardAlpha" values="0 0 0 0 0 0 0 0 0 0 0 0 0 0 0 0 0 0 127 0"/><feMorphology in="SourceAlpha" operator="dilate" radius="2" result="effect1_dropShadow_1607_66410"/><feOffset/><feGaussianBlur stdDeviation="12"/><feComposite in2="hardAlpha" operator="out"/><feColorMatrix values="0 0 0 0 0.305882 0 0 0 0 0.294118 0 0 0 0 0.4 0 0 0 0.12 0"/><feBlend in2="BackgroundImageFix" result="effect1_dropShadow_1607_66410"/><feBlend in="SourceGraphic" in2="effect1_dropShadow_1607_66410" result="shape"/></filter><filter id="filter1_d_1607_66410" width="80" height="36" x="73" y="24" color-interpolation-filters="sRGB" filterUnits="userSpaceOnUse"><feFlood flood-opacity="0" result="BackgroundImageFix"/><feColorMatrix in="SourceAlpha" result="hardAlpha" values="0 0 0 0 0 0 0 0 0 0 0 0 0 0 0 0 0 0 127 0"/><feOffset/><feGaussianBlur stdDeviation="2"/><feComposite in2="hardAlpha" operator="out"/><feColorMatrix values="0 0 0 0 0 0 0 0 0 0 0 0 0 0 0 0 0 0 0.25 0"/><feBlend in2="BackgroundImageFix" result="effect1_dropShadow_1607_66410"/><feBlend in="SourceGraphic" in2="effect1_dropShadow_1607_66410" result="shape"/></filter><filter id="filter2_d_1607_66410" width="7.79999" height="7.75" x="556.023" y="77.5" color-interpolation-filters="sRGB" filterUnits="userSpaceOnUse"><feFlood flood-opacity="0" result="BackgroundImageFix"/><feColorMatrix in="SourceAlpha" result="hardAlpha" values="0 0 0 0 0 0 0 0 0 0 0 0 0 0 0 0 0 0 127 0"/><feOffset/><feGaussianBlur stdDeviation="1"/><feComposite in2="hardAlpha" operator="out"/><feColorMatrix values="0 0 0 0 0 0 0 0 0 0 0 0 0 0 0 0 0 0 0.2 0"/><feBlend in2="BackgroundImageFix" result="effect1_dropShadow_1607_66410"/><feBlend in="SourceGraphic" in2="effect1_dropShadow_1607_66410" result="shape"/></filter></defs></svg>