<svg xmlns="http://www.w3.org/2000/svg" width="640" height="168" fill="none"><g clip-path="url(#a)"><g filter="url(#b)"><rect width="600" height="280" x="20" y="20" fill="#DFE1E5" rx="8"/><rect width="599" height="279" x="20.5" y="20.5" stroke="#D9DBE9" rx="7.5"/></g><path fill="#fff" d="M28 36a8 8 0 0 1 8-8h40a8 8 0 0 1 8 8v24H28V36Z"/><rect width="20" height="20" x="36" y="36" fill="#F1F3F4" rx="2"/><g stroke="#4D4D4D" stroke-linecap="round" stroke-linejoin="round" stroke-width="1.5" clip-path="url(#c)"><path d="m73.375 42.625-6.75 6.75M73.375 49.375l-6.75-6.75"/></g><path fill="#fff" fill-rule="evenodd" d="M20 68a8 8 0 0 0 8-8v8h-8Z" clip-rule="evenodd"/><path fill="#fff" d="M28 60h56v8H28z"/><path fill="#fff" fill-rule="evenodd" d="M92 68a8 8 0 0 1-8-8v8h8Z" clip-rule="evenodd"/><path fill="#9C9EA0" fill-rule="evenodd" d="M116.002 40c-.736 0-1.333.597-1.333 1.333v5.333h-5.336a1.333 1.333 0 0 0 0 2.667h5.336v5.334a1.333 1.333 0 0 0 2.666 0v-5.334h5.332a1.333 1.333 0 0 0 0-2.667h-5.332v-5.333c0-.736-.597-1.333-1.333-1.333Z" clip-rule="evenodd"/><path fill="#fff" d="M20 68h600v224a8 8 0 0 1-8 8H28a8 8 0 0 1-8-8V68Z"/><path stroke="#C4C9CE" stroke-linecap="round" stroke-linejoin="round" stroke-width="1.5" d="M52.875 96h-13.75M44.75 90.375 39.125 96l5.625 5.625M79.125 96h13.75M87.25 90.375 92.875 96l-5.625 5.625"/><g stroke="#5C6977" stroke-linecap="round" stroke-linejoin="round" stroke-width="1.5" clip-path="url(#d)"><path d="M130.391 93.79h3.125v-3.125"/><path d="M130.861 100.861a6.88 6.88 0 0 1-10.577-1.041 6.87 6.87 0 0 1 0-7.64 6.873 6.873 0 0 1 10.577-1.041l2.652 2.651"/></g><rect width="368" height="40" x="156" y="76" fill="#F1F3F4" rx="20"/><path fill="#606367" d="M185 93h-2.25v-1.75A2.753 2.753 0 0 0 180 88.5a2.752 2.752 0 0 0-2.75 2.75V93H175a1 1 0 0 0-1 1v7a.997.997 0 0 0 1 1h10a.997.997 0 0 0 1-1v-7a.998.998 0 0 0-1-1Zm-6.75-1.75A1.747 1.747 0 0 1 180 89.5a1.749 1.749 0 0 1 1.75 1.75V93h-3.5v-1.75Z"/><path fill="#4A5764" d="M199.027 101v-9.982h1.12V101h-1.12Zm4.928 0v-3.584l1.12-.42V101h-1.12Zm0-3.584c0-.69-.084-1.218-.252-1.582-.158-.364-.378-.611-.658-.742-.28-.14-.597-.21-.952-.21-.616 0-1.096.22-1.442.658-.336.43-.504 1.04-.504 1.834h-.546c0-.737.108-1.372.322-1.904.215-.532.528-.938.938-1.218.411-.28.906-.42 1.484-.42.84 0 1.508.261 2.002.784.495.523.738 1.316.728 2.38l-1.12.42Zm5.411 3.752c-.681 0-1.209-.177-1.582-.532-.373-.355-.56-.854-.56-1.498v-7.322h1.12v7.21c0 .355.093.63.28.826.196.187.467.28.812.28.112 0 .219-.014.322-.042.112-.037.257-.121.434-.252l.434.91a2.483 2.483 0 0 1-.658.322 1.903 1.903 0 0 1-.602.098Zm-3.36-6.174V94h4.438v.994h-4.438Zm8.551 6.174c-.681 0-1.209-.177-1.582-.532-.373-.355-.56-.854-.56-1.498v-7.322h1.12v7.21c0 .355.093.63.28.826.196.187.467.28.812.28.112 0 .219-.014.322-.042.112-.037.257-.121.434-.252l.434.91a2.483 2.483 0 0 1-.658.322 1.903 1.903 0 0 1-.602.098Zm-3.36-6.174V94h4.438v.994h-4.438Zm5.989 8.806V94h1.05l.07 1.288v8.512h-1.12Zm3.486-2.632c-.588 0-1.106-.154-1.554-.462-.439-.308-.779-.737-1.022-1.288-.243-.56-.364-1.2-.364-1.918 0-.728.121-1.367.364-1.918.243-.55.583-.98 1.022-1.288.448-.308.966-.462 1.554-.462.625 0 1.176.154 1.652.462a3.05 3.05 0 0 1 1.106 1.288c.271.55.406 1.19.406 1.918 0 .719-.135 1.358-.406 1.918-.261.55-.63.98-1.106 1.288-.476.308-1.027.462-1.652.462Zm-.252-1.022c.439 0 .826-.112 1.162-.336.345-.224.616-.537.812-.938.205-.401.308-.859.308-1.372 0-.513-.098-.97-.294-1.372a2.112 2.112 0 0 0-1.974-1.274 1.91 1.91 0 0 0-1.106.336 2.314 2.314 0 0 0-.756.938 3.368 3.368 0 0 0-.266 1.372c0 .513.089.97.266 1.372.187.401.439.714.756.938.317.224.681.336 1.092.336Zm7.317 1.022c-.513 0-.961-.075-1.344-.224a3.085 3.085 0 0 1-.966-.616 2.317 2.317 0 0 1-.546-.826l.98-.406c.159.317.397.574.714.77.318.196.668.294 1.05.294.439 0 .808-.084 1.106-.252.299-.177.448-.425.448-.742a.85.85 0 0 0-.336-.7c-.214-.177-.536-.322-.966-.434l-.672-.182c-.634-.168-1.129-.42-1.484-.756-.354-.345-.532-.733-.532-1.162 0-.663.215-1.176.644-1.54.439-.373 1.088-.56 1.946-.56.411 0 .784.06 1.12.182.336.121.626.294.868.518.243.215.42.471.532.77l-.98.434a1.218 1.218 0 0 0-.602-.686c-.28-.14-.62-.21-1.022-.21-.429 0-.765.093-1.008.28-.242.177-.364.43-.364.756 0 .187.098.364.294.532.206.159.504.29.896.392l.7.182c.458.112.84.28 1.148.504.308.215.542.462.7.742.159.28.238.579.238.896 0 .42-.112.784-.336 1.092a2.179 2.179 0 0 1-.91.714 3.402 3.402 0 0 1-1.316.238Zm4.756-5.642a.79.79 0 0 1-.56-.224.744.744 0 0 1-.224-.546c0-.215.075-.397.224-.546a.766.766 0 0 1 .56-.238c.205 0 .383.08.532.238a.72.72 0 0 1 .238.546.72.72 0 0 1-.238.546.727.727 0 0 1-.532.224Zm.014 5.502a.743.743 0 0 1-.546-.224.792.792 0 0 1-.224-.56c0-.215.075-.397.224-.546a.742.742 0 0 1 .546-.224c.215 0 .397.075.546.224a.72.72 0 0 1 .238.546.765.765 0 0 1-.238.56.743.743 0 0 1-.546.224Zm1.873 1.148 3.864-11.634h1.162l-3.836 11.634h-1.19Zm5.341 0 3.864-11.634h1.162l-3.836 11.634h-1.19Z"/><path fill="#20DF9E" d="M547.997 104h-.009a.324.324 0 0 1-.05-.005c-.916-.112-5.573-2.225-6.19-7.94a6.582 6.582 0 0 1-.084-1.042l.011-.432c-.034-2.283.018-3.51.068-4.132.028-.357.275-.641.617-.755l4.634-1.536c.326-.108.665-.16 1.003-.158.339-.002.678.05 1.004.158l4.633 1.536c.343.114.59.398.618.755.049.622.102 1.85.068 4.132l.011.432c0 .352-.03.7-.084 1.043-.617 5.714-5.275 7.827-6.19 7.939a.337.337 0 0 1-.05.005h-.01Z"/><path fill="#20A690" fill-rule="evenodd" d="M547.997 103.245c.13-.027.476-.136.968-.395a8.455 8.455 0 0 0 1.778-1.27c1.244-1.153 2.462-2.95 2.748-5.604l.005-.037c.048-.303.074-.61.075-.917l-.011-.422v-.03c.034-2.27-.019-3.472-.066-4.063a.082.082 0 0 0-.02-.05.178.178 0 0 0-.082-.052l-4.633-1.536a2.352 2.352 0 0 0-.756-.119h-.011a2.347 2.347 0 0 0-.756.12l-4.634 1.535a.174.174 0 0 0-.081.051.089.089 0 0 0-.021.051c-.046.591-.099 1.793-.065 4.063v.03l-.011.422c.001.308.026.614.075.917l.005.037c.286 2.653 1.504 4.451 2.747 5.604a8.48 8.48 0 0 0 1.778 1.27c.493.259.839.368.968.395Zm-6.333-8.232.011-.432c-.034-2.283.018-3.51.068-4.132.028-.357.275-.641.617-.755l4.634-1.536c.326-.108.665-.16 1.003-.158.339-.002.678.05 1.004.158l4.633 1.536c.343.114.59.398.618.755.049.622.102 1.85.068 4.132l.011.432c0 .352-.03.7-.084 1.043-.617 5.714-5.275 7.827-6.19 7.939a.337.337 0 0 1-.05.005h-.019a.324.324 0 0 1-.05-.005c-.916-.112-5.573-2.225-6.19-7.94a6.582 6.582 0 0 1-.084-1.042Z" clip-rule="evenodd"/><path fill="#000" d="M547.998 104c0-3-.048-12.747 0-16 .339-.002.678.05 1.003.158l4.634 1.536c.342.114.589.398.618.755.049.622.102 1.85.067 4.132l.011.432c0 .352-.029.7-.084 1.043-.617 5.714-5.274 7.827-6.19 7.939a.313.313 0 0 1-.05.005h-.009Z" opacity=".1"/><ellipse cx="547.997" cy="96.25" fill="#18AA79" rx="4.56" ry="4.5"/><ellipse cx="547.99" cy="95.5" fill="#4FFFA8" rx="4.56" ry="4.5"/><path fill="#00B7FF" d="M544.188 95.5a3.63 3.63 0 0 1 .133-.984c.146.309.358.576.503.892.187.407.688.294.909.651.196.317-.013.717.134 1.049.106.24.358.293.532.469.177.177.173.42.201.651a5.814 5.814 0 0 0 .15.813c-1.491-.514-2.562-1.907-2.562-3.542Zm3.824 3.75c-.214 0-.427-.018-.638-.052.003-.053.004-.103.009-.137a1.66 1.66 0 0 1 .421-.847c.211-.23.501-.384.679-.645.175-.254.227-.596.155-.892-.106-.439-.713-.585-1.041-.823-.188-.136-.355-.348-.602-.365-.114-.008-.21.016-.323-.012-.103-.027-.185-.081-.295-.067-.206.026-.336.243-.558.213-.21-.027-.426-.269-.474-.465-.061-.252.142-.334.36-.357a.632.632 0 0 1 .281.014c.115.041.169.152.273.208.194.104.233-.063.203-.231-.044-.253-.096-.356.134-.53.159-.12.295-.207.27-.422-.015-.127-.086-.184-.02-.31.05-.096.187-.183.277-.24.23-.148.988-.137.679-.55-.091-.121-.259-.338-.418-.368-.2-.037-.288.181-.427.277-.143.1-.423.213-.566.059-.193-.207.128-.275.199-.42.033-.067 0-.16-.055-.248a3.36 3.36 0 0 1 .219-.083.31.31 0 0 0 .159.059c.133.008.259-.062.375.027.129.097.222.22.394.251.165.03.341-.065.382-.231.025-.102 0-.209-.024-.313a3.852 3.852 0 0 1 2.091.63c-.039-.016-.087-.014-.146.013-.121.055-.292.195-.306.334-.016.158.221.18.334.18.169 0 .341-.074.286-.266a.532.532 0 0 0-.108-.222c.125.085.245.178.359.276l-.006.006c-.114.117-.248.21-.326.352a.315.315 0 0 1-.23.175c-.062.014-.132.019-.184.06-.144.111-.062.379.074.459a.475.475 0 0 0 .559-.091c.102-.113.162-.31.345-.31.081 0 .158.03.216.086.075.077.061.15.077.245.028.171.182.078.275-.008.068.12.13.242.184.367-.103.145-.184.303-.431.134-.148-.101-.239-.248-.425-.294-.163-.04-.329.001-.489.029-.183.03-.399.044-.537.18-.134.13-.204.305-.346.436-.275.254-.392.531-.214.89.172.345.53.533.917.508.379-.025.774-.24.763.3-.004.192.037.325.097.503.055.164.052.323.064.492.013.199.044.395.095.588-.357.45-.814.816-1.337 1.066a3.881 3.881 0 0 1-1.679.382Z"/><path fill="#000" d="M546.476 98.501c2.518 0 4.56-2.015 4.56-4.5a4.44 4.44 0 0 0-.666-2.343 4.485 4.485 0 0 1 2.186 3.843c0 2.485-2.042 4.5-4.56 4.5a4.57 4.57 0 0 1-3.894-2.157 4.582 4.582 0 0 0 2.374.657Z" opacity=".1"/><path fill="#342B53" fill-rule="evenodd" d="M547.997 99.125c2.029 0 3.674-1.623 3.674-3.625s-1.645-3.625-3.674-3.625c-2.028 0-3.673 1.623-3.673 3.625s1.645 3.625 3.673 3.625Zm0 .875c2.519 0 4.56-2.015 4.56-4.5s-2.041-4.5-4.56-4.5c-2.518 0-4.559 2.015-4.559 4.5s2.041 4.5 4.559 4.5Z" clip-rule="evenodd"/><g filter="url(#e)"><ellipse cx="551.923" cy="93.375" fill="#FF5E5C" rx="1.9" ry="1.875"/><path fill="#fff" fill-rule="evenodd" d="M552.49 93.093h.143a.1.1 0 0 1 .1.099v.959a.1.1 0 0 1-.1.099h-1.431a.099.099 0 0 1-.1-.1v-.958c0-.055.044-.099.1-.099h.143v-.278c0-.312.256-.565.572-.565a.57.57 0 0 1 .573.565v.278Zm-.859 0h.573v-.278a.285.285 0 0 0-.287-.283.284.284 0 0 0-.286.283v.278Zm.286.77a.22.22 0 0 0 .222-.219.22.22 0 0 0-.222-.218.22.22 0 0 0-.222.218c0 .121.1.22.222.22Z" clip-rule="evenodd"/></g><path fill="#A0A0A0" d="M593.669 95.334h-1v-2.667c0-.74-.6-1.333-1.333-1.333h-2.667v-1a1.665 1.665 0 0 0-2.845-1.179 1.669 1.669 0 0 0-.488 1.179v1h-2.667a1.336 1.336 0 0 0-1.333 1.333V95.2h1c1 0 1.8.8 1.8 1.8s-.8 1.8-1.8 1.8h-1v2.534a1.332 1.332 0 0 0 1.333 1.333h2.534v-1c0-1 .8-1.8 1.8-1.8s1.8.8 1.8 1.8v1h2.533a1.33 1.33 0 0 0 1.333-1.333v-2.667h1A1.668 1.668 0 0 0 595.336 97a1.669 1.669 0 0 0-1.667-1.666Z"/></g><defs><clipPath id="a"><path fill="#fff" d="M0 0h640v168H0z"/></clipPath><clipPath id="c"><path fill="#fff" d="M64 40h12v12H64z"/></clipPath><clipPath id="d"><path fill="#fff" d="M116 86h20v20h-20z"/></clipPath><filter id="b" width="652" height="332" x="-6" y="-6" color-interpolation-filters="sRGB" filterUnits="userSpaceOnUse"><feFlood flood-opacity="0" result="BackgroundImageFix"/><feColorMatrix in="SourceAlpha" result="hardAlpha" values="0 0 0 0 0 0 0 0 0 0 0 0 0 0 0 0 0 0 127 0"/><feMorphology in="SourceAlpha" operator="dilate" radius="2" result="effect1_dropShadow_1236_51957"/><feOffset/><feGaussianBlur stdDeviation="12"/><feComposite in2="hardAlpha" operator="out"/><feColorMatrix values="0 0 0 0 0.305882 0 0 0 0 0.294118 0 0 0 0 0.4 0 0 0 0.12 0"/><feBlend in2="BackgroundImageFix" result="effect1_dropShadow_1236_51957"/><feBlend in="SourceGraphic" in2="effect1_dropShadow_1236_51957" result="shape"/></filter><filter id="e" width="7.797" height="7.75" x="548.023" y="89.5" color-interpolation-filters="sRGB" filterUnits="userSpaceOnUse"><feFlood flood-opacity="0" result="BackgroundImageFix"/><feColorMatrix in="SourceAlpha" result="hardAlpha" values="0 0 0 0 0 0 0 0 0 0 0 0 0 0 0 0 0 0 127 0"/><feOffset/><feGaussianBlur stdDeviation="1"/><feComposite in2="hardAlpha" operator="out"/><feColorMatrix values="0 0 0 0 0 0 0 0 0 0 0 0 0 0 0 0 0 0 0.2 0"/><feBlend in2="BackgroundImageFix" result="effect1_dropShadow_1236_51957"/><feBlend in="SourceGraphic" in2="effect1_dropShadow_1236_51957" result="shape"/></filter></defs></svg>